<svg width="193" height="18" viewBox="0 0 193 18" fill="none" xmlns="http://www.w3.org/2000/svg">
<path d="M6.86791 15.5786V13.2785C6.8679 12.6935 7.34484 12.2181 7.93576 12.2142H10.1003C10.6941 12.2142 11.1754 12.6907 11.1754 13.2785V13.2785V15.5857C11.1752 16.0824 11.5757 16.4884 12.0773 16.5H13.5203C14.9588 16.5 16.125 15.3455 16.125 13.9214V13.9214V7.37838C16.1173 6.81812 15.8516 6.29201 15.4035 5.94977L10.4683 2.01398C9.6037 1.32867 8.37465 1.32867 7.51006 2.01398L2.59652 5.95692C2.14669 6.29777 1.88054 6.82475 1.875 7.38552V13.9214C1.875 15.3455 3.04116 16.5 4.47968 16.5H5.92272C6.43677 16.5 6.85348 16.0875 6.85348 15.5786V15.5786" stroke="#44556C" stroke-width="1.5" stroke-linecap="round" stroke-linejoin="round"/>
<g clip-path="url(#clip0_1_3770)">
<path d="M32 5L36 9L32 13" stroke="#8697A8" stroke-linecap="round" stroke-linejoin="round"/>
</g>
<path d="M54.173 13.63C53.367 13.63 52.691 13.513 52.145 13.279C51.6077 13.0363 51.196 12.7243 50.91 12.343C50.6327 11.953 50.4853 11.5457 50.468 11.121C50.468 11.043 50.494 10.978 50.546 10.926C50.598 10.874 50.663 10.848 50.741 10.848H51.898C52.0107 10.848 52.093 10.874 52.145 10.926C52.2057 10.9693 52.2577 11.0257 52.301 11.095C52.353 11.2597 52.4527 11.4243 52.6 11.589C52.7473 11.745 52.9467 11.875 53.198 11.979C53.458 12.083 53.783 12.135 54.173 12.135C54.797 12.135 55.2607 12.031 55.564 11.823C55.876 11.615 56.032 11.3333 56.032 10.978C56.032 10.7267 55.9497 10.5273 55.785 10.38C55.6203 10.224 55.3647 10.0853 55.018 9.964C54.68 9.834 54.2293 9.69967 53.666 9.561C53.016 9.405 52.47 9.21867 52.028 9.002C51.5947 8.77667 51.2653 8.495 51.04 8.157C50.8233 7.819 50.715 7.39 50.715 6.87C50.715 6.36733 50.8493 5.921 51.118 5.531C51.3953 5.141 51.7853 4.83333 52.288 4.608C52.7993 4.38267 53.406 4.27 54.108 4.27C54.6713 4.27 55.1697 4.348 55.603 4.504C56.0363 4.65133 56.396 4.85067 56.682 5.102C56.968 5.34467 57.1847 5.609 57.332 5.895C57.488 6.17233 57.5703 6.44533 57.579 6.714C57.579 6.78333 57.553 6.84833 57.501 6.909C57.4577 6.961 57.3927 6.987 57.306 6.987H56.097C56.0277 6.987 55.9583 6.96967 55.889 6.935C55.8197 6.90033 55.7633 6.83533 55.72 6.74C55.668 6.47133 55.499 6.24167 55.213 6.051C54.927 5.86033 54.5587 5.765 54.108 5.765C53.64 5.765 53.263 5.85167 52.977 6.025C52.691 6.19833 52.548 6.467 52.548 6.831C52.548 7.07367 52.6173 7.27733 52.756 7.442C52.9033 7.598 53.133 7.73667 53.445 7.858C53.7657 7.97933 54.186 8.10933 54.706 8.248C55.4427 8.41267 56.045 8.60333 56.513 8.82C56.981 9.03667 57.3233 9.314 57.54 9.652C57.7567 9.98133 57.865 10.4017 57.865 10.913C57.865 11.485 57.709 11.9747 57.397 12.382C57.0937 12.7807 56.6647 13.0883 56.11 13.305C55.5553 13.5217 54.9097 13.63 54.173 13.63ZM63.0338 13.5C62.5138 13.5 62.0762 13.409 61.7208 13.227C61.3655 13.045 61.1012 12.7763 60.9278 12.421C60.7545 12.057 60.6678 11.6063 60.6678 11.069V8.118H59.6408C59.5542 8.118 59.4805 8.08767 59.4198 8.027C59.3592 7.96633 59.3288 7.89267 59.3288 7.806V7.052C59.3288 6.96533 59.3592 6.89167 59.4198 6.831C59.4805 6.77033 59.5542 6.74 59.6408 6.74H60.6678V4.582C60.6678 4.49533 60.6938 4.42167 60.7458 4.361C60.8065 4.30033 60.8845 4.27 60.9798 4.27H62.0328C62.1195 4.27 62.1932 4.30033 62.2538 4.361C62.3145 4.42167 62.3448 4.49533 62.3448 4.582V6.74H63.9698C64.0565 6.74 64.1302 6.77033 64.1908 6.831C64.2515 6.89167 64.2818 6.96533 64.2818 7.052V7.806C64.2818 7.89267 64.2515 7.96633 64.1908 8.027C64.1302 8.08767 64.0565 8.118 63.9698 8.118H62.3448V10.939C62.3448 11.2943 62.4055 11.5717 62.5268 11.771C62.6568 11.9703 62.8778 12.07 63.1898 12.07H64.0868C64.1735 12.07 64.2472 12.1003 64.3078 12.161C64.3685 12.2217 64.3988 12.2953 64.3988 12.382V13.188C64.3988 13.2747 64.3685 13.3483 64.3078 13.409C64.2472 13.4697 64.1735 13.5 64.0868 13.5H63.0338ZM68.2951 13.63C67.8444 13.63 67.4371 13.5433 67.0731 13.37C66.7091 13.188 66.4187 12.9497 66.2021 12.655C65.9941 12.3517 65.8901 12.0137 65.8901 11.641C65.8901 11.0343 66.1327 10.5533 66.6181 10.198C67.1121 9.834 67.7621 9.59133 68.5681 9.47L70.3491 9.21V8.937C70.3491 8.573 70.2581 8.29133 70.0761 8.092C69.8941 7.89267 69.5821 7.793 69.1401 7.793C68.8281 7.793 68.5724 7.858 68.3731 7.988C68.1824 8.10933 68.0394 8.274 67.9441 8.482C67.8747 8.59467 67.7751 8.651 67.6451 8.651H66.6181C66.5227 8.651 66.4491 8.625 66.3971 8.573C66.3537 8.521 66.3321 8.45167 66.3321 8.365C66.3407 8.22633 66.3971 8.05733 66.5011 7.858C66.6051 7.65867 66.7697 7.468 66.9951 7.286C67.2204 7.09533 67.5107 6.935 67.8661 6.805C68.2214 6.675 68.6504 6.61 69.1531 6.61C69.6991 6.61 70.1584 6.67933 70.5311 6.818C70.9124 6.948 71.2157 7.12567 71.4411 7.351C71.6664 7.57633 71.8311 7.84067 71.9351 8.144C72.0391 8.44733 72.0911 8.768 72.0911 9.106V13.188C72.0911 13.2747 72.0607 13.3483 72.0001 13.409C71.9394 13.4697 71.8657 13.5 71.7791 13.5H70.7261C70.6307 13.5 70.5527 13.4697 70.4921 13.409C70.4401 13.3483 70.4141 13.2747 70.4141 13.188V12.681C70.3014 12.8457 70.1497 13.0017 69.9591 13.149C69.7684 13.2877 69.5344 13.4047 69.2571 13.5C68.9884 13.5867 68.6677 13.63 68.2951 13.63ZM68.7371 12.395C69.0404 12.395 69.3134 12.33 69.5561 12.2C69.8074 12.07 70.0024 11.8707 70.1411 11.602C70.2884 11.3247 70.3621 10.978 70.3621 10.562V10.289L69.0621 10.497C68.5507 10.575 68.1694 10.7007 67.9181 10.874C67.6667 11.0473 67.5411 11.2597 67.5411 11.511C67.5411 11.7017 67.5974 11.8663 67.7101 12.005C67.8314 12.135 67.9831 12.2347 68.1651 12.304C68.3471 12.3647 68.5377 12.395 68.7371 12.395ZM77.5303 13.5C77.0103 13.5 76.5727 13.409 76.2173 13.227C75.862 13.045 75.5977 12.7763 75.4243 12.421C75.251 12.057 75.1643 11.6063 75.1643 11.069V8.118H74.1373C74.0507 8.118 73.977 8.08767 73.9163 8.027C73.8557 7.96633 73.8253 7.89267 73.8253 7.806V7.052C73.8253 6.96533 73.8557 6.89167 73.9163 6.831C73.977 6.77033 74.0507 6.74 74.1373 6.74H75.1643V4.582C75.1643 4.49533 75.1903 4.42167 75.2423 4.361C75.303 4.30033 75.381 4.27 75.4763 4.27H76.5293C76.616 4.27 76.6897 4.30033 76.7503 4.361C76.811 4.42167 76.8413 4.49533 76.8413 4.582V6.74H78.4663C78.553 6.74 78.6267 6.77033 78.6873 6.831C78.748 6.89167 78.7783 6.96533 78.7783 7.052V7.806C78.7783 7.89267 78.748 7.96633 78.6873 8.027C78.6267 8.08767 78.553 8.118 78.4663 8.118H76.8413V10.939C76.8413 11.2943 76.902 11.5717 77.0233 11.771C77.1533 11.9703 77.3743 12.07 77.6863 12.07H78.5833C78.67 12.07 78.7437 12.1003 78.8043 12.161C78.865 12.2217 78.8953 12.2953 78.8953 12.382V13.188C78.8953 13.2747 78.865 13.3483 78.8043 13.409C78.7437 13.4697 78.67 13.5 78.5833 13.5H77.5303ZM81.1406 13.5C81.0539 13.5 80.9803 13.4697 80.9196 13.409C80.8589 13.3483 80.8286 13.2747 80.8286 13.188V7.052C80.8286 6.96533 80.8589 6.89167 80.9196 6.831C80.9803 6.77033 81.0539 6.74 81.1406 6.74H82.2196C82.3149 6.74 82.3886 6.77033 82.4406 6.831C82.5013 6.89167 82.5316 6.96533 82.5316 7.052V13.188C82.5316 13.2747 82.5013 13.3483 82.4406 13.409C82.3886 13.4697 82.3149 13.5 82.2196 13.5H81.1406ZM81.0886 5.622C80.9933 5.622 80.9153 5.596 80.8546 5.544C80.8026 5.48333 80.7766 5.40533 80.7766 5.31V4.374C80.7766 4.28733 80.8026 4.21367 80.8546 4.153C80.9153 4.09233 80.9933 4.062 81.0886 4.062H82.2716C82.3669 4.062 82.4449 4.09233 82.5056 4.153C82.5663 4.21367 82.5966 4.28733 82.5966 4.374V5.31C82.5966 5.40533 82.5663 5.48333 82.5056 5.544C82.4449 5.596 82.3669 5.622 82.2716 5.622H81.0886ZM87.7497 13.63C87.2297 13.63 86.7833 13.5693 86.4107 13.448C86.0467 13.3267 85.7477 13.175 85.5137 12.993C85.2797 12.811 85.1063 12.629 84.9937 12.447C84.881 12.265 84.8203 12.1133 84.8117 11.992C84.803 11.8967 84.829 11.823 84.8897 11.771C84.959 11.7103 85.0327 11.68 85.1107 11.68H86.1377C86.1723 11.68 86.2027 11.6843 86.2287 11.693C86.2547 11.7017 86.2893 11.7277 86.3327 11.771C86.4453 11.8663 86.5623 11.966 86.6837 12.07C86.8137 12.174 86.9653 12.265 87.1387 12.343C87.312 12.4123 87.5287 12.447 87.7887 12.447C88.1267 12.447 88.4083 12.382 88.6337 12.252C88.8677 12.1133 88.9847 11.9183 88.9847 11.667C88.9847 11.485 88.9327 11.3377 88.8287 11.225C88.7333 11.1123 88.5513 11.0127 88.2827 10.926C88.014 10.8307 87.6327 10.731 87.1387 10.627C86.6533 10.5143 86.2503 10.3713 85.9297 10.198C85.609 10.0247 85.3707 9.808 85.2147 9.548C85.0587 9.288 84.9807 8.98467 84.9807 8.638C84.9807 8.3 85.0803 7.97933 85.2797 7.676C85.4877 7.364 85.791 7.10833 86.1897 6.909C86.597 6.70967 87.0997 6.61 87.6977 6.61C88.1657 6.61 88.573 6.67067 88.9197 6.792C89.2663 6.90467 89.5523 7.04767 89.7777 7.221C90.0117 7.39433 90.1893 7.572 90.3107 7.754C90.432 7.92733 90.497 8.079 90.5057 8.209C90.5143 8.30433 90.4883 8.38233 90.4277 8.443C90.367 8.495 90.2977 8.521 90.2197 8.521H89.2577C89.2143 8.521 89.1753 8.51233 89.1407 8.495C89.106 8.47767 89.0713 8.456 89.0367 8.43C88.9413 8.34333 88.8373 8.25233 88.7247 8.157C88.612 8.06167 88.4733 7.97933 88.3087 7.91C88.1527 7.832 87.9447 7.793 87.6847 7.793C87.3553 7.793 87.104 7.86667 86.9307 8.014C86.7573 8.15267 86.6707 8.33033 86.6707 8.547C86.6707 8.69433 86.7097 8.82433 86.7877 8.937C86.8743 9.041 87.0433 9.14067 87.2947 9.236C87.546 9.33133 87.9273 9.431 88.4387 9.535C89.0193 9.639 89.4787 9.795 89.8167 10.003C90.1633 10.2023 90.406 10.4363 90.5447 10.705C90.692 10.965 90.7657 11.2553 90.7657 11.576C90.7657 11.966 90.6487 12.317 90.4147 12.629C90.1893 12.941 89.8513 13.188 89.4007 13.37C88.9587 13.5433 88.4083 13.63 87.7497 13.63ZM95.9172 13.5C95.3972 13.5 94.9596 13.409 94.6042 13.227C94.2489 13.045 93.9846 12.7763 93.8112 12.421C93.6379 12.057 93.5512 11.6063 93.5512 11.069V8.118H92.5242C92.4376 8.118 92.3639 8.08767 92.3032 8.027C92.2426 7.96633 92.2122 7.89267 92.2122 7.806V7.052C92.2122 6.96533 92.2426 6.89167 92.3032 6.831C92.3639 6.77033 92.4376 6.74 92.5242 6.74H93.5512V4.582C93.5512 4.49533 93.5772 4.42167 93.6292 4.361C93.6899 4.30033 93.7679 4.27 93.8632 4.27H94.9162C95.0029 4.27 95.0766 4.30033 95.1372 4.361C95.1979 4.42167 95.2282 4.49533 95.2282 4.582V6.74H96.8532C96.9399 6.74 97.0136 6.77033 97.0742 6.831C97.1349 6.89167 97.1652 6.96533 97.1652 7.052V7.806C97.1652 7.89267 97.1349 7.96633 97.0742 8.027C97.0136 8.08767 96.9399 8.118 96.8532 8.118H95.2282V10.939C95.2282 11.2943 95.2889 11.5717 95.4102 11.771C95.5402 11.9703 95.7612 12.07 96.0732 12.07H96.9702C97.0569 12.07 97.1306 12.1003 97.1912 12.161C97.2519 12.2217 97.2822 12.2953 97.2822 12.382V13.188C97.2822 13.2747 97.2519 13.3483 97.1912 13.409C97.1306 13.4697 97.0569 13.5 96.9702 13.5H95.9172ZM99.5275 13.5C99.4408 13.5 99.3671 13.4697 99.3065 13.409C99.2458 13.3483 99.2155 13.2747 99.2155 13.188V7.052C99.2155 6.96533 99.2458 6.89167 99.3065 6.831C99.3671 6.77033 99.4408 6.74 99.5275 6.74H100.606C100.702 6.74 100.775 6.77033 100.827 6.831C100.888 6.89167 100.918 6.96533 100.918 7.052V13.188C100.918 13.2747 100.888 13.3483 100.827 13.409C100.775 13.4697 100.702 13.5 100.606 13.5H99.5275ZM99.4755 5.622C99.3801 5.622 99.3021 5.596 99.2415 5.544C99.1895 5.48333 99.1635 5.40533 99.1635 5.31V4.374C99.1635 4.28733 99.1895 4.21367 99.2415 4.153C99.3021 4.09233 99.3801 4.062 99.4755 4.062H100.658C100.754 4.062 100.832 4.09233 100.892 4.153C100.953 4.21367 100.983 4.28733 100.983 4.374V5.31C100.983 5.40533 100.953 5.48333 100.892 5.544C100.832 5.596 100.754 5.622 100.658 5.622H99.4755ZM103.748 13.5C103.662 13.5 103.588 13.4697 103.527 13.409C103.467 13.3483 103.436 13.2747 103.436 13.188V4.582C103.436 4.49533 103.467 4.42167 103.527 4.361C103.588 4.30033 103.662 4.27 103.748 4.27H104.801C104.897 4.27 104.97 4.30033 105.022 4.361C105.083 4.42167 105.113 4.49533 105.113 4.582V9.028L107.297 6.961C107.375 6.89167 107.445 6.83967 107.505 6.805C107.566 6.76167 107.657 6.74 107.778 6.74H108.987C109.074 6.74 109.143 6.766 109.195 6.818C109.247 6.87 109.273 6.93933 109.273 7.026C109.273 7.06067 109.265 7.09967 109.247 7.143C109.23 7.18633 109.195 7.22533 109.143 7.26L106.465 9.769L109.468 12.993C109.555 13.0797 109.598 13.1533 109.598 13.214C109.598 13.3007 109.568 13.37 109.507 13.422C109.455 13.474 109.39 13.5 109.312 13.5H108.077C107.947 13.5 107.852 13.4827 107.791 13.448C107.739 13.4047 107.674 13.3483 107.596 13.279L105.113 10.666V13.188C105.113 13.2747 105.083 13.3483 105.022 13.409C104.97 13.4697 104.897 13.5 104.801 13.5H103.748Z" fill="#44556C"/>
<g clip-path="url(#clip1_1_3770)">
<path d="M124 5L128 9L124 13" stroke="#8697A8" stroke-linecap="round" stroke-linejoin="round"/>
</g>
<path d="M144.665 13.5C144.552 13.5 144.461 13.4697 144.392 13.409C144.331 13.3483 144.288 13.2617 144.262 13.149L142.585 4.803C142.576 4.76833 142.572 4.738 142.572 4.712C142.572 4.686 142.572 4.66867 142.572 4.66C142.572 4.59067 142.598 4.53 142.65 4.478C142.702 4.426 142.763 4.4 142.832 4.4H143.508C143.69 4.4 143.794 4.47367 143.82 4.621L145.146 11.329L146.55 6.727C146.576 6.649 146.619 6.57967 146.68 6.519C146.749 6.44967 146.845 6.415 146.966 6.415H147.447C147.577 6.415 147.672 6.44967 147.733 6.519C147.794 6.57967 147.833 6.649 147.85 6.727L149.267 11.329L150.58 4.621C150.606 4.47367 150.714 4.4 150.905 4.4H151.581C151.65 4.4 151.711 4.426 151.763 4.478C151.815 4.53 151.841 4.59067 151.841 4.66C151.841 4.66867 151.837 4.686 151.828 4.712C151.828 4.738 151.828 4.76833 151.828 4.803L150.151 13.149C150.125 13.2617 150.077 13.3483 150.008 13.409C149.947 13.4697 149.861 13.5 149.748 13.5H149.241C149.12 13.5 149.024 13.4697 148.955 13.409C148.886 13.3483 148.838 13.2703 148.812 13.175L147.2 8.222L145.601 13.175C145.566 13.2703 145.514 13.3483 145.445 13.409C145.384 13.4697 145.293 13.5 145.172 13.5H144.665ZM154.451 13.5C154.364 13.5 154.291 13.474 154.23 13.422C154.178 13.3613 154.152 13.2877 154.152 13.201V7.039C154.152 6.95233 154.178 6.883 154.23 6.831C154.291 6.77033 154.364 6.74 154.451 6.74H155.075C155.162 6.74 155.231 6.77033 155.283 6.831C155.335 6.883 155.361 6.95233 155.361 7.039V13.201C155.361 13.2877 155.335 13.3613 155.283 13.422C155.231 13.474 155.162 13.5 155.075 13.5H154.451ZM154.347 5.479C154.26 5.479 154.187 5.453 154.126 5.401C154.074 5.34033 154.048 5.26667 154.048 5.18V4.478C154.048 4.39133 154.074 4.322 154.126 4.27C154.187 4.20933 154.26 4.179 154.347 4.179H155.166C155.253 4.179 155.322 4.20933 155.374 4.27C155.435 4.322 155.465 4.39133 155.465 4.478V5.18C155.465 5.26667 155.435 5.34033 155.374 5.401C155.322 5.453 155.253 5.479 155.166 5.479H154.347ZM158.393 13.5C158.306 13.5 158.232 13.474 158.172 13.422C158.12 13.3613 158.094 13.2877 158.094 13.201V4.569C158.094 4.48233 158.12 4.413 158.172 4.361C158.232 4.30033 158.306 4.27 158.393 4.27H159.004C159.099 4.27 159.173 4.30033 159.225 4.361C159.277 4.413 159.303 4.48233 159.303 4.569V13.201C159.303 13.2877 159.277 13.3613 159.225 13.422C159.173 13.474 159.099 13.5 159.004 13.5H158.393ZM163.907 13.63C163.473 13.63 163.079 13.5433 162.724 13.37C162.368 13.1967 162.082 12.9627 161.866 12.668C161.649 12.3733 161.541 12.0397 161.541 11.667C161.541 11.069 161.783 10.5923 162.269 10.237C162.754 9.88167 163.387 9.64767 164.167 9.535L166.104 9.262V8.885C166.104 8.469 165.982 8.144 165.74 7.91C165.506 7.676 165.12 7.559 164.583 7.559C164.193 7.559 163.876 7.637 163.634 7.793C163.4 7.949 163.235 8.14833 163.14 8.391C163.088 8.521 162.997 8.586 162.867 8.586H162.282C162.186 8.586 162.113 8.56 162.061 8.508C162.017 8.44733 161.996 8.378 161.996 8.3C161.996 8.17 162.043 8.00967 162.139 7.819C162.243 7.62833 162.399 7.442 162.607 7.26C162.815 7.078 163.079 6.92633 163.4 6.805C163.729 6.675 164.128 6.61 164.596 6.61C165.116 6.61 165.553 6.67933 165.909 6.818C166.264 6.948 166.541 7.12567 166.741 7.351C166.949 7.57633 167.096 7.832 167.183 8.118C167.278 8.404 167.326 8.69433 167.326 8.989V13.201C167.326 13.2877 167.295 13.3613 167.235 13.422C167.183 13.474 167.113 13.5 167.027 13.5H166.429C166.333 13.5 166.26 13.474 166.208 13.422C166.156 13.3613 166.13 13.2877 166.13 13.201V12.642C166.017 12.798 165.865 12.954 165.675 13.11C165.484 13.2573 165.246 13.383 164.96 13.487C164.674 13.5823 164.323 13.63 163.907 13.63ZM164.18 12.655C164.535 12.655 164.86 12.5813 165.155 12.434C165.449 12.278 165.679 12.0397 165.844 11.719C166.017 11.3983 166.104 10.9953 166.104 10.51V10.146L164.596 10.367C163.98 10.4537 163.517 10.601 163.205 10.809C162.893 11.0083 162.737 11.264 162.737 11.576C162.737 11.8187 162.806 12.0223 162.945 12.187C163.092 12.343 163.274 12.46 163.491 12.538C163.716 12.616 163.946 12.655 164.18 12.655ZM171.018 15.97C170.949 15.97 170.888 15.944 170.836 15.892C170.784 15.84 170.758 15.7793 170.758 15.71C170.758 15.6753 170.762 15.6407 170.771 15.606C170.78 15.5713 170.797 15.528 170.823 15.476L171.824 13.097L169.341 7.234C169.298 7.13 169.276 7.05633 169.276 7.013C169.276 6.935 169.302 6.87 169.354 6.818C169.406 6.766 169.471 6.74 169.549 6.74H170.186C170.273 6.74 170.342 6.76167 170.394 6.805C170.446 6.84833 170.481 6.90033 170.498 6.961L172.474 11.693L174.502 6.961C174.528 6.90033 174.563 6.84833 174.606 6.805C174.658 6.76167 174.732 6.74 174.827 6.74H175.438C175.516 6.74 175.581 6.766 175.633 6.818C175.685 6.87 175.711 6.93067 175.711 7C175.711 7.04333 175.689 7.12133 175.646 7.234L171.954 15.749C171.928 15.8097 171.889 15.8617 171.837 15.905C171.794 15.9483 171.724 15.97 171.629 15.97H171.018ZM179.419 13.63C178.986 13.63 178.591 13.5433 178.236 13.37C177.881 13.1967 177.595 12.9627 177.378 12.668C177.161 12.3733 177.053 12.0397 177.053 11.667C177.053 11.069 177.296 10.5923 177.781 10.237C178.266 9.88167 178.899 9.64767 179.679 9.535L181.616 9.262V8.885C181.616 8.469 181.495 8.144 181.252 7.91C181.018 7.676 180.632 7.559 180.095 7.559C179.705 7.559 179.389 7.637 179.146 7.793C178.912 7.949 178.747 8.14833 178.652 8.391C178.6 8.521 178.509 8.586 178.379 8.586H177.794C177.699 8.586 177.625 8.56 177.573 8.508C177.53 8.44733 177.508 8.378 177.508 8.3C177.508 8.17 177.556 8.00967 177.651 7.819C177.755 7.62833 177.911 7.442 178.119 7.26C178.327 7.078 178.591 6.92633 178.912 6.805C179.241 6.675 179.64 6.61 180.108 6.61C180.628 6.61 181.066 6.67933 181.421 6.818C181.776 6.948 182.054 7.12567 182.253 7.351C182.461 7.57633 182.608 7.832 182.695 8.118C182.79 8.404 182.838 8.69433 182.838 8.989V13.201C182.838 13.2877 182.808 13.3613 182.747 13.422C182.695 13.474 182.626 13.5 182.539 13.5H181.941C181.846 13.5 181.772 13.474 181.72 13.422C181.668 13.3613 181.642 13.2877 181.642 13.201V12.642C181.529 12.798 181.378 12.954 181.187 13.11C180.996 13.2573 180.758 13.383 180.472 13.487C180.186 13.5823 179.835 13.63 179.419 13.63ZM179.692 12.655C180.047 12.655 180.372 12.5813 180.667 12.434C180.962 12.278 181.191 12.0397 181.356 11.719C181.529 11.3983 181.616 10.9953 181.616 10.51V10.146L180.108 10.367C179.493 10.4537 179.029 10.601 178.717 10.809C178.405 11.0083 178.249 11.264 178.249 11.576C178.249 11.8187 178.318 12.0223 178.457 12.187C178.604 12.343 178.786 12.46 179.003 12.538C179.228 12.616 179.458 12.655 179.692 12.655ZM185.799 13.5C185.712 13.5 185.638 13.474 185.578 13.422C185.526 13.3613 185.5 13.2877 185.5 13.201V4.569C185.5 4.48233 185.526 4.413 185.578 4.361C185.638 4.30033 185.712 4.27 185.799 4.27H186.449C186.544 4.27 186.618 4.30033 186.67 4.361C186.722 4.413 186.748 4.48233 186.748 4.569V7.598C186.982 7.30333 187.268 7.065 187.606 6.883C187.944 6.701 188.373 6.61 188.893 6.61C189.456 6.61 189.933 6.73567 190.323 6.987C190.721 7.22967 191.02 7.572 191.22 8.014C191.428 8.44733 191.532 8.95433 191.532 9.535V13.201C191.532 13.2877 191.506 13.3613 191.454 13.422C191.402 13.474 191.328 13.5 191.233 13.5H190.583C190.496 13.5 190.422 13.474 190.362 13.422C190.31 13.3613 190.284 13.2877 190.284 13.201V9.6C190.284 8.99333 190.136 8.521 189.842 8.183C189.547 7.83633 189.114 7.663 188.542 7.663C188.004 7.663 187.571 7.83633 187.242 8.183C186.912 8.521 186.748 8.99333 186.748 9.6V13.201C186.748 13.2877 186.722 13.3613 186.67 13.422C186.618 13.474 186.544 13.5 186.449 13.5H185.799Z" fill="#8697A8"/>
<defs>
<clipPath id="clip0_1_3770">
<rect width="16" height="16" fill="white" transform="translate(26 1)"/>
</clipPath>
<clipPath id="clip1_1_3770">
<rect width="16" height="16" fill="white" transform="translate(118 1)"/>
</clipPath>
</defs>
</svg>
