<svg width="90" height="90" viewBox="0 0 90 90" fill="none" xmlns="http://www.w3.org/2000/svg">
<path d="M50.2013 12.8438L74.0701 28.755C74.5837 29.0975 75.0048 29.5614 75.296 30.1057C75.5873 30.65 75.7397 31.2577 75.7397 31.875C75.7397 32.4923 75.5873 33.1001 75.296 33.6443C75.0048 34.1886 74.5837 34.6526 74.0701 34.995L50.2013 50.91C48.6611 51.9371 46.8513 52.4852 45.0001 52.4852C43.1488 52.4852 41.339 51.9371 39.7988 50.91L15.9301 34.995C15.4165 34.6526 14.9954 34.1886 14.7041 33.6443C14.4129 33.1001 14.2605 32.4923 14.2605 31.875C14.2605 31.2577 14.4129 30.65 14.7041 30.1057C14.9954 29.5614 15.4165 29.0975 15.9301 28.755L39.7988 12.8438C41.339 11.8167 43.1488 11.2686 45.0001 11.2686C46.8513 11.2686 48.6611 11.8167 50.2013 12.8438V12.8438ZM75.0976 45.72C74.5411 46.6106 73.804 47.3746 72.9338 47.9625L50.2463 63.2775C48.6968 64.3238 46.8698 64.8829 45.0001 64.8829C43.1304 64.8829 41.3034 64.3238 39.7538 63.2775L17.0663 47.9625C15.7085 47.0465 14.6878 45.7111 14.1603 44.1604C13.6328 42.6098 13.6275 40.929 14.1451 39.375L39.7988 56.475C41.239 57.4348 42.9168 57.9771 44.6463 58.042C46.3758 58.1069 48.0895 57.6917 49.5976 56.8425L50.1976 56.475L75.8513 39.375C76.2017 40.4227 76.3158 41.535 76.1855 42.632C76.0552 43.729 75.6836 44.7836 75.0976 45.72V45.72ZM75.0976 57.9075C74.5411 58.7981 73.804 59.5621 72.9338 60.15L50.2463 75.465C48.6968 76.5113 46.8698 77.0704 45.0001 77.0704C43.1304 77.0704 41.3034 76.5113 39.7538 75.465L17.0663 60.15C15.7085 59.234 14.6878 57.8986 14.1603 56.3479C13.6328 54.7973 13.6275 53.1165 14.1451 51.5625L39.7988 68.6625C41.239 69.6223 42.9168 70.1646 44.6463 70.2295C46.3758 70.2944 48.0895 69.8792 49.5976 69.03L50.1976 68.6625L75.8513 51.5625C76.2017 52.6102 76.3158 53.7225 76.1855 54.8195C76.0552 55.9165 75.6836 56.9711 75.0976 57.9075V57.9075Z" fill="url(#paint0_linear_1_1379)"/>
<defs>
<linearGradient id="paint0_linear_1_1379" x1="48.2288" y1="0.449407" x2="42.168" y2="88.9607" gradientUnits="userSpaceOnUse">
<stop stop-color="#2161D5"/>
<stop offset="1" stop-color="#5C92F3"/>
</linearGradient>
</defs>
</svg>
