<svg width="597" height="369" viewBox="0 0 597 369" fill="none" xmlns="http://www.w3.org/2000/svg">
<g filter="url(#filter0_d_1_3961)">
<rect x="20" y="16" width="557" height="329" rx="7" fill="white"/>
</g>
<path d="M44.256 49.14C43.752 49.14 43.2713 49.0793 42.814 48.958C42.366 48.8273 41.9647 48.6313 41.61 48.37C41.2553 48.1087 40.9707 47.7867 40.756 47.404C40.5507 47.0213 40.4433 46.5687 40.434 46.046C40.434 45.962 40.462 45.892 40.518 45.836C40.574 45.7707 40.644 45.738 40.728 45.738H42.058C42.1793 45.738 42.268 45.7707 42.324 45.836C42.3893 45.9013 42.4407 45.99 42.478 46.102C42.5247 46.438 42.632 46.7133 42.8 46.928C42.968 47.1333 43.178 47.2873 43.43 47.39C43.6913 47.4833 43.9807 47.53 44.298 47.53C44.886 47.53 45.334 47.3387 45.642 46.956C45.9593 46.5733 46.118 46.0413 46.118 45.36V40.852H41.372C41.2693 40.852 41.1853 40.8193 41.12 40.754C41.064 40.6887 41.036 40.6093 41.036 40.516V39.536C41.036 39.4427 41.064 39.3633 41.12 39.298C41.1853 39.2327 41.2693 39.2 41.372 39.2H47.77C47.8727 39.2 47.9567 39.2327 48.022 39.298C48.0873 39.3633 48.12 39.4473 48.12 39.55V45.416C48.12 46.1907 47.9567 46.858 47.63 47.418C47.3127 47.978 46.8647 48.4073 46.286 48.706C45.7167 48.9953 45.04 49.14 44.256 49.14ZM52.7178 49.14C52.1485 49.14 51.6538 49.014 51.2338 48.762C50.8231 48.5007 50.5058 48.1367 50.2818 47.67C50.0578 47.194 49.9458 46.634 49.9458 45.99V42.056C49.9458 41.9627 49.9785 41.8833 50.0438 41.818C50.1091 41.7527 50.1885 41.72 50.2818 41.72H51.5138C51.6165 41.72 51.6958 41.7527 51.7518 41.818C51.8171 41.8833 51.8498 41.9627 51.8498 42.056V45.906C51.8498 47.0633 52.3585 47.642 53.3758 47.642C53.8611 47.642 54.2438 47.488 54.5238 47.18C54.8131 46.872 54.9578 46.4473 54.9578 45.906V42.056C54.9578 41.9627 54.9905 41.8833 55.0558 41.818C55.1211 41.7527 55.2005 41.72 55.2938 41.72H56.5258C56.6191 41.72 56.6985 41.7527 56.7638 41.818C56.8291 41.8833 56.8618 41.9627 56.8618 42.056V48.664C56.8618 48.7573 56.8291 48.8367 56.7638 48.902C56.6985 48.9673 56.6191 49 56.5258 49H55.3918C55.2891 49 55.2051 48.9673 55.1398 48.902C55.0838 48.8367 55.0558 48.7573 55.0558 48.664V48.09C54.8038 48.4167 54.4911 48.6733 54.1178 48.86C53.7445 49.0467 53.2778 49.14 52.7178 49.14ZM59.0471 49C58.9538 49 58.8744 48.9673 58.8091 48.902C58.7438 48.8367 58.7111 48.7573 58.7111 48.664V42.056C58.7111 41.9627 58.7438 41.8833 58.8091 41.818C58.8744 41.7527 58.9538 41.72 59.0471 41.72H60.1391C60.2324 41.72 60.3118 41.7527 60.3771 41.818C60.4424 41.8833 60.4751 41.9627 60.4751 42.056V42.532C60.6711 42.2707 60.9324 42.0513 61.2591 41.874C61.5951 41.6873 61.9918 41.5893 62.4491 41.58C63.5131 41.5613 64.2551 41.9767 64.6751 42.826C64.8898 42.4527 65.1978 42.154 65.5991 41.93C66.0098 41.6967 66.4624 41.58 66.9571 41.58C67.4424 41.58 67.8811 41.692 68.2731 41.916C68.6744 42.14 68.9871 42.4807 69.2111 42.938C69.4444 43.386 69.5611 43.9553 69.5611 44.646V48.664C69.5611 48.7573 69.5284 48.8367 69.4631 48.902C69.3978 48.9673 69.3184 49 69.2251 49H68.0771C67.9838 49 67.9044 48.9673 67.8391 48.902C67.7738 48.8367 67.7411 48.7573 67.7411 48.664V44.758C67.7411 44.338 67.6804 44.0067 67.5591 43.764C67.4378 43.512 67.2744 43.3347 67.0691 43.232C66.8638 43.1293 66.6351 43.078 66.3831 43.078C66.1778 43.078 65.9724 43.1293 65.7671 43.232C65.5618 43.3347 65.3938 43.512 65.2631 43.764C65.1324 44.0067 65.0671 44.338 65.0671 44.758V48.664C65.0671 48.7573 65.0344 48.8367 64.9691 48.902C64.9038 48.9673 64.8244 49 64.7311 49H63.5831C63.4804 49 63.3964 48.9673 63.3311 48.902C63.2751 48.8367 63.2471 48.7573 63.2471 48.664V44.758C63.2471 44.338 63.1818 44.0067 63.0511 43.764C62.9204 43.512 62.7524 43.3347 62.5471 43.232C62.3418 43.1293 62.1224 43.078 61.8891 43.078C61.6744 43.078 61.4644 43.134 61.2591 43.246C61.0538 43.3487 60.8858 43.5213 60.7551 43.764C60.6244 44.0067 60.5591 44.338 60.5591 44.758V48.664C60.5591 48.7573 60.5264 48.8367 60.4611 48.902C60.3958 48.9673 60.3164 49 60.2231 49H59.0471ZM71.6939 49C71.6006 49 71.5213 48.9673 71.4559 48.902C71.3906 48.8367 71.3579 48.7573 71.3579 48.664V39.396C71.3579 39.3027 71.3906 39.2233 71.4559 39.158C71.5213 39.0927 71.6006 39.06 71.6939 39.06H72.8559C72.9493 39.06 73.0286 39.0927 73.0939 39.158C73.1593 39.2233 73.1919 39.3027 73.1919 39.396V48.664C73.1919 48.7573 73.1593 48.8367 73.0939 48.902C73.0286 48.9673 72.9493 49 72.8559 49H71.6939ZM77.163 49.14C76.6777 49.14 76.239 49.0467 75.847 48.86C75.455 48.664 75.1423 48.4073 74.909 48.09C74.685 47.7633 74.573 47.3993 74.573 46.998C74.573 46.3447 74.8343 45.8267 75.357 45.444C75.889 45.052 76.589 44.7907 77.457 44.66L79.375 44.38V44.086C79.375 43.694 79.277 43.3907 79.081 43.176C78.885 42.9613 78.549 42.854 78.073 42.854C77.737 42.854 77.4617 42.924 77.247 43.064C77.0417 43.1947 76.8877 43.372 76.785 43.596C76.7103 43.7173 76.603 43.778 76.463 43.778H75.357C75.2543 43.778 75.175 43.75 75.119 43.694C75.0723 43.638 75.049 43.5633 75.049 43.47C75.0583 43.3207 75.119 43.1387 75.231 42.924C75.343 42.7093 75.5203 42.504 75.763 42.308C76.0057 42.1027 76.3183 41.93 76.701 41.79C77.0837 41.65 77.5457 41.58 78.087 41.58C78.675 41.58 79.1697 41.6547 79.571 41.804C79.9817 41.944 80.3083 42.1353 80.551 42.378C80.7937 42.6207 80.971 42.9053 81.083 43.232C81.195 43.5587 81.251 43.904 81.251 44.268V48.664C81.251 48.7573 81.2183 48.8367 81.153 48.902C81.0877 48.9673 81.0083 49 80.915 49H79.781C79.6783 49 79.5943 48.9673 79.529 48.902C79.473 48.8367 79.445 48.7573 79.445 48.664V48.118C79.3237 48.2953 79.1603 48.4633 78.955 48.622C78.7497 48.7713 78.4977 48.8973 78.199 49C77.9097 49.0933 77.5643 49.14 77.163 49.14ZM77.639 47.81C77.9657 47.81 78.2597 47.74 78.521 47.6C78.7917 47.46 79.0017 47.2453 79.151 46.956C79.3097 46.6573 79.389 46.284 79.389 45.836V45.542L77.989 45.766C77.4383 45.85 77.0277 45.9853 76.757 46.172C76.4863 46.3587 76.351 46.5873 76.351 46.858C76.351 47.0633 76.4117 47.2407 76.533 47.39C76.6637 47.53 76.827 47.6373 77.023 47.712C77.219 47.7773 77.4243 47.81 77.639 47.81ZM83.397 49C83.3037 49 83.2244 48.9673 83.159 48.902C83.0937 48.8367 83.061 48.7573 83.061 48.664V39.396C83.061 39.3027 83.0937 39.2233 83.159 39.158C83.2244 39.0927 83.3037 39.06 83.397 39.06H84.643C84.7457 39.06 84.825 39.0927 84.881 39.158C84.9464 39.2233 84.979 39.3027 84.979 39.396V42.588C85.231 42.2893 85.539 42.0467 85.903 41.86C86.267 41.6733 86.715 41.58 87.247 41.58C87.8164 41.58 88.311 41.7107 88.731 41.972C89.1604 42.224 89.4917 42.5833 89.725 43.05C89.9584 43.5167 90.075 44.0767 90.075 44.73V48.664C90.075 48.7573 90.0424 48.8367 89.977 48.902C89.9117 48.9673 89.8324 49 89.739 49H88.479C88.3857 49 88.3064 48.9673 88.241 48.902C88.1757 48.8367 88.143 48.7573 88.143 48.664V44.814C88.143 44.2727 88.0077 43.848 87.737 43.54C87.4757 43.232 87.093 43.078 86.589 43.078C86.1037 43.078 85.7117 43.232 85.413 43.54C85.1237 43.848 84.979 44.2727 84.979 44.814V48.664C84.979 48.7573 84.9464 48.8367 84.881 48.902C84.825 48.9673 84.7457 49 84.643 49H83.397ZM95.555 49C95.4616 49 95.3823 48.9673 95.317 48.902C95.2516 48.8367 95.219 48.7573 95.219 48.664V39.55C95.219 39.4473 95.2516 39.3633 95.317 39.298C95.3823 39.2327 95.4616 39.2 95.555 39.2H99.307C100.035 39.2 100.67 39.3167 101.211 39.55C101.752 39.774 102.172 40.1193 102.471 40.586C102.77 41.0433 102.919 41.6173 102.919 42.308C102.919 43.008 102.77 43.5867 102.471 44.044C102.172 44.492 101.752 44.828 101.211 45.052C100.67 45.276 100.035 45.388 99.307 45.388H97.221V48.664C97.221 48.7573 97.1883 48.8367 97.123 48.902C97.067 48.9673 96.9876 49 96.885 49H95.555ZM97.193 43.834H99.237C99.7783 43.834 100.194 43.708 100.483 43.456C100.772 43.1947 100.917 42.812 100.917 42.308C100.917 41.8413 100.782 41.468 100.511 41.188C100.24 40.8987 99.8156 40.754 99.237 40.754H97.193V43.834ZM107.32 49.14C106.284 49.14 105.462 48.8413 104.856 48.244C104.249 47.6467 103.922 46.7973 103.876 45.696C103.866 45.6027 103.862 45.486 103.862 45.346C103.862 45.1967 103.866 45.08 103.876 44.996C103.913 44.296 104.072 43.6893 104.352 43.176C104.641 42.6627 105.038 42.2707 105.542 42C106.046 41.72 106.638 41.58 107.32 41.58C108.076 41.58 108.71 41.7387 109.224 42.056C109.737 42.364 110.124 42.798 110.386 43.358C110.647 43.9087 110.778 44.548 110.778 45.276V45.57C110.778 45.6633 110.745 45.7427 110.68 45.808C110.614 45.8733 110.53 45.906 110.428 45.906H105.78C105.78 45.906 105.78 45.92 105.78 45.948C105.78 45.976 105.78 45.9993 105.78 46.018C105.789 46.3447 105.85 46.648 105.962 46.928C106.083 47.1987 106.256 47.418 106.48 47.586C106.713 47.754 106.988 47.838 107.306 47.838C107.567 47.838 107.786 47.8007 107.964 47.726C108.141 47.642 108.286 47.5487 108.398 47.446C108.51 47.3433 108.589 47.2593 108.636 47.194C108.72 47.082 108.785 47.0167 108.832 46.998C108.888 46.97 108.967 46.956 109.07 46.956H110.274C110.367 46.956 110.442 46.984 110.498 47.04C110.563 47.096 110.591 47.166 110.582 47.25C110.572 47.3993 110.493 47.5813 110.344 47.796C110.204 48.0107 109.998 48.2207 109.728 48.426C109.457 48.6313 109.116 48.804 108.706 48.944C108.304 49.0747 107.842 49.14 107.32 49.14ZM105.78 44.73H108.874V44.688C108.874 44.324 108.813 44.0067 108.692 43.736C108.57 43.4653 108.393 43.2507 108.16 43.092C107.926 42.9333 107.646 42.854 107.32 42.854C106.993 42.854 106.713 42.9333 106.48 43.092C106.246 43.2507 106.069 43.4653 105.948 43.736C105.836 44.0067 105.78 44.324 105.78 44.688V44.73ZM112.6 49C112.507 49 112.427 48.9673 112.362 48.902C112.297 48.8367 112.264 48.7573 112.264 48.664V42.056C112.264 41.9627 112.297 41.8833 112.362 41.818C112.427 41.7527 112.507 41.72 112.6 41.72H113.748C113.841 41.72 113.921 41.7527 113.986 41.818C114.051 41.8833 114.084 41.9627 114.084 42.056V42.63C114.327 42.3313 114.635 42.084 115.008 41.888C115.391 41.6827 115.862 41.58 116.422 41.58C116.991 41.58 117.486 41.7107 117.906 41.972C118.326 42.224 118.648 42.5833 118.872 43.05C119.105 43.5167 119.222 44.0767 119.222 44.73V48.664C119.222 48.7573 119.189 48.8367 119.124 48.902C119.059 48.9673 118.979 49 118.886 49H117.654C117.561 49 117.481 48.9673 117.416 48.902C117.351 48.8367 117.318 48.7573 117.318 48.664V44.814C117.318 44.2727 117.183 43.848 116.912 43.54C116.651 43.232 116.268 43.078 115.764 43.078C115.279 43.078 114.891 43.232 114.602 43.54C114.313 43.848 114.168 44.2727 114.168 44.814V48.664C114.168 48.7573 114.135 48.8367 114.07 48.902C114.005 48.9673 113.925 49 113.832 49H112.6ZM123.702 49.14C123.217 49.14 122.788 49.0607 122.414 48.902C122.05 48.734 121.747 48.5007 121.504 48.202C121.262 47.9033 121.075 47.5533 120.944 47.152C120.814 46.7413 120.739 46.2933 120.72 45.808C120.711 45.64 120.706 45.4907 120.706 45.36C120.706 45.22 120.711 45.066 120.72 44.898C120.739 44.4313 120.809 43.9973 120.93 43.596C121.061 43.1947 121.248 42.8447 121.49 42.546C121.742 42.238 122.05 42 122.414 41.832C122.788 41.664 123.217 41.58 123.702 41.58C124.206 41.58 124.631 41.6687 124.976 41.846C125.331 42.014 125.625 42.2333 125.858 42.504V39.396C125.858 39.3027 125.886 39.2233 125.942 39.158C126.008 39.0927 126.092 39.06 126.194 39.06H127.384C127.478 39.06 127.557 39.0927 127.622 39.158C127.688 39.2233 127.72 39.3027 127.72 39.396V48.664C127.72 48.7573 127.688 48.8367 127.622 48.902C127.557 48.9673 127.478 49 127.384 49H126.278C126.176 49 126.092 48.9673 126.026 48.902C125.97 48.8367 125.942 48.7573 125.942 48.664V48.146C125.709 48.4353 125.41 48.6733 125.046 48.86C124.692 49.0467 124.244 49.14 123.702 49.14ZM124.22 47.642C124.612 47.642 124.925 47.5533 125.158 47.376C125.392 47.1987 125.564 46.9747 125.676 46.704C125.788 46.424 125.849 46.1393 125.858 45.85C125.868 45.682 125.872 45.5047 125.872 45.318C125.872 45.122 125.868 44.94 125.858 44.772C125.849 44.492 125.784 44.226 125.662 43.974C125.541 43.7127 125.364 43.498 125.13 43.33C124.897 43.162 124.594 43.078 124.22 43.078C123.828 43.078 123.516 43.1667 123.282 43.344C123.058 43.512 122.895 43.736 122.792 44.016C122.69 44.296 122.629 44.604 122.61 44.94C122.601 45.22 122.601 45.5 122.61 45.78C122.629 46.116 122.69 46.424 122.792 46.704C122.895 46.984 123.058 47.2127 123.282 47.39C123.516 47.558 123.828 47.642 124.22 47.642ZM132.288 49.14C131.719 49.14 131.224 49.014 130.804 48.762C130.393 48.5007 130.076 48.1367 129.852 47.67C129.628 47.194 129.516 46.634 129.516 45.99V42.056C129.516 41.9627 129.549 41.8833 129.614 41.818C129.679 41.7527 129.759 41.72 129.852 41.72H131.084C131.187 41.72 131.266 41.7527 131.322 41.818C131.387 41.8833 131.42 41.9627 131.42 42.056V45.906C131.42 47.0633 131.929 47.642 132.946 47.642C133.431 47.642 133.814 47.488 134.094 47.18C134.383 46.872 134.528 46.4473 134.528 45.906V42.056C134.528 41.9627 134.561 41.8833 134.626 41.818C134.691 41.7527 134.771 41.72 134.864 41.72H136.096C136.189 41.72 136.269 41.7527 136.334 41.818C136.399 41.8833 136.432 41.9627 136.432 42.056V48.664C136.432 48.7573 136.399 48.8367 136.334 48.902C136.269 48.9673 136.189 49 136.096 49H134.962C134.859 49 134.775 48.9673 134.71 48.902C134.654 48.8367 134.626 48.7573 134.626 48.664V48.09C134.374 48.4167 134.061 48.6733 133.688 48.86C133.315 49.0467 132.848 49.14 132.288 49.14ZM140.983 49.14C140.498 49.14 140.069 49.0607 139.695 48.902C139.331 48.734 139.028 48.5007 138.785 48.202C138.543 47.9033 138.356 47.5533 138.225 47.152C138.095 46.7413 138.02 46.2933 138.001 45.808C137.992 45.64 137.987 45.4907 137.987 45.36C137.987 45.22 137.992 45.066 138.001 44.898C138.02 44.4313 138.09 43.9973 138.211 43.596C138.342 43.1947 138.529 42.8447 138.771 42.546C139.023 42.238 139.331 42 139.695 41.832C140.069 41.664 140.498 41.58 140.983 41.58C141.487 41.58 141.912 41.6687 142.257 41.846C142.612 42.014 142.906 42.2333 143.139 42.504V39.396C143.139 39.3027 143.167 39.2233 143.223 39.158C143.289 39.0927 143.373 39.06 143.475 39.06H144.665C144.759 39.06 144.838 39.0927 144.903 39.158C144.969 39.2233 145.001 39.3027 145.001 39.396V48.664C145.001 48.7573 144.969 48.8367 144.903 48.902C144.838 48.9673 144.759 49 144.665 49H143.559C143.457 49 143.373 48.9673 143.307 48.902C143.251 48.8367 143.223 48.7573 143.223 48.664V48.146C142.99 48.4353 142.691 48.6733 142.327 48.86C141.973 49.0467 141.525 49.14 140.983 49.14ZM141.501 47.642C141.893 47.642 142.206 47.5533 142.439 47.376C142.673 47.1987 142.845 46.9747 142.957 46.704C143.069 46.424 143.13 46.1393 143.139 45.85C143.149 45.682 143.153 45.5047 143.153 45.318C143.153 45.122 143.149 44.94 143.139 44.772C143.13 44.492 143.065 44.226 142.943 43.974C142.822 43.7127 142.645 43.498 142.411 43.33C142.178 43.162 141.875 43.078 141.501 43.078C141.109 43.078 140.797 43.1667 140.563 43.344C140.339 43.512 140.176 43.736 140.073 44.016C139.971 44.296 139.91 44.604 139.891 44.94C139.882 45.22 139.882 45.5 139.891 45.78C139.91 46.116 139.971 46.424 140.073 46.704C140.176 46.984 140.339 47.2127 140.563 47.39C140.797 47.558 141.109 47.642 141.501 47.642ZM149.569 49.14C149 49.14 148.505 49.014 148.085 48.762C147.675 48.5007 147.357 48.1367 147.133 47.67C146.909 47.194 146.797 46.634 146.797 45.99V42.056C146.797 41.9627 146.83 41.8833 146.895 41.818C146.961 41.7527 147.04 41.72 147.133 41.72H148.365C148.468 41.72 148.547 41.7527 148.603 41.818C148.669 41.8833 148.701 41.9627 148.701 42.056V45.906C148.701 47.0633 149.21 47.642 150.227 47.642C150.713 47.642 151.095 47.488 151.375 47.18C151.665 46.872 151.809 46.4473 151.809 45.906V42.056C151.809 41.9627 151.842 41.8833 151.907 41.818C151.973 41.7527 152.052 41.72 152.145 41.72H153.377C153.471 41.72 153.55 41.7527 153.615 41.818C153.681 41.8833 153.713 41.9627 153.713 42.056V48.664C153.713 48.7573 153.681 48.8367 153.615 48.902C153.55 48.9673 153.471 49 153.377 49H152.243C152.141 49 152.057 48.9673 151.991 48.902C151.935 48.8367 151.907 48.7573 151.907 48.664V48.09C151.655 48.4167 151.343 48.6733 150.969 48.86C150.596 49.0467 150.129 49.14 149.569 49.14ZM155.913 49C155.819 49 155.74 48.9673 155.675 48.902C155.609 48.8367 155.577 48.7573 155.577 48.664V39.396C155.577 39.3027 155.609 39.2233 155.675 39.158C155.74 39.0927 155.819 39.06 155.913 39.06H157.047C157.149 39.06 157.229 39.0927 157.285 39.158C157.35 39.2233 157.383 39.3027 157.383 39.396V44.184L159.735 41.958C159.819 41.8833 159.893 41.8273 159.959 41.79C160.024 41.7433 160.122 41.72 160.253 41.72H161.555C161.648 41.72 161.723 41.748 161.779 41.804C161.835 41.86 161.863 41.9347 161.863 42.028C161.863 42.0653 161.853 42.1073 161.835 42.154C161.816 42.2007 161.779 42.2427 161.723 42.28L158.839 44.982L162.073 48.454C162.166 48.5473 162.213 48.6267 162.213 48.692C162.213 48.7853 162.18 48.86 162.115 48.916C162.059 48.972 161.989 49 161.905 49H160.575C160.435 49 160.332 48.9813 160.267 48.944C160.211 48.8973 160.141 48.8367 160.057 48.762L157.383 45.948V48.664C157.383 48.7573 157.35 48.8367 157.285 48.902C157.229 48.9673 157.149 49 157.047 49H155.913Z" fill="#44556C"/>
<rect x="77.4795" y="92.1792" width="479.021" height="207" stroke="#ECECEC"/>
<path d="M76.9795 160.182H557" stroke="#ECECEC"/>
<path d="M76.9795 126.554H557" stroke="#ECECEC"/>
<path d="M76.9795 193.811H557" stroke="#ECECEC"/>
<path d="M76.9795 227.439H557" stroke="#ECECEC"/>
<path d="M76.9795 261.068H557" stroke="#ECECEC"/>
<path d="M157.707 91.6792L157.707 299.679" stroke="#ECECEC"/>
<path d="M237.192 91.6792L237.192 299.679" stroke="#ECECEC"/>
<path d="M316.059 91.6792L316.059 299.679" stroke="#ECECEC"/>
<path d="M395.544 91.6792L395.544 299.679" stroke="#ECECEC"/>
<path d="M475.03 91.6792L475.03 299.679" stroke="#ECECEC"/>
<path d="M51.1626 263.168V264.105H47.3445V263.168H51.1626ZM55.8129 268.119C55.4549 268.114 55.0969 268.045 54.739 267.915C54.381 267.784 54.0543 267.564 53.7589 267.254C53.4634 266.942 53.2262 266.52 53.0472 265.989C52.8683 265.455 52.7788 264.784 52.7788 263.977C52.7788 263.205 52.8512 262.52 52.9961 261.923C53.141 261.324 53.3512 260.82 53.6268 260.411C53.9023 259.999 54.2347 259.686 54.6239 259.473C55.016 259.26 55.4577 259.153 55.9492 259.153C56.4379 259.153 56.8725 259.251 57.2532 259.447C57.6367 259.641 57.9492 259.911 58.1907 260.257C58.4322 260.604 58.5884 261.003 58.6594 261.455H57.6197C57.5231 261.062 57.3356 260.737 57.0572 260.479C56.7788 260.22 56.4094 260.091 55.9492 260.091C55.2731 260.091 54.7404 260.385 54.3512 260.973C53.9648 261.561 53.7702 262.386 53.7674 263.449H53.8356C53.9947 263.207 54.1836 263.001 54.4023 262.831C54.6239 262.658 54.8683 262.524 55.1353 262.43C55.4023 262.337 55.685 262.29 55.9833 262.29C56.4833 262.29 56.9407 262.415 57.3555 262.665C57.7702 262.912 58.1026 263.254 58.3526 263.692C58.6026 264.126 58.7276 264.625 58.7276 265.188C58.7276 265.727 58.6069 266.222 58.3654 266.67C58.1239 267.116 57.7844 267.472 57.3469 267.736C56.9123 267.997 56.4009 268.125 55.8129 268.119ZM55.8129 267.182C56.1708 267.182 56.4918 267.092 56.7759 266.913C57.0629 266.734 57.2887 266.494 57.4535 266.193C57.6211 265.892 57.7049 265.557 57.7049 265.188C57.7049 264.827 57.6239 264.499 57.462 264.203C57.3029 263.905 57.0827 263.668 56.8015 263.491C56.5231 263.315 56.2049 263.227 55.8469 263.227C55.5771 263.227 55.3256 263.281 55.0927 263.389C54.8597 263.494 54.6552 263.639 54.479 263.824C54.3058 264.009 54.1694 264.22 54.07 264.459C53.9705 264.695 53.9208 264.943 53.9208 265.205C53.9208 265.551 54.0018 265.875 54.1637 266.176C54.3285 266.477 54.5529 266.72 54.837 266.905C55.1239 267.089 55.4492 267.182 55.8129 267.182ZM63.25 268.119C62.608 268.119 62.0611 267.945 61.6094 267.595C61.1577 267.243 60.8125 266.733 60.5739 266.065C60.3352 265.395 60.2159 264.585 60.2159 263.636C60.2159 262.693 60.3352 261.888 60.5739 261.22C60.8153 260.55 61.1619 260.038 61.6136 259.686C62.0682 259.331 62.6136 259.153 63.25 259.153C63.8864 259.153 64.4304 259.331 64.8821 259.686C65.3366 260.038 65.6832 260.55 65.9219 261.22C66.1634 261.888 66.2841 262.693 66.2841 263.636C66.2841 264.585 66.1648 265.395 65.9261 266.065C65.6875 266.733 65.3423 267.243 64.8906 267.595C64.4389 267.945 63.892 268.119 63.25 268.119ZM63.25 267.182C63.8864 267.182 64.3807 266.875 64.733 266.261C65.0852 265.648 65.2614 264.773 65.2614 263.636C65.2614 262.881 65.1804 262.237 65.0185 261.706C64.8594 261.175 64.6293 260.77 64.3281 260.491C64.0298 260.213 63.6705 260.074 63.25 260.074C62.6193 260.074 62.1264 260.385 61.7713 261.007C61.4162 261.626 61.2386 262.503 61.2386 263.636C61.2386 264.392 61.3182 265.034 61.4773 265.562C61.6364 266.091 61.8651 266.493 62.1634 266.768C62.4645 267.044 62.8267 267.182 63.25 267.182Z" fill="#8697A8"/>
<path d="M45.5728 297.168V298.105H41.7546V297.168H45.5728ZM50.3935 293.273V302H49.3366V294.381H49.2855L47.1548 295.795V294.722L49.3366 293.273H50.3935ZM55.75 302.119C55.108 302.119 54.5611 301.945 54.1094 301.595C53.6577 301.243 53.3125 300.733 53.0739 300.065C52.8352 299.395 52.7159 298.585 52.7159 297.636C52.7159 296.693 52.8352 295.888 53.0739 295.22C53.3153 294.55 53.6619 294.038 54.1136 293.686C54.5682 293.331 55.1136 293.153 55.75 293.153C56.3864 293.153 56.9304 293.331 57.3821 293.686C57.8366 294.038 58.1832 294.55 58.4219 295.22C58.6634 295.888 58.7841 296.693 58.7841 297.636C58.7841 298.585 58.6648 299.395 58.4261 300.065C58.1875 300.733 57.8423 301.243 57.3906 301.595C56.9389 301.945 56.392 302.119 55.75 302.119ZM55.75 301.182C56.3864 301.182 56.8807 300.875 57.233 300.261C57.5852 299.648 57.7614 298.773 57.7614 297.636C57.7614 296.881 57.6804 296.237 57.5185 295.706C57.3594 295.175 57.1293 294.77 56.8281 294.491C56.5298 294.213 56.1705 294.074 55.75 294.074C55.1193 294.074 54.6264 294.385 54.2713 295.007C53.9162 295.626 53.7386 296.503 53.7386 297.636C53.7386 298.392 53.8182 299.034 53.9773 299.562C54.1364 300.091 54.3651 300.493 54.6634 300.768C54.9645 301.044 55.3267 301.182 55.75 301.182ZM63.25 302.119C62.608 302.119 62.0611 301.945 61.6094 301.595C61.1577 301.243 60.8125 300.733 60.5739 300.065C60.3352 299.395 60.2159 298.585 60.2159 297.636C60.2159 296.693 60.3352 295.888 60.5739 295.22C60.8153 294.55 61.1619 294.038 61.6136 293.686C62.0682 293.331 62.6136 293.153 63.25 293.153C63.8864 293.153 64.4304 293.331 64.8821 293.686C65.3366 294.038 65.6832 294.55 65.9219 295.22C66.1634 295.888 66.2841 296.693 66.2841 297.636C66.2841 298.585 66.1648 299.395 65.9261 300.065C65.6875 300.733 65.3423 301.243 64.8906 301.595C64.4389 301.945 63.892 302.119 63.25 302.119ZM63.25 301.182C63.8864 301.182 64.3807 300.875 64.733 300.261C65.0852 299.648 65.2614 298.773 65.2614 297.636C65.2614 296.881 65.1804 296.237 65.0185 295.706C64.8594 295.175 64.6293 294.77 64.3281 294.491C64.0298 294.213 63.6705 294.074 63.25 294.074C62.6193 294.074 62.1264 294.385 61.7713 295.007C61.4162 295.626 61.2386 296.503 61.2386 297.636C61.2386 298.392 61.3182 299.034 61.4773 299.562C61.6364 300.091 61.8651 300.493 62.1634 300.768C62.4645 301.044 62.8267 301.182 63.25 301.182Z" fill="#8697A8"/>
<path d="M51.7955 228.168V229.105H47.9773V228.168H51.7955ZM53.1378 233V232.233L56.0185 229.08C56.3565 228.71 56.6349 228.389 56.8537 228.116C57.0724 227.841 57.2344 227.582 57.3395 227.341C57.4474 227.097 57.5014 226.841 57.5014 226.574C57.5014 226.267 57.4276 226.001 57.2798 225.777C57.1349 225.553 56.9361 225.379 56.6832 225.257C56.4304 225.135 56.1463 225.074 55.831 225.074C55.4957 225.074 55.2031 225.143 54.9531 225.283C54.706 225.419 54.5142 225.611 54.3778 225.858C54.2443 226.105 54.1776 226.395 54.1776 226.727H53.1719C53.1719 226.216 53.2898 225.767 53.5256 225.381C53.7614 224.994 54.0824 224.693 54.4886 224.477C54.8977 224.261 55.3565 224.153 55.8651 224.153C56.3764 224.153 56.8295 224.261 57.2244 224.477C57.6193 224.693 57.929 224.984 58.1534 225.351C58.3778 225.717 58.4901 226.125 58.4901 226.574C58.4901 226.895 58.4318 227.209 58.3153 227.516C58.2017 227.82 58.0028 228.159 57.7188 228.534C57.4375 228.906 57.0469 229.361 56.5469 229.898L54.5866 231.994V232.062H58.6435V233H53.1378ZM63.25 233.119C62.608 233.119 62.0611 232.945 61.6094 232.595C61.1577 232.243 60.8125 231.733 60.5739 231.065C60.3352 230.395 60.2159 229.585 60.2159 228.636C60.2159 227.693 60.3352 226.888 60.5739 226.22C60.8153 225.55 61.1619 225.038 61.6136 224.686C62.0682 224.331 62.6136 224.153 63.25 224.153C63.8864 224.153 64.4304 224.331 64.8821 224.686C65.3366 225.038 65.6832 225.55 65.9219 226.22C66.1634 226.888 66.2841 227.693 66.2841 228.636C66.2841 229.585 66.1648 230.395 65.9261 231.065C65.6875 231.733 65.3423 232.243 64.8906 232.595C64.4389 232.945 63.892 233.119 63.25 233.119ZM63.25 232.182C63.8864 232.182 64.3807 231.875 64.733 231.261C65.0852 230.648 65.2614 229.773 65.2614 228.636C65.2614 227.881 65.1804 227.237 65.0185 226.706C64.8594 226.175 64.6293 225.77 64.3281 225.491C64.0298 225.213 63.6705 225.074 63.25 225.074C62.6193 225.074 62.1264 225.385 61.7713 226.007C61.4162 226.626 61.2386 227.503 61.2386 228.636C61.2386 229.392 61.3182 230.034 61.4773 230.562C61.6364 231.091 61.8651 231.493 62.1634 231.768C62.4645 232.044 62.8267 232.182 63.25 232.182Z" fill="#8697A8"/>
<path d="M63.25 196.119C62.608 196.119 62.0611 195.945 61.6094 195.595C61.1577 195.243 60.8125 194.733 60.5739 194.065C60.3352 193.395 60.2159 192.585 60.2159 191.636C60.2159 190.693 60.3352 189.888 60.5739 189.22C60.8153 188.55 61.1619 188.038 61.6136 187.686C62.0682 187.331 62.6136 187.153 63.25 187.153C63.8864 187.153 64.4304 187.331 64.8821 187.686C65.3366 188.038 65.6832 188.55 65.9219 189.22C66.1634 189.888 66.2841 190.693 66.2841 191.636C66.2841 192.585 66.1648 193.395 65.9261 194.065C65.6875 194.733 65.3423 195.243 64.8906 195.595C64.4389 195.945 63.892 196.119 63.25 196.119ZM63.25 195.182C63.8864 195.182 64.3807 194.875 64.733 194.261C65.0852 193.648 65.2614 192.773 65.2614 191.636C65.2614 190.881 65.1804 190.237 65.0185 189.706C64.8594 189.175 64.6293 188.77 64.3281 188.491C64.0298 188.213 63.6705 188.074 63.25 188.074C62.6193 188.074 62.1264 188.385 61.7713 189.007C61.4162 189.626 61.2386 190.503 61.2386 191.636C61.2386 192.392 61.3182 193.034 61.4773 193.562C61.6364 194.091 61.8651 194.493 62.1634 194.768C62.4645 195.044 62.8267 195.182 63.25 195.182Z" fill="#8697A8"/>
<path d="M53.1378 164V163.233L56.0185 160.08C56.3565 159.71 56.6349 159.389 56.8537 159.116C57.0724 158.841 57.2344 158.582 57.3395 158.341C57.4474 158.097 57.5014 157.841 57.5014 157.574C57.5014 157.267 57.4276 157.001 57.2798 156.777C57.1349 156.553 56.9361 156.379 56.6832 156.257C56.4304 156.135 56.1463 156.074 55.831 156.074C55.4957 156.074 55.2031 156.143 54.9531 156.283C54.706 156.419 54.5142 156.611 54.3778 156.858C54.2443 157.105 54.1776 157.395 54.1776 157.727H53.1719C53.1719 157.216 53.2898 156.767 53.5256 156.381C53.7614 155.994 54.0824 155.693 54.4886 155.477C54.8977 155.261 55.3565 155.153 55.8651 155.153C56.3764 155.153 56.8295 155.261 57.2244 155.477C57.6193 155.693 57.929 155.984 58.1534 156.351C58.3778 156.717 58.4901 157.125 58.4901 157.574C58.4901 157.895 58.4318 158.209 58.3153 158.516C58.2017 158.82 58.0028 159.159 57.7188 159.534C57.4375 159.906 57.0469 160.361 56.5469 160.898L54.5866 162.994V163.062H58.6435V164H53.1378ZM63.25 164.119C62.608 164.119 62.0611 163.945 61.6094 163.595C61.1577 163.243 60.8125 162.733 60.5739 162.065C60.3352 161.395 60.2159 160.585 60.2159 159.636C60.2159 158.693 60.3352 157.888 60.5739 157.22C60.8153 156.55 61.1619 156.038 61.6136 155.686C62.0682 155.331 62.6136 155.153 63.25 155.153C63.8864 155.153 64.4304 155.331 64.8821 155.686C65.3366 156.038 65.6832 156.55 65.9219 157.22C66.1634 157.888 66.2841 158.693 66.2841 159.636C66.2841 160.585 66.1648 161.395 65.9261 162.065C65.6875 162.733 65.3423 163.243 64.8906 163.595C64.4389 163.945 63.892 164.119 63.25 164.119ZM63.25 163.182C63.8864 163.182 64.3807 162.875 64.733 162.261C65.0852 161.648 65.2614 160.773 65.2614 159.636C65.2614 158.881 65.1804 158.237 65.0185 157.706C64.8594 157.175 64.6293 156.77 64.3281 156.491C64.0298 156.213 63.6705 156.074 63.25 156.074C62.6193 156.074 62.1264 156.385 61.7713 157.007C61.4162 157.626 61.2386 158.503 61.2386 159.636C61.2386 160.392 61.3182 161.034 61.4773 161.562C61.6364 162.091 61.8651 162.493 62.1634 162.768C62.4645 163.044 62.8267 163.182 63.25 163.182Z" fill="#8697A8"/>
<path d="M55.8129 131.119C55.4549 131.114 55.0969 131.045 54.739 130.915C54.381 130.784 54.0543 130.564 53.7589 130.254C53.4634 129.942 53.2262 129.52 53.0472 128.989C52.8683 128.455 52.7788 127.784 52.7788 126.977C52.7788 126.205 52.8512 125.52 52.9961 124.923C53.141 124.324 53.3512 123.82 53.6268 123.411C53.9023 122.999 54.2347 122.686 54.6239 122.473C55.016 122.26 55.4577 122.153 55.9492 122.153C56.4379 122.153 56.8725 122.251 57.2532 122.447C57.6367 122.641 57.9492 122.911 58.1907 123.257C58.4322 123.604 58.5884 124.003 58.6594 124.455H57.6197C57.5231 124.062 57.3356 123.737 57.0572 123.479C56.7788 123.22 56.4094 123.091 55.9492 123.091C55.2731 123.091 54.7404 123.385 54.3512 123.973C53.9648 124.561 53.7702 125.386 53.7674 126.449H53.8356C53.9947 126.207 54.1836 126.001 54.4023 125.831C54.6239 125.658 54.8683 125.524 55.1353 125.43C55.4023 125.337 55.685 125.29 55.9833 125.29C56.4833 125.29 56.9407 125.415 57.3555 125.665C57.7702 125.912 58.1026 126.254 58.3526 126.692C58.6026 127.126 58.7276 127.625 58.7276 128.188C58.7276 128.727 58.6069 129.222 58.3654 129.67C58.1239 130.116 57.7844 130.472 57.3469 130.736C56.9123 130.997 56.4009 131.125 55.8129 131.119ZM55.8129 130.182C56.1708 130.182 56.4918 130.092 56.7759 129.913C57.0629 129.734 57.2887 129.494 57.4535 129.193C57.6211 128.892 57.7049 128.557 57.7049 128.188C57.7049 127.827 57.6239 127.499 57.462 127.203C57.3029 126.905 57.0827 126.668 56.8015 126.491C56.5231 126.315 56.2049 126.227 55.8469 126.227C55.5771 126.227 55.3256 126.281 55.0927 126.389C54.8597 126.494 54.6552 126.639 54.479 126.824C54.3058 127.009 54.1694 127.22 54.07 127.459C53.9705 127.695 53.9208 127.943 53.9208 128.205C53.9208 128.551 54.0018 128.875 54.1637 129.176C54.3285 129.477 54.5529 129.72 54.837 129.905C55.1239 130.089 55.4492 130.182 55.8129 130.182ZM63.25 131.119C62.608 131.119 62.0611 130.945 61.6094 130.595C61.1577 130.243 60.8125 129.733 60.5739 129.065C60.3352 128.395 60.2159 127.585 60.2159 126.636C60.2159 125.693 60.3352 124.888 60.5739 124.22C60.8153 123.55 61.1619 123.038 61.6136 122.686C62.0682 122.331 62.6136 122.153 63.25 122.153C63.8864 122.153 64.4304 122.331 64.8821 122.686C65.3366 123.038 65.6832 123.55 65.9219 124.22C66.1634 124.888 66.2841 125.693 66.2841 126.636C66.2841 127.585 66.1648 128.395 65.9261 129.065C65.6875 129.733 65.3423 130.243 64.8906 130.595C64.4389 130.945 63.892 131.119 63.25 131.119ZM63.25 130.182C63.8864 130.182 64.3807 129.875 64.733 129.261C65.0852 128.648 65.2614 127.773 65.2614 126.636C65.2614 125.881 65.1804 125.237 65.0185 124.706C64.8594 124.175 64.6293 123.77 64.3281 123.491C64.0298 123.213 63.6705 123.074 63.25 123.074C62.6193 123.074 62.1264 123.385 61.7713 124.007C61.4162 124.626 61.2386 125.503 61.2386 126.636C61.2386 127.392 61.3182 128.034 61.4773 128.562C61.6364 129.091 61.8651 129.493 62.1634 129.768C62.4645 130.044 62.8267 130.182 63.25 130.182Z" fill="#8697A8"/>
<path d="M50.3935 89.2727V98H49.3366V90.3807H49.2855L47.1548 91.7955V90.7216L49.3366 89.2727H50.3935ZM55.75 98.1193C55.108 98.1193 54.5611 97.9446 54.1094 97.5952C53.6577 97.2429 53.3125 96.733 53.0739 96.0653C52.8352 95.3949 52.7159 94.5852 52.7159 93.6364C52.7159 92.6932 52.8352 91.8878 53.0739 91.2202C53.3153 90.5497 53.6619 90.0384 54.1136 89.6861C54.5682 89.331 55.1136 89.1534 55.75 89.1534C56.3864 89.1534 56.9304 89.331 57.3821 89.6861C57.8366 90.0384 58.1832 90.5497 58.4219 91.2202C58.6634 91.8878 58.7841 92.6932 58.7841 93.6364C58.7841 94.5852 58.6648 95.3949 58.4261 96.0653C58.1875 96.733 57.8423 97.2429 57.3906 97.5952C56.9389 97.9446 56.392 98.1193 55.75 98.1193ZM55.75 97.1818C56.3864 97.1818 56.8807 96.875 57.233 96.2614C57.5852 95.6477 57.7614 94.7727 57.7614 93.6364C57.7614 92.8807 57.6804 92.2372 57.5185 91.706C57.3594 91.1747 57.1293 90.7699 56.8281 90.4915C56.5298 90.2131 56.1705 90.0739 55.75 90.0739C55.1193 90.0739 54.6264 90.3849 54.2713 91.0071C53.9162 91.6264 53.7386 92.5028 53.7386 93.6364C53.7386 94.392 53.8182 95.0341 53.9773 95.5625C54.1364 96.0909 54.3651 96.4929 54.6634 96.7685C54.9645 97.044 55.3267 97.1818 55.75 97.1818ZM63.25 98.1193C62.608 98.1193 62.0611 97.9446 61.6094 97.5952C61.1577 97.2429 60.8125 96.733 60.5739 96.0653C60.3352 95.3949 60.2159 94.5852 60.2159 93.6364C60.2159 92.6932 60.3352 91.8878 60.5739 91.2202C60.8153 90.5497 61.1619 90.0384 61.6136 89.6861C62.0682 89.331 62.6136 89.1534 63.25 89.1534C63.8864 89.1534 64.4304 89.331 64.8821 89.6861C65.3366 90.0384 65.6832 90.5497 65.9219 91.2202C66.1634 91.8878 66.2841 92.6932 66.2841 93.6364C66.2841 94.5852 66.1648 95.3949 65.9261 96.0653C65.6875 96.733 65.3423 97.2429 64.8906 97.5952C64.4389 97.9446 63.892 98.1193 63.25 98.1193ZM63.25 97.1818C63.8864 97.1818 64.3807 96.875 64.733 96.2614C65.0852 95.6477 65.2614 94.7727 65.2614 93.6364C65.2614 92.8807 65.1804 92.2372 65.0185 91.706C64.8594 91.1747 64.6293 90.7699 64.3281 90.4915C64.0298 90.2131 63.6705 90.0739 63.25 90.0739C62.6193 90.0739 62.1264 90.3849 61.7713 91.0071C61.4162 91.6264 61.2386 92.5028 61.2386 93.6364C61.2386 94.392 61.3182 95.0341 61.4773 95.5625C61.6364 96.0909 61.8651 96.4929 62.1634 96.7685C62.4645 97.044 62.8267 97.1818 63.25 97.1818Z" fill="#8697A8"/>
<ellipse cx="81.888" cy="282" rx="4.88796" ry="5" fill="#2161D5"/>
<ellipse cx="236.888" cy="287" rx="4.88796" ry="5" fill="#2161D5"/>
<ellipse cx="474.888" cy="160" rx="4.88796" ry="5" fill="#2161D5"/>
<ellipse cx="556.888" cy="295" rx="4.88796" ry="5" fill="#2161D5"/>
<ellipse cx="395.888" cy="205" rx="4.88796" ry="5" fill="#2161D5"/>
<ellipse cx="157.888" cy="245" rx="4.88796" ry="5" fill="#2161D5"/>
<ellipse cx="315.888" cy="126" rx="4.88796" ry="5" fill="#2161D5"/>
<path d="M78 287.239C78 287.239 125.521 245.943 157.323 245.683C189.628 245.42 206.238 300.925 237.968 287.239C278.835 269.611 275.733 135.151 317.161 126.443C351.035 119.322 362.879 200.352 396.805 206.075C428.798 211.472 445.112 145.151 476.45 160.644C509.451 176.959 557 300 557 300" stroke="#2161D5" stroke-width="2"/>
<defs>
<filter id="filter0_d_1_3961" x="0" y="0" width="597" height="369" filterUnits="userSpaceOnUse" color-interpolation-filters="sRGB">
<feFlood flood-opacity="0" result="BackgroundImageFix"/>
<feColorMatrix in="SourceAlpha" type="matrix" values="0 0 0 0 0 0 0 0 0 0 0 0 0 0 0 0 0 0 127 0" result="hardAlpha"/>
<feOffset dy="4"/>
<feGaussianBlur stdDeviation="10"/>
<feComposite in2="hardAlpha" operator="out"/>
<feColorMatrix type="matrix" values="0 0 0 0 0.298039 0 0 0 0 0.341176 0 0 0 0 0.490196 0 0 0 0.02 0"/>
<feBlend mode="normal" in2="BackgroundImageFix" result="effect1_dropShadow_1_3961"/>
<feBlend mode="normal" in="SourceGraphic" in2="effect1_dropShadow_1_3961" result="shape"/>
</filter>
</defs>
</svg>
