<svg width="617" height="389" viewBox="0 0 617 389" fill="none" xmlns="http://www.w3.org/2000/svg">
<g filter="url(#filter0_d_1_3991)">
<rect x="30" y="30" width="557" height="329" rx="7" fill="white" shape-rendering="crispEdges"/>
<path d="M51.428 63C51.3347 63 51.2553 62.9673 51.19 62.902C51.1247 62.8367 51.092 62.7573 51.092 62.664V53.55C51.092 53.4473 51.1247 53.3633 51.19 53.298C51.2553 53.2327 51.3347 53.2 51.428 53.2H55.18C55.908 53.2 56.5427 53.3167 57.084 53.55C57.6253 53.774 58.0453 54.1193 58.344 54.586C58.6427 55.0433 58.792 55.6173 58.792 56.308C58.792 57.008 58.6427 57.5867 58.344 58.044C58.0453 58.492 57.6253 58.828 57.084 59.052C56.5427 59.276 55.908 59.388 55.18 59.388H53.094V62.664C53.094 62.7573 53.0613 62.8367 52.996 62.902C52.94 62.9673 52.8607 63 52.758 63H51.428ZM53.066 57.834H55.11C55.6513 57.834 56.0667 57.708 56.356 57.456C56.6453 57.1947 56.79 56.812 56.79 56.308C56.79 55.8413 56.6547 55.468 56.384 55.188C56.1133 54.8987 55.6887 54.754 55.11 54.754H53.066V57.834ZM60.4885 63C60.3952 63 60.3158 62.9673 60.2505 62.902C60.1852 62.8367 60.1525 62.7573 60.1525 62.664V56.07C60.1525 55.9673 60.1852 55.8833 60.2505 55.818C60.3158 55.7527 60.3952 55.72 60.4885 55.72H61.6225C61.7158 55.72 61.7952 55.7527 61.8605 55.818C61.9352 55.8833 61.9725 55.9673 61.9725 56.07V56.644C62.1872 56.3453 62.4625 56.1167 62.7985 55.958C63.1438 55.7993 63.5405 55.72 63.9885 55.72H64.5625C64.6652 55.72 64.7445 55.7527 64.8005 55.818C64.8658 55.8833 64.8985 55.9627 64.8985 56.056V57.064C64.8985 57.1573 64.8658 57.2367 64.8005 57.302C64.7445 57.3673 64.6652 57.4 64.5625 57.4H63.4705C63.0225 57.4 62.6725 57.526 62.4205 57.778C62.1778 58.03 62.0565 58.3753 62.0565 58.814V62.664C62.0565 62.7573 62.0238 62.8367 61.9585 62.902C61.8932 62.9673 61.8092 63 61.7065 63H60.4885ZM67.995 63.14C67.5097 63.14 67.071 63.0467 66.679 62.86C66.287 62.664 65.9744 62.4073 65.741 62.09C65.517 61.7633 65.405 61.3993 65.405 60.998C65.405 60.3447 65.6664 59.8267 66.189 59.444C66.721 59.052 67.421 58.7907 68.289 58.66L70.207 58.38V58.086C70.207 57.694 70.109 57.3907 69.913 57.176C69.717 56.9613 69.381 56.854 68.905 56.854C68.569 56.854 68.2937 56.924 68.079 57.064C67.8737 57.1947 67.7197 57.372 67.617 57.596C67.5424 57.7173 67.435 57.778 67.295 57.778H66.189C66.0864 57.778 66.007 57.75 65.951 57.694C65.9044 57.638 65.881 57.5633 65.881 57.47C65.8904 57.3207 65.951 57.1387 66.063 56.924C66.175 56.7093 66.3524 56.504 66.595 56.308C66.8377 56.1027 67.1504 55.93 67.533 55.79C67.9157 55.65 68.3777 55.58 68.919 55.58C69.507 55.58 70.0017 55.6547 70.403 55.804C70.8137 55.944 71.1404 56.1353 71.383 56.378C71.6257 56.6207 71.803 56.9053 71.915 57.232C72.027 57.5587 72.083 57.904 72.083 58.268V62.664C72.083 62.7573 72.0504 62.8367 71.985 62.902C71.9197 62.9673 71.8404 63 71.747 63H70.613C70.5104 63 70.4264 62.9673 70.361 62.902C70.305 62.8367 70.277 62.7573 70.277 62.664V62.118C70.1557 62.2953 69.9924 62.4633 69.787 62.622C69.5817 62.7713 69.3297 62.8973 69.031 63C68.7417 63.0933 68.3964 63.14 67.995 63.14ZM68.471 61.81C68.7977 61.81 69.0917 61.74 69.353 61.6C69.6237 61.46 69.8337 61.2453 69.983 60.956C70.1417 60.6573 70.221 60.284 70.221 59.836V59.542L68.821 59.766C68.2704 59.85 67.8597 59.9853 67.589 60.172C67.3184 60.3587 67.183 60.5873 67.183 60.858C67.183 61.0633 67.2437 61.2407 67.365 61.39C67.4957 61.53 67.659 61.6373 67.855 61.712C68.051 61.7773 68.2564 61.81 68.471 61.81ZM76.6371 63.14C76.0771 63.14 75.5964 63.0747 75.1951 62.944C74.8031 62.8133 74.4811 62.65 74.2291 62.454C73.9771 62.258 73.7904 62.062 73.6691 61.866C73.5477 61.67 73.4824 61.5067 73.4731 61.376C73.4637 61.2733 73.4917 61.194 73.5571 61.138C73.6317 61.0727 73.7111 61.04 73.7951 61.04H74.9011C74.9384 61.04 74.9711 61.0447 74.9991 61.054C75.0271 61.0633 75.0644 61.0913 75.1111 61.138C75.2324 61.2407 75.3584 61.348 75.4891 61.46C75.6291 61.572 75.7924 61.67 75.9791 61.754C76.1657 61.8287 76.3991 61.866 76.6791 61.866C77.0431 61.866 77.3464 61.796 77.5891 61.656C77.8411 61.5067 77.9671 61.2967 77.9671 61.026C77.9671 60.83 77.9111 60.6713 77.7991 60.55C77.6964 60.4287 77.5004 60.3213 77.2111 60.228C76.9217 60.1253 76.5111 60.018 75.9791 59.906C75.4564 59.7847 75.0224 59.6307 74.6771 59.444C74.3317 59.2573 74.0751 59.024 73.9071 58.744C73.7391 58.464 73.6551 58.1373 73.6551 57.764C73.6551 57.4 73.7624 57.0547 73.9771 56.728C74.2011 56.392 74.5277 56.1167 74.9571 55.902C75.3957 55.6873 75.9371 55.58 76.5811 55.58C77.0851 55.58 77.5237 55.6453 77.8971 55.776C78.2704 55.8973 78.5784 56.0513 78.8211 56.238C79.0731 56.4247 79.2644 56.616 79.3951 56.812C79.5257 56.9987 79.5957 57.162 79.6051 57.302C79.6144 57.4047 79.5864 57.4887 79.5211 57.554C79.4557 57.61 79.3811 57.638 79.2971 57.638H78.2611C78.2144 57.638 78.1724 57.6287 78.1351 57.61C78.0977 57.5913 78.0604 57.568 78.0231 57.54C77.9204 57.4467 77.8084 57.3487 77.6871 57.246C77.5657 57.1433 77.4164 57.0547 77.2391 56.98C77.0711 56.896 76.8471 56.854 76.5671 56.854C76.2124 56.854 75.9417 56.9333 75.7551 57.092C75.5684 57.2413 75.4751 57.4327 75.4751 57.666C75.4751 57.8247 75.5171 57.9647 75.6011 58.086C75.6944 58.198 75.8764 58.3053 76.1471 58.408C76.4177 58.5107 76.8284 58.618 77.3791 58.73C78.0044 58.842 78.4991 59.01 78.8631 59.234C79.2364 59.4487 79.4977 59.7007 79.6471 59.99C79.8057 60.27 79.8851 60.5827 79.8851 60.928C79.8851 61.348 79.7591 61.726 79.5071 62.062C79.2644 62.398 78.9004 62.664 78.4151 62.86C77.9391 63.0467 77.3464 63.14 76.6371 63.14ZM83.4443 63.14C82.9589 63.14 82.5203 63.0467 82.1283 62.86C81.7363 62.664 81.4236 62.4073 81.1903 62.09C80.9663 61.7633 80.8543 61.3993 80.8543 60.998C80.8543 60.3447 81.1156 59.8267 81.6383 59.444C82.1703 59.052 82.8703 58.7907 83.7383 58.66L85.6563 58.38V58.086C85.6563 57.694 85.5583 57.3907 85.3623 57.176C85.1663 56.9613 84.8303 56.854 84.3543 56.854C84.0183 56.854 83.7429 56.924 83.5283 57.064C83.3229 57.1947 83.1689 57.372 83.0663 57.596C82.9916 57.7173 82.8843 57.778 82.7443 57.778H81.6383C81.5356 57.778 81.4563 57.75 81.4003 57.694C81.3536 57.638 81.3302 57.5633 81.3302 57.47C81.3396 57.3207 81.4003 57.1387 81.5123 56.924C81.6243 56.7093 81.8016 56.504 82.0443 56.308C82.2869 56.1027 82.5996 55.93 82.9823 55.79C83.3649 55.65 83.8269 55.58 84.3683 55.58C84.9563 55.58 85.4509 55.6547 85.8523 55.804C86.2629 55.944 86.5896 56.1353 86.8323 56.378C87.0749 56.6207 87.2523 56.9053 87.3643 57.232C87.4763 57.5587 87.5323 57.904 87.5323 58.268V62.664C87.5323 62.7573 87.4996 62.8367 87.4343 62.902C87.3689 62.9673 87.2896 63 87.1963 63H86.0623C85.9596 63 85.8756 62.9673 85.8103 62.902C85.7543 62.8367 85.7263 62.7573 85.7263 62.664V62.118C85.6049 62.2953 85.4416 62.4633 85.2363 62.622C85.0309 62.7713 84.7789 62.8973 84.4803 63C84.1909 63.0933 83.8456 63.14 83.4443 63.14ZM83.9203 61.81C84.2469 61.81 84.5409 61.74 84.8023 61.6C85.0729 61.46 85.2829 61.2453 85.4323 60.956C85.5909 60.6573 85.6703 60.284 85.6703 59.836V59.542L84.2703 59.766C83.7196 59.85 83.3089 59.9853 83.0383 60.172C82.7676 60.3587 82.6323 60.5873 82.6323 60.858C82.6323 61.0633 82.6929 61.2407 82.8143 61.39C82.9449 61.53 83.1083 61.6373 83.3043 61.712C83.5003 61.7773 83.7056 61.81 83.9203 61.81ZM89.6643 63C89.571 63 89.4916 62.9673 89.4263 62.902C89.361 62.8367 89.3283 62.7573 89.3283 62.664V56.07C89.3283 55.9673 89.361 55.8833 89.4263 55.818C89.4916 55.7527 89.571 55.72 89.6643 55.72H90.7983C90.8916 55.72 90.971 55.7527 91.0363 55.818C91.111 55.8833 91.1483 55.9673 91.1483 56.07V56.644C91.363 56.3453 91.6383 56.1167 91.9743 55.958C92.3196 55.7993 92.7163 55.72 93.1643 55.72H93.7383C93.841 55.72 93.9203 55.7527 93.9763 55.818C94.0416 55.8833 94.0743 55.9627 94.0743 56.056V57.064C94.0743 57.1573 94.0416 57.2367 93.9763 57.302C93.9203 57.3673 93.841 57.4 93.7383 57.4H92.6463C92.1983 57.4 91.8483 57.526 91.5963 57.778C91.3536 58.03 91.2323 58.3753 91.2323 58.814V62.664C91.2323 62.7573 91.1996 62.8367 91.1343 62.902C91.069 62.9673 90.985 63 90.8823 63H89.6643ZM97.1708 63.14C96.6855 63.14 96.2468 63.0467 95.8548 62.86C95.4628 62.664 95.1501 62.4073 94.9168 62.09C94.6928 61.7633 94.5808 61.3993 94.5808 60.998C94.5808 60.3447 94.8421 59.8267 95.3648 59.444C95.8968 59.052 96.5968 58.7907 97.4648 58.66L99.3828 58.38V58.086C99.3828 57.694 99.2848 57.3907 99.0888 57.176C98.8928 56.9613 98.5568 56.854 98.0808 56.854C97.7448 56.854 97.4695 56.924 97.2548 57.064C97.0495 57.1947 96.8955 57.372 96.7928 57.596C96.7181 57.7173 96.6108 57.778 96.4708 57.778H95.3648C95.2621 57.778 95.1828 57.75 95.1268 57.694C95.0801 57.638 95.0568 57.5633 95.0568 57.47C95.0661 57.3207 95.1268 57.1387 95.2388 56.924C95.3508 56.7093 95.5281 56.504 95.7708 56.308C96.0135 56.1027 96.3261 55.93 96.7088 55.79C97.0915 55.65 97.5535 55.58 98.0948 55.58C98.6828 55.58 99.1775 55.6547 99.5788 55.804C99.9895 55.944 100.316 56.1353 100.559 56.378C100.801 56.6207 100.979 56.9053 101.091 57.232C101.203 57.5587 101.259 57.904 101.259 58.268V62.664C101.259 62.7573 101.226 62.8367 101.161 62.902C101.095 62.9673 101.016 63 100.923 63H99.7888C99.6861 63 99.6021 62.9673 99.5368 62.902C99.4808 62.8367 99.4528 62.7573 99.4528 62.664V62.118C99.3315 62.2953 99.1681 62.4633 98.9628 62.622C98.7575 62.7713 98.5055 62.8973 98.2068 63C97.9175 63.0933 97.5721 63.14 97.1708 63.14ZM97.6468 61.81C97.9735 61.81 98.2675 61.74 98.5288 61.6C98.7995 61.46 99.0095 61.2453 99.1588 60.956C99.3175 60.6573 99.3968 60.284 99.3968 59.836V59.542L97.9968 59.766C97.4461 59.85 97.0355 59.9853 96.7648 60.172C96.4941 60.3587 96.3588 60.5873 96.3588 60.858C96.3588 61.0633 96.4195 61.2407 96.5408 61.39C96.6715 61.53 96.8348 61.6373 97.0308 61.712C97.2268 61.7773 97.4321 61.81 97.6468 61.81ZM103.391 63C103.298 63 103.218 62.9673 103.153 62.902C103.088 62.8367 103.055 62.7573 103.055 62.664V56.056C103.055 55.9627 103.088 55.8833 103.153 55.818C103.218 55.7527 103.298 55.72 103.391 55.72H104.539C104.632 55.72 104.712 55.7527 104.777 55.818C104.842 55.8833 104.875 55.9627 104.875 56.056V56.63C105.118 56.3313 105.426 56.084 105.799 55.888C106.182 55.6827 106.653 55.58 107.213 55.58C107.782 55.58 108.277 55.7107 108.697 55.972C109.117 56.224 109.439 56.5833 109.663 57.05C109.896 57.5167 110.013 58.0767 110.013 58.73V62.664C110.013 62.7573 109.98 62.8367 109.915 62.902C109.85 62.9673 109.77 63 109.677 63H108.445C108.352 63 108.272 62.9673 108.207 62.902C108.142 62.8367 108.109 62.7573 108.109 62.664V58.814C108.109 58.2727 107.974 57.848 107.703 57.54C107.442 57.232 107.059 57.078 106.555 57.078C106.07 57.078 105.682 57.232 105.393 57.54C105.104 57.848 104.959 58.2727 104.959 58.814V62.664C104.959 62.7573 104.926 62.8367 104.861 62.902C104.796 62.9673 104.716 63 104.623 63H103.391ZM113.905 63.14C113.42 63.14 112.981 63.0467 112.589 62.86C112.197 62.664 111.885 62.4073 111.651 62.09C111.427 61.7633 111.315 61.3993 111.315 60.998C111.315 60.3447 111.577 59.8267 112.099 59.444C112.631 59.052 113.331 58.7907 114.199 58.66L116.117 58.38V58.086C116.117 57.694 116.019 57.3907 115.823 57.176C115.627 56.9613 115.291 56.854 114.815 56.854C114.479 56.854 114.204 56.924 113.989 57.064C113.784 57.1947 113.63 57.372 113.527 57.596C113.453 57.7173 113.345 57.778 113.205 57.778H112.099C111.997 57.778 111.917 57.75 111.861 57.694C111.815 57.638 111.791 57.5633 111.791 57.47C111.801 57.3207 111.861 57.1387 111.973 56.924C112.085 56.7093 112.263 56.504 112.505 56.308C112.748 56.1027 113.061 55.93 113.443 55.79C113.826 55.65 114.288 55.58 114.829 55.58C115.417 55.58 115.912 55.6547 116.313 55.804C116.724 55.944 117.051 56.1353 117.293 56.378C117.536 56.6207 117.713 56.9053 117.825 57.232C117.937 57.5587 117.993 57.904 117.993 58.268V62.664C117.993 62.7573 117.961 62.8367 117.895 62.902C117.83 62.9673 117.751 63 117.657 63H116.523C116.421 63 116.337 62.9673 116.271 62.902C116.215 62.8367 116.187 62.7573 116.187 62.664V62.118C116.066 62.2953 115.903 62.4633 115.697 62.622C115.492 62.7713 115.24 62.8973 114.941 63C114.652 63.0933 114.307 63.14 113.905 63.14ZM114.381 61.81C114.708 61.81 115.002 61.74 115.263 61.6C115.534 61.46 115.744 61.2453 115.893 60.956C116.052 60.6573 116.131 60.284 116.131 59.836V59.542L114.731 59.766C114.181 59.85 113.77 59.9853 113.499 60.172C113.229 60.3587 113.093 60.5873 113.093 60.858C113.093 61.0633 113.154 61.2407 113.275 61.39C113.406 61.53 113.569 61.6373 113.765 61.712C113.961 61.7773 114.167 61.81 114.381 61.81ZM122.185 63C122.111 63 122.041 62.972 121.975 62.916C121.919 62.86 121.891 62.79 121.891 62.706C121.891 62.6687 121.901 62.6267 121.919 62.58L125.293 53.55C125.321 53.4567 125.373 53.3773 125.447 53.312C125.531 53.2373 125.643 53.2 125.783 53.2H127.309C127.449 53.2 127.557 53.2373 127.631 53.312C127.706 53.3773 127.762 53.4567 127.799 53.55L131.173 62.58C131.183 62.6267 131.187 62.6687 131.187 62.706C131.187 62.79 131.159 62.86 131.103 62.916C131.047 62.972 130.982 63 130.907 63H129.689C129.559 63 129.461 62.972 129.395 62.916C129.339 62.8507 129.302 62.79 129.283 62.734L128.625 61.026H124.467L123.809 62.734C123.791 62.79 123.749 62.8507 123.683 62.916C123.627 62.972 123.534 63 123.403 63H122.185ZM124.957 59.416H128.135L126.539 55.09L124.957 59.416ZM132.662 63C132.569 63 132.49 62.9673 132.424 62.902C132.359 62.8367 132.326 62.7573 132.326 62.664V56.056C132.326 55.9627 132.359 55.8833 132.424 55.818C132.49 55.7527 132.569 55.72 132.662 55.72H133.824C133.927 55.72 134.006 55.7527 134.062 55.818C134.128 55.8833 134.16 55.9627 134.16 56.056V62.664C134.16 62.7573 134.128 62.8367 134.062 62.902C134.006 62.9673 133.927 63 133.824 63H132.662ZM132.606 54.516C132.504 54.516 132.42 54.488 132.354 54.432C132.298 54.3667 132.27 54.2827 132.27 54.18V53.172C132.27 53.0787 132.298 52.9993 132.354 52.934C132.42 52.8687 132.504 52.836 132.606 52.836H133.88C133.983 52.836 134.067 52.8687 134.132 52.934C134.198 52.9993 134.23 53.0787 134.23 53.172V54.18C134.23 54.2827 134.198 54.3667 134.132 54.432C134.067 54.488 133.983 54.516 133.88 54.516H132.606ZM136.641 63C136.548 63 136.468 62.9673 136.403 62.902C136.338 62.8367 136.305 62.7573 136.305 62.664V56.07C136.305 55.9673 136.338 55.8833 136.403 55.818C136.468 55.7527 136.548 55.72 136.641 55.72H137.775C137.868 55.72 137.948 55.7527 138.013 55.818C138.088 55.8833 138.125 55.9673 138.125 56.07V56.644C138.34 56.3453 138.615 56.1167 138.951 55.958C139.296 55.7993 139.693 55.72 140.141 55.72H140.715C140.818 55.72 140.897 55.7527 140.953 55.818C141.018 55.8833 141.051 55.9627 141.051 56.056V57.064C141.051 57.1573 141.018 57.2367 140.953 57.302C140.897 57.3673 140.818 57.4 140.715 57.4H139.623C139.175 57.4 138.825 57.526 138.573 57.778C138.33 58.03 138.209 58.3753 138.209 58.814V62.664C138.209 62.7573 138.176 62.8367 138.111 62.902C138.046 62.9673 137.962 63 137.859 63H136.641ZM145.545 63C145.452 63 145.373 62.9673 145.307 62.902C145.242 62.8367 145.209 62.7573 145.209 62.664V53.55C145.209 53.4473 145.242 53.3633 145.307 53.298C145.373 53.2327 145.452 53.2 145.545 53.2H149.605C150.361 53.2 150.977 53.3167 151.453 53.55C151.929 53.774 152.279 54.0867 152.503 54.488C152.737 54.8893 152.853 55.356 152.853 55.888C152.853 56.2427 152.788 56.5553 152.657 56.826C152.536 57.0873 152.382 57.302 152.195 57.47C152.018 57.638 151.841 57.7687 151.663 57.862C152.027 58.03 152.349 58.31 152.629 58.702C152.909 59.094 153.049 59.5607 153.049 60.102C153.049 60.662 152.923 61.1613 152.671 61.6C152.419 62.0387 152.046 62.384 151.551 62.636C151.057 62.8787 150.445 63 149.717 63H145.545ZM147.155 61.516H149.493C149.997 61.516 150.38 61.3807 150.641 61.11C150.903 60.83 151.033 60.494 151.033 60.102C151.033 59.6913 150.898 59.3507 150.627 59.08C150.366 58.8093 149.988 58.674 149.493 58.674H147.155V61.516ZM147.155 57.218H149.353C149.848 57.218 150.217 57.1013 150.459 56.868C150.711 56.6253 150.837 56.3127 150.837 55.93C150.837 55.538 150.711 55.2347 150.459 55.02C150.217 54.796 149.848 54.684 149.353 54.684H147.155V57.218ZM157.775 63.14C156.739 63.14 155.918 62.8413 155.311 62.244C154.704 61.6467 154.378 60.7973 154.331 59.696C154.322 59.6027 154.317 59.486 154.317 59.346C154.317 59.1967 154.322 59.08 154.331 58.996C154.368 58.296 154.527 57.6893 154.807 57.176C155.096 56.6627 155.493 56.2707 155.997 56C156.501 55.72 157.094 55.58 157.775 55.58C158.531 55.58 159.166 55.7387 159.679 56.056C160.192 56.364 160.58 56.798 160.841 57.358C161.102 57.9087 161.233 58.548 161.233 59.276V59.57C161.233 59.6633 161.2 59.7427 161.135 59.808C161.07 59.8733 160.986 59.906 160.883 59.906H156.235C156.235 59.906 156.235 59.92 156.235 59.948C156.235 59.976 156.235 59.9993 156.235 60.018C156.244 60.3447 156.305 60.648 156.417 60.928C156.538 61.1987 156.711 61.418 156.935 61.586C157.168 61.754 157.444 61.838 157.761 61.838C158.022 61.838 158.242 61.8007 158.419 61.726C158.596 61.642 158.741 61.5487 158.853 61.446C158.965 61.3433 159.044 61.2593 159.091 61.194C159.175 61.082 159.24 61.0167 159.287 60.998C159.343 60.97 159.422 60.956 159.525 60.956H160.729C160.822 60.956 160.897 60.984 160.953 61.04C161.018 61.096 161.046 61.166 161.037 61.25C161.028 61.3993 160.948 61.5813 160.799 61.796C160.659 62.0107 160.454 62.2207 160.183 62.426C159.912 62.6313 159.572 62.804 159.161 62.944C158.76 63.0747 158.298 63.14 157.775 63.14ZM156.235 58.73H159.329V58.688C159.329 58.324 159.268 58.0067 159.147 57.736C159.026 57.4653 158.848 57.2507 158.615 57.092C158.382 56.9333 158.102 56.854 157.775 56.854C157.448 56.854 157.168 56.9333 156.935 57.092C156.702 57.2507 156.524 57.4653 156.403 57.736C156.291 58.0067 156.235 58.324 156.235 58.688V58.73ZM163.055 63C162.962 63 162.882 62.9673 162.817 62.902C162.752 62.8367 162.719 62.7573 162.719 62.664V56.07C162.719 55.9673 162.752 55.8833 162.817 55.818C162.882 55.7527 162.962 55.72 163.055 55.72H164.189C164.282 55.72 164.362 55.7527 164.427 55.818C164.502 55.8833 164.539 55.9673 164.539 56.07V56.644C164.754 56.3453 165.029 56.1167 165.365 55.958C165.71 55.7993 166.107 55.72 166.555 55.72H167.129C167.232 55.72 167.311 55.7527 167.367 55.818C167.432 55.8833 167.465 55.9627 167.465 56.056V57.064C167.465 57.1573 167.432 57.2367 167.367 57.302C167.311 57.3673 167.232 57.4 167.129 57.4H166.037C165.589 57.4 165.239 57.526 164.987 57.778C164.744 58.03 164.623 58.3753 164.623 58.814V62.664C164.623 62.7573 164.59 62.8367 164.525 62.902C164.46 62.9673 164.376 63 164.273 63H163.055ZM171.315 63.14C170.755 63.14 170.274 63.0747 169.873 62.944C169.481 62.8133 169.159 62.65 168.907 62.454C168.655 62.258 168.468 62.062 168.347 61.866C168.225 61.67 168.16 61.5067 168.151 61.376C168.141 61.2733 168.169 61.194 168.235 61.138C168.309 61.0727 168.389 61.04 168.473 61.04H169.579C169.616 61.04 169.649 61.0447 169.677 61.054C169.705 61.0633 169.742 61.0913 169.789 61.138C169.91 61.2407 170.036 61.348 170.167 61.46C170.307 61.572 170.47 61.67 170.657 61.754C170.843 61.8287 171.077 61.866 171.357 61.866C171.721 61.866 172.024 61.796 172.267 61.656C172.519 61.5067 172.645 61.2967 172.645 61.026C172.645 60.83 172.589 60.6713 172.477 60.55C172.374 60.4287 172.178 60.3213 171.889 60.228C171.599 60.1253 171.189 60.018 170.657 59.906C170.134 59.7847 169.7 59.6307 169.355 59.444C169.009 59.2573 168.753 59.024 168.585 58.744C168.417 58.464 168.333 58.1373 168.333 57.764C168.333 57.4 168.44 57.0547 168.655 56.728C168.879 56.392 169.205 56.1167 169.635 55.902C170.073 55.6873 170.615 55.58 171.259 55.58C171.763 55.58 172.201 55.6453 172.575 55.776C172.948 55.8973 173.256 56.0513 173.499 56.238C173.751 56.4247 173.942 56.616 174.073 56.812C174.203 56.9987 174.273 57.162 174.283 57.302C174.292 57.4047 174.264 57.4887 174.199 57.554C174.133 57.61 174.059 57.638 173.975 57.638H172.939C172.892 57.638 172.85 57.6287 172.813 57.61C172.775 57.5913 172.738 57.568 172.701 57.54C172.598 57.4467 172.486 57.3487 172.365 57.246C172.243 57.1433 172.094 57.0547 171.917 56.98C171.749 56.896 171.525 56.854 171.245 56.854C170.89 56.854 170.619 56.9333 170.433 57.092C170.246 57.2413 170.153 57.4327 170.153 57.666C170.153 57.8247 170.195 57.9647 170.279 58.086C170.372 58.198 170.554 58.3053 170.825 58.408C171.095 58.5107 171.506 58.618 172.057 58.73C172.682 58.842 173.177 59.01 173.541 59.234C173.914 59.4487 174.175 59.7007 174.325 59.99C174.483 60.27 174.563 60.5827 174.563 60.928C174.563 61.348 174.437 61.726 174.185 62.062C173.942 62.398 173.578 62.664 173.093 62.86C172.617 63.0467 172.024 63.14 171.315 63.14ZM176.344 63C176.251 63 176.171 62.9673 176.106 62.902C176.041 62.8367 176.008 62.7573 176.008 62.664V56.056C176.008 55.9627 176.041 55.8833 176.106 55.818C176.171 55.7527 176.251 55.72 176.344 55.72H177.506C177.609 55.72 177.688 55.7527 177.744 55.818C177.809 55.8833 177.842 55.9627 177.842 56.056V62.664C177.842 62.7573 177.809 62.8367 177.744 62.902C177.688 62.9673 177.609 63 177.506 63H176.344ZM176.288 54.516C176.185 54.516 176.101 54.488 176.036 54.432C175.98 54.3667 175.952 54.2827 175.952 54.18V53.172C175.952 53.0787 175.98 52.9993 176.036 52.934C176.101 52.8687 176.185 52.836 176.288 52.836H177.562C177.665 52.836 177.749 52.8687 177.814 52.934C177.879 52.9993 177.912 53.0787 177.912 53.172V54.18C177.912 54.2827 177.879 54.3667 177.814 54.432C177.749 54.488 177.665 54.516 177.562 54.516H176.288ZM180.049 63C179.956 63 179.877 62.9673 179.811 62.902C179.746 62.8367 179.713 62.7573 179.713 62.664V53.396C179.713 53.3027 179.746 53.2233 179.811 53.158C179.877 53.0927 179.956 53.06 180.049 53.06H181.295C181.398 53.06 181.477 53.0927 181.533 53.158C181.599 53.2233 181.631 53.3027 181.631 53.396V56.588C181.883 56.2893 182.191 56.0467 182.555 55.86C182.919 55.6733 183.367 55.58 183.899 55.58C184.469 55.58 184.963 55.7107 185.383 55.972C185.813 56.224 186.144 56.5833 186.377 57.05C186.611 57.5167 186.727 58.0767 186.727 58.73V62.664C186.727 62.7573 186.695 62.8367 186.629 62.902C186.564 62.9673 186.485 63 186.391 63H185.131C185.038 63 184.959 62.9673 184.893 62.902C184.828 62.8367 184.795 62.7573 184.795 62.664V58.814C184.795 58.2727 184.66 57.848 184.389 57.54C184.128 57.232 183.745 57.078 183.241 57.078C182.756 57.078 182.364 57.232 182.065 57.54C181.776 57.848 181.631 58.2727 181.631 58.814V62.664C181.631 62.7573 181.599 62.8367 181.533 62.902C181.477 62.9673 181.398 63 181.295 63H180.049Z" fill="#44556C"/>
<path d="M48.8788 112.4C48.7988 112.4 48.7308 112.376 48.6748 112.328C48.6268 112.272 48.6028 112.204 48.6028 112.124V111.74C48.6028 111.668 48.6228 111.588 48.6628 111.5C48.7028 111.412 48.7828 111.316 48.9028 111.212L51.4468 108.668C51.8548 108.324 52.1748 108.032 52.4068 107.792C52.6468 107.544 52.8148 107.308 52.9108 107.084C53.0148 106.86 53.0668 106.628 53.0668 106.388C53.0668 105.932 52.9388 105.572 52.6828 105.308C52.4268 105.036 52.0468 104.9 51.5428 104.9C51.2228 104.9 50.9468 104.968 50.7148 105.104C50.4828 105.232 50.2988 105.412 50.1628 105.644C50.0348 105.868 49.9508 106.124 49.9108 106.412C49.8948 106.516 49.8508 106.588 49.7788 106.628C49.7148 106.668 49.6548 106.688 49.5988 106.688H48.9748C48.9028 106.688 48.8428 106.668 48.7948 106.628C48.7468 106.58 48.7228 106.524 48.7228 106.46C48.7308 106.156 48.7948 105.852 48.9148 105.548C49.0348 105.236 49.2108 104.956 49.4428 104.708C49.6828 104.46 49.9748 104.26 50.3188 104.108C50.6708 103.948 51.0788 103.868 51.5428 103.868C52.1748 103.868 52.6908 103.984 53.0908 104.216C53.4988 104.44 53.7988 104.74 53.9908 105.116C54.1828 105.492 54.2788 105.904 54.2788 106.352C54.2788 106.704 54.2188 107.028 54.0988 107.324C53.9788 107.612 53.8028 107.896 53.5708 108.176C53.3468 108.448 53.0668 108.728 52.7308 109.016L50.4268 111.356H54.1708C54.2588 111.356 54.3268 111.38 54.3748 111.428C54.4308 111.476 54.4588 111.544 54.4588 111.632V112.124C54.4588 112.204 54.4308 112.272 54.3748 112.328C54.3268 112.376 54.2588 112.4 54.1708 112.4H48.8788ZM59.1618 112.52C58.5298 112.52 57.9938 112.412 57.5538 112.196C57.1218 111.972 56.7898 111.684 56.5578 111.332C56.3338 110.98 56.2138 110.608 56.1978 110.216C56.1898 110.144 56.2098 110.088 56.2578 110.048C56.3058 110.008 56.3658 109.988 56.4378 109.988H57.0858C57.1578 109.988 57.2218 110.004 57.2778 110.036C57.3338 110.068 57.3778 110.136 57.4098 110.24C57.4898 110.536 57.6178 110.78 57.7938 110.972C57.9778 111.156 58.1858 111.292 58.4178 111.38C58.6578 111.46 58.9058 111.5 59.1618 111.5C59.5058 111.5 59.8178 111.432 60.0978 111.296C60.3858 111.152 60.6138 110.944 60.7818 110.672C60.9498 110.392 61.0338 110.056 61.0338 109.664C61.0338 109.304 60.9498 108.996 60.7818 108.74C60.6218 108.476 60.3978 108.276 60.1098 108.14C59.8298 107.996 59.5138 107.924 59.1618 107.924C58.8978 107.924 58.6818 107.956 58.5138 108.02C58.3458 108.084 58.2018 108.16 58.0818 108.248C57.9698 108.336 57.8658 108.412 57.7698 108.476C57.6818 108.54 57.5818 108.572 57.4698 108.572H56.8458C56.7738 108.572 56.7098 108.548 56.6538 108.5C56.5978 108.444 56.5738 108.38 56.5818 108.308L56.9658 104.3C56.9738 104.204 57.0018 104.132 57.0498 104.084C57.1058 104.028 57.1778 104 57.2658 104H61.4538C61.5338 104 61.5978 104.028 61.6458 104.084C61.7018 104.132 61.7298 104.196 61.7298 104.276V104.744C61.7298 104.832 61.7018 104.9 61.6458 104.948C61.5978 104.996 61.5338 105.02 61.4538 105.02H57.9978L57.7698 107.384C57.8818 107.312 58.0618 107.228 58.3098 107.132C58.5578 107.028 58.8978 106.976 59.3298 106.976C59.7218 106.976 60.0898 107.036 60.4338 107.156C60.7858 107.276 61.0978 107.452 61.3698 107.684C61.6418 107.916 61.8538 108.2 62.0058 108.536C62.1578 108.864 62.2338 109.244 62.2338 109.676C62.2338 110.284 62.0978 110.8 61.8258 111.224C61.5618 111.648 61.1978 111.972 60.7338 112.196C60.2778 112.412 59.7538 112.52 59.1618 112.52ZM67.1868 112.52C66.6348 112.52 66.1668 112.436 65.7828 112.268C65.4068 112.092 65.0988 111.852 64.8588 111.548C64.6188 111.244 64.4428 110.896 64.3308 110.504C64.2268 110.112 64.1668 109.696 64.1508 109.256C64.1428 109.04 64.1348 108.812 64.1268 108.572C64.1268 108.332 64.1268 108.092 64.1268 107.852C64.1348 107.604 64.1428 107.368 64.1508 107.144C64.1588 106.704 64.2188 106.288 64.3308 105.896C64.4508 105.496 64.6268 105.148 64.8588 104.852C65.0988 104.548 65.4108 104.312 65.7948 104.144C66.1788 103.968 66.6428 103.88 67.1868 103.88C67.7388 103.88 68.2028 103.968 68.5788 104.144C68.9628 104.312 69.2748 104.548 69.5148 104.852C69.7548 105.148 69.9308 105.496 70.0428 105.896C70.1628 106.288 70.2268 106.704 70.2348 107.144C70.2428 107.368 70.2468 107.604 70.2468 107.852C70.2548 108.092 70.2548 108.332 70.2468 108.572C70.2468 108.812 70.2428 109.04 70.2348 109.256C70.2268 109.696 70.1628 110.112 70.0428 110.504C69.9308 110.896 69.7548 111.244 69.5148 111.548C69.2828 111.852 68.9748 112.092 68.5908 112.268C68.2148 112.436 67.7468 112.52 67.1868 112.52ZM67.1868 111.5C67.8108 111.5 68.2708 111.296 68.5668 110.888C68.8708 110.472 69.0268 109.908 69.0348 109.196C69.0508 108.964 69.0588 108.74 69.0588 108.524C69.0588 108.3 69.0588 108.08 69.0588 107.864C69.0588 107.64 69.0508 107.42 69.0348 107.204C69.0268 106.508 68.8708 105.952 68.5668 105.536C68.2708 105.112 67.8108 104.9 67.1868 104.9C66.5708 104.9 66.1108 105.112 65.8068 105.536C65.5108 105.952 65.3548 106.508 65.3388 107.204C65.3388 107.42 65.3348 107.64 65.3268 107.864C65.3268 108.08 65.3268 108.3 65.3268 108.524C65.3348 108.74 65.3388 108.964 65.3388 109.196C65.3548 109.908 65.5148 110.472 65.8188 110.888C66.1228 111.296 66.5788 111.5 67.1868 111.5Z" fill="#8697A8" fill-opacity="0.85"/>
<line x1="79" y1="107.9" x2="567" y2="107.9" stroke="#ECECEC"/>
<path d="M48.3867 155.2C48.3067 155.2 48.2387 155.176 48.1827 155.128C48.1347 155.072 48.1107 155.004 48.1107 154.924V154.54C48.1107 154.468 48.1307 154.388 48.1707 154.3C48.2107 154.212 48.2907 154.116 48.4107 154.012L50.9547 151.468C51.3627 151.124 51.6827 150.832 51.9147 150.592C52.1547 150.344 52.3227 150.108 52.4187 149.884C52.5227 149.66 52.5747 149.428 52.5747 149.188C52.5747 148.732 52.4467 148.372 52.1907 148.108C51.9347 147.836 51.5547 147.7 51.0507 147.7C50.7307 147.7 50.4547 147.768 50.2227 147.904C49.9907 148.032 49.8067 148.212 49.6707 148.444C49.5427 148.668 49.4587 148.924 49.4187 149.212C49.4027 149.316 49.3587 149.388 49.2867 149.428C49.2227 149.468 49.1627 149.488 49.1067 149.488H48.4827C48.4107 149.488 48.3507 149.468 48.3027 149.428C48.2547 149.38 48.2307 149.324 48.2307 149.26C48.2387 148.956 48.3027 148.652 48.4227 148.348C48.5427 148.036 48.7187 147.756 48.9507 147.508C49.1907 147.26 49.4827 147.06 49.8267 146.908C50.1787 146.748 50.5867 146.668 51.0507 146.668C51.6827 146.668 52.1987 146.784 52.5987 147.016C53.0067 147.24 53.3067 147.54 53.4987 147.916C53.6907 148.292 53.7867 148.704 53.7867 149.152C53.7867 149.504 53.7267 149.828 53.6067 150.124C53.4867 150.412 53.3107 150.696 53.0787 150.976C52.8547 151.248 52.5747 151.528 52.2387 151.816L49.9347 154.156H53.6787C53.7667 154.156 53.8347 154.18 53.8827 154.228C53.9387 154.276 53.9667 154.344 53.9667 154.432V154.924C53.9667 155.004 53.9387 155.072 53.8827 155.128C53.8347 155.176 53.7667 155.2 53.6787 155.2H48.3867ZM58.9696 155.32C58.4176 155.32 57.9496 155.236 57.5656 155.068C57.1896 154.892 56.8816 154.652 56.6416 154.348C56.4016 154.044 56.2256 153.696 56.1136 153.304C56.0096 152.912 55.9496 152.496 55.9336 152.056C55.9256 151.84 55.9176 151.612 55.9096 151.372C55.9096 151.132 55.9096 150.892 55.9096 150.652C55.9176 150.404 55.9256 150.168 55.9336 149.944C55.9416 149.504 56.0016 149.088 56.1136 148.696C56.2336 148.296 56.4096 147.948 56.6416 147.652C56.8816 147.348 57.1936 147.112 57.5776 146.944C57.9616 146.768 58.4256 146.68 58.9696 146.68C59.5216 146.68 59.9856 146.768 60.3616 146.944C60.7456 147.112 61.0576 147.348 61.2976 147.652C61.5376 147.948 61.7136 148.296 61.8256 148.696C61.9456 149.088 62.0096 149.504 62.0176 149.944C62.0256 150.168 62.0296 150.404 62.0296 150.652C62.0376 150.892 62.0376 151.132 62.0296 151.372C62.0296 151.612 62.0256 151.84 62.0176 152.056C62.0096 152.496 61.9456 152.912 61.8256 153.304C61.7136 153.696 61.5376 154.044 61.2976 154.348C61.0656 154.652 60.7576 154.892 60.3736 155.068C59.9976 155.236 59.5296 155.32 58.9696 155.32ZM58.9696 154.3C59.5936 154.3 60.0536 154.096 60.3496 153.688C60.6536 153.272 60.8096 152.708 60.8176 151.996C60.8336 151.764 60.8416 151.54 60.8416 151.324C60.8416 151.1 60.8416 150.88 60.8416 150.664C60.8416 150.44 60.8336 150.22 60.8176 150.004C60.8096 149.308 60.6536 148.752 60.3496 148.336C60.0536 147.912 59.5936 147.7 58.9696 147.7C58.3536 147.7 57.8936 147.912 57.5896 148.336C57.2936 148.752 57.1376 149.308 57.1216 150.004C57.1216 150.22 57.1176 150.44 57.1096 150.664C57.1096 150.88 57.1096 151.1 57.1096 151.324C57.1176 151.54 57.1216 151.764 57.1216 151.996C57.1376 152.708 57.2976 153.272 57.6016 153.688C57.9056 154.096 58.3616 154.3 58.9696 154.3ZM67.1868 155.32C66.6348 155.32 66.1668 155.236 65.7828 155.068C65.4068 154.892 65.0988 154.652 64.8588 154.348C64.6188 154.044 64.4428 153.696 64.3308 153.304C64.2268 152.912 64.1668 152.496 64.1508 152.056C64.1428 151.84 64.1348 151.612 64.1268 151.372C64.1268 151.132 64.1268 150.892 64.1268 150.652C64.1348 150.404 64.1428 150.168 64.1508 149.944C64.1588 149.504 64.2188 149.088 64.3308 148.696C64.4508 148.296 64.6268 147.948 64.8588 147.652C65.0988 147.348 65.4108 147.112 65.7948 146.944C66.1788 146.768 66.6428 146.68 67.1868 146.68C67.7388 146.68 68.2028 146.768 68.5788 146.944C68.9628 147.112 69.2748 147.348 69.5148 147.652C69.7548 147.948 69.9308 148.296 70.0428 148.696C70.1628 149.088 70.2268 149.504 70.2348 149.944C70.2428 150.168 70.2468 150.404 70.2468 150.652C70.2548 150.892 70.2548 151.132 70.2468 151.372C70.2468 151.612 70.2428 151.84 70.2348 152.056C70.2268 152.496 70.1628 152.912 70.0428 153.304C69.9308 153.696 69.7548 154.044 69.5148 154.348C69.2828 154.652 68.9748 154.892 68.5908 155.068C68.2148 155.236 67.7468 155.32 67.1868 155.32ZM67.1868 154.3C67.8108 154.3 68.2708 154.096 68.5668 153.688C68.8708 153.272 69.0268 152.708 69.0348 151.996C69.0508 151.764 69.0588 151.54 69.0588 151.324C69.0588 151.1 69.0588 150.88 69.0588 150.664C69.0588 150.44 69.0508 150.22 69.0348 150.004C69.0268 149.308 68.8708 148.752 68.5668 148.336C68.2708 147.912 67.8108 147.7 67.1868 147.7C66.5708 147.7 66.1108 147.912 65.8068 148.336C65.5108 148.752 65.3548 149.308 65.3388 150.004C65.3388 150.22 65.3348 150.44 65.3268 150.664C65.3268 150.88 65.3268 151.1 65.3268 151.324C65.3348 151.54 65.3388 151.764 65.3388 151.996C65.3548 152.708 65.5148 153.272 65.8188 153.688C66.1228 154.096 66.5788 154.3 67.1868 154.3Z" fill="#8697A8" fill-opacity="0.85"/>
<line x1="79" y1="150.7" x2="567" y2="150.7" stroke="#ECECEC"/>
<line x1="50" y1="193.5" x2="538" y2="193.5" stroke="#ECECEC"/>
<path d="M541.237 198C541.157 198 541.089 197.976 541.033 197.928C540.985 197.872 540.961 197.804 540.961 197.724V191.004L538.969 192.54C538.905 192.588 538.837 192.608 538.765 192.6C538.693 192.592 538.633 192.556 538.585 192.492L538.273 192.096C538.225 192.024 538.205 191.952 538.213 191.88C538.229 191.808 538.269 191.748 538.333 191.7L540.949 189.684C541.005 189.644 541.057 189.62 541.105 189.612C541.153 189.604 541.205 189.6 541.261 189.6H541.873C541.953 189.6 542.017 189.628 542.065 189.684C542.113 189.732 542.137 189.796 542.137 189.876V197.724C542.137 197.804 542.113 197.872 542.065 197.928C542.017 197.976 541.953 198 541.873 198H541.237ZM547.162 198.12C546.53 198.12 545.994 198.012 545.554 197.796C545.122 197.572 544.79 197.284 544.558 196.932C544.334 196.58 544.214 196.208 544.198 195.816C544.19 195.744 544.21 195.688 544.258 195.648C544.306 195.608 544.366 195.588 544.438 195.588H545.086C545.158 195.588 545.222 195.604 545.278 195.636C545.334 195.668 545.378 195.736 545.41 195.84C545.49 196.136 545.618 196.38 545.794 196.572C545.978 196.756 546.186 196.892 546.418 196.98C546.658 197.06 546.906 197.1 547.162 197.1C547.506 197.1 547.818 197.032 548.098 196.896C548.386 196.752 548.614 196.544 548.782 196.272C548.95 195.992 549.034 195.656 549.034 195.264C549.034 194.904 548.95 194.596 548.782 194.34C548.622 194.076 548.398 193.876 548.11 193.74C547.83 193.596 547.514 193.524 547.162 193.524C546.898 193.524 546.682 193.556 546.514 193.62C546.346 193.684 546.202 193.76 546.082 193.848C545.97 193.936 545.866 194.012 545.77 194.076C545.682 194.14 545.582 194.172 545.47 194.172H544.846C544.774 194.172 544.71 194.148 544.654 194.1C544.598 194.044 544.574 193.98 544.582 193.908L544.966 189.9C544.974 189.804 545.002 189.732 545.05 189.684C545.106 189.628 545.178 189.6 545.266 189.6H549.454C549.534 189.6 549.598 189.628 549.646 189.684C549.702 189.732 549.73 189.796 549.73 189.876V190.344C549.73 190.432 549.702 190.5 549.646 190.548C549.598 190.596 549.534 190.62 549.454 190.62H545.998L545.77 192.984C545.882 192.912 546.062 192.828 546.31 192.732C546.558 192.628 546.898 192.576 547.33 192.576C547.722 192.576 548.09 192.636 548.434 192.756C548.786 192.876 549.098 193.052 549.37 193.284C549.642 193.516 549.854 193.8 550.006 194.136C550.158 194.464 550.234 194.844 550.234 195.276C550.234 195.884 550.098 196.4 549.826 196.824C549.562 197.248 549.198 197.572 548.734 197.796C548.278 198.012 547.754 198.12 547.162 198.12ZM555.187 198.12C554.635 198.12 554.167 198.036 553.783 197.868C553.407 197.692 553.099 197.452 552.859 197.148C552.619 196.844 552.443 196.496 552.331 196.104C552.227 195.712 552.167 195.296 552.151 194.856C552.143 194.64 552.135 194.412 552.127 194.172C552.127 193.932 552.127 193.692 552.127 193.452C552.135 193.204 552.143 192.968 552.151 192.744C552.159 192.304 552.219 191.888 552.331 191.496C552.451 191.096 552.627 190.748 552.859 190.452C553.099 190.148 553.411 189.912 553.795 189.744C554.179 189.568 554.643 189.48 555.187 189.48C555.739 189.48 556.203 189.568 556.579 189.744C556.963 189.912 557.275 190.148 557.515 190.452C557.755 190.748 557.931 191.096 558.043 191.496C558.163 191.888 558.227 192.304 558.235 192.744C558.243 192.968 558.247 193.204 558.247 193.452C558.255 193.692 558.255 193.932 558.247 194.172C558.247 194.412 558.243 194.64 558.235 194.856C558.227 195.296 558.163 195.712 558.043 196.104C557.931 196.496 557.755 196.844 557.515 197.148C557.283 197.452 556.975 197.692 556.591 197.868C556.215 198.036 555.747 198.12 555.187 198.12ZM555.187 197.1C555.811 197.1 556.271 196.896 556.567 196.488C556.871 196.072 557.027 195.508 557.035 194.796C557.051 194.564 557.059 194.34 557.059 194.124C557.059 193.9 557.059 193.68 557.059 193.464C557.059 193.24 557.051 193.02 557.035 192.804C557.027 192.108 556.871 191.552 556.567 191.136C556.271 190.712 555.811 190.5 555.187 190.5C554.571 190.5 554.111 190.712 553.807 191.136C553.511 191.552 553.355 192.108 553.339 192.804C553.339 193.02 553.335 193.24 553.327 193.464C553.327 193.68 553.327 193.9 553.327 194.124C553.335 194.34 553.339 194.564 553.339 194.796C553.355 195.508 553.515 196.072 553.819 196.488C554.123 196.896 554.579 197.1 555.187 197.1Z" fill="#8697A8" fill-opacity="0.85"/>
<path d="M52.7448 240.8C52.6648 240.8 52.5968 240.776 52.5408 240.728C52.4928 240.672 52.4688 240.604 52.4688 240.524V233.804L50.4768 235.34C50.4128 235.388 50.3448 235.408 50.2728 235.4C50.2008 235.392 50.1408 235.356 50.0928 235.292L49.7808 234.896C49.7328 234.824 49.7128 234.752 49.7208 234.68C49.7368 234.608 49.7768 234.548 49.8408 234.5L52.4568 232.484C52.5128 232.444 52.5648 232.42 52.6128 232.412C52.6608 232.404 52.7128 232.4 52.7688 232.4H53.3808C53.4608 232.4 53.5248 232.428 53.5728 232.484C53.6208 232.532 53.6448 232.596 53.6448 232.676V240.524C53.6448 240.604 53.6208 240.672 53.5728 240.728C53.5248 240.776 53.4608 240.8 53.3808 240.8H52.7448ZM58.9696 240.92C58.4176 240.92 57.9496 240.836 57.5656 240.668C57.1896 240.492 56.8816 240.252 56.6416 239.948C56.4016 239.644 56.2256 239.296 56.1136 238.904C56.0096 238.512 55.9496 238.096 55.9336 237.656C55.9256 237.44 55.9176 237.212 55.9096 236.972C55.9096 236.732 55.9096 236.492 55.9096 236.252C55.9176 236.004 55.9256 235.768 55.9336 235.544C55.9416 235.104 56.0016 234.688 56.1136 234.296C56.2336 233.896 56.4096 233.548 56.6416 233.252C56.8816 232.948 57.1936 232.712 57.5776 232.544C57.9616 232.368 58.4256 232.28 58.9696 232.28C59.5216 232.28 59.9856 232.368 60.3616 232.544C60.7456 232.712 61.0576 232.948 61.2976 233.252C61.5376 233.548 61.7136 233.896 61.8256 234.296C61.9456 234.688 62.0096 235.104 62.0176 235.544C62.0256 235.768 62.0296 236.004 62.0296 236.252C62.0376 236.492 62.0376 236.732 62.0296 236.972C62.0296 237.212 62.0256 237.44 62.0176 237.656C62.0096 238.096 61.9456 238.512 61.8256 238.904C61.7136 239.296 61.5376 239.644 61.2976 239.948C61.0656 240.252 60.7576 240.492 60.3736 240.668C59.9976 240.836 59.5296 240.92 58.9696 240.92ZM58.9696 239.9C59.5936 239.9 60.0536 239.696 60.3496 239.288C60.6536 238.872 60.8096 238.308 60.8176 237.596C60.8336 237.364 60.8416 237.14 60.8416 236.924C60.8416 236.7 60.8416 236.48 60.8416 236.264C60.8416 236.04 60.8336 235.82 60.8176 235.604C60.8096 234.908 60.6536 234.352 60.3496 233.936C60.0536 233.512 59.5936 233.3 58.9696 233.3C58.3536 233.3 57.8936 233.512 57.5896 233.936C57.2936 234.352 57.1376 234.908 57.1216 235.604C57.1216 235.82 57.1176 236.04 57.1096 236.264C57.1096 236.48 57.1096 236.7 57.1096 236.924C57.1176 237.14 57.1216 237.364 57.1216 237.596C57.1376 238.308 57.2976 238.872 57.6016 239.288C57.9056 239.696 58.3616 239.9 58.9696 239.9ZM67.1868 240.92C66.6348 240.92 66.1668 240.836 65.7828 240.668C65.4068 240.492 65.0988 240.252 64.8588 239.948C64.6188 239.644 64.4428 239.296 64.3308 238.904C64.2268 238.512 64.1668 238.096 64.1508 237.656C64.1428 237.44 64.1348 237.212 64.1268 236.972C64.1268 236.732 64.1268 236.492 64.1268 236.252C64.1348 236.004 64.1428 235.768 64.1508 235.544C64.1588 235.104 64.2188 234.688 64.3308 234.296C64.4508 233.896 64.6268 233.548 64.8588 233.252C65.0988 232.948 65.4108 232.712 65.7948 232.544C66.1788 232.368 66.6428 232.28 67.1868 232.28C67.7388 232.28 68.2028 232.368 68.5788 232.544C68.9628 232.712 69.2748 232.948 69.5148 233.252C69.7548 233.548 69.9308 233.896 70.0428 234.296C70.1628 234.688 70.2268 235.104 70.2348 235.544C70.2428 235.768 70.2468 236.004 70.2468 236.252C70.2548 236.492 70.2548 236.732 70.2468 236.972C70.2468 237.212 70.2428 237.44 70.2348 237.656C70.2268 238.096 70.1628 238.512 70.0428 238.904C69.9308 239.296 69.7548 239.644 69.5148 239.948C69.2828 240.252 68.9748 240.492 68.5908 240.668C68.2148 240.836 67.7468 240.92 67.1868 240.92ZM67.1868 239.9C67.8108 239.9 68.2708 239.696 68.5668 239.288C68.8708 238.872 69.0268 238.308 69.0348 237.596C69.0508 237.364 69.0588 237.14 69.0588 236.924C69.0588 236.7 69.0588 236.48 69.0588 236.264C69.0588 236.04 69.0508 235.82 69.0348 235.604C69.0268 234.908 68.8708 234.352 68.5668 233.936C68.2708 233.512 67.8108 233.3 67.1868 233.3C66.5708 233.3 66.1108 233.512 65.8068 233.936C65.5108 234.352 65.3548 234.908 65.3388 235.604C65.3388 235.82 65.3348 236.04 65.3268 236.264C65.3268 236.48 65.3268 236.7 65.3268 236.924C65.3348 237.14 65.3388 237.364 65.3388 237.596C65.3548 238.308 65.5148 238.872 65.8188 239.288C66.1228 239.696 66.5788 239.9 67.1868 239.9Z" fill="#8697A8" fill-opacity="0.85"/>
<line x1="79" y1="236.3" x2="567" y2="236.3" stroke="#ECECEC"/>
<path d="M59.1618 283.72C58.5298 283.72 57.9938 283.612 57.5538 283.396C57.1218 283.172 56.7898 282.884 56.5578 282.532C56.3338 282.18 56.2138 281.808 56.1978 281.416C56.1898 281.344 56.2098 281.288 56.2578 281.248C56.3058 281.208 56.3658 281.188 56.4378 281.188H57.0858C57.1578 281.188 57.2218 281.204 57.2778 281.236C57.3338 281.268 57.3778 281.336 57.4098 281.44C57.4898 281.736 57.6178 281.98 57.7938 282.172C57.9778 282.356 58.1858 282.492 58.4178 282.58C58.6578 282.66 58.9058 282.7 59.1618 282.7C59.5058 282.7 59.8178 282.632 60.0978 282.496C60.3858 282.352 60.6138 282.144 60.7818 281.872C60.9498 281.592 61.0338 281.256 61.0338 280.864C61.0338 280.504 60.9498 280.196 60.7818 279.94C60.6218 279.676 60.3978 279.476 60.1098 279.34C59.8298 279.196 59.5138 279.124 59.1618 279.124C58.8978 279.124 58.6818 279.156 58.5138 279.22C58.3458 279.284 58.2018 279.36 58.0818 279.448C57.9698 279.536 57.8658 279.612 57.7698 279.676C57.6818 279.74 57.5818 279.772 57.4698 279.772H56.8458C56.7738 279.772 56.7098 279.748 56.6538 279.7C56.5978 279.644 56.5738 279.58 56.5818 279.508L56.9658 275.5C56.9738 275.404 57.0018 275.332 57.0498 275.284C57.1058 275.228 57.1778 275.2 57.2658 275.2H61.4538C61.5338 275.2 61.5978 275.228 61.6458 275.284C61.7018 275.332 61.7298 275.396 61.7298 275.476V275.944C61.7298 276.032 61.7018 276.1 61.6458 276.148C61.5978 276.196 61.5338 276.22 61.4538 276.22H57.9978L57.7698 278.584C57.8818 278.512 58.0618 278.428 58.3098 278.332C58.5578 278.228 58.8978 278.176 59.3298 278.176C59.7218 278.176 60.0898 278.236 60.4338 278.356C60.7858 278.476 61.0978 278.652 61.3698 278.884C61.6418 279.116 61.8538 279.4 62.0058 279.736C62.1578 280.064 62.2338 280.444 62.2338 280.876C62.2338 281.484 62.0978 282 61.8258 282.424C61.5618 282.848 61.1978 283.172 60.7338 283.396C60.2778 283.612 59.7538 283.72 59.1618 283.72ZM67.1868 283.72C66.6348 283.72 66.1668 283.636 65.7828 283.468C65.4068 283.292 65.0988 283.052 64.8588 282.748C64.6188 282.444 64.4428 282.096 64.3308 281.704C64.2268 281.312 64.1668 280.896 64.1508 280.456C64.1428 280.24 64.1348 280.012 64.1268 279.772C64.1268 279.532 64.1268 279.292 64.1268 279.052C64.1348 278.804 64.1428 278.568 64.1508 278.344C64.1588 277.904 64.2188 277.488 64.3308 277.096C64.4508 276.696 64.6268 276.348 64.8588 276.052C65.0988 275.748 65.4108 275.512 65.7948 275.344C66.1788 275.168 66.6428 275.08 67.1868 275.08C67.7388 275.08 68.2028 275.168 68.5788 275.344C68.9628 275.512 69.2748 275.748 69.5148 276.052C69.7548 276.348 69.9308 276.696 70.0428 277.096C70.1628 277.488 70.2268 277.904 70.2348 278.344C70.2428 278.568 70.2468 278.804 70.2468 279.052C70.2548 279.292 70.2548 279.532 70.2468 279.772C70.2468 280.012 70.2428 280.24 70.2348 280.456C70.2268 280.896 70.1628 281.312 70.0428 281.704C69.9308 282.096 69.7548 282.444 69.5148 282.748C69.2828 283.052 68.9748 283.292 68.5908 283.468C68.2148 283.636 67.7468 283.72 67.1868 283.72ZM67.1868 282.7C67.8108 282.7 68.2708 282.496 68.5668 282.088C68.8708 281.672 69.0268 281.108 69.0348 280.396C69.0508 280.164 69.0588 279.94 69.0588 279.724C69.0588 279.5 69.0588 279.28 69.0588 279.064C69.0588 278.84 69.0508 278.62 69.0348 278.404C69.0268 277.708 68.8708 277.152 68.5668 276.736C68.2708 276.312 67.8108 276.1 67.1868 276.1C66.5708 276.1 66.1108 276.312 65.8068 276.736C65.5108 277.152 65.3548 277.708 65.3388 278.404C65.3388 278.62 65.3348 278.84 65.3268 279.064C65.3268 279.28 65.3268 279.5 65.3268 279.724C65.3348 279.94 65.3388 280.164 65.3388 280.396C65.3548 281.108 65.5148 281.672 65.8188 282.088C66.1228 282.496 66.5788 282.7 67.1868 282.7Z" fill="#8697A8" fill-opacity="0.85"/>
<line x1="79" y1="279.1" x2="567" y2="279.1" stroke="#ECECEC"/>
<path d="M67.1868 325.62C66.6348 325.62 66.1668 325.536 65.7828 325.368C65.4068 325.192 65.0988 324.952 64.8588 324.648C64.6188 324.344 64.4428 323.996 64.3308 323.604C64.2268 323.212 64.1668 322.796 64.1508 322.356C64.1428 322.14 64.1348 321.912 64.1268 321.672C64.1268 321.432 64.1268 321.192 64.1268 320.952C64.1348 320.704 64.1428 320.468 64.1508 320.244C64.1588 319.804 64.2188 319.388 64.3308 318.996C64.4508 318.596 64.6268 318.248 64.8588 317.952C65.0988 317.648 65.4108 317.412 65.7948 317.244C66.1788 317.068 66.6428 316.98 67.1868 316.98C67.7388 316.98 68.2028 317.068 68.5788 317.244C68.9628 317.412 69.2748 317.648 69.5148 317.952C69.7548 318.248 69.9308 318.596 70.0428 318.996C70.1628 319.388 70.2268 319.804 70.2348 320.244C70.2428 320.468 70.2468 320.704 70.2468 320.952C70.2548 321.192 70.2548 321.432 70.2468 321.672C70.2468 321.912 70.2428 322.14 70.2348 322.356C70.2268 322.796 70.1628 323.212 70.0428 323.604C69.9308 323.996 69.7548 324.344 69.5148 324.648C69.2828 324.952 68.9748 325.192 68.5908 325.368C68.2148 325.536 67.7468 325.62 67.1868 325.62ZM67.1868 324.6C67.8108 324.6 68.2708 324.396 68.5668 323.988C68.8708 323.572 69.0268 323.008 69.0348 322.296C69.0508 322.064 69.0588 321.84 69.0588 321.624C69.0588 321.4 69.0588 321.18 69.0588 320.964C69.0588 320.74 69.0508 320.52 69.0348 320.304C69.0268 319.608 68.8708 319.052 68.5668 318.636C68.2708 318.212 67.8108 318 67.1868 318C66.5708 318 66.1108 318.212 65.8068 318.636C65.5108 319.052 65.3548 319.608 65.3388 320.304C65.3388 320.52 65.3348 320.74 65.3268 320.964C65.3268 321.18 65.3268 321.4 65.3268 321.624C65.3348 321.84 65.3388 322.064 65.3388 322.296C65.3548 323.008 65.5148 323.572 65.8188 323.988C66.1228 324.396 66.5788 324.6 67.1868 324.6Z" fill="#8697A8" fill-opacity="0.85"/>
<line x1="79" y1="321" x2="567" y2="321" stroke="#ECECEC"/>
<rect width="25" height="215" transform="translate(451.152 109)" fill="black" fill-opacity="0.1"/>
<path d="M451.152 109H483.152V320C483.152 322.209 481.361 324 479.152 324H455.152C452.943 324 451.152 322.209 451.152 320V109Z" fill="#2161D5"/>
<rect x="520.05" y="109" width="25" height="215" rx="4" fill="#8697A8" fill-opacity="0.15"/>
<path d="M520.05 149H545.05V320C545.05 322.209 543.259 324 541.05 324H524.05C521.841 324 520.05 322.209 520.05 320V149Z" fill="#2161D5"/>
<rect x="106.792" y="110" width="25" height="215" rx="4" fill="#8697A8" fill-opacity="0.15"/>
<path d="M106.792 170H131.792V321C131.792 323.209 130.002 325 127.792 325H110.792C108.583 325 106.792 323.209 106.792 321V170Z" fill="#2161D5"/>
<rect x="175.555" y="109" width="25" height="215" rx="4" fill="#8697A8" fill-opacity="0.15"/>
<path d="M175.555 229H200.555V320C200.555 322.209 198.764 324 196.555 324H179.555C177.346 324 175.555 322.209 175.555 320V229Z" fill="#2161D5"/>
<rect x="244.454" y="109" width="25" height="215" rx="4" fill="#8697A8" fill-opacity="0.15"/>
<path d="M244.454 279H269.454V320C269.454 322.209 267.663 324 265.454 324H248.454C246.244 324 244.454 322.209 244.454 320V279Z" fill="#2161D5"/>
<rect x="313.353" y="109" width="25" height="215" rx="4" fill="#8697A8" fill-opacity="0.15"/>
<path d="M313.353 259H338.353V320C338.353 322.209 336.562 324 334.353 324H317.353C315.144 324 313.353 322.209 313.353 320V259Z" fill="#2161D5"/>
<rect x="382.252" y="109" width="25" height="215" rx="4" fill="#8697A8" fill-opacity="0.15"/>
<path d="M382.252 209H407.252V320C407.252 322.209 405.462 324 403.252 324H386.252C384.043 324 382.252 322.209 382.252 320V209Z" fill="#2161D5"/>
</g>
<defs>
<filter id="filter0_d_1_3991" x="0" y="0" width="617" height="389" filterUnits="userSpaceOnUse" color-interpolation-filters="sRGB">
<feFlood flood-opacity="0" result="BackgroundImageFix"/>
<feColorMatrix in="SourceAlpha" type="matrix" values="0 0 0 0 0 0 0 0 0 0 0 0 0 0 0 0 0 0 127 0" result="hardAlpha"/>
<feOffset/>
<feGaussianBlur stdDeviation="15"/>
<feComposite in2="hardAlpha" operator="out"/>
<feColorMatrix type="matrix" values="0 0 0 0 0 0 0 0 0 0 0 0 0 0 0 0 0 0 0.04 0"/>
<feBlend mode="normal" in2="BackgroundImageFix" result="effect1_dropShadow_1_3991"/>
<feBlend mode="normal" in="SourceGraphic" in2="effect1_dropShadow_1_3991" result="shape"/>
</filter>
</defs>
</svg>
