<svg width="402" height="350" viewBox="0 0 402 350" fill="none" xmlns="http://www.w3.org/2000/svg">
<g filter="url(#filter0_d_1_3863)">
<rect x="20" y="16" width="362" height="310" rx="7" fill="white"/>
</g>
<path d="M44.256 49.14C43.752 49.14 43.2713 49.0793 42.814 48.958C42.366 48.8273 41.9647 48.6313 41.61 48.37C41.2553 48.1087 40.9707 47.7867 40.756 47.404C40.5507 47.0213 40.4433 46.5687 40.434 46.046C40.434 45.962 40.462 45.892 40.518 45.836C40.574 45.7707 40.644 45.738 40.728 45.738H42.058C42.1793 45.738 42.268 45.7707 42.324 45.836C42.3893 45.9013 42.4407 45.99 42.478 46.102C42.5247 46.438 42.632 46.7133 42.8 46.928C42.968 47.1333 43.178 47.2873 43.43 47.39C43.6913 47.4833 43.9807 47.53 44.298 47.53C44.886 47.53 45.334 47.3387 45.642 46.956C45.9593 46.5733 46.118 46.0413 46.118 45.36V40.852H41.372C41.2693 40.852 41.1853 40.8193 41.12 40.754C41.064 40.6887 41.036 40.6093 41.036 40.516V39.536C41.036 39.4427 41.064 39.3633 41.12 39.298C41.1853 39.2327 41.2693 39.2 41.372 39.2H47.77C47.8727 39.2 47.9567 39.2327 48.022 39.298C48.0873 39.3633 48.12 39.4473 48.12 39.55V45.416C48.12 46.1907 47.9567 46.858 47.63 47.418C47.3127 47.978 46.8647 48.4073 46.286 48.706C45.7167 48.9953 45.04 49.14 44.256 49.14ZM52.7178 49.14C52.1485 49.14 51.6538 49.014 51.2338 48.762C50.8231 48.5007 50.5058 48.1367 50.2818 47.67C50.0578 47.194 49.9458 46.634 49.9458 45.99V42.056C49.9458 41.9627 49.9785 41.8833 50.0438 41.818C50.1091 41.7527 50.1885 41.72 50.2818 41.72H51.5138C51.6165 41.72 51.6958 41.7527 51.7518 41.818C51.8171 41.8833 51.8498 41.9627 51.8498 42.056V45.906C51.8498 47.0633 52.3585 47.642 53.3758 47.642C53.8611 47.642 54.2438 47.488 54.5238 47.18C54.8131 46.872 54.9578 46.4473 54.9578 45.906V42.056C54.9578 41.9627 54.9905 41.8833 55.0558 41.818C55.1211 41.7527 55.2005 41.72 55.2938 41.72H56.5258C56.6191 41.72 56.6985 41.7527 56.7638 41.818C56.8291 41.8833 56.8618 41.9627 56.8618 42.056V48.664C56.8618 48.7573 56.8291 48.8367 56.7638 48.902C56.6985 48.9673 56.6191 49 56.5258 49H55.3918C55.2891 49 55.2051 48.9673 55.1398 48.902C55.0838 48.8367 55.0558 48.7573 55.0558 48.664V48.09C54.8038 48.4167 54.4911 48.6733 54.1178 48.86C53.7445 49.0467 53.2778 49.14 52.7178 49.14ZM59.0471 49C58.9538 49 58.8744 48.9673 58.8091 48.902C58.7438 48.8367 58.7111 48.7573 58.7111 48.664V42.056C58.7111 41.9627 58.7438 41.8833 58.8091 41.818C58.8744 41.7527 58.9538 41.72 59.0471 41.72H60.1391C60.2324 41.72 60.3118 41.7527 60.3771 41.818C60.4424 41.8833 60.4751 41.9627 60.4751 42.056V42.532C60.6711 42.2707 60.9324 42.0513 61.2591 41.874C61.5951 41.6873 61.9918 41.5893 62.4491 41.58C63.5131 41.5613 64.2551 41.9767 64.6751 42.826C64.8898 42.4527 65.1978 42.154 65.5991 41.93C66.0098 41.6967 66.4624 41.58 66.9571 41.58C67.4424 41.58 67.8811 41.692 68.2731 41.916C68.6744 42.14 68.9871 42.4807 69.2111 42.938C69.4444 43.386 69.5611 43.9553 69.5611 44.646V48.664C69.5611 48.7573 69.5284 48.8367 69.4631 48.902C69.3978 48.9673 69.3184 49 69.2251 49H68.0771C67.9838 49 67.9044 48.9673 67.8391 48.902C67.7738 48.8367 67.7411 48.7573 67.7411 48.664V44.758C67.7411 44.338 67.6804 44.0067 67.5591 43.764C67.4378 43.512 67.2744 43.3347 67.0691 43.232C66.8638 43.1293 66.6351 43.078 66.3831 43.078C66.1778 43.078 65.9724 43.1293 65.7671 43.232C65.5618 43.3347 65.3938 43.512 65.2631 43.764C65.1324 44.0067 65.0671 44.338 65.0671 44.758V48.664C65.0671 48.7573 65.0344 48.8367 64.9691 48.902C64.9038 48.9673 64.8244 49 64.7311 49H63.5831C63.4804 49 63.3964 48.9673 63.3311 48.902C63.2751 48.8367 63.2471 48.7573 63.2471 48.664V44.758C63.2471 44.338 63.1818 44.0067 63.0511 43.764C62.9204 43.512 62.7524 43.3347 62.5471 43.232C62.3418 43.1293 62.1224 43.078 61.8891 43.078C61.6744 43.078 61.4644 43.134 61.2591 43.246C61.0538 43.3487 60.8858 43.5213 60.7551 43.764C60.6244 44.0067 60.5591 44.338 60.5591 44.758V48.664C60.5591 48.7573 60.5264 48.8367 60.4611 48.902C60.3958 48.9673 60.3164 49 60.2231 49H59.0471ZM71.6939 49C71.6006 49 71.5213 48.9673 71.4559 48.902C71.3906 48.8367 71.3579 48.7573 71.3579 48.664V39.396C71.3579 39.3027 71.3906 39.2233 71.4559 39.158C71.5213 39.0927 71.6006 39.06 71.6939 39.06H72.8559C72.9493 39.06 73.0286 39.0927 73.0939 39.158C73.1593 39.2233 73.1919 39.3027 73.1919 39.396V48.664C73.1919 48.7573 73.1593 48.8367 73.0939 48.902C73.0286 48.9673 72.9493 49 72.8559 49H71.6939ZM77.163 49.14C76.6777 49.14 76.239 49.0467 75.847 48.86C75.455 48.664 75.1423 48.4073 74.909 48.09C74.685 47.7633 74.573 47.3993 74.573 46.998C74.573 46.3447 74.8343 45.8267 75.357 45.444C75.889 45.052 76.589 44.7907 77.457 44.66L79.375 44.38V44.086C79.375 43.694 79.277 43.3907 79.081 43.176C78.885 42.9613 78.549 42.854 78.073 42.854C77.737 42.854 77.4617 42.924 77.247 43.064C77.0417 43.1947 76.8877 43.372 76.785 43.596C76.7103 43.7173 76.603 43.778 76.463 43.778H75.357C75.2543 43.778 75.175 43.75 75.119 43.694C75.0723 43.638 75.049 43.5633 75.049 43.47C75.0583 43.3207 75.119 43.1387 75.231 42.924C75.343 42.7093 75.5203 42.504 75.763 42.308C76.0057 42.1027 76.3183 41.93 76.701 41.79C77.0837 41.65 77.5457 41.58 78.087 41.58C78.675 41.58 79.1697 41.6547 79.571 41.804C79.9817 41.944 80.3083 42.1353 80.551 42.378C80.7937 42.6207 80.971 42.9053 81.083 43.232C81.195 43.5587 81.251 43.904 81.251 44.268V48.664C81.251 48.7573 81.2183 48.8367 81.153 48.902C81.0877 48.9673 81.0083 49 80.915 49H79.781C79.6783 49 79.5943 48.9673 79.529 48.902C79.473 48.8367 79.445 48.7573 79.445 48.664V48.118C79.3237 48.2953 79.1603 48.4633 78.955 48.622C78.7497 48.7713 78.4977 48.8973 78.199 49C77.9097 49.0933 77.5643 49.14 77.163 49.14ZM77.639 47.81C77.9657 47.81 78.2597 47.74 78.521 47.6C78.7917 47.46 79.0017 47.2453 79.151 46.956C79.3097 46.6573 79.389 46.284 79.389 45.836V45.542L77.989 45.766C77.4383 45.85 77.0277 45.9853 76.757 46.172C76.4863 46.3587 76.351 46.5873 76.351 46.858C76.351 47.0633 76.4117 47.2407 76.533 47.39C76.6637 47.53 76.827 47.6373 77.023 47.712C77.219 47.7773 77.4243 47.81 77.639 47.81ZM83.397 49C83.3037 49 83.2244 48.9673 83.159 48.902C83.0937 48.8367 83.061 48.7573 83.061 48.664V39.396C83.061 39.3027 83.0937 39.2233 83.159 39.158C83.2244 39.0927 83.3037 39.06 83.397 39.06H84.643C84.7457 39.06 84.825 39.0927 84.881 39.158C84.9464 39.2233 84.979 39.3027 84.979 39.396V42.588C85.231 42.2893 85.539 42.0467 85.903 41.86C86.267 41.6733 86.715 41.58 87.247 41.58C87.8164 41.58 88.311 41.7107 88.731 41.972C89.1604 42.224 89.4917 42.5833 89.725 43.05C89.9584 43.5167 90.075 44.0767 90.075 44.73V48.664C90.075 48.7573 90.0424 48.8367 89.977 48.902C89.9117 48.9673 89.8324 49 89.739 49H88.479C88.3857 49 88.3064 48.9673 88.241 48.902C88.1757 48.8367 88.143 48.7573 88.143 48.664V44.814C88.143 44.2727 88.0077 43.848 87.737 43.54C87.4757 43.232 87.093 43.078 86.589 43.078C86.1037 43.078 85.7117 43.232 85.413 43.54C85.1237 43.848 84.979 44.2727 84.979 44.814V48.664C84.979 48.7573 84.9464 48.8367 84.881 48.902C84.825 48.9673 84.7457 49 84.643 49H83.397ZM95.555 49C95.4616 49 95.3823 48.9673 95.317 48.902C95.2516 48.8367 95.219 48.7573 95.219 48.664V39.55C95.219 39.4473 95.2516 39.3633 95.317 39.298C95.3823 39.2327 95.4616 39.2 95.555 39.2H96.787C96.8896 39.2 96.9736 39.2327 97.039 39.298C97.1043 39.3633 97.137 39.4473 97.137 39.55V42.826L100.301 39.452C100.338 39.4053 100.399 39.354 100.483 39.298C100.576 39.2327 100.698 39.2 100.847 39.2H102.233C102.308 39.2 102.373 39.228 102.429 39.284C102.494 39.34 102.527 39.41 102.527 39.494C102.527 39.5593 102.508 39.6153 102.471 39.662L98.621 43.89L102.737 48.524C102.784 48.58 102.807 48.6407 102.807 48.706C102.807 48.79 102.774 48.86 102.709 48.916C102.653 48.972 102.588 49 102.513 49H101.071C100.912 49 100.786 48.9673 100.693 48.902C100.609 48.8273 100.553 48.776 100.525 48.748L97.137 45.038V48.664C97.137 48.7573 97.1043 48.8367 97.039 48.902C96.9736 48.9673 96.8896 49 96.787 49H95.555ZM104.401 49C104.307 49 104.228 48.9673 104.163 48.902C104.097 48.8367 104.065 48.7573 104.065 48.664V39.55C104.065 39.4473 104.097 39.3633 104.163 39.298C104.228 39.2327 104.307 39.2 104.401 39.2H105.633C105.735 39.2 105.819 39.2327 105.885 39.298C105.95 39.3633 105.983 39.4473 105.983 39.55V42.826L109.147 39.452C109.184 39.4053 109.245 39.354 109.329 39.298C109.422 39.2327 109.543 39.2 109.693 39.2H111.079C111.153 39.2 111.219 39.228 111.275 39.284C111.34 39.34 111.373 39.41 111.373 39.494C111.373 39.5593 111.354 39.6153 111.317 39.662L107.467 43.89L111.583 48.524C111.629 48.58 111.653 48.6407 111.653 48.706C111.653 48.79 111.62 48.86 111.555 48.916C111.499 48.972 111.433 49 111.359 49H109.917C109.758 49 109.632 48.9673 109.539 48.902C109.455 48.8273 109.399 48.776 109.371 48.748L105.983 45.038V48.664C105.983 48.7573 105.95 48.8367 105.885 48.902C105.819 48.9673 105.735 49 105.633 49H104.401ZM118.164 49C118.071 49 117.991 48.9673 117.926 48.902C117.861 48.8367 117.828 48.7573 117.828 48.664V40.922H115.238C115.145 40.922 115.065 40.8893 115 40.824C114.935 40.7587 114.902 40.6793 114.902 40.586V39.55C114.902 39.4473 114.935 39.3633 115 39.298C115.065 39.2327 115.145 39.2 115.238 39.2H122.378C122.481 39.2 122.565 39.2327 122.63 39.298C122.695 39.3633 122.728 39.4473 122.728 39.55V40.586C122.728 40.6793 122.695 40.7587 122.63 40.824C122.565 40.8893 122.481 40.922 122.378 40.922H119.802V48.664C119.802 48.7573 119.769 48.8367 119.704 48.902C119.639 48.9673 119.555 49 119.452 49H118.164ZM124.235 49C124.141 49 124.062 48.9673 123.997 48.902C123.931 48.8367 123.899 48.7573 123.899 48.664V42.056C123.899 41.9627 123.931 41.8833 123.997 41.818C124.062 41.7527 124.141 41.72 124.235 41.72H125.397C125.499 41.72 125.579 41.7527 125.635 41.818C125.7 41.8833 125.733 41.9627 125.733 42.056V48.664C125.733 48.7573 125.7 48.8367 125.635 48.902C125.579 48.9673 125.499 49 125.397 49H124.235ZM124.179 40.516C124.076 40.516 123.992 40.488 123.927 40.432C123.871 40.3667 123.843 40.2827 123.843 40.18V39.172C123.843 39.0787 123.871 38.9993 123.927 38.934C123.992 38.8687 124.076 38.836 124.179 38.836H125.453C125.555 38.836 125.639 38.8687 125.705 38.934C125.77 38.9993 125.803 39.0787 125.803 39.172V40.18C125.803 40.2827 125.77 40.3667 125.705 40.432C125.639 40.488 125.555 40.516 125.453 40.516H124.179ZM129.704 49.14C129.219 49.14 128.78 49.0467 128.388 48.86C127.996 48.664 127.683 48.4073 127.45 48.09C127.226 47.7633 127.114 47.3993 127.114 46.998C127.114 46.3447 127.375 45.8267 127.898 45.444C128.43 45.052 129.13 44.7907 129.998 44.66L131.916 44.38V44.086C131.916 43.694 131.818 43.3907 131.622 43.176C131.426 42.9613 131.09 42.854 130.614 42.854C130.278 42.854 130.003 42.924 129.788 43.064C129.583 43.1947 129.429 43.372 129.326 43.596C129.251 43.7173 129.144 43.778 129.004 43.778H127.898C127.795 43.778 127.716 43.75 127.66 43.694C127.613 43.638 127.59 43.5633 127.59 43.47C127.599 43.3207 127.66 43.1387 127.772 42.924C127.884 42.7093 128.061 42.504 128.304 42.308C128.547 42.1027 128.859 41.93 129.242 41.79C129.625 41.65 130.087 41.58 130.628 41.58C131.216 41.58 131.711 41.6547 132.112 41.804C132.523 41.944 132.849 42.1353 133.092 42.378C133.335 42.6207 133.512 42.9053 133.624 43.232C133.736 43.5587 133.792 43.904 133.792 44.268V48.664C133.792 48.7573 133.759 48.8367 133.694 48.902C133.629 48.9673 133.549 49 133.456 49H132.322C132.219 49 132.135 48.9673 132.07 48.902C132.014 48.8367 131.986 48.7573 131.986 48.664V48.118C131.865 48.2953 131.701 48.4633 131.496 48.622C131.291 48.7713 131.039 48.8973 130.74 49C130.451 49.0933 130.105 49.14 129.704 49.14ZM130.18 47.81C130.507 47.81 130.801 47.74 131.062 47.6C131.333 47.46 131.543 47.2453 131.692 46.956C131.851 46.6573 131.93 46.284 131.93 45.836V45.542L130.53 45.766C129.979 45.85 129.569 45.9853 129.298 46.172C129.027 46.3587 128.892 46.5873 128.892 46.858C128.892 47.0633 128.953 47.2407 129.074 47.39C129.205 47.53 129.368 47.6373 129.564 47.712C129.76 47.7773 129.965 47.81 130.18 47.81ZM135.938 51.66C135.845 51.66 135.765 51.6273 135.7 51.562C135.635 51.4967 135.602 51.4173 135.602 51.324V42.056C135.602 41.9627 135.635 41.8833 135.7 41.818C135.765 41.7527 135.845 41.72 135.938 41.72H137.044C137.147 41.72 137.226 41.7527 137.282 41.818C137.347 41.8833 137.38 41.9627 137.38 42.056V42.616C137.604 42.3173 137.898 42.07 138.262 41.874C138.626 41.678 139.079 41.58 139.62 41.58C140.115 41.58 140.544 41.6593 140.908 41.818C141.272 41.9767 141.575 42.2053 141.818 42.504C142.061 42.7933 142.247 43.1387 142.378 43.54C142.509 43.9413 142.583 44.3847 142.602 44.87C142.611 45.0287 142.616 45.192 142.616 45.36C142.616 45.528 142.611 45.696 142.602 45.864C142.593 46.3307 142.523 46.7647 142.392 47.166C142.261 47.558 142.07 47.9033 141.818 48.202C141.575 48.4913 141.272 48.72 140.908 48.888C140.544 49.056 140.115 49.14 139.62 49.14C139.116 49.14 138.687 49.0513 138.332 48.874C137.977 48.6873 137.688 48.4447 137.464 48.146V51.324C137.464 51.4173 137.431 51.4967 137.366 51.562C137.31 51.6273 137.231 51.66 137.128 51.66H135.938ZM139.102 47.642C139.503 47.642 139.816 47.558 140.04 47.39C140.264 47.2127 140.423 46.984 140.516 46.704C140.619 46.424 140.679 46.116 140.698 45.78C140.717 45.5 140.717 45.22 140.698 44.94C140.679 44.604 140.619 44.296 140.516 44.016C140.423 43.736 140.264 43.512 140.04 43.344C139.816 43.1667 139.503 43.078 139.102 43.078C138.719 43.078 138.407 43.1667 138.164 43.344C137.931 43.5213 137.758 43.75 137.646 44.03C137.543 44.3007 137.483 44.5807 137.464 44.87C137.455 45.038 137.45 45.2153 137.45 45.402C137.45 45.5887 137.455 45.7707 137.464 45.948C137.473 46.228 137.539 46.4987 137.66 46.76C137.781 47.012 137.959 47.222 138.192 47.39C138.425 47.558 138.729 47.642 139.102 47.642ZM147.891 49C147.798 49 147.718 48.9673 147.653 48.902C147.588 48.8367 147.555 48.7573 147.555 48.664V39.55C147.555 39.4473 147.588 39.3633 147.653 39.298C147.718 39.2327 147.798 39.2 147.891 39.2H151.307C152.25 39.2 153.024 39.3447 153.631 39.634C154.247 39.9233 154.709 40.3527 155.017 40.922C155.334 41.4913 155.498 42.1867 155.507 43.008C155.526 43.4187 155.535 43.7827 155.535 44.1C155.535 44.4173 155.526 44.7767 155.507 45.178C155.488 46.046 155.33 46.7647 155.031 47.334C154.732 47.894 154.28 48.314 153.673 48.594C153.076 48.8647 152.31 49 151.377 49H147.891ZM149.501 47.39H151.307C151.83 47.39 152.254 47.3153 152.581 47.166C152.908 47.0167 153.146 46.7787 153.295 46.452C153.454 46.116 153.538 45.6773 153.547 45.136C153.556 44.856 153.561 44.6133 153.561 44.408C153.57 44.1933 153.57 43.9833 153.561 43.778C153.561 43.5633 153.556 43.3207 153.547 43.05C153.528 42.2847 153.337 41.72 152.973 41.356C152.609 40.992 152.03 40.81 151.237 40.81H149.501V47.39ZM159.933 49.14C159.363 49.14 158.869 49.014 158.449 48.762C158.038 48.5007 157.721 48.1367 157.497 47.67C157.273 47.194 157.161 46.634 157.161 45.99V42.056C157.161 41.9627 157.193 41.8833 157.259 41.818C157.324 41.7527 157.403 41.72 157.497 41.72H158.729C158.831 41.72 158.911 41.7527 158.967 41.818C159.032 41.8833 159.065 41.9627 159.065 42.056V45.906C159.065 47.0633 159.573 47.642 160.591 47.642C161.076 47.642 161.459 47.488 161.739 47.18C162.028 46.872 162.173 46.4473 162.173 45.906V42.056C162.173 41.9627 162.205 41.8833 162.271 41.818C162.336 41.7527 162.415 41.72 162.509 41.72H163.741C163.834 41.72 163.913 41.7527 163.979 41.818C164.044 41.8833 164.077 41.9627 164.077 42.056V48.664C164.077 48.7573 164.044 48.8367 163.979 48.902C163.913 48.9673 163.834 49 163.741 49H162.607C162.504 49 162.42 48.9673 162.355 48.902C162.299 48.8367 162.271 48.7573 162.271 48.664V48.09C162.019 48.4167 161.706 48.6733 161.333 48.86C160.959 49.0467 160.493 49.14 159.933 49.14ZM168.684 49.14C168.124 49.14 167.643 49.0747 167.242 48.944C166.85 48.8133 166.528 48.65 166.276 48.454C166.024 48.258 165.837 48.062 165.716 47.866C165.595 47.67 165.529 47.5067 165.52 47.376C165.511 47.2733 165.539 47.194 165.604 47.138C165.679 47.0727 165.758 47.04 165.842 47.04H166.948C166.985 47.04 167.018 47.0447 167.046 47.054C167.074 47.0633 167.111 47.0913 167.158 47.138C167.279 47.2407 167.405 47.348 167.536 47.46C167.676 47.572 167.839 47.67 168.026 47.754C168.213 47.8287 168.446 47.866 168.726 47.866C169.09 47.866 169.393 47.796 169.636 47.656C169.888 47.5067 170.014 47.2967 170.014 47.026C170.014 46.83 169.958 46.6713 169.846 46.55C169.743 46.4287 169.547 46.3213 169.258 46.228C168.969 46.1253 168.558 46.018 168.026 45.906C167.503 45.7847 167.069 45.6307 166.724 45.444C166.379 45.2573 166.122 45.024 165.954 44.744C165.786 44.464 165.702 44.1373 165.702 43.764C165.702 43.4 165.809 43.0547 166.024 42.728C166.248 42.392 166.575 42.1167 167.004 41.902C167.443 41.6873 167.984 41.58 168.628 41.58C169.132 41.58 169.571 41.6453 169.944 41.776C170.317 41.8973 170.625 42.0513 170.868 42.238C171.12 42.4247 171.311 42.616 171.442 42.812C171.573 42.9987 171.643 43.162 171.652 43.302C171.661 43.4047 171.633 43.4887 171.568 43.554C171.503 43.61 171.428 43.638 171.344 43.638H170.308C170.261 43.638 170.219 43.6287 170.182 43.61C170.145 43.5913 170.107 43.568 170.07 43.54C169.967 43.4467 169.855 43.3487 169.734 43.246C169.613 43.1433 169.463 43.0547 169.286 42.98C169.118 42.896 168.894 42.854 168.614 42.854C168.259 42.854 167.989 42.9333 167.802 43.092C167.615 43.2413 167.522 43.4327 167.522 43.666C167.522 43.8247 167.564 43.9647 167.648 44.086C167.741 44.198 167.923 44.3053 168.194 44.408C168.465 44.5107 168.875 44.618 169.426 44.73C170.051 44.842 170.546 45.01 170.91 45.234C171.283 45.4487 171.545 45.7007 171.694 45.99C171.853 46.27 171.932 46.5827 171.932 46.928C171.932 47.348 171.806 47.726 171.554 48.062C171.311 48.398 170.947 48.664 170.462 48.86C169.986 49.0467 169.393 49.14 168.684 49.14ZM176.079 49.14C175.51 49.14 175.015 49.014 174.595 48.762C174.184 48.5007 173.867 48.1367 173.643 47.67C173.419 47.194 173.307 46.634 173.307 45.99V42.056C173.307 41.9627 173.34 41.8833 173.405 41.818C173.47 41.7527 173.55 41.72 173.643 41.72H174.875C174.978 41.72 175.057 41.7527 175.113 41.818C175.178 41.8833 175.211 41.9627 175.211 42.056V45.906C175.211 47.0633 175.72 47.642 176.737 47.642C177.222 47.642 177.605 47.488 177.885 47.18C178.174 46.872 178.319 46.4473 178.319 45.906V42.056C178.319 41.9627 178.352 41.8833 178.417 41.818C178.482 41.7527 178.562 41.72 178.655 41.72H179.887C179.98 41.72 180.06 41.7527 180.125 41.818C180.19 41.8833 180.223 41.9627 180.223 42.056V48.664C180.223 48.7573 180.19 48.8367 180.125 48.902C180.06 48.9673 179.98 49 179.887 49H178.753C178.65 49 178.566 48.9673 178.501 48.902C178.445 48.8367 178.417 48.7573 178.417 48.664V48.09C178.165 48.4167 177.852 48.6733 177.479 48.86C177.106 49.0467 176.639 49.14 176.079 49.14ZM182.408 49C182.315 49 182.236 48.9673 182.17 48.902C182.105 48.8367 182.072 48.7573 182.072 48.664V42.056C182.072 41.9627 182.105 41.8833 182.17 41.818C182.236 41.7527 182.315 41.72 182.408 41.72H183.556C183.65 41.72 183.729 41.7527 183.794 41.818C183.86 41.8833 183.892 41.9627 183.892 42.056V42.63C184.135 42.3313 184.443 42.084 184.816 41.888C185.199 41.6827 185.67 41.58 186.23 41.58C186.8 41.58 187.294 41.7107 187.714 41.972C188.134 42.224 188.456 42.5833 188.68 43.05C188.914 43.5167 189.03 44.0767 189.03 44.73V48.664C189.03 48.7573 188.998 48.8367 188.932 48.902C188.867 48.9673 188.788 49 188.694 49H187.462C187.369 49 187.29 48.9673 187.224 48.902C187.159 48.8367 187.126 48.7573 187.126 48.664V44.814C187.126 44.2727 186.991 43.848 186.72 43.54C186.459 43.232 186.076 43.078 185.572 43.078C185.087 43.078 184.7 43.232 184.41 43.54C184.121 43.848 183.976 44.2727 183.976 44.814V48.664C183.976 48.7573 183.944 48.8367 183.878 48.902C183.813 48.9673 183.734 49 183.64 49H182.408Z" fill="#44556C"/>
<path d="M281.878 187C281.878 205.685 275.713 223.847 264.338 238.671C252.964 253.494 237.016 264.15 218.968 268.986C200.92 273.822 181.781 272.568 164.519 265.417C147.256 258.267 132.836 245.621 123.494 229.439L138.195 220.952C145.669 233.897 157.205 244.014 171.015 249.734C184.825 255.454 200.136 256.458 214.575 252.589C229.013 248.72 241.771 240.196 250.871 228.337C259.97 216.478 264.903 201.948 264.903 187H281.878Z" fill="#2161D5"/>
<path d="M119.599 226.726C112.061 212.039 108.858 195.511 110.362 179.072C111.866 162.632 118.017 146.96 128.095 133.885C138.174 120.811 151.764 110.874 167.279 105.234C182.794 99.5946 199.593 98.4856 215.715 102.037L211.972 119.029C199.075 116.189 185.635 117.076 173.223 121.587C160.811 126.099 149.939 134.049 141.876 144.508C133.814 154.968 128.893 167.506 127.69 180.657C126.486 193.809 129.049 207.031 135.08 218.781L119.599 226.726Z" fill="#97ACD1"/>
<path d="M218.968 105.014C233.36 108.871 246.483 116.447 257.018 126.983C267.553 137.518 275.13 150.641 278.986 165.032L262.589 169.426C259.504 157.913 253.443 147.414 245.014 138.986C236.586 130.558 226.088 124.497 214.575 121.412L218.968 105.014Z" fill="#7375C7"/>
<path d="M278.986 165.032C280.906 172.197 281.878 179.583 281.878 187H264.903C264.903 181.066 264.125 175.158 262.589 169.426L278.986 165.032Z" fill="#89AFE7"/>
<path d="M162 277L175.043 290.043H196.631" stroke="black" stroke-opacity="0.2" stroke-width="0.899497"/>
<rect x="200" y="285.5" width="8" height="7" fill="#2161D5"/>
<path d="M213.32 293C213.232 293 213.164 292.976 213.116 292.928C213.068 292.872 213.044 292.804 213.044 292.724V284.888C213.044 284.8 213.068 284.732 213.116 284.684C213.164 284.628 213.232 284.6 213.32 284.6H216.044C216.868 284.6 217.532 284.724 218.036 284.972C218.54 285.22 218.908 285.588 219.14 286.076C219.372 286.556 219.492 287.148 219.5 287.852C219.508 288.212 219.512 288.528 219.512 288.8C219.512 289.072 219.508 289.384 219.5 289.736C219.484 290.472 219.36 291.084 219.128 291.572C218.904 292.052 218.544 292.412 218.048 292.652C217.56 292.884 216.912 293 216.104 293H213.32ZM214.22 291.98H216.044C216.596 291.98 217.036 291.904 217.364 291.752C217.692 291.6 217.928 291.356 218.072 291.02C218.224 290.684 218.304 290.24 218.312 289.688C218.328 289.448 218.336 289.24 218.336 289.064C218.336 288.88 218.336 288.7 218.336 288.524C218.336 288.34 218.328 288.132 218.312 287.9C218.296 287.124 218.112 286.552 217.76 286.184C217.408 285.808 216.816 285.62 215.984 285.62H214.22V291.98ZM224.089 293.12C223.577 293.12 223.141 293.008 222.781 292.784C222.429 292.552 222.161 292.232 221.977 291.824C221.793 291.416 221.701 290.948 221.701 290.42V287.036C221.701 286.956 221.725 286.892 221.773 286.844C221.829 286.788 221.897 286.76 221.977 286.76H222.577C222.657 286.76 222.721 286.788 222.769 286.844C222.825 286.892 222.853 286.956 222.853 287.036V290.36C222.853 291.552 223.373 292.148 224.413 292.148C224.909 292.148 225.305 291.992 225.601 291.68C225.905 291.36 226.057 290.92 226.057 290.36V287.036C226.057 286.956 226.081 286.892 226.129 286.844C226.185 286.788 226.253 286.76 226.333 286.76H226.921C227.009 286.76 227.077 286.788 227.125 286.844C227.173 286.892 227.197 286.956 227.197 287.036V292.724C227.197 292.804 227.173 292.872 227.125 292.928C227.077 292.976 227.009 293 226.921 293H226.369C226.289 293 226.221 292.976 226.165 292.928C226.117 292.872 226.093 292.804 226.093 292.724V292.196C225.877 292.476 225.613 292.7 225.301 292.868C224.997 293.036 224.593 293.12 224.089 293.12ZM231.74 293.12C231.292 293.12 230.908 293.064 230.588 292.952C230.268 292.84 230.008 292.704 229.808 292.544C229.608 292.384 229.456 292.224 229.352 292.064C229.256 291.904 229.204 291.776 229.196 291.68C229.188 291.592 229.216 291.524 229.28 291.476C229.344 291.428 229.408 291.404 229.472 291.404H230C230.048 291.404 230.084 291.412 230.108 291.428C230.14 291.436 230.18 291.468 230.228 291.524C230.332 291.636 230.448 291.748 230.576 291.86C230.704 291.972 230.86 292.064 231.044 292.136C231.236 292.208 231.472 292.244 231.752 292.244C232.16 292.244 232.496 292.168 232.76 292.016C233.024 291.856 233.156 291.624 233.156 291.32C233.156 291.12 233.1 290.96 232.988 290.84C232.884 290.72 232.692 290.612 232.412 290.516C232.14 290.42 231.764 290.32 231.284 290.216C230.804 290.104 230.424 289.968 230.144 289.808C229.864 289.64 229.664 289.444 229.544 289.22C229.424 288.988 229.364 288.728 229.364 288.44C229.364 288.144 229.452 287.86 229.628 287.588C229.804 287.308 230.06 287.08 230.396 286.904C230.74 286.728 231.168 286.64 231.68 286.64C232.096 286.64 232.452 286.692 232.748 286.796C233.044 286.9 233.288 287.032 233.48 287.192C233.672 287.344 233.816 287.496 233.912 287.648C234.008 287.8 234.06 287.928 234.068 288.032C234.076 288.112 234.052 288.18 233.996 288.236C233.94 288.284 233.876 288.308 233.804 288.308H233.3C233.244 288.308 233.196 288.296 233.156 288.272C233.124 288.248 233.092 288.22 233.06 288.188C232.98 288.084 232.884 287.98 232.772 287.876C232.668 287.772 232.528 287.688 232.352 287.624C232.184 287.552 231.96 287.516 231.68 287.516C231.28 287.516 230.98 287.6 230.78 287.768C230.58 287.936 230.48 288.148 230.48 288.404C230.48 288.556 230.524 288.692 230.612 288.812C230.7 288.932 230.868 289.04 231.116 289.136C231.364 289.232 231.732 289.336 232.22 289.448C232.748 289.552 233.164 289.692 233.468 289.868C233.772 290.044 233.988 290.248 234.116 290.48C234.244 290.712 234.308 290.98 234.308 291.284C234.308 291.62 234.208 291.928 234.008 292.208C233.816 292.488 233.528 292.712 233.144 292.88C232.768 293.04 232.3 293.12 231.74 293.12ZM238.625 293.12C238.113 293.12 237.677 293.008 237.317 292.784C236.965 292.552 236.697 292.232 236.513 291.824C236.329 291.416 236.237 290.948 236.237 290.42V287.036C236.237 286.956 236.261 286.892 236.309 286.844C236.365 286.788 236.433 286.76 236.513 286.76H237.113C237.193 286.76 237.257 286.788 237.305 286.844C237.361 286.892 237.389 286.956 237.389 287.036V290.36C237.389 291.552 237.909 292.148 238.949 292.148C239.445 292.148 239.841 291.992 240.137 291.68C240.441 291.36 240.593 290.92 240.593 290.36V287.036C240.593 286.956 240.617 286.892 240.665 286.844C240.721 286.788 240.789 286.76 240.869 286.76H241.457C241.545 286.76 241.613 286.788 241.661 286.844C241.709 286.892 241.733 286.956 241.733 287.036V292.724C241.733 292.804 241.709 292.872 241.661 292.928C241.613 292.976 241.545 293 241.457 293H240.905C240.825 293 240.757 292.976 240.701 292.928C240.653 292.872 240.629 292.804 240.629 292.724V292.196C240.413 292.476 240.149 292.7 239.837 292.868C239.533 293.036 239.129 293.12 238.625 293.12ZM244.392 293C244.312 293 244.244 292.976 244.188 292.928C244.14 292.872 244.116 292.804 244.116 292.724V287.036C244.116 286.956 244.14 286.892 244.188 286.844C244.244 286.788 244.312 286.76 244.392 286.76H244.956C245.036 286.76 245.1 286.788 245.148 286.844C245.204 286.892 245.232 286.956 245.232 287.036V287.564C245.44 287.292 245.7 287.072 246.012 286.904C246.332 286.728 246.74 286.64 247.236 286.64C247.756 286.64 248.196 286.756 248.556 286.988C248.924 287.212 249.2 287.528 249.384 287.936C249.568 288.336 249.66 288.804 249.66 289.34V292.724C249.66 292.804 249.636 292.872 249.588 292.928C249.54 292.976 249.476 293 249.396 293H248.796C248.716 293 248.648 292.976 248.592 292.928C248.544 292.872 248.52 292.804 248.52 292.724V289.4C248.52 288.84 248.384 288.404 248.112 288.092C247.84 287.772 247.44 287.612 246.912 287.612C246.416 287.612 246.016 287.772 245.712 288.092C245.416 288.404 245.268 288.84 245.268 289.4V292.724C245.268 292.804 245.24 292.872 245.184 292.928C245.136 292.976 245.072 293 244.992 293H244.392ZM258.223 293.12C257.719 293.12 257.279 293.06 256.903 292.94C256.527 292.812 256.211 292.644 255.955 292.436C255.699 292.228 255.503 292 255.367 291.752C255.239 291.504 255.171 291.248 255.163 290.984C255.163 290.912 255.187 290.856 255.235 290.816C255.283 290.776 255.343 290.756 255.415 290.756H256.003C256.075 290.756 256.139 290.772 256.195 290.804C256.251 290.836 256.299 290.904 256.339 291.008C256.419 291.296 256.555 291.52 256.747 291.68C256.947 291.84 257.175 291.952 257.431 292.016C257.695 292.072 257.959 292.1 258.223 292.1C258.775 292.1 259.223 291.968 259.567 291.704C259.911 291.44 260.083 291.052 260.083 290.54C260.083 290.02 259.927 289.648 259.615 289.424C259.303 289.2 258.871 289.088 258.319 289.088H257.179C257.099 289.088 257.031 289.064 256.975 289.016C256.927 288.968 256.903 288.9 256.903 288.812V288.488C256.903 288.416 256.915 288.356 256.939 288.308C256.971 288.252 257.003 288.204 257.035 288.164L259.363 285.62H255.823C255.743 285.62 255.675 285.596 255.619 285.548C255.571 285.5 255.547 285.432 255.547 285.344V284.888C255.547 284.8 255.571 284.732 255.619 284.684C255.675 284.628 255.743 284.6 255.823 284.6H260.611C260.699 284.6 260.767 284.628 260.815 284.684C260.871 284.732 260.899 284.8 260.899 284.888V285.32C260.899 285.376 260.883 285.428 260.851 285.476C260.827 285.516 260.799 285.556 260.767 285.596L258.451 288.176L258.643 288.188C259.171 288.204 259.631 288.3 260.023 288.476C260.423 288.652 260.731 288.916 260.947 289.268C261.171 289.612 261.283 290.048 261.283 290.576C261.283 291.112 261.151 291.572 260.887 291.956C260.623 292.332 260.259 292.62 259.795 292.82C259.331 293.02 258.807 293.12 258.223 293.12Z" fill="#8697A8"/>
<rect x="283" y="100" width="8" height="7" fill="#7375C7"/>
<path d="M284.32 122C284.232 122 284.164 121.976 284.116 121.928C284.068 121.872 284.044 121.804 284.044 121.724V113.888C284.044 113.8 284.068 113.732 284.116 113.684C284.164 113.628 284.232 113.6 284.32 113.6H287.044C287.868 113.6 288.532 113.724 289.036 113.972C289.54 114.22 289.908 114.588 290.14 115.076C290.372 115.556 290.492 116.148 290.5 116.852C290.508 117.212 290.512 117.528 290.512 117.8C290.512 118.072 290.508 118.384 290.5 118.736C290.484 119.472 290.36 120.084 290.128 120.572C289.904 121.052 289.544 121.412 289.048 121.652C288.56 121.884 287.912 122 287.104 122H284.32ZM285.22 120.98H287.044C287.596 120.98 288.036 120.904 288.364 120.752C288.692 120.6 288.928 120.356 289.072 120.02C289.224 119.684 289.304 119.24 289.312 118.688C289.328 118.448 289.336 118.24 289.336 118.064C289.336 117.88 289.336 117.7 289.336 117.524C289.336 117.34 289.328 117.132 289.312 116.9C289.296 116.124 289.112 115.552 288.76 115.184C288.408 114.808 287.816 114.62 286.984 114.62H285.22V120.98ZM295.089 122.12C294.577 122.12 294.141 122.008 293.781 121.784C293.429 121.552 293.161 121.232 292.977 120.824C292.793 120.416 292.701 119.948 292.701 119.42V116.036C292.701 115.956 292.725 115.892 292.773 115.844C292.829 115.788 292.897 115.76 292.977 115.76H293.577C293.657 115.76 293.721 115.788 293.769 115.844C293.825 115.892 293.853 115.956 293.853 116.036V119.36C293.853 120.552 294.373 121.148 295.413 121.148C295.909 121.148 296.305 120.992 296.601 120.68C296.905 120.36 297.057 119.92 297.057 119.36V116.036C297.057 115.956 297.081 115.892 297.129 115.844C297.185 115.788 297.253 115.76 297.333 115.76H297.921C298.009 115.76 298.077 115.788 298.125 115.844C298.173 115.892 298.197 115.956 298.197 116.036V121.724C298.197 121.804 298.173 121.872 298.125 121.928C298.077 121.976 298.009 122 297.921 122H297.369C297.289 122 297.221 121.976 297.165 121.928C297.117 121.872 297.093 121.804 297.093 121.724V121.196C296.877 121.476 296.613 121.7 296.301 121.868C295.997 122.036 295.593 122.12 295.089 122.12ZM302.74 122.12C302.292 122.12 301.908 122.064 301.588 121.952C301.268 121.84 301.008 121.704 300.808 121.544C300.608 121.384 300.456 121.224 300.352 121.064C300.256 120.904 300.204 120.776 300.196 120.68C300.188 120.592 300.216 120.524 300.28 120.476C300.344 120.428 300.408 120.404 300.472 120.404H301C301.048 120.404 301.084 120.412 301.108 120.428C301.14 120.436 301.18 120.468 301.228 120.524C301.332 120.636 301.448 120.748 301.576 120.86C301.704 120.972 301.86 121.064 302.044 121.136C302.236 121.208 302.472 121.244 302.752 121.244C303.16 121.244 303.496 121.168 303.76 121.016C304.024 120.856 304.156 120.624 304.156 120.32C304.156 120.12 304.1 119.96 303.988 119.84C303.884 119.72 303.692 119.612 303.412 119.516C303.14 119.42 302.764 119.32 302.284 119.216C301.804 119.104 301.424 118.968 301.144 118.808C300.864 118.64 300.664 118.444 300.544 118.22C300.424 117.988 300.364 117.728 300.364 117.44C300.364 117.144 300.452 116.86 300.628 116.588C300.804 116.308 301.06 116.08 301.396 115.904C301.74 115.728 302.168 115.64 302.68 115.64C303.096 115.64 303.452 115.692 303.748 115.796C304.044 115.9 304.288 116.032 304.48 116.192C304.672 116.344 304.816 116.496 304.912 116.648C305.008 116.8 305.06 116.928 305.068 117.032C305.076 117.112 305.052 117.18 304.996 117.236C304.94 117.284 304.876 117.308 304.804 117.308H304.3C304.244 117.308 304.196 117.296 304.156 117.272C304.124 117.248 304.092 117.22 304.06 117.188C303.98 117.084 303.884 116.98 303.772 116.876C303.668 116.772 303.528 116.688 303.352 116.624C303.184 116.552 302.96 116.516 302.68 116.516C302.28 116.516 301.98 116.6 301.78 116.768C301.58 116.936 301.48 117.148 301.48 117.404C301.48 117.556 301.524 117.692 301.612 117.812C301.7 117.932 301.868 118.04 302.116 118.136C302.364 118.232 302.732 118.336 303.22 118.448C303.748 118.552 304.164 118.692 304.468 118.868C304.772 119.044 304.988 119.248 305.116 119.48C305.244 119.712 305.308 119.98 305.308 120.284C305.308 120.62 305.208 120.928 305.008 121.208C304.816 121.488 304.528 121.712 304.144 121.88C303.768 122.04 303.3 122.12 302.74 122.12ZM309.625 122.12C309.113 122.12 308.677 122.008 308.317 121.784C307.965 121.552 307.697 121.232 307.513 120.824C307.329 120.416 307.237 119.948 307.237 119.42V116.036C307.237 115.956 307.261 115.892 307.309 115.844C307.365 115.788 307.433 115.76 307.513 115.76H308.113C308.193 115.76 308.257 115.788 308.305 115.844C308.361 115.892 308.389 115.956 308.389 116.036V119.36C308.389 120.552 308.909 121.148 309.949 121.148C310.445 121.148 310.841 120.992 311.137 120.68C311.441 120.36 311.593 119.92 311.593 119.36V116.036C311.593 115.956 311.617 115.892 311.665 115.844C311.721 115.788 311.789 115.76 311.869 115.76H312.457C312.545 115.76 312.613 115.788 312.661 115.844C312.709 115.892 312.733 115.956 312.733 116.036V121.724C312.733 121.804 312.709 121.872 312.661 121.928C312.613 121.976 312.545 122 312.457 122H311.905C311.825 122 311.757 121.976 311.701 121.928C311.653 121.872 311.629 121.804 311.629 121.724V121.196C311.413 121.476 311.149 121.7 310.837 121.868C310.533 122.036 310.129 122.12 309.625 122.12ZM315.392 122C315.312 122 315.244 121.976 315.188 121.928C315.14 121.872 315.116 121.804 315.116 121.724V116.036C315.116 115.956 315.14 115.892 315.188 115.844C315.244 115.788 315.312 115.76 315.392 115.76H315.956C316.036 115.76 316.1 115.788 316.148 115.844C316.204 115.892 316.232 115.956 316.232 116.036V116.564C316.44 116.292 316.7 116.072 317.012 115.904C317.332 115.728 317.74 115.64 318.236 115.64C318.756 115.64 319.196 115.756 319.556 115.988C319.924 116.212 320.2 116.528 320.384 116.936C320.568 117.336 320.66 117.804 320.66 118.34V121.724C320.66 121.804 320.636 121.872 320.588 121.928C320.54 121.976 320.476 122 320.396 122H319.796C319.716 122 319.648 121.976 319.592 121.928C319.544 121.872 319.52 121.804 319.52 121.724V118.4C319.52 117.84 319.384 117.404 319.112 117.092C318.84 116.772 318.44 116.612 317.912 116.612C317.416 116.612 317.016 116.772 316.712 117.092C316.416 117.404 316.268 117.84 316.268 118.4V121.724C316.268 121.804 316.24 121.872 316.184 121.928C316.136 121.976 316.072 122 315.992 122H315.392ZM329.223 122.12C328.719 122.12 328.279 122.06 327.903 121.94C327.527 121.812 327.211 121.644 326.955 121.436C326.699 121.228 326.503 121 326.367 120.752C326.239 120.504 326.171 120.248 326.163 119.984C326.163 119.912 326.187 119.856 326.235 119.816C326.283 119.776 326.343 119.756 326.415 119.756H327.003C327.075 119.756 327.139 119.772 327.195 119.804C327.251 119.836 327.299 119.904 327.339 120.008C327.419 120.296 327.555 120.52 327.747 120.68C327.947 120.84 328.175 120.952 328.431 121.016C328.695 121.072 328.959 121.1 329.223 121.1C329.775 121.1 330.223 120.968 330.567 120.704C330.911 120.44 331.083 120.052 331.083 119.54C331.083 119.02 330.927 118.648 330.615 118.424C330.303 118.2 329.871 118.088 329.319 118.088H328.179C328.099 118.088 328.031 118.064 327.975 118.016C327.927 117.968 327.903 117.9 327.903 117.812V117.488C327.903 117.416 327.915 117.356 327.939 117.308C327.971 117.252 328.003 117.204 328.035 117.164L330.363 114.62H326.823C326.743 114.62 326.675 114.596 326.619 114.548C326.571 114.5 326.547 114.432 326.547 114.344V113.888C326.547 113.8 326.571 113.732 326.619 113.684C326.675 113.628 326.743 113.6 326.823 113.6H331.611C331.699 113.6 331.767 113.628 331.815 113.684C331.871 113.732 331.899 113.8 331.899 113.888V114.32C331.899 114.376 331.883 114.428 331.851 114.476C331.827 114.516 331.799 114.556 331.767 114.596L329.451 117.176L329.643 117.188C330.171 117.204 330.631 117.3 331.023 117.476C331.423 117.652 331.731 117.916 331.947 118.268C332.171 118.612 332.283 119.048 332.283 119.576C332.283 120.112 332.151 120.572 331.887 120.956C331.623 121.332 331.259 121.62 330.795 121.82C330.331 122.02 329.807 122.12 329.223 122.12Z" fill="#8697A8"/>
<path d="M283 180L287.661 187H294" stroke="black" stroke-opacity="0.2" stroke-width="0.899497"/>
<rect x="294" y="183" width="8" height="7" fill="#89AFE7"/>
<path d="M295.32 205C295.232 205 295.164 204.976 295.116 204.928C295.068 204.872 295.044 204.804 295.044 204.724V196.888C295.044 196.8 295.068 196.732 295.116 196.684C295.164 196.628 295.232 196.6 295.32 196.6H298.044C298.868 196.6 299.532 196.724 300.036 196.972C300.54 197.22 300.908 197.588 301.14 198.076C301.372 198.556 301.492 199.148 301.5 199.852C301.508 200.212 301.512 200.528 301.512 200.8C301.512 201.072 301.508 201.384 301.5 201.736C301.484 202.472 301.36 203.084 301.128 203.572C300.904 204.052 300.544 204.412 300.048 204.652C299.56 204.884 298.912 205 298.104 205H295.32ZM296.22 203.98H298.044C298.596 203.98 299.036 203.904 299.364 203.752C299.692 203.6 299.928 203.356 300.072 203.02C300.224 202.684 300.304 202.24 300.312 201.688C300.328 201.448 300.336 201.24 300.336 201.064C300.336 200.88 300.336 200.7 300.336 200.524C300.336 200.34 300.328 200.132 300.312 199.9C300.296 199.124 300.112 198.552 299.76 198.184C299.408 197.808 298.816 197.62 297.984 197.62H296.22V203.98ZM306.089 205.12C305.577 205.12 305.141 205.008 304.781 204.784C304.429 204.552 304.161 204.232 303.977 203.824C303.793 203.416 303.701 202.948 303.701 202.42V199.036C303.701 198.956 303.725 198.892 303.773 198.844C303.829 198.788 303.897 198.76 303.977 198.76H304.577C304.657 198.76 304.721 198.788 304.769 198.844C304.825 198.892 304.853 198.956 304.853 199.036V202.36C304.853 203.552 305.373 204.148 306.413 204.148C306.909 204.148 307.305 203.992 307.601 203.68C307.905 203.36 308.057 202.92 308.057 202.36V199.036C308.057 198.956 308.081 198.892 308.129 198.844C308.185 198.788 308.253 198.76 308.333 198.76H308.921C309.009 198.76 309.077 198.788 309.125 198.844C309.173 198.892 309.197 198.956 309.197 199.036V204.724C309.197 204.804 309.173 204.872 309.125 204.928C309.077 204.976 309.009 205 308.921 205H308.369C308.289 205 308.221 204.976 308.165 204.928C308.117 204.872 308.093 204.804 308.093 204.724V204.196C307.877 204.476 307.613 204.7 307.301 204.868C306.997 205.036 306.593 205.12 306.089 205.12ZM313.74 205.12C313.292 205.12 312.908 205.064 312.588 204.952C312.268 204.84 312.008 204.704 311.808 204.544C311.608 204.384 311.456 204.224 311.352 204.064C311.256 203.904 311.204 203.776 311.196 203.68C311.188 203.592 311.216 203.524 311.28 203.476C311.344 203.428 311.408 203.404 311.472 203.404H312C312.048 203.404 312.084 203.412 312.108 203.428C312.14 203.436 312.18 203.468 312.228 203.524C312.332 203.636 312.448 203.748 312.576 203.86C312.704 203.972 312.86 204.064 313.044 204.136C313.236 204.208 313.472 204.244 313.752 204.244C314.16 204.244 314.496 204.168 314.76 204.016C315.024 203.856 315.156 203.624 315.156 203.32C315.156 203.12 315.1 202.96 314.988 202.84C314.884 202.72 314.692 202.612 314.412 202.516C314.14 202.42 313.764 202.32 313.284 202.216C312.804 202.104 312.424 201.968 312.144 201.808C311.864 201.64 311.664 201.444 311.544 201.22C311.424 200.988 311.364 200.728 311.364 200.44C311.364 200.144 311.452 199.86 311.628 199.588C311.804 199.308 312.06 199.08 312.396 198.904C312.74 198.728 313.168 198.64 313.68 198.64C314.096 198.64 314.452 198.692 314.748 198.796C315.044 198.9 315.288 199.032 315.48 199.192C315.672 199.344 315.816 199.496 315.912 199.648C316.008 199.8 316.06 199.928 316.068 200.032C316.076 200.112 316.052 200.18 315.996 200.236C315.94 200.284 315.876 200.308 315.804 200.308H315.3C315.244 200.308 315.196 200.296 315.156 200.272C315.124 200.248 315.092 200.22 315.06 200.188C314.98 200.084 314.884 199.98 314.772 199.876C314.668 199.772 314.528 199.688 314.352 199.624C314.184 199.552 313.96 199.516 313.68 199.516C313.28 199.516 312.98 199.6 312.78 199.768C312.58 199.936 312.48 200.148 312.48 200.404C312.48 200.556 312.524 200.692 312.612 200.812C312.7 200.932 312.868 201.04 313.116 201.136C313.364 201.232 313.732 201.336 314.22 201.448C314.748 201.552 315.164 201.692 315.468 201.868C315.772 202.044 315.988 202.248 316.116 202.48C316.244 202.712 316.308 202.98 316.308 203.284C316.308 203.62 316.208 203.928 316.008 204.208C315.816 204.488 315.528 204.712 315.144 204.88C314.768 205.04 314.3 205.12 313.74 205.12ZM320.625 205.12C320.113 205.12 319.677 205.008 319.317 204.784C318.965 204.552 318.697 204.232 318.513 203.824C318.329 203.416 318.237 202.948 318.237 202.42V199.036C318.237 198.956 318.261 198.892 318.309 198.844C318.365 198.788 318.433 198.76 318.513 198.76H319.113C319.193 198.76 319.257 198.788 319.305 198.844C319.361 198.892 319.389 198.956 319.389 199.036V202.36C319.389 203.552 319.909 204.148 320.949 204.148C321.445 204.148 321.841 203.992 322.137 203.68C322.441 203.36 322.593 202.92 322.593 202.36V199.036C322.593 198.956 322.617 198.892 322.665 198.844C322.721 198.788 322.789 198.76 322.869 198.76H323.457C323.545 198.76 323.613 198.788 323.661 198.844C323.709 198.892 323.733 198.956 323.733 199.036V204.724C323.733 204.804 323.709 204.872 323.661 204.928C323.613 204.976 323.545 205 323.457 205H322.905C322.825 205 322.757 204.976 322.701 204.928C322.653 204.872 322.629 204.804 322.629 204.724V204.196C322.413 204.476 322.149 204.7 321.837 204.868C321.533 205.036 321.129 205.12 320.625 205.12ZM326.392 205C326.312 205 326.244 204.976 326.188 204.928C326.14 204.872 326.116 204.804 326.116 204.724V199.036C326.116 198.956 326.14 198.892 326.188 198.844C326.244 198.788 326.312 198.76 326.392 198.76H326.956C327.036 198.76 327.1 198.788 327.148 198.844C327.204 198.892 327.232 198.956 327.232 199.036V199.564C327.44 199.292 327.7 199.072 328.012 198.904C328.332 198.728 328.74 198.64 329.236 198.64C329.756 198.64 330.196 198.756 330.556 198.988C330.924 199.212 331.2 199.528 331.384 199.936C331.568 200.336 331.66 200.804 331.66 201.34V204.724C331.66 204.804 331.636 204.872 331.588 204.928C331.54 204.976 331.476 205 331.396 205H330.796C330.716 205 330.648 204.976 330.592 204.928C330.544 204.872 330.52 204.804 330.52 204.724V201.4C330.52 200.84 330.384 200.404 330.112 200.092C329.84 199.772 329.44 199.612 328.912 199.612C328.416 199.612 328.016 199.772 327.712 200.092C327.416 200.404 327.268 200.84 327.268 201.4V204.724C327.268 204.804 327.24 204.872 327.184 204.928C327.136 204.976 327.072 205 326.992 205H326.392ZM341.459 205C341.379 205 341.311 204.976 341.255 204.928C341.207 204.872 341.183 204.804 341.183 204.724V202.996H337.295C337.215 202.996 337.147 202.972 337.091 202.924C337.043 202.868 337.019 202.8 337.019 202.72V202.24C337.019 202.208 337.027 202.16 337.043 202.096C337.067 202.024 337.103 201.952 337.151 201.88L340.751 196.804C340.847 196.668 340.995 196.6 341.195 196.6H342.059C342.139 196.6 342.203 196.628 342.251 196.684C342.307 196.732 342.335 196.796 342.335 196.876V201.952H343.415C343.503 201.952 343.571 201.98 343.619 202.036C343.675 202.084 343.703 202.148 343.703 202.228V202.72C343.703 202.8 343.675 202.868 343.619 202.924C343.571 202.972 343.507 202.996 343.427 202.996H342.335V204.724C342.335 204.804 342.307 204.872 342.251 204.928C342.203 204.976 342.139 205 342.059 205H341.459ZM338.303 201.976H341.195V197.86L338.303 201.976Z" fill="#8697A8"/>
<path d="M151 105L142.694 95H125" stroke="black" stroke-opacity="0.2" stroke-width="0.899497"/>
<rect x="54" y="91" width="8" height="7" fill="#97ACD1"/>
<path d="M66.32 98C66.232 98 66.164 97.976 66.116 97.928C66.068 97.872 66.044 97.804 66.044 97.724V89.888C66.044 89.8 66.068 89.732 66.116 89.684C66.164 89.628 66.232 89.6 66.32 89.6H69.044C69.868 89.6 70.532 89.724 71.036 89.972C71.54 90.22 71.908 90.588 72.14 91.076C72.372 91.556 72.492 92.148 72.5 92.852C72.508 93.212 72.512 93.528 72.512 93.8C72.512 94.072 72.508 94.384 72.5 94.736C72.484 95.472 72.36 96.084 72.128 96.572C71.904 97.052 71.544 97.412 71.048 97.652C70.56 97.884 69.912 98 69.104 98H66.32ZM67.22 96.98H69.044C69.596 96.98 70.036 96.904 70.364 96.752C70.692 96.6 70.928 96.356 71.072 96.02C71.224 95.684 71.304 95.24 71.312 94.688C71.328 94.448 71.336 94.24 71.336 94.064C71.336 93.88 71.336 93.7 71.336 93.524C71.336 93.34 71.328 93.132 71.312 92.9C71.296 92.124 71.112 91.552 70.76 91.184C70.408 90.808 69.816 90.62 68.984 90.62H67.22V96.98ZM77.0894 98.12C76.5774 98.12 76.1414 98.008 75.7814 97.784C75.4294 97.552 75.1614 97.232 74.9774 96.824C74.7934 96.416 74.7014 95.948 74.7014 95.42V92.036C74.7014 91.956 74.7254 91.892 74.7734 91.844C74.8294 91.788 74.8974 91.76 74.9774 91.76H75.5774C75.6574 91.76 75.7214 91.788 75.7694 91.844C75.8254 91.892 75.8534 91.956 75.8534 92.036V95.36C75.8534 96.552 76.3734 97.148 77.4134 97.148C77.9094 97.148 78.3054 96.992 78.6014 96.68C78.9054 96.36 79.0574 95.92 79.0574 95.36V92.036C79.0574 91.956 79.0814 91.892 79.1294 91.844C79.1854 91.788 79.2534 91.76 79.3334 91.76H79.9214C80.0094 91.76 80.0774 91.788 80.1254 91.844C80.1734 91.892 80.1974 91.956 80.1974 92.036V97.724C80.1974 97.804 80.1734 97.872 80.1254 97.928C80.0774 97.976 80.0094 98 79.9214 98H79.3694C79.2894 98 79.2214 97.976 79.1654 97.928C79.1174 97.872 79.0934 97.804 79.0934 97.724V97.196C78.8774 97.476 78.6134 97.7 78.3014 97.868C77.9974 98.036 77.5934 98.12 77.0894 98.12ZM84.7402 98.12C84.2922 98.12 83.9082 98.064 83.5882 97.952C83.2682 97.84 83.0082 97.704 82.8082 97.544C82.6082 97.384 82.4562 97.224 82.3522 97.064C82.2562 96.904 82.2042 96.776 82.1962 96.68C82.1882 96.592 82.2162 96.524 82.2802 96.476C82.3442 96.428 82.4082 96.404 82.4722 96.404H83.0002C83.0482 96.404 83.0842 96.412 83.1082 96.428C83.1402 96.436 83.1802 96.468 83.2282 96.524C83.3322 96.636 83.4482 96.748 83.5762 96.86C83.7042 96.972 83.8602 97.064 84.0442 97.136C84.2362 97.208 84.4722 97.244 84.7522 97.244C85.1602 97.244 85.4962 97.168 85.7602 97.016C86.0242 96.856 86.1562 96.624 86.1562 96.32C86.1562 96.12 86.1002 95.96 85.9882 95.84C85.8842 95.72 85.6922 95.612 85.4122 95.516C85.1402 95.42 84.7642 95.32 84.2842 95.216C83.8042 95.104 83.4242 94.968 83.1442 94.808C82.8642 94.64 82.6642 94.444 82.5442 94.22C82.4242 93.988 82.3642 93.728 82.3642 93.44C82.3642 93.144 82.4522 92.86 82.6282 92.588C82.8042 92.308 83.0602 92.08 83.3962 91.904C83.7402 91.728 84.1682 91.64 84.6802 91.64C85.0962 91.64 85.4522 91.692 85.7482 91.796C86.0442 91.9 86.2882 92.032 86.4802 92.192C86.6722 92.344 86.8162 92.496 86.9122 92.648C87.0082 92.8 87.0602 92.928 87.0682 93.032C87.0762 93.112 87.0522 93.18 86.9962 93.236C86.9402 93.284 86.8762 93.308 86.8042 93.308H86.3002C86.2442 93.308 86.1962 93.296 86.1562 93.272C86.1242 93.248 86.0922 93.22 86.0602 93.188C85.9802 93.084 85.8842 92.98 85.7722 92.876C85.6682 92.772 85.5282 92.688 85.3522 92.624C85.1842 92.552 84.9602 92.516 84.6802 92.516C84.2802 92.516 83.9802 92.6 83.7802 92.768C83.5802 92.936 83.4802 93.148 83.4802 93.404C83.4802 93.556 83.5242 93.692 83.6122 93.812C83.7002 93.932 83.8682 94.04 84.1162 94.136C84.3642 94.232 84.7322 94.336 85.2202 94.448C85.7482 94.552 86.1642 94.692 86.4682 94.868C86.7722 95.044 86.9882 95.248 87.1162 95.48C87.2442 95.712 87.3082 95.98 87.3082 96.284C87.3082 96.62 87.2082 96.928 87.0082 97.208C86.8162 97.488 86.5282 97.712 86.1442 97.88C85.7682 98.04 85.3002 98.12 84.7402 98.12ZM91.6254 98.12C91.1134 98.12 90.6774 98.008 90.3174 97.784C89.9654 97.552 89.6974 97.232 89.5134 96.824C89.3294 96.416 89.2374 95.948 89.2374 95.42V92.036C89.2374 91.956 89.2614 91.892 89.3094 91.844C89.3654 91.788 89.4334 91.76 89.5134 91.76H90.1134C90.1934 91.76 90.2574 91.788 90.3054 91.844C90.3614 91.892 90.3894 91.956 90.3894 92.036V95.36C90.3894 96.552 90.9094 97.148 91.9494 97.148C92.4454 97.148 92.8414 96.992 93.1374 96.68C93.4414 96.36 93.5934 95.92 93.5934 95.36V92.036C93.5934 91.956 93.6174 91.892 93.6654 91.844C93.7214 91.788 93.7894 91.76 93.8694 91.76H94.4574C94.5454 91.76 94.6134 91.788 94.6614 91.844C94.7094 91.892 94.7334 91.956 94.7334 92.036V97.724C94.7334 97.804 94.7094 97.872 94.6614 97.928C94.6134 97.976 94.5454 98 94.4574 98H93.9054C93.8254 98 93.7574 97.976 93.7014 97.928C93.6534 97.872 93.6294 97.804 93.6294 97.724V97.196C93.4134 97.476 93.1494 97.7 92.8374 97.868C92.5334 98.036 92.1294 98.12 91.6254 98.12ZM97.3921 98C97.3121 98 97.2441 97.976 97.1881 97.928C97.1401 97.872 97.1161 97.804 97.1161 97.724V92.036C97.1161 91.956 97.1401 91.892 97.1881 91.844C97.2441 91.788 97.3121 91.76 97.3921 91.76H97.9561C98.0361 91.76 98.1001 91.788 98.1481 91.844C98.2041 91.892 98.2321 91.956 98.2321 92.036V92.564C98.4401 92.292 98.7001 92.072 99.0121 91.904C99.3321 91.728 99.7401 91.64 100.236 91.64C100.756 91.64 101.196 91.756 101.556 91.988C101.924 92.212 102.2 92.528 102.384 92.936C102.568 93.336 102.66 93.804 102.66 94.34V97.724C102.66 97.804 102.636 97.872 102.588 97.928C102.54 97.976 102.476 98 102.396 98H101.796C101.716 98 101.648 97.976 101.592 97.928C101.544 97.872 101.52 97.804 101.52 97.724V94.4C101.52 93.84 101.384 93.404 101.112 93.092C100.84 92.772 100.44 92.612 99.9121 92.612C99.4161 92.612 99.0161 92.772 98.7121 93.092C98.4161 93.404 98.2681 93.84 98.2681 94.4V97.724C98.2681 97.804 98.2401 97.872 98.1841 97.928C98.1361 97.976 98.0721 98 97.9921 98H97.3921ZM108.511 98C108.431 98 108.363 97.976 108.307 97.928C108.259 97.872 108.235 97.804 108.235 97.724V97.34C108.235 97.268 108.255 97.188 108.295 97.1C108.335 97.012 108.415 96.916 108.535 96.812L111.079 94.268C111.487 93.924 111.807 93.632 112.039 93.392C112.279 93.144 112.447 92.908 112.543 92.684C112.647 92.46 112.699 92.228 112.699 91.988C112.699 91.532 112.571 91.172 112.315 90.908C112.059 90.636 111.679 90.5 111.175 90.5C110.855 90.5 110.579 90.568 110.347 90.704C110.115 90.832 109.931 91.012 109.795 91.244C109.667 91.468 109.583 91.724 109.543 92.012C109.527 92.116 109.483 92.188 109.411 92.228C109.347 92.268 109.287 92.288 109.231 92.288H108.607C108.535 92.288 108.475 92.268 108.427 92.228C108.379 92.18 108.355 92.124 108.355 92.06C108.363 91.756 108.427 91.452 108.547 91.148C108.667 90.836 108.843 90.556 109.075 90.308C109.315 90.06 109.607 89.86 109.951 89.708C110.303 89.548 110.711 89.468 111.175 89.468C111.807 89.468 112.323 89.584 112.723 89.816C113.131 90.04 113.431 90.34 113.623 90.716C113.815 91.092 113.911 91.504 113.911 91.952C113.911 92.304 113.851 92.628 113.731 92.924C113.611 93.212 113.435 93.496 113.203 93.776C112.979 94.048 112.699 94.328 112.363 94.616L110.059 96.956H113.803C113.891 96.956 113.959 96.98 114.007 97.028C114.063 97.076 114.091 97.144 114.091 97.232V97.724C114.091 97.804 114.063 97.872 114.007 97.928C113.959 97.976 113.891 98 113.803 98H108.511Z" fill="#8697A8"/>
<defs>
<filter id="filter0_d_1_3863" x="0" y="0" width="402" height="350" filterUnits="userSpaceOnUse" color-interpolation-filters="sRGB">
<feFlood flood-opacity="0" result="BackgroundImageFix"/>
<feColorMatrix in="SourceAlpha" type="matrix" values="0 0 0 0 0 0 0 0 0 0 0 0 0 0 0 0 0 0 127 0" result="hardAlpha"/>
<feOffset dy="4"/>
<feGaussianBlur stdDeviation="10"/>
<feComposite in2="hardAlpha" operator="out"/>
<feColorMatrix type="matrix" values="0 0 0 0 0.298039 0 0 0 0 0.341176 0 0 0 0 0.490196 0 0 0 0.02 0"/>
<feBlend mode="normal" in2="BackgroundImageFix" result="effect1_dropShadow_1_3863"/>
<feBlend mode="normal" in="SourceGraphic" in2="effect1_dropShadow_1_3863" result="shape"/>
</filter>
</defs>
</svg>
