<svg width="232" height="120" viewBox="0 0 232 120" fill="none" xmlns="http://www.w3.org/2000/svg">
<g filter="url(#filter0_d_1_4142)">
<rect x="16" y="4" width="200" height="88" rx="8" fill="white" shape-rendering="crispEdges"/>
<path d="M50.0999 27.275C50.0832 27.275 50.0582 27.275 50.0416 27.275C50.0166 27.275 49.9832 27.275 49.9582 27.275C48.0666 27.2167 46.6499 25.7417 46.6499 23.925C46.6499 22.075 48.1582 20.5667 50.0082 20.5667C51.8582 20.5667 53.3666 22.075 53.3666 23.925C53.3582 25.75 51.9332 27.2167 50.1249 27.275C50.1082 27.275 50.1082 27.275 50.0999 27.275ZM49.9999 21.8083C48.8332 21.8083 47.8916 22.7583 47.8916 23.9167C47.8916 25.0583 48.7832 25.9833 49.9166 26.025C49.9416 26.0167 50.0249 26.0167 50.1082 26.025C51.2249 25.9667 52.0999 25.05 52.1082 23.9167C52.1082 22.7583 51.1666 21.8083 49.9999 21.8083Z" fill="#0B132A"/>
<path d="M50 34.9583C47.7584 34.9583 45.6167 34.125 43.9584 32.6083C43.8084 32.475 43.7417 32.275 43.7584 32.0833C43.8667 31.0917 44.4834 30.1667 45.5084 29.4833C47.9917 27.8333 52.0167 27.8333 54.4917 29.4833C55.5167 30.175 56.1334 31.0917 56.2417 32.0833C56.2667 32.2833 56.1917 32.475 56.0417 32.6083C54.3834 34.125 52.2417 34.9583 50 34.9583ZM45.0667 31.9167C46.45 33.075 48.1917 33.7083 50 33.7083C51.8084 33.7083 53.55 33.075 54.9334 31.9167C54.7834 31.4083 54.3834 30.9167 53.7917 30.5167C51.7417 29.15 48.2667 29.15 46.2 30.5167C45.6084 30.9167 45.2167 31.4083 45.0667 31.9167Z" fill="#0B132A"/>
<path d="M49.9998 34.9583C45.0582 34.9583 41.0415 30.9417 41.0415 26C41.0415 21.0583 45.0582 17.0417 49.9998 17.0417C54.9415 17.0417 58.9582 21.0583 58.9582 26C58.9582 30.9417 54.9415 34.9583 49.9998 34.9583ZM49.9998 18.2917C45.7498 18.2917 42.2915 21.75 42.2915 26C42.2915 30.25 45.7498 33.7083 49.9998 33.7083C54.2498 33.7083 57.7082 30.25 57.7082 26C57.7082 21.75 54.2498 18.2917 49.9998 18.2917Z" fill="#0B132A"/>
<path d="M69.4091 31.5V19.8636H73.3409C74.2538 19.8636 75 20.0284 75.5795 20.358C76.1629 20.6837 76.5947 21.125 76.875 21.6818C77.1553 22.2386 77.2955 22.8598 77.2955 23.5455C77.2955 24.2311 77.1553 24.8542 76.875 25.4148C76.5985 25.9754 76.1705 26.4223 75.5909 26.7557C75.0114 27.0852 74.2689 27.25 73.3636 27.25H70.5455V26H73.3182C73.9432 26 74.4451 25.892 74.8239 25.6761C75.2027 25.4602 75.4773 25.1686 75.6477 24.8011C75.822 24.4299 75.9091 24.0114 75.9091 23.5455C75.9091 23.0795 75.822 22.6629 75.6477 22.2955C75.4773 21.928 75.2008 21.6402 74.8182 21.4318C74.4356 21.2197 73.928 21.1136 73.2955 21.1136H70.8182V31.5H69.4091ZM79.3835 31.5V22.7727H80.679V24.0909H80.7699C80.929 23.6591 81.2169 23.3087 81.6335 23.0398C82.0502 22.7708 82.5199 22.6364 83.0426 22.6364C83.1411 22.6364 83.2642 22.6383 83.4119 22.642C83.5597 22.6458 83.6714 22.6515 83.7472 22.6591V24.0227C83.7017 24.0114 83.5975 23.9943 83.4347 23.9716C83.2756 23.9451 83.107 23.9318 82.929 23.9318C82.5047 23.9318 82.1259 24.0208 81.7926 24.1989C81.4631 24.3731 81.2017 24.6155 81.0085 24.9261C80.8191 25.233 80.7244 25.5833 80.7244 25.9773V31.5H79.3835ZM88.6165 31.6818C87.8286 31.6818 87.1373 31.4943 86.5426 31.1193C85.9517 30.7443 85.4896 30.2197 85.1562 29.5455C84.8267 28.8712 84.6619 28.0833 84.6619 27.1818C84.6619 26.2727 84.8267 25.4792 85.1562 24.8011C85.4896 24.1231 85.9517 23.5966 86.5426 23.2216C87.1373 22.8466 87.8286 22.6591 88.6165 22.6591C89.4044 22.6591 90.0938 22.8466 90.6847 23.2216C91.2794 23.5966 91.7415 24.1231 92.071 24.8011C92.4044 25.4792 92.571 26.2727 92.571 27.1818C92.571 28.0833 92.4044 28.8712 92.071 29.5455C91.7415 30.2197 91.2794 30.7443 90.6847 31.1193C90.0938 31.4943 89.4044 31.6818 88.6165 31.6818ZM88.6165 30.4773C89.215 30.4773 89.7074 30.3239 90.0938 30.017C90.4801 29.7102 90.7661 29.3068 90.9517 28.8068C91.1373 28.3068 91.2301 27.7652 91.2301 27.1818C91.2301 26.5985 91.1373 26.0549 90.9517 25.5511C90.7661 25.0473 90.4801 24.6402 90.0938 24.3295C89.7074 24.0189 89.215 23.8636 88.6165 23.8636C88.018 23.8636 87.5256 24.0189 87.1392 24.3295C86.7528 24.6402 86.4669 25.0473 86.2812 25.5511C86.0956 26.0549 86.0028 26.5985 86.0028 27.1818C86.0028 27.7652 86.0956 28.3068 86.2812 28.8068C86.4669 29.3068 86.7528 29.7102 87.1392 30.017C87.5256 30.3239 88.018 30.4773 88.6165 30.4773ZM98.5043 22.7727V23.9091H93.7997V22.7727H98.5043ZM95.2088 31.5V21.5682C95.2088 21.0682 95.3262 20.6515 95.5611 20.3182C95.7959 19.9848 96.1009 19.7348 96.4759 19.5682C96.8509 19.4015 97.2467 19.3182 97.6634 19.3182C97.9929 19.3182 98.2618 19.3447 98.4702 19.3977C98.6785 19.4508 98.8338 19.5 98.9361 19.5455L98.5497 20.7045C98.4815 20.6818 98.3868 20.6534 98.2656 20.6193C98.1482 20.5852 97.9929 20.5682 97.7997 20.5682C97.3565 20.5682 97.0365 20.6799 96.8395 20.9034C96.6463 21.1269 96.5497 21.4545 96.5497 21.8864V31.5H95.2088ZM100.384 31.5V22.7727H101.724V31.5H100.384ZM101.065 21.3182C100.804 21.3182 100.579 21.2292 100.389 21.0511C100.204 20.8731 100.111 20.6591 100.111 20.4091C100.111 20.1591 100.204 19.9451 100.389 19.767C100.579 19.589 100.804 19.5 101.065 19.5C101.327 19.5 101.55 19.589 101.736 19.767C101.925 19.9451 102.02 20.1591 102.02 20.4091C102.02 20.6591 101.925 20.8731 101.736 21.0511C101.55 21.2292 101.327 21.3182 101.065 21.3182ZM105.521 19.8636V31.5H104.18V19.8636H105.521ZM111.636 31.6818C110.795 31.6818 110.07 31.4962 109.46 31.125C108.854 30.75 108.386 30.2273 108.057 29.5568C107.731 28.8826 107.568 28.0985 107.568 27.2045C107.568 26.3106 107.731 25.5227 108.057 24.8409C108.386 24.1553 108.845 23.6212 109.432 23.2386C110.023 22.8523 110.712 22.6591 111.5 22.6591C111.955 22.6591 112.403 22.7348 112.847 22.8864C113.29 23.0379 113.693 23.2841 114.057 23.625C114.42 23.9621 114.71 24.4091 114.926 24.9659C115.142 25.5227 115.25 26.2083 115.25 27.0227V27.5909H108.523V26.4318H113.886C113.886 25.9394 113.788 25.5 113.591 25.1136C113.398 24.7273 113.121 24.4223 112.761 24.1989C112.405 23.9754 111.985 23.8636 111.5 23.8636C110.966 23.8636 110.504 23.9962 110.114 24.2614C109.727 24.5227 109.43 24.8636 109.222 25.2841C109.013 25.7045 108.909 26.1553 108.909 26.6364V27.4091C108.909 28.0682 109.023 28.6269 109.25 29.0852C109.481 29.5398 109.801 29.8864 110.21 30.125C110.619 30.3598 111.095 30.4773 111.636 30.4773C111.989 30.4773 112.307 30.428 112.591 30.3295C112.879 30.2273 113.127 30.0758 113.335 29.875C113.544 29.6705 113.705 29.4167 113.818 29.1136L115.114 29.4773C114.977 29.9167 114.748 30.303 114.426 30.6364C114.104 30.9659 113.706 31.2235 113.233 31.4091C112.759 31.5909 112.227 31.6818 111.636 31.6818Z" fill="#0B132A"/>
<path d="M52.7001 78.5583H52.5918C48.8918 78.5583 47.1084 77.1 46.8001 73.8333C46.7668 73.4917 47.0168 73.1833 47.3668 73.15C47.7001 73.1167 48.0168 73.375 48.0501 73.7167C48.2918 76.3333 49.5251 77.3083 52.6001 77.3083H52.7084C56.1001 77.3083 57.3001 76.1083 57.3001 72.7167V67.2833C57.3001 63.8917 56.1001 62.6917 52.7084 62.6917H52.6001C49.5084 62.6917 48.2751 63.6833 48.0501 66.35C48.0084 66.6917 47.7168 66.95 47.3668 66.9167C47.0168 66.8917 46.7668 66.5833 46.7918 66.2417C47.0751 62.925 48.8668 61.4417 52.5918 61.4417H52.7001C56.7918 61.4417 58.5418 63.1917 58.5418 67.2833V72.7167C58.5418 76.8083 56.7918 78.5583 52.7001 78.5583Z" fill="#0B132A"/>
<path d="M52.4999 70.625H43.0166C42.6749 70.625 42.3916 70.3417 42.3916 70C42.3916 69.6583 42.6749 69.375 43.0166 69.375H52.4999C52.8416 69.375 53.1249 69.6583 53.1249 70C53.1249 70.3417 52.8416 70.625 52.4999 70.625Z" fill="#0B132A"/>
<path d="M44.875 73.4167C44.7167 73.4167 44.5584 73.3583 44.4334 73.2333L41.6417 70.4417C41.4 70.2 41.4 69.8 41.6417 69.5583L44.4334 66.7667C44.675 66.525 45.075 66.525 45.3167 66.7667C45.5584 67.0083 45.5584 67.4083 45.3167 67.65L42.9667 70L45.3167 72.35C45.5584 72.5917 45.5584 72.9917 45.3167 73.2333C45.2 73.3583 45.0334 73.4167 44.875 73.4167Z" fill="#0B132A"/>
<path d="M75.7727 66.7727C75.7045 66.197 75.428 65.75 74.9432 65.4318C74.4583 65.1136 73.8636 64.9545 73.1591 64.9545C72.6439 64.9545 72.1932 65.0379 71.8068 65.2045C71.4242 65.3712 71.125 65.6004 70.9091 65.892C70.697 66.1837 70.5909 66.5152 70.5909 66.8864C70.5909 67.197 70.6648 67.464 70.8125 67.6875C70.964 67.9072 71.1572 68.0909 71.392 68.2386C71.6269 68.3826 71.8731 68.5019 72.1307 68.5966C72.3883 68.6875 72.625 68.7614 72.8409 68.8182L74.0227 69.1364C74.3258 69.2159 74.6629 69.3258 75.0341 69.4659C75.4091 69.6061 75.767 69.7973 76.108 70.0398C76.4527 70.2784 76.7367 70.5852 76.9602 70.9602C77.1837 71.3352 77.2955 71.7955 77.2955 72.3409C77.2955 72.9697 77.1307 73.5379 76.8011 74.0455C76.4754 74.553 75.9981 74.9564 75.3693 75.2557C74.7443 75.5549 73.9848 75.7045 73.0909 75.7045C72.2576 75.7045 71.536 75.5701 70.9261 75.3011C70.3201 75.0322 69.8428 74.6572 69.4943 74.1761C69.1496 73.6951 68.9545 73.1364 68.9091 72.5H70.3636C70.4015 72.9394 70.5492 73.303 70.8068 73.5909C71.0682 73.875 71.3977 74.0871 71.7955 74.2273C72.197 74.3636 72.6288 74.4318 73.0909 74.4318C73.6288 74.4318 74.1117 74.3447 74.5398 74.1705C74.9678 73.9924 75.3068 73.7462 75.5568 73.4318C75.8068 73.1136 75.9318 72.7424 75.9318 72.3182C75.9318 71.9318 75.8239 71.6174 75.608 71.375C75.392 71.1326 75.108 70.9356 74.7557 70.7841C74.4034 70.6326 74.0227 70.5 73.6136 70.3864L72.1818 69.9773C71.2727 69.7159 70.553 69.3428 70.0227 68.858C69.4924 68.3731 69.2273 67.7386 69.2273 66.9545C69.2273 66.303 69.4034 65.7348 69.7557 65.25C70.1117 64.7614 70.589 64.3826 71.1875 64.1136C71.7898 63.8409 72.4621 63.7045 73.2045 63.7045C73.9545 63.7045 74.6212 63.839 75.2045 64.108C75.7879 64.3731 76.25 64.7367 76.5909 65.1989C76.9356 65.661 77.1174 66.1856 77.1364 66.7727H75.7727ZM79.4304 75.5V66.7727H80.7713V75.5H79.4304ZM80.1122 65.3182C79.8509 65.3182 79.6255 65.2292 79.4361 65.0511C79.2505 64.8731 79.1577 64.6591 79.1577 64.4091C79.1577 64.1591 79.2505 63.9451 79.4361 63.767C79.6255 63.589 79.8509 63.5 80.1122 63.5C80.3736 63.5 80.5971 63.589 80.7827 63.767C80.9721 63.9451 81.0668 64.1591 81.0668 64.4091C81.0668 64.6591 80.9721 64.8731 80.7827 65.0511C80.5971 65.2292 80.3736 65.3182 80.1122 65.3182ZM86.75 78.9545C86.1023 78.9545 85.5455 78.8712 85.0795 78.7045C84.6136 78.5417 84.2254 78.3258 83.9148 78.0568C83.608 77.7917 83.3636 77.5076 83.1818 77.2045L84.25 76.4545C84.3712 76.6136 84.5246 76.7955 84.7102 77C84.8958 77.2083 85.1496 77.3883 85.4716 77.5398C85.7973 77.6951 86.2235 77.7727 86.75 77.7727C87.4545 77.7727 88.036 77.6023 88.4943 77.2614C88.9527 76.9205 89.1818 76.3864 89.1818 75.6591V73.8864H89.0682C88.9697 74.0455 88.8295 74.2424 88.6477 74.4773C88.4697 74.7083 88.2121 74.9148 87.875 75.0966C87.5417 75.2746 87.0909 75.3636 86.5227 75.3636C85.8182 75.3636 85.1856 75.197 84.625 74.8636C84.0682 74.5303 83.6269 74.0455 83.3011 73.4091C82.9792 72.7727 82.8182 72 82.8182 71.0909C82.8182 70.197 82.9754 69.4186 83.2898 68.7557C83.6042 68.089 84.0417 67.5739 84.6023 67.2102C85.1629 66.8428 85.8106 66.6591 86.5455 66.6591C87.1136 66.6591 87.5644 66.7538 87.8977 66.9432C88.2348 67.1288 88.4924 67.3409 88.6705 67.5795C88.8523 67.8144 88.9924 68.0076 89.0909 68.1591H89.2273V66.7727H90.5227V75.75C90.5227 76.5 90.3523 77.1098 90.0114 77.5795C89.6742 78.053 89.2197 78.3996 88.6477 78.6193C88.0795 78.8428 87.447 78.9545 86.75 78.9545ZM86.7045 74.1591C87.2424 74.1591 87.697 74.036 88.0682 73.7898C88.4394 73.5436 88.7216 73.1894 88.9148 72.7273C89.108 72.2652 89.2045 71.7121 89.2045 71.0682C89.2045 70.4394 89.1098 69.8845 88.9205 69.4034C88.7311 68.9223 88.4508 68.5455 88.0795 68.2727C87.7083 68 87.25 67.8636 86.7045 67.8636C86.1364 67.8636 85.6629 68.0076 85.2841 68.2955C84.9091 68.5833 84.6269 68.9697 84.4375 69.4545C84.2519 69.9394 84.1591 70.4773 84.1591 71.0682C84.1591 71.6742 84.2538 72.2102 84.4432 72.6761C84.6364 73.1383 84.9205 73.5019 85.2955 73.767C85.6742 74.0284 86.1439 74.1591 86.7045 74.1591ZM94.3182 70.25V75.5H92.9773V66.7727H94.2727V68.1364H94.3864C94.5909 67.6932 94.9015 67.3371 95.3182 67.0682C95.7348 66.7955 96.2727 66.6591 96.9318 66.6591C97.5227 66.6591 98.0398 66.7803 98.483 67.0227C98.9261 67.2614 99.2708 67.625 99.517 68.1136C99.7633 68.5985 99.8864 69.2121 99.8864 69.9545V75.5H98.5455V70.0455C98.5455 69.3598 98.3674 68.8258 98.0114 68.4432C97.6553 68.0568 97.1667 67.8636 96.5455 67.8636C96.1174 67.8636 95.7348 67.9564 95.3977 68.142C95.0644 68.3277 94.8011 68.5985 94.608 68.9545C94.4148 69.3106 94.3182 69.7424 94.3182 70.25ZM116.837 69.6818C116.837 70.9091 116.615 71.9697 116.172 72.8636C115.729 73.7576 115.121 74.447 114.348 74.9318C113.575 75.4167 112.693 75.6591 111.7 75.6591C110.708 75.6591 109.825 75.4167 109.053 74.9318C108.28 74.447 107.672 73.7576 107.229 72.8636C106.786 71.9697 106.564 70.9091 106.564 69.6818C106.564 68.4545 106.786 67.3939 107.229 66.5C107.672 65.6061 108.28 64.9167 109.053 64.4318C109.825 63.947 110.708 63.7045 111.7 63.7045C112.693 63.7045 113.575 63.947 114.348 64.4318C115.121 64.9167 115.729 65.6061 116.172 66.5C116.615 67.3939 116.837 68.4545 116.837 69.6818ZM115.473 69.6818C115.473 68.6742 115.304 67.8239 114.967 67.1307C114.634 66.4375 114.181 65.9129 113.609 65.5568C113.041 65.2008 112.405 65.0227 111.7 65.0227C110.996 65.0227 110.357 65.2008 109.786 65.5568C109.217 65.9129 108.765 66.4375 108.428 67.1307C108.094 67.8239 107.928 68.6742 107.928 69.6818C107.928 70.6894 108.094 71.5398 108.428 72.233C108.765 72.9261 109.217 73.4508 109.786 73.8068C110.357 74.1629 110.996 74.3409 111.7 74.3409C112.405 74.3409 113.041 74.1629 113.609 73.8068C114.181 73.4508 114.634 72.9261 114.967 72.233C115.304 71.5398 115.473 70.6894 115.473 69.6818ZM124.524 71.9318V66.7727H125.865V75.5H124.524V74.0227H124.433C124.229 74.4659 123.911 74.8428 123.479 75.1534C123.047 75.4602 122.501 75.6136 121.842 75.6136C121.297 75.6136 120.812 75.4943 120.388 75.2557C119.964 75.0133 119.63 74.6496 119.388 74.1648C119.145 73.6761 119.024 73.0606 119.024 72.3182V66.7727H120.365V72.2273C120.365 72.8636 120.543 73.3712 120.899 73.75C121.259 74.1288 121.717 74.3182 122.274 74.3182C122.607 74.3182 122.946 74.233 123.291 74.0625C123.64 73.892 123.931 73.6307 124.166 73.2784C124.405 72.9261 124.524 72.4773 124.524 71.9318ZM132.116 66.7727V67.9091H127.594V66.7727H132.116ZM128.912 64.6818H130.253V73C130.253 73.3788 130.308 73.6629 130.418 73.8523C130.531 74.0379 130.675 74.1629 130.849 74.2273C131.027 74.2879 131.215 74.3182 131.412 74.3182C131.56 74.3182 131.681 74.3106 131.776 74.2955C131.87 74.2765 131.946 74.2614 132.003 74.25L132.276 75.4545C132.185 75.4886 132.058 75.5227 131.895 75.5568C131.732 75.5947 131.526 75.6136 131.276 75.6136C130.897 75.6136 130.526 75.5322 130.162 75.3693C129.802 75.2064 129.503 74.9583 129.264 74.625C129.029 74.2917 128.912 73.8712 128.912 73.3636V64.6818Z" fill="#0B132A"/>
</g>
<defs>
<filter id="filter0_d_1_4142" x="0" y="0" width="232" height="120" filterUnits="userSpaceOnUse" color-interpolation-filters="sRGB">
<feFlood flood-opacity="0" result="BackgroundImageFix"/>
<feColorMatrix in="SourceAlpha" type="matrix" values="0 0 0 0 0 0 0 0 0 0 0 0 0 0 0 0 0 0 127 0" result="hardAlpha"/>
<feOffset dy="12"/>
<feGaussianBlur stdDeviation="8"/>
<feComposite in2="hardAlpha" operator="out"/>
<feColorMatrix type="matrix" values="0 0 0 0 0 0 0 0 0 0 0 0 0 0 0 0 0 0 0.08 0"/>
<feBlend mode="normal" in2="BackgroundImageFix" result="effect1_dropShadow_1_4142"/>
<feBlend mode="normal" in="SourceGraphic" in2="effect1_dropShadow_1_4142" result="shape"/>
</filter>
</defs>
</svg>
