<svg width="402" height="350" viewBox="0 0 402 350" fill="none" xmlns="http://www.w3.org/2000/svg">
<g filter="url(#filter0_d_1_3780)">
<rect x="20" y="16" width="362" height="310" rx="7" fill="white"/>
</g>
<path d="M44.256 49.14C43.752 49.14 43.2713 49.0793 42.814 48.958C42.366 48.8273 41.9647 48.6313 41.61 48.37C41.2553 48.1087 40.9707 47.7867 40.756 47.404C40.5507 47.0213 40.4433 46.5687 40.434 46.046C40.434 45.962 40.462 45.892 40.518 45.836C40.574 45.7707 40.644 45.738 40.728 45.738H42.058C42.1793 45.738 42.268 45.7707 42.324 45.836C42.3893 45.9013 42.4407 45.99 42.478 46.102C42.5247 46.438 42.632 46.7133 42.8 46.928C42.968 47.1333 43.178 47.2873 43.43 47.39C43.6913 47.4833 43.9807 47.53 44.298 47.53C44.886 47.53 45.334 47.3387 45.642 46.956C45.9593 46.5733 46.118 46.0413 46.118 45.36V40.852H41.372C41.2693 40.852 41.1853 40.8193 41.12 40.754C41.064 40.6887 41.036 40.6093 41.036 40.516V39.536C41.036 39.4427 41.064 39.3633 41.12 39.298C41.1853 39.2327 41.2693 39.2 41.372 39.2H47.77C47.8727 39.2 47.9567 39.2327 48.022 39.298C48.0873 39.3633 48.12 39.4473 48.12 39.55V45.416C48.12 46.1907 47.9567 46.858 47.63 47.418C47.3127 47.978 46.8647 48.4073 46.286 48.706C45.7167 48.9953 45.04 49.14 44.256 49.14ZM52.7178 49.14C52.1485 49.14 51.6538 49.014 51.2338 48.762C50.8231 48.5007 50.5058 48.1367 50.2818 47.67C50.0578 47.194 49.9458 46.634 49.9458 45.99V42.056C49.9458 41.9627 49.9785 41.8833 50.0438 41.818C50.1091 41.7527 50.1885 41.72 50.2818 41.72H51.5138C51.6165 41.72 51.6958 41.7527 51.7518 41.818C51.8171 41.8833 51.8498 41.9627 51.8498 42.056V45.906C51.8498 47.0633 52.3585 47.642 53.3758 47.642C53.8611 47.642 54.2438 47.488 54.5238 47.18C54.8131 46.872 54.9578 46.4473 54.9578 45.906V42.056C54.9578 41.9627 54.9905 41.8833 55.0558 41.818C55.1211 41.7527 55.2005 41.72 55.2938 41.72H56.5258C56.6191 41.72 56.6985 41.7527 56.7638 41.818C56.8291 41.8833 56.8618 41.9627 56.8618 42.056V48.664C56.8618 48.7573 56.8291 48.8367 56.7638 48.902C56.6985 48.9673 56.6191 49 56.5258 49H55.3918C55.2891 49 55.2051 48.9673 55.1398 48.902C55.0838 48.8367 55.0558 48.7573 55.0558 48.664V48.09C54.8038 48.4167 54.4911 48.6733 54.1178 48.86C53.7445 49.0467 53.2778 49.14 52.7178 49.14ZM59.0471 49C58.9538 49 58.8744 48.9673 58.8091 48.902C58.7438 48.8367 58.7111 48.7573 58.7111 48.664V42.056C58.7111 41.9627 58.7438 41.8833 58.8091 41.818C58.8744 41.7527 58.9538 41.72 59.0471 41.72H60.1391C60.2324 41.72 60.3118 41.7527 60.3771 41.818C60.4424 41.8833 60.4751 41.9627 60.4751 42.056V42.532C60.6711 42.2707 60.9324 42.0513 61.2591 41.874C61.5951 41.6873 61.9918 41.5893 62.4491 41.58C63.5131 41.5613 64.2551 41.9767 64.6751 42.826C64.8898 42.4527 65.1978 42.154 65.5991 41.93C66.0098 41.6967 66.4624 41.58 66.9571 41.58C67.4424 41.58 67.8811 41.692 68.2731 41.916C68.6744 42.14 68.9871 42.4807 69.2111 42.938C69.4444 43.386 69.5611 43.9553 69.5611 44.646V48.664C69.5611 48.7573 69.5284 48.8367 69.4631 48.902C69.3978 48.9673 69.3184 49 69.2251 49H68.0771C67.9838 49 67.9044 48.9673 67.8391 48.902C67.7738 48.8367 67.7411 48.7573 67.7411 48.664V44.758C67.7411 44.338 67.6804 44.0067 67.5591 43.764C67.4378 43.512 67.2744 43.3347 67.0691 43.232C66.8638 43.1293 66.6351 43.078 66.3831 43.078C66.1778 43.078 65.9724 43.1293 65.7671 43.232C65.5618 43.3347 65.3938 43.512 65.2631 43.764C65.1324 44.0067 65.0671 44.338 65.0671 44.758V48.664C65.0671 48.7573 65.0344 48.8367 64.9691 48.902C64.9038 48.9673 64.8244 49 64.7311 49H63.5831C63.4804 49 63.3964 48.9673 63.3311 48.902C63.2751 48.8367 63.2471 48.7573 63.2471 48.664V44.758C63.2471 44.338 63.1818 44.0067 63.0511 43.764C62.9204 43.512 62.7524 43.3347 62.5471 43.232C62.3418 43.1293 62.1224 43.078 61.8891 43.078C61.6744 43.078 61.4644 43.134 61.2591 43.246C61.0538 43.3487 60.8858 43.5213 60.7551 43.764C60.6244 44.0067 60.5591 44.338 60.5591 44.758V48.664C60.5591 48.7573 60.5264 48.8367 60.4611 48.902C60.3958 48.9673 60.3164 49 60.2231 49H59.0471ZM71.6939 49C71.6006 49 71.5213 48.9673 71.4559 48.902C71.3906 48.8367 71.3579 48.7573 71.3579 48.664V39.396C71.3579 39.3027 71.3906 39.2233 71.4559 39.158C71.5213 39.0927 71.6006 39.06 71.6939 39.06H72.8559C72.9493 39.06 73.0286 39.0927 73.0939 39.158C73.1593 39.2233 73.1919 39.3027 73.1919 39.396V48.664C73.1919 48.7573 73.1593 48.8367 73.0939 48.902C73.0286 48.9673 72.9493 49 72.8559 49H71.6939ZM77.163 49.14C76.6777 49.14 76.239 49.0467 75.847 48.86C75.455 48.664 75.1423 48.4073 74.909 48.09C74.685 47.7633 74.573 47.3993 74.573 46.998C74.573 46.3447 74.8343 45.8267 75.357 45.444C75.889 45.052 76.589 44.7907 77.457 44.66L79.375 44.38V44.086C79.375 43.694 79.277 43.3907 79.081 43.176C78.885 42.9613 78.549 42.854 78.073 42.854C77.737 42.854 77.4617 42.924 77.247 43.064C77.0417 43.1947 76.8877 43.372 76.785 43.596C76.7103 43.7173 76.603 43.778 76.463 43.778H75.357C75.2543 43.778 75.175 43.75 75.119 43.694C75.0723 43.638 75.049 43.5633 75.049 43.47C75.0583 43.3207 75.119 43.1387 75.231 42.924C75.343 42.7093 75.5203 42.504 75.763 42.308C76.0057 42.1027 76.3183 41.93 76.701 41.79C77.0837 41.65 77.5457 41.58 78.087 41.58C78.675 41.58 79.1697 41.6547 79.571 41.804C79.9817 41.944 80.3083 42.1353 80.551 42.378C80.7937 42.6207 80.971 42.9053 81.083 43.232C81.195 43.5587 81.251 43.904 81.251 44.268V48.664C81.251 48.7573 81.2183 48.8367 81.153 48.902C81.0877 48.9673 81.0083 49 80.915 49H79.781C79.6783 49 79.5943 48.9673 79.529 48.902C79.473 48.8367 79.445 48.7573 79.445 48.664V48.118C79.3237 48.2953 79.1603 48.4633 78.955 48.622C78.7497 48.7713 78.4977 48.8973 78.199 49C77.9097 49.0933 77.5643 49.14 77.163 49.14ZM77.639 47.81C77.9657 47.81 78.2597 47.74 78.521 47.6C78.7917 47.46 79.0017 47.2453 79.151 46.956C79.3097 46.6573 79.389 46.284 79.389 45.836V45.542L77.989 45.766C77.4383 45.85 77.0277 45.9853 76.757 46.172C76.4863 46.3587 76.351 46.5873 76.351 46.858C76.351 47.0633 76.4117 47.2407 76.533 47.39C76.6637 47.53 76.827 47.6373 77.023 47.712C77.219 47.7773 77.4243 47.81 77.639 47.81ZM83.397 49C83.3037 49 83.2244 48.9673 83.159 48.902C83.0937 48.8367 83.061 48.7573 83.061 48.664V39.396C83.061 39.3027 83.0937 39.2233 83.159 39.158C83.2244 39.0927 83.3037 39.06 83.397 39.06H84.643C84.7457 39.06 84.825 39.0927 84.881 39.158C84.9464 39.2233 84.979 39.3027 84.979 39.396V42.588C85.231 42.2893 85.539 42.0467 85.903 41.86C86.267 41.6733 86.715 41.58 87.247 41.58C87.8164 41.58 88.311 41.7107 88.731 41.972C89.1604 42.224 89.4917 42.5833 89.725 43.05C89.9584 43.5167 90.075 44.0767 90.075 44.73V48.664C90.075 48.7573 90.0424 48.8367 89.977 48.902C89.9117 48.9673 89.8324 49 89.739 49H88.479C88.3857 49 88.3064 48.9673 88.241 48.902C88.1757 48.8367 88.143 48.7573 88.143 48.664V44.814C88.143 44.2727 88.0077 43.848 87.737 43.54C87.4757 43.232 87.093 43.078 86.589 43.078C86.1037 43.078 85.7117 43.232 85.413 43.54C85.1237 43.848 84.979 44.2727 84.979 44.814V48.664C84.979 48.7573 84.9464 48.8367 84.881 48.902C84.825 48.9673 84.7457 49 84.643 49H83.397ZM95.555 49C95.4616 49 95.3823 48.9673 95.317 48.902C95.2516 48.8367 95.219 48.7573 95.219 48.664V39.55C95.219 39.4473 95.2516 39.3633 95.317 39.298C95.3823 39.2327 95.4616 39.2 95.555 39.2H99.307C100.035 39.2 100.67 39.3167 101.211 39.55C101.752 39.774 102.172 40.1193 102.471 40.586C102.77 41.0433 102.919 41.6173 102.919 42.308C102.919 43.008 102.77 43.5867 102.471 44.044C102.172 44.492 101.752 44.828 101.211 45.052C100.67 45.276 100.035 45.388 99.307 45.388H97.221V48.664C97.221 48.7573 97.1883 48.8367 97.123 48.902C97.067 48.9673 96.9876 49 96.885 49H95.555ZM97.193 43.834H99.237C99.7783 43.834 100.194 43.708 100.483 43.456C100.772 43.1947 100.917 42.812 100.917 42.308C100.917 41.8413 100.782 41.468 100.511 41.188C100.24 40.8987 99.8156 40.754 99.237 40.754H97.193V43.834ZM107.32 49.14C106.284 49.14 105.462 48.8413 104.856 48.244C104.249 47.6467 103.922 46.7973 103.876 45.696C103.866 45.6027 103.862 45.486 103.862 45.346C103.862 45.1967 103.866 45.08 103.876 44.996C103.913 44.296 104.072 43.6893 104.352 43.176C104.641 42.6627 105.038 42.2707 105.542 42C106.046 41.72 106.638 41.58 107.32 41.58C108.076 41.58 108.71 41.7387 109.224 42.056C109.737 42.364 110.124 42.798 110.386 43.358C110.647 43.9087 110.778 44.548 110.778 45.276V45.57C110.778 45.6633 110.745 45.7427 110.68 45.808C110.614 45.8733 110.53 45.906 110.428 45.906H105.78C105.78 45.906 105.78 45.92 105.78 45.948C105.78 45.976 105.78 45.9993 105.78 46.018C105.789 46.3447 105.85 46.648 105.962 46.928C106.083 47.1987 106.256 47.418 106.48 47.586C106.713 47.754 106.988 47.838 107.306 47.838C107.567 47.838 107.786 47.8007 107.964 47.726C108.141 47.642 108.286 47.5487 108.398 47.446C108.51 47.3433 108.589 47.2593 108.636 47.194C108.72 47.082 108.785 47.0167 108.832 46.998C108.888 46.97 108.967 46.956 109.07 46.956H110.274C110.367 46.956 110.442 46.984 110.498 47.04C110.563 47.096 110.591 47.166 110.582 47.25C110.572 47.3993 110.493 47.5813 110.344 47.796C110.204 48.0107 109.998 48.2207 109.728 48.426C109.457 48.6313 109.116 48.804 108.706 48.944C108.304 49.0747 107.842 49.14 107.32 49.14ZM105.78 44.73H108.874V44.688C108.874 44.324 108.813 44.0067 108.692 43.736C108.57 43.4653 108.393 43.2507 108.16 43.092C107.926 42.9333 107.646 42.854 107.32 42.854C106.993 42.854 106.713 42.9333 106.48 43.092C106.246 43.2507 106.069 43.4653 105.948 43.736C105.836 44.0067 105.78 44.324 105.78 44.688V44.73ZM112.6 49C112.507 49 112.427 48.9673 112.362 48.902C112.297 48.8367 112.264 48.7573 112.264 48.664V42.056C112.264 41.9627 112.297 41.8833 112.362 41.818C112.427 41.7527 112.507 41.72 112.6 41.72H113.748C113.841 41.72 113.921 41.7527 113.986 41.818C114.051 41.8833 114.084 41.9627 114.084 42.056V42.63C114.327 42.3313 114.635 42.084 115.008 41.888C115.391 41.6827 115.862 41.58 116.422 41.58C116.991 41.58 117.486 41.7107 117.906 41.972C118.326 42.224 118.648 42.5833 118.872 43.05C119.105 43.5167 119.222 44.0767 119.222 44.73V48.664C119.222 48.7573 119.189 48.8367 119.124 48.902C119.059 48.9673 118.979 49 118.886 49H117.654C117.561 49 117.481 48.9673 117.416 48.902C117.351 48.8367 117.318 48.7573 117.318 48.664V44.814C117.318 44.2727 117.183 43.848 116.912 43.54C116.651 43.232 116.268 43.078 115.764 43.078C115.279 43.078 114.891 43.232 114.602 43.54C114.313 43.848 114.168 44.2727 114.168 44.814V48.664C114.168 48.7573 114.135 48.8367 114.07 48.902C114.005 48.9673 113.925 49 113.832 49H112.6ZM123.702 49.14C123.217 49.14 122.788 49.0607 122.414 48.902C122.05 48.734 121.747 48.5007 121.504 48.202C121.262 47.9033 121.075 47.5533 120.944 47.152C120.814 46.7413 120.739 46.2933 120.72 45.808C120.711 45.64 120.706 45.4907 120.706 45.36C120.706 45.22 120.711 45.066 120.72 44.898C120.739 44.4313 120.809 43.9973 120.93 43.596C121.061 43.1947 121.248 42.8447 121.49 42.546C121.742 42.238 122.05 42 122.414 41.832C122.788 41.664 123.217 41.58 123.702 41.58C124.206 41.58 124.631 41.6687 124.976 41.846C125.331 42.014 125.625 42.2333 125.858 42.504V39.396C125.858 39.3027 125.886 39.2233 125.942 39.158C126.008 39.0927 126.092 39.06 126.194 39.06H127.384C127.478 39.06 127.557 39.0927 127.622 39.158C127.688 39.2233 127.72 39.3027 127.72 39.396V48.664C127.72 48.7573 127.688 48.8367 127.622 48.902C127.557 48.9673 127.478 49 127.384 49H126.278C126.176 49 126.092 48.9673 126.026 48.902C125.97 48.8367 125.942 48.7573 125.942 48.664V48.146C125.709 48.4353 125.41 48.6733 125.046 48.86C124.692 49.0467 124.244 49.14 123.702 49.14ZM124.22 47.642C124.612 47.642 124.925 47.5533 125.158 47.376C125.392 47.1987 125.564 46.9747 125.676 46.704C125.788 46.424 125.849 46.1393 125.858 45.85C125.868 45.682 125.872 45.5047 125.872 45.318C125.872 45.122 125.868 44.94 125.858 44.772C125.849 44.492 125.784 44.226 125.662 43.974C125.541 43.7127 125.364 43.498 125.13 43.33C124.897 43.162 124.594 43.078 124.22 43.078C123.828 43.078 123.516 43.1667 123.282 43.344C123.058 43.512 122.895 43.736 122.792 44.016C122.69 44.296 122.629 44.604 122.61 44.94C122.601 45.22 122.601 45.5 122.61 45.78C122.629 46.116 122.69 46.424 122.792 46.704C122.895 46.984 123.058 47.2127 123.282 47.39C123.516 47.558 123.828 47.642 124.22 47.642ZM132.288 49.14C131.719 49.14 131.224 49.014 130.804 48.762C130.393 48.5007 130.076 48.1367 129.852 47.67C129.628 47.194 129.516 46.634 129.516 45.99V42.056C129.516 41.9627 129.549 41.8833 129.614 41.818C129.679 41.7527 129.759 41.72 129.852 41.72H131.084C131.187 41.72 131.266 41.7527 131.322 41.818C131.387 41.8833 131.42 41.9627 131.42 42.056V45.906C131.42 47.0633 131.929 47.642 132.946 47.642C133.431 47.642 133.814 47.488 134.094 47.18C134.383 46.872 134.528 46.4473 134.528 45.906V42.056C134.528 41.9627 134.561 41.8833 134.626 41.818C134.691 41.7527 134.771 41.72 134.864 41.72H136.096C136.189 41.72 136.269 41.7527 136.334 41.818C136.399 41.8833 136.432 41.9627 136.432 42.056V48.664C136.432 48.7573 136.399 48.8367 136.334 48.902C136.269 48.9673 136.189 49 136.096 49H134.962C134.859 49 134.775 48.9673 134.71 48.902C134.654 48.8367 134.626 48.7573 134.626 48.664V48.09C134.374 48.4167 134.061 48.6733 133.688 48.86C133.315 49.0467 132.848 49.14 132.288 49.14ZM140.983 49.14C140.498 49.14 140.069 49.0607 139.695 48.902C139.331 48.734 139.028 48.5007 138.785 48.202C138.543 47.9033 138.356 47.5533 138.225 47.152C138.095 46.7413 138.02 46.2933 138.001 45.808C137.992 45.64 137.987 45.4907 137.987 45.36C137.987 45.22 137.992 45.066 138.001 44.898C138.02 44.4313 138.09 43.9973 138.211 43.596C138.342 43.1947 138.529 42.8447 138.771 42.546C139.023 42.238 139.331 42 139.695 41.832C140.069 41.664 140.498 41.58 140.983 41.58C141.487 41.58 141.912 41.6687 142.257 41.846C142.612 42.014 142.906 42.2333 143.139 42.504V39.396C143.139 39.3027 143.167 39.2233 143.223 39.158C143.289 39.0927 143.373 39.06 143.475 39.06H144.665C144.759 39.06 144.838 39.0927 144.903 39.158C144.969 39.2233 145.001 39.3027 145.001 39.396V48.664C145.001 48.7573 144.969 48.8367 144.903 48.902C144.838 48.9673 144.759 49 144.665 49H143.559C143.457 49 143.373 48.9673 143.307 48.902C143.251 48.8367 143.223 48.7573 143.223 48.664V48.146C142.99 48.4353 142.691 48.6733 142.327 48.86C141.973 49.0467 141.525 49.14 140.983 49.14ZM141.501 47.642C141.893 47.642 142.206 47.5533 142.439 47.376C142.673 47.1987 142.845 46.9747 142.957 46.704C143.069 46.424 143.13 46.1393 143.139 45.85C143.149 45.682 143.153 45.5047 143.153 45.318C143.153 45.122 143.149 44.94 143.139 44.772C143.13 44.492 143.065 44.226 142.943 43.974C142.822 43.7127 142.645 43.498 142.411 43.33C142.178 43.162 141.875 43.078 141.501 43.078C141.109 43.078 140.797 43.1667 140.563 43.344C140.339 43.512 140.176 43.736 140.073 44.016C139.971 44.296 139.91 44.604 139.891 44.94C139.882 45.22 139.882 45.5 139.891 45.78C139.91 46.116 139.971 46.424 140.073 46.704C140.176 46.984 140.339 47.2127 140.563 47.39C140.797 47.558 141.109 47.642 141.501 47.642ZM149.569 49.14C149 49.14 148.505 49.014 148.085 48.762C147.675 48.5007 147.357 48.1367 147.133 47.67C146.909 47.194 146.797 46.634 146.797 45.99V42.056C146.797 41.9627 146.83 41.8833 146.895 41.818C146.961 41.7527 147.04 41.72 147.133 41.72H148.365C148.468 41.72 148.547 41.7527 148.603 41.818C148.669 41.8833 148.701 41.9627 148.701 42.056V45.906C148.701 47.0633 149.21 47.642 150.227 47.642C150.713 47.642 151.095 47.488 151.375 47.18C151.665 46.872 151.809 46.4473 151.809 45.906V42.056C151.809 41.9627 151.842 41.8833 151.907 41.818C151.973 41.7527 152.052 41.72 152.145 41.72H153.377C153.471 41.72 153.55 41.7527 153.615 41.818C153.681 41.8833 153.713 41.9627 153.713 42.056V48.664C153.713 48.7573 153.681 48.8367 153.615 48.902C153.55 48.9673 153.471 49 153.377 49H152.243C152.141 49 152.057 48.9673 151.991 48.902C151.935 48.8367 151.907 48.7573 151.907 48.664V48.09C151.655 48.4167 151.343 48.6733 150.969 48.86C150.596 49.0467 150.129 49.14 149.569 49.14ZM155.913 49C155.819 49 155.74 48.9673 155.675 48.902C155.609 48.8367 155.577 48.7573 155.577 48.664V39.396C155.577 39.3027 155.609 39.2233 155.675 39.158C155.74 39.0927 155.819 39.06 155.913 39.06H157.047C157.149 39.06 157.229 39.0927 157.285 39.158C157.35 39.2233 157.383 39.3027 157.383 39.396V44.184L159.735 41.958C159.819 41.8833 159.893 41.8273 159.959 41.79C160.024 41.7433 160.122 41.72 160.253 41.72H161.555C161.648 41.72 161.723 41.748 161.779 41.804C161.835 41.86 161.863 41.9347 161.863 42.028C161.863 42.0653 161.853 42.1073 161.835 42.154C161.816 42.2007 161.779 42.2427 161.723 42.28L158.839 44.982L162.073 48.454C162.166 48.5473 162.213 48.6267 162.213 48.692C162.213 48.7853 162.18 48.86 162.115 48.916C162.059 48.972 161.989 49 161.905 49H160.575C160.435 49 160.332 48.9813 160.267 48.944C160.211 48.8973 160.141 48.8367 160.057 48.762L157.383 45.948V48.664C157.383 48.7573 157.35 48.8367 157.285 48.902C157.229 48.9673 157.149 49 157.047 49H155.913ZM168.682 49C168.588 49 168.509 48.9673 168.444 48.902C168.378 48.8367 168.346 48.7573 168.346 48.664V40.922H165.756C165.662 40.922 165.583 40.8893 165.518 40.824C165.452 40.7587 165.42 40.6793 165.42 40.586V39.55C165.42 39.4473 165.452 39.3633 165.518 39.298C165.583 39.2327 165.662 39.2 165.756 39.2H172.896C172.998 39.2 173.082 39.2327 173.148 39.298C173.213 39.3633 173.246 39.4473 173.246 39.55V40.586C173.246 40.6793 173.213 40.7587 173.148 40.824C173.082 40.8893 172.998 40.922 172.896 40.922H170.32V48.664C170.32 48.7573 170.287 48.8367 170.222 48.902C170.156 48.9673 170.072 49 169.97 49H168.682ZM174.752 49C174.659 49 174.58 48.9673 174.514 48.902C174.449 48.8367 174.416 48.7573 174.416 48.664V42.056C174.416 41.9627 174.449 41.8833 174.514 41.818C174.58 41.7527 174.659 41.72 174.752 41.72H175.914C176.017 41.72 176.096 41.7527 176.152 41.818C176.218 41.8833 176.25 41.9627 176.25 42.056V48.664C176.25 48.7573 176.218 48.8367 176.152 48.902C176.096 48.9673 176.017 49 175.914 49H174.752ZM174.696 40.516C174.594 40.516 174.51 40.488 174.444 40.432C174.388 40.3667 174.36 40.2827 174.36 40.18V39.172C174.36 39.0787 174.388 38.9993 174.444 38.934C174.51 38.8687 174.594 38.836 174.696 38.836H175.97C176.073 38.836 176.157 38.8687 176.222 38.934C176.288 38.9993 176.32 39.0787 176.32 39.172V40.18C176.32 40.2827 176.288 40.3667 176.222 40.432C176.157 40.488 176.073 40.516 175.97 40.516H174.696ZM180.222 49.14C179.736 49.14 179.298 49.0467 178.906 48.86C178.514 48.664 178.201 48.4073 177.968 48.09C177.744 47.7633 177.632 47.3993 177.632 46.998C177.632 46.3447 177.893 45.8267 178.416 45.444C178.948 45.052 179.648 44.7907 180.516 44.66L182.434 44.38V44.086C182.434 43.694 182.336 43.3907 182.14 43.176C181.944 42.9613 181.608 42.854 181.132 42.854C180.796 42.854 180.52 42.924 180.306 43.064C180.1 43.1947 179.946 43.372 179.844 43.596C179.769 43.7173 179.662 43.778 179.522 43.778H178.416C178.313 43.778 178.234 43.75 178.178 43.694C178.131 43.638 178.108 43.5633 178.108 43.47C178.117 43.3207 178.178 43.1387 178.29 42.924C178.402 42.7093 178.579 42.504 178.822 42.308C179.064 42.1027 179.377 41.93 179.76 41.79C180.142 41.65 180.604 41.58 181.146 41.58C181.734 41.58 182.228 41.6547 182.63 41.804C183.04 41.944 183.367 42.1353 183.61 42.378C183.852 42.6207 184.03 42.9053 184.142 43.232C184.254 43.5587 184.31 43.904 184.31 44.268V48.664C184.31 48.7573 184.277 48.8367 184.212 48.902C184.146 48.9673 184.067 49 183.974 49H182.84C182.737 49 182.653 48.9673 182.588 48.902C182.532 48.8367 182.504 48.7573 182.504 48.664V48.118C182.382 48.2953 182.219 48.4633 182.014 48.622C181.808 48.7713 181.556 48.8973 181.258 49C180.968 49.0933 180.623 49.14 180.222 49.14ZM180.698 47.81C181.024 47.81 181.318 47.74 181.58 47.6C181.85 47.46 182.06 47.2453 182.21 46.956C182.368 46.6573 182.448 46.284 182.448 45.836V45.542L181.048 45.766C180.497 45.85 180.086 45.9853 179.816 46.172C179.545 46.3587 179.41 46.5873 179.41 46.858C179.41 47.0633 179.47 47.2407 179.592 47.39C179.722 47.53 179.886 47.6373 180.082 47.712C180.278 47.7773 180.483 47.81 180.698 47.81ZM186.456 51.66C186.362 51.66 186.283 51.6273 186.218 51.562C186.152 51.4967 186.12 51.4173 186.12 51.324V42.056C186.12 41.9627 186.152 41.8833 186.218 41.818C186.283 41.7527 186.362 41.72 186.456 41.72H187.562C187.664 41.72 187.744 41.7527 187.8 41.818C187.865 41.8833 187.898 41.9627 187.898 42.056V42.616C188.122 42.3173 188.416 42.07 188.78 41.874C189.144 41.678 189.596 41.58 190.138 41.58C190.632 41.58 191.062 41.6593 191.426 41.818C191.79 41.9767 192.093 42.2053 192.336 42.504C192.578 42.7933 192.765 43.1387 192.896 43.54C193.026 43.9413 193.101 44.3847 193.12 44.87C193.129 45.0287 193.134 45.192 193.134 45.36C193.134 45.528 193.129 45.696 193.12 45.864C193.11 46.3307 193.04 46.7647 192.91 47.166C192.779 47.558 192.588 47.9033 192.336 48.202C192.093 48.4913 191.79 48.72 191.426 48.888C191.062 49.056 190.632 49.14 190.138 49.14C189.634 49.14 189.204 49.0513 188.85 48.874C188.495 48.6873 188.206 48.4447 187.982 48.146V51.324C187.982 51.4173 187.949 51.4967 187.884 51.562C187.828 51.6273 187.748 51.66 187.646 51.66H186.456ZM189.62 47.642C190.021 47.642 190.334 47.558 190.558 47.39C190.782 47.2127 190.94 46.984 191.034 46.704C191.136 46.424 191.197 46.116 191.216 45.78C191.234 45.5 191.234 45.22 191.216 44.94C191.197 44.604 191.136 44.296 191.034 44.016C190.94 43.736 190.782 43.512 190.558 43.344C190.334 43.1667 190.021 43.078 189.62 43.078C189.237 43.078 188.924 43.1667 188.682 43.344C188.448 43.5213 188.276 43.75 188.164 44.03C188.061 44.3007 188 44.5807 187.982 44.87C187.972 45.038 187.968 45.2153 187.968 45.402C187.968 45.5887 187.972 45.7707 187.982 45.948C187.991 46.228 188.056 46.4987 188.178 46.76C188.299 47.012 188.476 47.222 188.71 47.39C188.943 47.558 189.246 47.642 189.62 47.642ZM198.408 49C198.315 49 198.236 48.9673 198.17 48.902C198.105 48.8367 198.072 48.7573 198.072 48.664V39.55C198.072 39.4473 198.105 39.3633 198.17 39.298C198.236 39.2327 198.315 39.2 198.408 39.2H201.824C202.767 39.2 203.542 39.3447 204.148 39.634C204.764 39.9233 205.226 40.3527 205.534 40.922C205.852 41.4913 206.015 42.1867 206.024 43.008C206.043 43.4187 206.052 43.7827 206.052 44.1C206.052 44.4173 206.043 44.7767 206.024 45.178C206.006 46.046 205.847 46.7647 205.548 47.334C205.25 47.894 204.797 48.314 204.19 48.594C203.593 48.8647 202.828 49 201.894 49H198.408ZM200.018 47.39H201.824C202.347 47.39 202.772 47.3153 203.098 47.166C203.425 47.0167 203.663 46.7787 203.812 46.452C203.971 46.116 204.055 45.6773 204.064 45.136C204.074 44.856 204.078 44.6133 204.078 44.408C204.088 44.1933 204.088 43.9833 204.078 43.778C204.078 43.5633 204.074 43.3207 204.064 43.05C204.046 42.2847 203.854 41.72 203.49 41.356C203.126 40.992 202.548 40.81 201.754 40.81H200.018V47.39ZM210.45 49.14C209.881 49.14 209.386 49.014 208.966 48.762C208.556 48.5007 208.238 48.1367 208.014 47.67C207.79 47.194 207.678 46.634 207.678 45.99V42.056C207.678 41.9627 207.711 41.8833 207.776 41.818C207.842 41.7527 207.921 41.72 208.014 41.72H209.246C209.349 41.72 209.428 41.7527 209.484 41.818C209.55 41.8833 209.582 41.9627 209.582 42.056V45.906C209.582 47.0633 210.091 47.642 211.108 47.642C211.594 47.642 211.976 47.488 212.256 47.18C212.546 46.872 212.69 46.4473 212.69 45.906V42.056C212.69 41.9627 212.723 41.8833 212.788 41.818C212.854 41.7527 212.933 41.72 213.026 41.72H214.258C214.352 41.72 214.431 41.7527 214.496 41.818C214.562 41.8833 214.594 41.9627 214.594 42.056V48.664C214.594 48.7573 214.562 48.8367 214.496 48.902C214.431 48.9673 214.352 49 214.258 49H213.124C213.022 49 212.938 48.9673 212.872 48.902C212.816 48.8367 212.788 48.7573 212.788 48.664V48.09C212.536 48.4167 212.224 48.6733 211.85 48.86C211.477 49.0467 211.01 49.14 210.45 49.14ZM219.202 49.14C218.642 49.14 218.161 49.0747 217.76 48.944C217.368 48.8133 217.046 48.65 216.794 48.454C216.542 48.258 216.355 48.062 216.234 47.866C216.112 47.67 216.047 47.5067 216.038 47.376C216.028 47.2733 216.056 47.194 216.122 47.138C216.196 47.0727 216.276 47.04 216.36 47.04H217.466C217.503 47.04 217.536 47.0447 217.564 47.054C217.592 47.0633 217.629 47.0913 217.676 47.138C217.797 47.2407 217.923 47.348 218.054 47.46C218.194 47.572 218.357 47.67 218.544 47.754C218.73 47.8287 218.964 47.866 219.244 47.866C219.608 47.866 219.911 47.796 220.154 47.656C220.406 47.5067 220.532 47.2967 220.532 47.026C220.532 46.83 220.476 46.6713 220.364 46.55C220.261 46.4287 220.065 46.3213 219.776 46.228C219.486 46.1253 219.076 46.018 218.544 45.906C218.021 45.7847 217.587 45.6307 217.242 45.444C216.896 45.2573 216.64 45.024 216.472 44.744C216.304 44.464 216.22 44.1373 216.22 43.764C216.22 43.4 216.327 43.0547 216.542 42.728C216.766 42.392 217.092 42.1167 217.522 41.902C217.96 41.6873 218.502 41.58 219.146 41.58C219.65 41.58 220.088 41.6453 220.462 41.776C220.835 41.8973 221.143 42.0513 221.386 42.238C221.638 42.4247 221.829 42.616 221.96 42.812C222.09 42.9987 222.16 43.162 222.17 43.302C222.179 43.4047 222.151 43.4887 222.086 43.554C222.02 43.61 221.946 43.638 221.862 43.638H220.826C220.779 43.638 220.737 43.6287 220.7 43.61C220.662 43.5913 220.625 43.568 220.588 43.54C220.485 43.4467 220.373 43.3487 220.252 43.246C220.13 43.1433 219.981 43.0547 219.804 42.98C219.636 42.896 219.412 42.854 219.132 42.854C218.777 42.854 218.506 42.9333 218.32 43.092C218.133 43.2413 218.04 43.4327 218.04 43.666C218.04 43.8247 218.082 43.9647 218.166 44.086C218.259 44.198 218.441 44.3053 218.712 44.408C218.982 44.5107 219.393 44.618 219.944 44.73C220.569 44.842 221.064 45.01 221.428 45.234C221.801 45.4487 222.062 45.7007 222.212 45.99C222.37 46.27 222.45 46.5827 222.45 46.928C222.45 47.348 222.324 47.726 222.072 48.062C221.829 48.398 221.465 48.664 220.98 48.86C220.504 49.0467 219.911 49.14 219.202 49.14ZM226.597 49.14C226.027 49.14 225.533 49.014 225.113 48.762C224.702 48.5007 224.385 48.1367 224.161 47.67C223.937 47.194 223.825 46.634 223.825 45.99V42.056C223.825 41.9627 223.857 41.8833 223.923 41.818C223.988 41.7527 224.067 41.72 224.161 41.72H225.393C225.495 41.72 225.575 41.7527 225.631 41.818C225.696 41.8833 225.729 41.9627 225.729 42.056V45.906C225.729 47.0633 226.237 47.642 227.255 47.642C227.74 47.642 228.123 47.488 228.403 47.18C228.692 46.872 228.837 46.4473 228.837 45.906V42.056C228.837 41.9627 228.869 41.8833 228.935 41.818C229 41.7527 229.079 41.72 229.173 41.72H230.405C230.498 41.72 230.577 41.7527 230.643 41.818C230.708 41.8833 230.741 41.9627 230.741 42.056V48.664C230.741 48.7573 230.708 48.8367 230.643 48.902C230.577 48.9673 230.498 49 230.405 49H229.271C229.168 49 229.084 48.9673 229.019 48.902C228.963 48.8367 228.935 48.7573 228.935 48.664V48.09C228.683 48.4167 228.37 48.6733 227.997 48.86C227.623 49.0467 227.157 49.14 226.597 49.14ZM232.926 49C232.833 49 232.753 48.9673 232.688 48.902C232.623 48.8367 232.59 48.7573 232.59 48.664V42.056C232.59 41.9627 232.623 41.8833 232.688 41.818C232.753 41.7527 232.833 41.72 232.926 41.72H234.074C234.167 41.72 234.247 41.7527 234.312 41.818C234.377 41.8833 234.41 41.9627 234.41 42.056V42.63C234.653 42.3313 234.961 42.084 235.334 41.888C235.717 41.6827 236.188 41.58 236.748 41.58C237.317 41.58 237.812 41.7107 238.232 41.972C238.652 42.224 238.974 42.5833 239.198 43.05C239.431 43.5167 239.548 44.0767 239.548 44.73V48.664C239.548 48.7573 239.515 48.8367 239.45 48.902C239.385 48.9673 239.305 49 239.212 49H237.98C237.887 49 237.807 48.9673 237.742 48.902C237.677 48.8367 237.644 48.7573 237.644 48.664V44.814C237.644 44.2727 237.509 43.848 237.238 43.54C236.977 43.232 236.594 43.078 236.09 43.078C235.605 43.078 235.217 43.232 234.928 43.54C234.639 43.848 234.494 44.2727 234.494 44.814V48.664C234.494 48.7573 234.461 48.8367 234.396 48.902C234.331 48.9673 234.251 49 234.158 49H232.926Z" fill="#44556C"/>
<defs>
<filter id="filter0_d_1_3780" x="0" y="0" width="402" height="350" filterUnits="userSpaceOnUse" color-interpolation-filters="sRGB">
<feFlood flood-opacity="0" result="BackgroundImageFix"/>
<feColorMatrix in="SourceAlpha" type="matrix" values="0 0 0 0 0 0 0 0 0 0 0 0 0 0 0 0 0 0 127 0" result="hardAlpha"/>
<feOffset dy="4"/>
<feGaussianBlur stdDeviation="10"/>
<feComposite in2="hardAlpha" operator="out"/>
<feColorMatrix type="matrix" values="0 0 0 0 0.298039 0 0 0 0 0.341176 0 0 0 0 0.490196 0 0 0 0.02 0"/>
<feBlend mode="normal" in2="BackgroundImageFix" result="effect1_dropShadow_1_3780"/>
<feBlend mode="normal" in="SourceGraphic" in2="effect1_dropShadow_1_3780" result="shape"/>
</filter>
</defs>
</svg>
