<svg width="454" height="399" viewBox="0 0 454 399" fill="none" xmlns="http://www.w3.org/2000/svg">
<circle cx="235.5" cy="199.5" r="199.5" fill="white" fill-opacity="0.3"/>
<g clip-path="url(#clip0_1_4164)">
<path d="M0.592113 323.772C2.39065 309.303 11.3536 295.048 25.1462 290.339C19.7068 305.231 19.708 321.569 25.1496 336.46C27.269 342.196 30.2232 348.354 28.2296 354.135C26.9892 357.732 23.9548 360.484 20.5629 362.204C17.1708 363.925 13.4064 364.745 9.68897 365.549L8.95737 366.154C3.05608 352.823 -1.20642 338.241 0.592113 323.772Z" fill="#F0F0F0"/>
<path d="M25.2831 290.612C17.2509 299.616 12.2587 310.923 11.0155 322.927C10.702 325.507 10.7969 328.12 11.2966 330.67C11.8637 333.138 13.081 335.409 14.8222 337.247C16.4112 338.994 18.2388 340.596 19.3758 342.699C19.9418 343.784 20.2722 344.977 20.3453 346.198C20.4183 347.42 20.2325 348.643 19.7998 349.788C18.796 352.668 16.8175 355.016 14.8029 357.245C12.5662 359.72 10.2037 362.254 9.25287 365.535C9.13767 365.932 8.52791 365.73 8.64294 365.334C10.2972 359.626 15.8353 356.384 18.4764 351.243C19.7088 348.844 20.2261 346.059 19.0708 343.527C18.0605 341.313 16.1772 339.659 14.553 337.904C12.8282 336.136 11.5624 333.971 10.8663 331.601C10.2384 329.085 10.043 326.48 10.2887 323.898C10.7489 318.077 12.1212 312.364 14.3552 306.97C16.8708 300.798 20.423 295.103 24.8581 290.131C25.1327 289.823 25.556 290.307 25.2831 290.613V290.612Z" fill="white"/>
<path d="M11.1884 319.039C9.20358 318.557 7.4547 317.384 6.25406 315.731C5.05342 314.078 4.4792 312.052 4.63395 310.015C4.66668 309.602 5.3084 309.634 5.27563 310.047C5.12803 311.944 5.66311 313.831 6.78428 315.368C7.90546 316.905 9.53889 317.991 11.3898 318.428C11.7919 318.524 11.5882 319.134 11.1884 319.039Z" fill="white"/>
<path d="M13.8999 336.468C17.4846 334.326 20.131 330.912 21.3111 326.905C21.4277 326.508 22.0375 326.71 21.9211 327.107C20.6852 331.274 17.924 334.822 14.1887 337.042C13.8326 337.253 13.5456 336.678 13.8999 336.468H13.8999Z" fill="white"/>
<path d="M17.4667 301.407C18.1958 301.754 18.9995 301.914 19.8057 301.873C20.6119 301.832 21.3954 301.591 22.0856 301.173C22.439 300.957 22.7255 301.532 22.3745 301.747C21.6097 302.206 20.7442 302.47 19.8536 302.517C18.9629 302.565 18.0743 302.393 17.2653 302.017C17.1861 301.988 17.1209 301.93 17.0829 301.855C17.045 301.78 17.0371 301.693 17.061 301.612C17.0881 301.531 17.1459 301.464 17.2218 301.426C17.2978 301.388 17.3858 301.381 17.4667 301.407Z" fill="white"/>
<path d="M67.1882 316.182C66.9714 316.323 66.7546 316.464 66.5376 316.611C63.6328 318.522 60.888 320.665 58.3303 323.021C58.1296 323.2 57.929 323.384 57.7339 323.569C51.6323 329.31 46.6491 336.134 43.0376 343.695C41.6033 346.705 40.3999 349.82 39.438 353.013C38.1097 357.422 37.0202 362.309 34.3909 365.915C34.1209 366.295 33.8275 366.657 33.5127 367H9.75229C9.69829 366.973 9.64403 366.951 9.58976 366.924L8.64108 366.967C8.6792 366.799 8.72234 366.626 8.76046 366.458C8.78215 366.36 8.80917 366.262 8.83087 366.165C8.84702 366.1 8.86343 366.035 8.87428 365.975C8.87957 365.953 8.88513 365.932 8.89043 365.915C8.90127 365.856 8.9177 365.801 8.92855 365.747C9.16705 364.776 9.41277 363.806 9.66573 362.835C9.66573 362.829 9.66573 362.829 9.67102 362.824C11.6174 355.432 14.1976 348.137 17.8026 341.466C17.9111 341.266 18.0194 341.06 18.1387 340.859C19.7803 337.861 21.6641 335.002 23.7712 332.311C24.9298 330.842 26.1619 329.432 27.463 328.087C30.8314 324.618 34.7243 321.7 38.9988 319.442C47.5208 314.94 57.3869 313.215 66.4944 315.965C66.7273 316.036 66.9552 316.106 67.1882 316.182Z" fill="#F0F0F0"/>
<path d="M67.1347 316.484C55.303 318.835 44.5124 324.856 36.2958 333.691C34.4932 335.562 32.9966 337.705 31.8611 340.042C30.8285 342.355 30.4337 344.901 30.7176 347.418C30.9352 349.77 31.43 352.15 31.0724 354.514C30.8715 355.721 30.4176 356.872 29.7408 357.892C29.0639 358.911 28.1793 359.776 27.145 360.429C24.61 362.124 21.6174 362.807 18.6677 363.373C15.3926 364.002 11.9808 364.603 9.24737 366.649C8.91618 366.897 8.55093 366.369 8.88162 366.121C13.6373 362.56 20.0103 363.308 25.2128 360.794C27.6404 359.621 29.7294 357.709 30.3307 354.991C30.8566 352.615 30.3484 350.159 30.1075 347.78C29.7946 345.329 30.0862 342.839 30.957 340.527C31.9699 338.14 33.3815 335.942 35.1313 334.029C39.002 329.658 43.5355 325.923 48.5658 322.962C54.2881 319.55 60.5516 317.142 67.0854 315.843C67.4898 315.763 67.5365 316.404 67.1347 316.484H67.1347Z" fill="white"/>
<path d="M38.7741 330.691C37.4795 329.11 36.7886 327.121 36.8247 325.078C36.8609 323.035 37.6217 321.071 38.9715 319.537C39.2456 319.228 39.739 319.64 39.4645 319.949C38.205 321.375 37.4964 323.204 37.4667 325.107C37.4369 327.01 38.0879 328.86 39.3022 330.325C39.5657 330.643 39.0361 331.007 38.7742 330.691H38.7741Z" fill="white"/>
<path d="M30.4503 346.24C34.6012 346.69 38.769 345.557 42.1225 343.069C42.4546 342.822 42.8199 343.351 42.4883 343.597C38.9937 346.18 34.6541 347.35 30.3355 346.872C29.924 346.827 30.0409 346.195 30.4503 346.24Z" fill="white"/>
<path d="M54.3976 320.395C54.7711 321.11 55.3166 321.722 55.9849 322.175C56.6533 322.628 57.4236 322.908 58.2267 322.989C58.6387 323.03 58.5213 323.662 58.112 323.622C57.2251 323.528 56.3747 323.218 55.6352 322.719C54.8956 322.22 54.2894 321.548 53.8695 320.76C53.8237 320.69 53.8066 320.604 53.8217 320.521C53.8368 320.438 53.8829 320.364 53.9507 320.313C54.0208 320.265 54.1071 320.247 54.1908 320.262C54.2745 320.277 54.3488 320.325 54.3976 320.395Z" fill="white"/>
<path d="M403.351 36.2856C383.726 15.4404 356.71 3.12993 328.11 2V111.56L403.351 36.2856Z" fill="#3F3D56"/>
<path d="M403.351 49.9273L328.11 125.202H433.261C433.298 97.2033 422.592 70.2587 403.351 49.9273Z" fill="#E4E4E4"/>
<path d="M433.373 133.075C433.377 139.903 432.746 146.717 431.487 153.429C431.389 153.96 431.286 154.486 431.177 155.013C428.803 166.72 424.517 177.956 418.492 188.269C418.172 188.823 417.842 189.376 417.511 189.918V189.923C411.573 199.699 404.147 208.487 395.502 215.972C395.073 216.347 394.645 216.715 394.211 217.079C375.632 232.717 352.37 241.71 328.108 242.634V133.075H433.373Z" fill="#F0F0F0"/>
<path d="M317.473 242.73C318.928 242.73 320.375 242.693 321.817 242.636V133.072L242.173 212.752C262.502 232.035 289.459 242.767 317.473 242.73Z" fill="#CACACA"/>
<path d="M317.621 15.5439C257.086 15.5439 208.013 64.6394 208.013 125.202H322.079V15.6417C320.6 15.5824 319.115 15.5439 317.621 15.5439Z" fill="url(#paint0_linear_1_4164)"/>
<path d="M291.472 133.075L268.428 156.13L267.674 156.884L267.658 156.9L247.562 176.999L246.798 177.764L225.086 199.485L224.322 200.25V200.255L211.827 212.751C200.977 202.515 192.336 190.165 186.435 176.463C180.535 162.76 177.5 147.995 177.517 133.075H291.472Z" fill="url(#paint1_linear_1_4164)"/>
<path d="M112.688 232.876C113.526 232.367 114.243 231.68 114.788 230.864C115.332 230.048 115.691 229.122 115.839 228.152C115.988 227.182 115.922 226.191 115.646 225.25C115.37 224.308 114.891 223.438 114.243 222.702L115.148 173.383L104.344 174.288L104.369 222.37C103.205 223.541 102.51 225.099 102.417 226.748C102.324 228.398 102.839 230.024 103.864 231.319C104.89 232.614 106.354 233.488 107.98 233.775C109.607 234.062 111.281 233.742 112.688 232.876Z" fill="#FFB6B6"/>
<path d="M116.851 185.455L102.721 184.107C102.319 184.069 101.93 183.944 101.581 183.742C101.231 183.54 100.929 183.264 100.696 182.935C100.462 182.605 100.302 182.229 100.227 181.832C100.152 181.435 100.163 181.027 100.26 180.635L103.653 166.89C103.861 164.834 104.875 162.943 106.474 161.634C108.073 160.325 110.125 159.703 112.182 159.905C114.238 160.107 116.13 161.117 117.444 162.713C118.757 164.309 119.384 166.361 119.188 168.418L119.924 182.51C119.945 182.914 119.879 183.317 119.73 183.693C119.581 184.068 119.353 184.407 119.062 184.687C118.77 184.966 118.422 185.18 118.04 185.312C117.659 185.445 117.253 185.494 116.851 185.455H116.851Z" fill="#E4E4E4"/>
<path d="M93.3506 361.193H98.8329L101.441 340.037L93.3495 340.037L93.3506 361.193Z" fill="#FFB6B6"/>
<path d="M91.952 359.402L102.749 359.402H102.749C104.574 359.402 106.324 360.127 107.615 361.418C108.905 362.709 109.63 364.46 109.63 366.286V366.509L91.9523 366.51L91.952 359.402Z" fill="#2F2E41"/>
<path d="M143.883 361.193H149.366L151.974 340.037L143.882 340.037L143.883 361.193Z" fill="#FFB6B6"/>
<path d="M142.484 359.402L153.281 359.402H153.282C155.107 359.402 156.857 360.127 158.147 361.418C159.437 362.709 160.162 364.46 160.162 366.286V366.509L142.485 366.51L142.484 359.402Z" fill="#2F2E41"/>
<path d="M137.264 191.229L140.841 214.047L106.854 214.494L111.326 192.572L137.264 191.229Z" fill="#FFB6B6"/>
<path d="M140.102 209.138C150.886 227.931 151.806 291.655 152.268 357.473H143.1L121.188 261.461L101.065 354.966H92.1208L98.3815 249.829C98.3815 249.829 96.5353 228.727 105.984 216.275L108.284 209.627L140.102 209.138Z" fill="#2F2E41"/>
<path d="M112.492 203.831C112.294 203.831 112.096 203.811 111.901 203.773C111.247 203.642 110.653 203.3 110.211 202.8C109.769 202.3 109.503 201.668 109.453 201.003C109.117 196.398 107.451 188.382 104.502 177.178C103.507 173.37 103.727 169.346 105.133 165.67C106.539 161.994 109.059 158.85 112.34 156.679C115.622 154.507 119.5 153.418 123.432 153.563C127.363 153.709 131.151 155.081 134.264 157.488C136.257 159.015 137.92 160.931 139.154 163.118C140.387 165.306 141.166 167.72 141.442 170.217C142.907 183.13 140.144 196.095 138.888 201.07C138.723 201.719 138.35 202.296 137.826 202.713C137.301 203.13 136.655 203.364 135.985 203.378L112.557 203.83C112.536 203.831 112.514 203.831 112.492 203.831Z" fill="#E4E4E4"/>
<path d="M177.945 162.407C177.804 162.722 177.689 163.049 177.599 163.383L148.274 173.352L142.608 168.4L134.02 175.978L143.199 185.721C143.941 186.508 144.918 187.033 145.983 187.217C147.048 187.402 148.145 187.236 149.107 186.744L180.487 170.708C181.622 171.404 182.941 171.738 184.271 171.666C185.6 171.594 186.876 171.118 187.928 170.303C188.981 169.487 189.76 168.371 190.163 167.101C190.566 165.832 190.572 164.47 190.183 163.196C189.793 161.923 189.024 160.798 187.98 159.972C186.936 159.146 185.665 158.658 184.336 158.572C183.008 158.487 181.685 158.807 180.543 159.492C179.401 160.177 178.495 161.194 177.945 162.407Z" fill="#FFB6B6"/>
<path d="M147.252 173.897L136.562 183.238C136.258 183.504 135.9 183.701 135.513 183.816C135.126 183.931 134.718 183.961 134.318 183.904C133.919 183.847 133.536 183.705 133.196 183.487C132.856 183.269 132.567 182.98 132.349 182.64L124.702 170.728C123.352 169.163 122.677 167.126 122.825 165.065C122.973 163.003 123.932 161.084 125.492 159.728C127.053 158.373 129.086 157.692 131.148 157.835C133.209 157.977 135.13 158.932 136.489 160.489L147.226 169.639C147.534 169.902 147.781 170.227 147.951 170.593C148.122 170.959 148.211 171.358 148.214 171.762C148.216 172.166 148.131 172.566 147.966 172.934C147.8 173.303 147.556 173.631 147.252 173.897Z" fill="#E4E4E4"/>
<path d="M132.893 143.176C136.7 136.209 134.141 127.474 127.177 123.665C120.213 119.857 111.482 122.417 107.675 129.384C103.868 136.351 106.428 145.086 113.391 148.895C120.355 152.703 129.086 150.143 132.893 143.176Z" fill="#FFB6B6"/>
<path d="M124.24 116.381H121.326C119.927 115.943 118.47 115.721 117.005 115.723C116.763 115.723 116.523 115.729 116.284 115.741C113.56 115.912 110.955 116.921 108.825 118.629C106.695 120.338 105.144 122.662 104.385 125.285C101.126 136.166 102.534 148.205 102.534 148.205C107.289 150.357 114.558 151.95 125.293 150.64L126.871 144.02L126.739 150.443C128.253 150.232 129.831 149.96 131.476 149.627V135.465H138.053C138.053 124.923 134.778 116.381 124.24 116.381Z" fill="#2F2E41"/>
<path d="M452.645 243.345H246.104C245.96 243.345 245.822 243.288 245.72 243.186C245.619 243.084 245.562 242.946 245.562 242.802C245.562 242.659 245.619 242.521 245.72 242.419C245.822 242.317 245.96 242.26 246.104 242.26H452.645C452.789 242.26 452.926 242.317 453.028 242.419C453.13 242.521 453.187 242.659 453.187 242.802C453.187 242.946 453.13 243.084 453.028 243.186C452.926 243.288 452.789 243.345 452.645 243.345Z" fill="#F0F0F0"/>
<path d="M452.916 312.494V105.86C452.916 105.716 452.973 105.578 453.075 105.476C453.176 105.374 453.314 105.317 453.458 105.317C453.602 105.317 453.74 105.374 453.841 105.476C453.943 105.578 454 105.716 454 105.86V312.494C454 312.638 453.943 312.776 453.841 312.878C453.74 312.979 453.602 313.036 453.458 313.036C453.314 313.036 453.176 312.979 453.075 312.878C452.973 312.776 452.916 312.638 452.916 312.494Z" fill="#F0F0F0"/>
<path d="M422.016 271.004C426.806 271.004 430.69 267.119 430.69 262.327C430.69 257.534 426.806 253.649 422.016 253.649C417.226 253.649 413.342 257.534 413.342 262.327C413.342 267.119 417.226 271.004 422.016 271.004Z" fill="#F0F0F0"/>
<path d="M211.138 26.4057C215.928 26.4057 219.812 22.5206 219.812 17.7281C219.812 12.9356 215.928 9.05052 211.138 9.05052C206.348 9.05052 202.464 12.9356 202.464 17.7281C202.464 22.5206 206.348 26.4057 211.138 26.4057Z" fill="#F0F0F0"/>
<path d="M207.625 366.458C207.625 366.529 207.612 366.6 207.584 366.665C207.557 366.731 207.517 366.791 207.467 366.842C207.417 366.892 207.357 366.932 207.291 366.959C207.225 366.986 207.154 367 207.083 367H0.542095C0.39832 367 0.260434 366.943 0.15877 366.841C0.0571062 366.739 -7.62939e-06 366.601 -7.62939e-06 366.458C-7.62939e-06 366.314 0.0571062 366.176 0.15877 366.074C0.260434 365.972 0.39832 365.915 0.542095 365.915H207.083C207.154 365.915 207.225 365.929 207.291 365.956C207.357 365.983 207.417 366.023 207.467 366.074C207.517 366.124 207.557 366.184 207.584 366.25C207.612 366.316 207.625 366.386 207.625 366.458Z" fill="#CACACA"/>
<path d="M224.322 200.254C206.338 182.435 195.829 158.421 194.941 133.114L197.108 133.036C197.977 157.793 208.257 181.284 225.851 198.716L224.322 200.254Z" fill="#3F3D56"/>
<path d="M247.584 177.021L246.012 178.507C234.031 165.851 225.575 150.274 221.487 133.329L222.539 133.075H223.655C227.676 149.545 235.916 164.683 247.562 176.999L247.584 177.021Z" fill="#3F3D56"/>
<path d="M268.487 156.206L267.674 156.884L267.658 156.9L266.823 157.594C260.74 150.315 255.727 142.205 251.937 133.508L252.929 133.075H254.116C257.788 141.39 262.605 149.151 268.428 156.13C268.446 156.156 268.466 156.182 268.487 156.206Z" fill="#3F3D56"/>
</g>
<defs>
<linearGradient id="paint0_linear_1_4164" x1="270.942" y1="-2.48617" x2="261.716" y2="145.132" gradientUnits="userSpaceOnUse">
<stop stop-color="#2161D5"/>
<stop offset="1" stop-color="#5C92F3"/>
</linearGradient>
<linearGradient id="paint1_linear_1_4164" x1="240.385" y1="119.974" x2="235.5" y2="227.429" gradientUnits="userSpaceOnUse">
<stop stop-color="#2161D5"/>
<stop offset="1" stop-color="#5C92F3"/>
</linearGradient>
<clipPath id="clip0_1_4164">
<rect width="454" height="365" fill="white" transform="translate(0 2)"/>
</clipPath>
</defs>
</svg>
