<svg width="90" height="90" viewBox="0 0 90 90" fill="none" xmlns="http://www.w3.org/2000/svg">
<path d="M53.1374 51.4125L58.3874 42.3375C58.7249 41.775 58.5749 41.0625 58.0874 40.65L52.5374 36.3C52.6499 35.475 52.7249 34.6125 52.7249 33.75C52.7249 32.8875 52.6499 32.025 52.5374 31.1625L58.0874 26.8125C58.5749 26.4 58.7249 25.6875 58.3874 25.125L53.1374 16.05C52.7999 15.4875 52.1249 15.2625 51.5249 15.4875L44.9999 18.1125C43.6499 17.0625 42.1874 16.2 40.5749 15.525L39.5999 8.5875C39.537 8.28421 39.3728 8.01133 39.1343 7.81371C38.8957 7.61608 38.5971 7.50545 38.2874 7.5H27.7874C27.1499 7.5 26.5874 7.9875 26.4749 8.625L25.4999 15.5625C23.9249 16.2375 22.4249 17.1 21.0749 18.15L14.5499 15.525C13.9499 15.3 13.2749 15.525 12.9374 16.0875L7.68739 25.1625C7.34989 25.725 7.49989 26.4375 7.98739 26.85L13.5374 31.2C13.4249 32.025 13.3499 32.8875 13.3499 33.75C13.3499 34.6125 13.4249 35.475 13.5374 36.3375L7.98739 40.6875C7.49989 41.1 7.34989 41.8125 7.68739 42.375L12.9374 51.45C13.2749 52.0125 13.9499 52.2375 14.5499 52.0125L21.0749 49.3875C22.4249 50.4375 23.8874 51.3 25.4999 51.975L26.4749 58.9125C26.5874 59.5125 27.1499 60 27.7874 60H38.2874C38.9249 60 39.4874 59.5125 39.5999 58.875L40.5749 51.9375C42.1499 51.2625 43.6499 50.4 44.9999 49.35L51.5249 51.975C52.1249 52.2 52.7999 51.975 53.1374 51.4125ZM33.0374 41.25C28.9124 41.25 25.5374 37.875 25.5374 33.75C25.5374 29.625 28.9124 26.25 33.0374 26.25C37.1624 26.25 40.5374 29.625 40.5374 33.75C40.5374 37.875 37.1624 41.25 33.0374 41.25ZM82.1999 70.0125L78.5999 67.2375C78.6749 66.7125 78.7499 66.15 78.7499 65.5875C78.7499 65.025 78.7124 64.4625 78.5999 63.9375L82.1624 61.1625C82.4624 60.9 82.5749 60.45 82.3499 60.075L78.9749 54.2625C78.7874 53.8875 78.3374 53.775 77.9249 53.8875L73.7624 55.575C72.8999 54.9 71.9624 54.3375 70.9124 53.925L70.2749 49.5C70.2601 49.2996 70.1713 49.1118 70.0257 48.9732C69.8802 48.8346 69.6883 48.755 69.4874 48.75H62.7749C62.3624 48.75 61.9874 49.05 61.9499 49.4625L61.3124 53.8875C60.2999 54.3375 59.3249 54.8625 58.4624 55.5375L54.2999 53.85C54.1088 53.7781 53.8984 53.7764 53.7062 53.845C53.5139 53.9137 53.3522 54.0483 53.2499 54.225L49.8749 60.0375C49.6874 60.4125 49.7249 60.8625 50.0624 61.125L53.6249 63.9C53.4702 64.9946 53.4702 66.1054 53.6249 67.2L50.0624 69.975C49.7624 70.2375 49.6499 70.6875 49.8749 71.0625L53.2499 76.875C53.4374 77.25 53.8874 77.3625 54.2999 77.25L58.4624 75.5625C59.3249 76.2375 60.2624 76.8 61.3124 77.2125L61.9499 81.6375C62.0249 82.05 62.3624 82.35 62.7749 82.35H69.4874C69.8999 82.35 70.2749 82.05 70.3124 81.6375L70.9499 77.2125C71.9624 76.7625 72.9374 76.2375 73.7624 75.5625L77.9624 77.25C78.3374 77.4 78.7874 77.25 79.0124 76.875L82.3874 71.0625C82.6124 70.725 82.4999 70.275 82.1999 70.0125ZM66.1124 70.6125C64.7692 70.612 63.4813 70.078 62.5319 69.1278C61.5825 68.1777 61.0494 66.8894 61.0499 65.5462C61.0504 64.2031 61.5844 62.9151 62.5345 61.9657C63.4846 61.0163 64.773 60.4833 66.1161 60.4837C67.4593 60.4842 68.7473 61.0183 69.6967 61.9684C70.6461 62.9185 71.1791 64.2068 71.1787 65.55C71.1782 66.8932 70.6441 68.1811 69.694 69.1305C68.7439 70.0799 67.4556 70.613 66.1124 70.6125Z" fill="url(#paint0_linear_1_1372)"/>
<defs>
<linearGradient id="paint0_linear_1_1372" x1="48.8827" y1="-4.80693" x2="42.3469" y2="95.9234" gradientUnits="userSpaceOnUse">
<stop stop-color="#2161D5"/>
<stop offset="1" stop-color="#5C92F3"/>
</linearGradient>
</defs>
</svg>
