<svg width="132" height="33" viewBox="0 0 132 33" fill="none" xmlns="http://www.w3.org/2000/svg">
<path d="M39.8154 23.0065H49.0958V20.182H43.1139V9.543H39.8154V23.0065Z" fill="white"/>
<path d="M54.5938 21.1236C53.2707 21.1236 52.5812 19.9561 52.5812 18.2049C52.5812 16.4537 53.2707 15.2675 54.5938 15.2675C55.9169 15.2675 56.625 16.4537 56.625 18.2049C56.625 19.9561 55.9169 21.1236 54.5938 21.1236ZM54.6124 23.3079C57.6872 23.3079 59.6999 21.1048 59.6999 18.2049C59.6999 15.3051 57.6872 13.102 54.6124 13.102C51.5562 13.102 49.5063 15.3051 49.5063 18.2049C49.5063 21.1048 51.5562 23.3079 54.6124 23.3079Z" fill="white"/>
<path d="M65.0225 26.3396C66.4388 26.3396 67.6874 26.0195 68.5259 25.2663C69.29 24.5696 69.7931 23.5151 69.7931 22.0652V13.3657H66.886V14.4013H66.8488C66.2897 13.5916 65.4325 13.0832 64.1653 13.0832C61.7986 13.0832 60.1587 15.0792 60.1587 17.9037C60.1587 20.86 62.1527 22.4794 64.2957 22.4794C65.4511 22.4794 66.1779 22.0087 66.737 21.3685H66.8115V22.3288C66.8115 23.4963 66.2711 24.1741 64.9852 24.1741C63.9789 24.1741 63.4758 23.7411 63.3081 23.2326H60.3637C60.6618 25.2475 62.3949 26.3396 65.0225 26.3396ZM65.0039 20.201C63.8671 20.201 63.1217 19.2595 63.1217 17.8096C63.1217 16.3408 63.8671 15.3993 65.0039 15.3993C66.2711 15.3993 66.9419 16.4915 66.9419 17.7907C66.9419 19.1465 66.327 20.201 65.0039 20.201Z" fill="white"/>
<path d="M75.7705 21.1236C74.4474 21.1236 73.7579 19.9561 73.7579 18.2049C73.7579 16.4537 74.4474 15.2675 75.7705 15.2675C77.0936 15.2675 77.8015 16.4537 77.8015 18.2049C77.8015 19.9561 77.0936 21.1236 75.7705 21.1236ZM75.7892 23.3079C78.8637 23.3079 80.8763 21.1048 80.8763 18.2049C80.8763 15.3051 78.8637 13.102 75.7892 13.102C72.733 13.102 70.6831 15.3051 70.6831 18.2049C70.6831 21.1048 72.733 23.3079 75.7892 23.3079Z" fill="white"/>
<path d="M81.7637 23.0065H84.8012V13.3655H81.7637V23.0065ZM81.7637 12.0286H84.8012V9.543H81.7637V12.0286Z" fill="white"/>
<path d="M86.1191 26.189H89.1567V22.0087H89.194C89.7903 22.8184 90.6661 23.308 91.8961 23.308C94.3932 23.308 96.0518 21.312 96.0518 18.1862C96.0518 15.2863 94.505 13.0832 91.9706 13.0832C90.6661 13.0832 89.7344 13.667 89.0821 14.5331H89.0262V13.3657H86.1191V26.189ZM91.1134 20.9354C89.8089 20.9354 89.0635 19.8621 89.0635 18.2992C89.0635 16.7363 89.7344 15.55 91.0575 15.55C92.362 15.55 92.9769 16.6421 92.9769 18.2992C92.9769 19.9374 92.2688 20.9354 91.1134 20.9354Z" fill="white"/>
<path d="M100.997 23.308C103.494 23.308 105.339 22.2158 105.339 20.1068C105.339 17.6401 103.364 17.207 101.687 16.9246C100.475 16.6986 99.3945 16.6044 99.3945 15.9266C99.3945 15.324 99.9722 15.0416 100.718 15.0416C101.556 15.0416 102.134 15.3052 102.246 16.1714H105.041C104.892 14.2695 103.438 13.0832 100.736 13.0832C98.4814 13.0832 96.6178 14.1377 96.6178 16.1714C96.6178 18.431 98.3882 18.8829 100.047 19.1653C101.314 19.3913 102.469 19.4855 102.469 20.3516C102.469 20.973 101.892 21.312 100.978 21.312C99.9722 21.312 99.3386 20.8412 99.2268 19.8809H96.3569C96.4501 22.0087 98.2018 23.308 100.997 23.308Z" fill="white"/>
<path d="M109.465 23.289C110.788 23.289 111.627 22.7618 112.316 21.8203H112.372V23.0066H115.279V13.3656H112.242V18.751C112.242 19.8996 111.608 20.6905 110.565 20.6905C109.596 20.6905 109.13 20.1067 109.13 19.0522V13.3656H106.111V19.6925C106.111 21.8391 107.266 23.289 109.465 23.289Z" fill="white"/>
<path d="M116.601 23.0067H119.639V17.6024C119.639 16.4538 120.198 15.6441 121.148 15.6441C122.061 15.6441 122.49 16.2467 122.49 17.2823V23.0067H125.527V17.6024C125.527 16.4538 126.068 15.6441 127.037 15.6441C127.95 15.6441 128.379 16.2467 128.379 17.2823V23.0067H131.416V16.7363C131.416 14.5708 130.335 13.0832 128.174 13.0832C126.944 13.0832 125.919 13.6105 125.173 14.7779H125.136C124.652 13.7423 123.701 13.0832 122.453 13.0832C121.074 13.0832 120.16 13.7423 119.564 14.7403H119.508V13.3657H116.601V23.0067Z" fill="white"/>
<path fill-rule="evenodd" clip-rule="evenodd" d="M15.608 31.6371C24.1847 31.6371 31.1374 24.6116 31.1374 15.9453C31.1374 7.27904 24.1847 0.253616 15.608 0.253616C7.03136 0.253616 0.0786133 7.27904 0.0786133 15.9453C0.0786133 24.6116 7.03136 31.6371 15.608 31.6371ZM18.005 12.3775C19.3287 11.0399 19.3287 8.87117 18.005 7.53353C16.6812 6.1959 14.5349 6.1959 13.2111 7.53353C11.8874 8.87117 11.8874 11.0399 13.2111 12.3775L15.608 14.7994L18.005 12.3775ZM19.139 18.3673C20.4628 19.705 22.609 19.705 23.9328 18.3673C25.2566 17.0297 25.2566 14.861 23.9328 13.5234C22.609 12.1858 20.4628 12.1858 19.139 13.5234L16.7421 15.9454L19.139 18.3673ZM18.005 24.3572C19.3287 23.0196 19.3287 20.8509 18.005 19.5132L15.608 17.0913L13.2111 19.5132C11.8874 20.8509 11.8874 23.0196 13.2111 24.3572C14.5349 25.6948 16.6812 25.6948 18.005 24.3572ZM7.2832 18.3673C5.95944 17.0297 5.95944 14.861 7.2832 13.5234C8.60702 12.1858 10.7533 12.1858 12.0771 13.5234L14.474 15.9454L12.0771 18.3673C10.7533 19.705 8.60702 19.705 7.2832 18.3673Z" fill="#2161D5"/>
</svg>
