<svg width="282" height="42" viewBox="0 0 282 42" fill="none" xmlns="http://www.w3.org/2000/svg">
<rect width="282" height="42" rx="5" fill="white"/>
<path d="M88.504 17.6V15.794H91.878V26H89.862V17.6H88.504Z" fill="black"/>
<rect x="42" y="2" width="38" height="38" rx="5" fill="#3A70D9"/>
<path d="M60.878 25C60.7847 25 60.7007 24.9673 60.626 24.902C60.5607 24.8367 60.528 24.7527 60.528 24.65V17.692L58.512 19.246C58.428 19.3113 58.3393 19.3347 58.246 19.316C58.162 19.2973 58.0873 19.246 58.022 19.162L57.322 18.252C57.266 18.168 57.2427 18.0793 57.252 17.986C57.2707 17.8927 57.322 17.818 57.406 17.762L60.598 15.298C60.654 15.2607 60.7053 15.2373 60.752 15.228C60.808 15.2093 60.8687 15.2 60.934 15.2H62.418C62.5113 15.2 62.5907 15.2327 62.656 15.298C62.7213 15.3633 62.754 15.4473 62.754 15.55V24.65C62.754 24.7527 62.7213 24.8367 62.656 24.902C62.5907 24.9673 62.5113 25 62.418 25H60.878Z" fill="white"/>
<rect x="82" y="2" width="38" height="38" rx="5" fill="white"/>
<path d="M96.952 25C96.8493 25 96.7653 24.9673 96.7 24.902C96.6347 24.8367 96.602 24.7527 96.602 24.65V23.81C96.602 23.7353 96.6207 23.6373 96.658 23.516C96.7047 23.3853 96.8027 23.2593 96.952 23.138L98.8 21.304C99.4813 20.7813 100.032 20.338 100.452 19.974C100.881 19.61 101.199 19.2787 101.404 18.98C101.609 18.6813 101.712 18.392 101.712 18.112C101.712 17.748 101.609 17.4493 101.404 17.216C101.208 16.9733 100.886 16.852 100.438 16.852C100.139 16.852 99.8873 16.9173 99.682 17.048C99.486 17.1693 99.332 17.3327 99.22 17.538C99.108 17.7433 99.0333 17.9673 98.996 18.21C98.968 18.3313 98.9073 18.4153 98.814 18.462C98.73 18.5087 98.6413 18.532 98.548 18.532H97.064C96.9707 18.532 96.896 18.504 96.84 18.448C96.784 18.3827 96.756 18.3127 96.756 18.238C96.7653 17.8087 96.854 17.4027 97.022 17.02C97.1993 16.6373 97.4467 16.2967 97.764 15.998C98.0813 15.6993 98.464 15.466 98.912 15.298C99.36 15.1207 99.8687 15.032 100.438 15.032C101.222 15.032 101.88 15.1627 102.412 15.424C102.944 15.676 103.345 16.026 103.616 16.474C103.887 16.922 104.022 17.44 104.022 18.028C104.022 18.476 103.929 18.8913 103.742 19.274C103.565 19.6567 103.303 20.0253 102.958 20.38C102.613 20.7253 102.202 21.0847 101.726 21.458L100.074 23.11H103.882C103.985 23.11 104.069 23.1427 104.134 23.208C104.199 23.2733 104.232 23.3573 104.232 23.46V24.65C104.232 24.7527 104.199 24.8367 104.134 24.902C104.069 24.9673 103.985 25 103.882 25H96.952Z" fill="#0B132A"/>
<rect x="122" y="2" width="38" height="38" rx="5" fill="white"/>
<path d="M140.452 25.14C139.761 25.14 139.169 25.056 138.674 24.888C138.179 24.72 137.773 24.5053 137.456 24.244C137.139 23.9827 136.901 23.698 136.742 23.39C136.583 23.0727 136.499 22.7693 136.49 22.48C136.49 22.396 136.518 22.326 136.574 22.27C136.63 22.214 136.7 22.186 136.784 22.186H138.324C138.427 22.186 138.511 22.2093 138.576 22.256C138.641 22.2933 138.702 22.3633 138.758 22.466C138.833 22.6807 138.954 22.8533 139.122 22.984C139.29 23.1147 139.486 23.208 139.71 23.264C139.943 23.3107 140.191 23.334 140.452 23.334C140.975 23.334 141.385 23.2127 141.684 22.97C141.983 22.7273 142.132 22.3867 142.132 21.948C142.132 21.5 141.992 21.178 141.712 20.982C141.432 20.786 141.035 20.688 140.522 20.688H139.024C138.931 20.688 138.851 20.6553 138.786 20.59C138.721 20.5247 138.688 20.4453 138.688 20.352V19.666C138.688 19.554 138.707 19.4607 138.744 19.386C138.791 19.3113 138.837 19.2553 138.884 19.218L141.292 17.006H137.344C137.241 17.006 137.157 16.9733 137.092 16.908C137.027 16.8427 136.994 16.7633 136.994 16.67V15.55C136.994 15.4473 137.027 15.3633 137.092 15.298C137.157 15.2327 137.241 15.2 137.344 15.2H143.56C143.663 15.2 143.747 15.2327 143.812 15.298C143.877 15.3633 143.91 15.4473 143.91 15.55V16.558C143.91 16.6607 143.891 16.7493 143.854 16.824C143.817 16.8893 143.77 16.9407 143.714 16.978L141.432 19.232L141.572 19.246C142.123 19.302 142.613 19.4373 143.042 19.652C143.471 19.8667 143.807 20.1747 144.05 20.576C144.302 20.968 144.428 21.4673 144.428 22.074C144.428 22.7087 144.255 23.2547 143.91 23.712C143.565 24.1693 143.093 24.524 142.496 24.776C141.899 25.0187 141.217 25.14 140.452 25.14Z" fill="#0B132A"/>
<rect x="162" y="2" width="38" height="38" rx="5" fill="white"/>
<path d="M181 19C180.604 19 180.218 19.1173 179.889 19.3371C179.56 19.5568 179.304 19.8692 179.152 20.2346C179.001 20.6001 178.961 21.0022 179.038 21.3902C179.116 21.7781 179.306 22.1345 179.586 22.4142C179.865 22.6939 180.222 22.8844 180.61 22.9616C180.998 23.0387 181.4 22.9991 181.765 22.8478C182.131 22.6964 182.443 22.44 182.663 22.1111C182.883 21.7822 183 21.3956 183 21C183 20.4696 182.789 19.9609 182.414 19.5858C182.039 19.2107 181.53 19 181 19ZM174 19C173.604 19 173.218 19.1173 172.889 19.3371C172.56 19.5568 172.304 19.8692 172.152 20.2346C172.001 20.6001 171.961 21.0022 172.038 21.3902C172.116 21.7781 172.306 22.1345 172.586 22.4142C172.865 22.6939 173.222 22.8844 173.61 22.9616C173.998 23.0387 174.4 22.9991 174.765 22.8478C175.131 22.6964 175.443 22.44 175.663 22.1111C175.883 21.7822 176 21.3956 176 21C176 20.4696 175.789 19.9609 175.414 19.5858C175.039 19.2107 174.53 19 174 19ZM188 19C187.604 19 187.218 19.1173 186.889 19.3371C186.56 19.5568 186.304 19.8692 186.152 20.2346C186.001 20.6001 185.961 21.0022 186.038 21.3902C186.116 21.7781 186.306 22.1345 186.586 22.4142C186.865 22.6939 187.222 22.8844 187.61 22.9616C187.998 23.0387 188.4 22.9991 188.765 22.8478C189.131 22.6964 189.443 22.44 189.663 22.1111C189.883 21.7822 190 21.3956 190 21C190 20.4696 189.789 19.9609 189.414 19.5858C189.039 19.2107 188.53 19 188 19Z" fill="#0B132A"/>
<rect x="202" y="2" width="38" height="38" rx="5" fill="white"/>
<path d="M215.878 25C215.785 25 215.701 24.9673 215.626 24.902C215.561 24.8367 215.528 24.7527 215.528 24.65V17.692L213.512 19.246C213.428 19.3113 213.339 19.3347 213.246 19.316C213.162 19.2973 213.087 19.246 213.022 19.162L212.322 18.252C212.266 18.168 212.243 18.0793 212.252 17.986C212.271 17.8927 212.322 17.818 212.406 17.762L215.598 15.298C215.654 15.2607 215.705 15.2373 215.752 15.228C215.808 15.2093 215.869 15.2 215.934 15.2H217.418C217.511 15.2 217.591 15.2327 217.656 15.298C217.721 15.3633 217.754 15.4473 217.754 15.55V24.65C217.754 24.7527 217.721 24.8367 217.656 24.902C217.591 24.9673 217.511 25 217.418 25H215.878ZM224.215 25.14C223.543 25.14 222.965 25.0467 222.479 24.86C222.003 24.664 221.607 24.398 221.289 24.062C220.981 23.7167 220.748 23.32 220.589 22.872C220.44 22.4147 220.351 21.9293 220.323 21.416C220.314 21.164 220.305 20.884 220.295 20.576C220.295 20.2587 220.295 19.9413 220.295 19.624C220.305 19.3067 220.314 19.0173 220.323 18.756C220.342 18.2427 220.431 17.762 220.589 17.314C220.757 16.866 221 16.474 221.317 16.138C221.635 15.802 222.031 15.5407 222.507 15.354C222.993 15.158 223.562 15.06 224.215 15.06C224.869 15.06 225.433 15.158 225.909 15.354C226.385 15.5407 226.782 15.802 227.099 16.138C227.417 16.474 227.655 16.866 227.813 17.314C227.981 17.762 228.079 18.2427 228.107 18.756C228.117 19.0173 228.121 19.3067 228.121 19.624C228.131 19.9413 228.131 20.2587 228.121 20.576C228.121 20.884 228.117 21.164 228.107 21.416C228.079 21.9293 227.986 22.4147 227.827 22.872C227.669 23.32 227.431 23.7167 227.113 24.062C226.805 24.398 226.409 24.664 225.923 24.86C225.447 25.0467 224.878 25.14 224.215 25.14ZM224.215 23.32C224.757 23.32 225.153 23.1427 225.405 22.788C225.657 22.4333 225.793 21.9527 225.811 21.346C225.821 21.0753 225.825 20.7953 225.825 20.506C225.835 20.2167 225.835 19.9273 225.825 19.638C225.825 19.3487 225.821 19.078 225.811 18.826C225.793 18.2473 225.657 17.776 225.405 17.412C225.153 17.048 224.757 16.8613 224.215 16.852C223.665 16.8613 223.263 17.048 223.011 17.412C222.769 17.776 222.638 18.2473 222.619 18.826C222.61 19.078 222.601 19.3487 222.591 19.638C222.591 19.9273 222.591 20.2167 222.591 20.506C222.601 20.7953 222.61 21.0753 222.619 21.346C222.638 21.9527 222.773 22.4333 223.025 22.788C223.277 23.1427 223.674 23.32 224.215 23.32Z" fill="#0B132A"/>
<rect x="242" y="2" width="38" height="38" rx="5" fill="white"/>
<path d="M263.95 20.4083L259.233 15.7C259.156 15.6219 259.064 15.5599 258.962 15.5176C258.861 15.4753 258.752 15.4535 258.642 15.4535C258.532 15.4535 258.423 15.4753 258.321 15.5176C258.22 15.5599 258.127 15.6219 258.05 15.7C257.895 15.8561 257.808 16.0673 257.808 16.2875C257.808 16.5076 257.895 16.7189 258.05 16.875L262.175 21.0417L258.05 25.1667C257.895 25.3228 257.808 25.534 257.808 25.7542C257.808 25.9743 257.895 26.1855 258.05 26.3417C258.127 26.4204 258.219 26.483 258.321 26.526C258.422 26.5689 258.531 26.5912 258.642 26.5917C258.752 26.5912 258.861 26.5689 258.962 26.526C259.064 26.483 259.156 26.4204 259.233 26.3417L263.95 21.6333C264.035 21.5553 264.102 21.4606 264.148 21.3552C264.194 21.2497 264.218 21.1359 264.218 21.0208C264.218 20.9057 264.194 20.7919 264.148 20.6865C264.102 20.5811 264.035 20.4864 263.95 20.4083V20.4083Z" fill="#0B132A"/>
<rect x="2" y="2" width="38" height="38" rx="5" fill="white"/>
<path d="M18.083 21.6667L22.833 26.3334C23.1663 26.6667 23.6663 26.6667 23.9997 26.3334C24.333 26 24.333 25.5 23.9997 25.1667L19.9163 21L23.9997 16.8334C24.333 16.5 24.333 16 23.9997 15.6667C23.833 15.5 23.6663 15.4167 23.4163 15.4167C23.1663 15.4167 22.9997 15.5 22.833 15.6667L18.083 20.3334C17.7497 20.75 17.7497 21.25 18.083 21.6667C18.083 21.5834 18.083 21.5834 18.083 21.6667Z" fill="#4F5665"/>
</svg>
