<svg width="498" height="450" viewBox="0 0 498 450" fill="none" xmlns="http://www.w3.org/2000/svg">
<g clip-path="url(#clip0_1_1568)">
<path d="M331.692 158.232H165.474C162.62 158.229 159.885 157.094 157.867 155.076C155.85 153.058 154.715 150.322 154.712 147.468V16.8927C154.714 14.802 155.545 12.7975 157.023 11.3191C158.502 9.84065 160.506 9.009 162.596 9.00659H334.434C336.56 9.00901 338.599 9.85502 340.103 11.359C341.606 12.863 342.452 14.9021 342.454 17.0291V147.468C342.451 150.322 341.316 153.058 339.299 155.076C337.281 157.094 334.546 158.229 331.692 158.232Z" fill="#F2F2F2"/>
<path d="M175.91 147.468H321.256C324.024 147.468 326.678 146.368 328.636 144.411C330.593 142.453 331.692 139.798 331.692 137.03V36.8591C331.692 34.0908 330.593 31.4359 328.636 29.4784C326.678 27.5209 324.024 26.4211 321.256 26.4211H175.91C173.142 26.4211 170.487 27.5209 168.53 29.4784C166.573 31.4359 165.474 34.0908 165.474 36.8591V137.03C165.474 139.798 166.573 142.453 168.53 144.411C170.487 146.368 173.142 147.468 175.91 147.468Z" fill="#F2F2F2"/>
<path d="M342.305 16.2769H154.561V10.7967C154.565 7.93334 155.704 5.18856 157.729 3.1645C159.754 1.14043 162.499 0.00237424 165.362 0H331.503C334.366 0.00235182 337.111 1.1404 339.136 3.16447C341.161 5.18854 342.3 7.93333 342.305 10.7967V16.2769Z" fill="url(#paint0_linear_1_1568)"/>
<path d="M174.19 10.9491C175.733 10.9491 176.984 9.69805 176.984 8.15475C176.984 6.61145 175.733 5.36035 174.19 5.36035C172.647 5.36035 171.396 6.61145 171.396 8.15475C171.396 9.69805 172.647 10.9491 174.19 10.9491Z" fill="#F2F2F2"/>
<path d="M184.795 10.9491C186.338 10.9491 187.589 9.69805 187.589 8.15475C187.589 6.61145 186.338 5.36035 184.795 5.36035C183.252 5.36035 182.001 6.61145 182.001 8.15475C182.001 9.69805 183.252 10.9491 184.795 10.9491Z" fill="#F2F2F2"/>
<path d="M195.4 10.9491C196.943 10.9491 198.194 9.69805 198.194 8.15475C198.194 6.61145 196.943 5.36035 195.4 5.36035C193.857 5.36035 192.606 6.61145 192.606 8.15475C192.606 9.69805 193.857 10.9491 195.4 10.9491Z" fill="#F2F2F2"/>
<path d="M186.606 73.3634H179.407C179.017 73.363 178.643 73.2077 178.367 72.9316C178.091 72.6555 177.935 72.2812 177.935 71.8908V64.6912C177.935 64.3007 178.091 63.9264 178.367 63.6503C178.643 63.3742 179.017 63.2189 179.407 63.2185H186.606C186.996 63.2189 187.37 63.3742 187.646 63.6503C187.922 63.9264 188.078 64.3007 188.078 64.6912V71.8908C188.078 72.2812 187.922 72.6555 187.646 72.9316C187.37 73.2077 186.996 73.363 186.606 73.3634Z" fill="#F2F2F2"/>
<path d="M186.606 92.017H179.407C179.017 92.0165 178.643 91.8612 178.367 91.5852C178.091 91.3091 177.935 90.9348 177.935 90.5443V83.3447C177.935 82.9543 178.091 82.58 178.367 82.3039C178.643 82.0278 179.017 81.8725 179.407 81.8721H186.606C186.996 81.8725 187.37 82.0278 187.646 82.3039C187.922 82.58 188.078 82.9543 188.078 83.3447V90.5443C188.078 90.9348 187.922 91.3091 187.646 91.5852C187.37 91.8612 186.996 92.0165 186.606 92.017Z" fill="#3F3D56"/>
<path d="M186.606 110.671H179.407C179.017 110.67 178.643 110.515 178.367 110.239C178.091 109.963 177.935 109.588 177.935 109.198V101.998C177.935 101.608 178.091 101.234 178.367 100.957C178.643 100.681 179.017 100.526 179.407 100.526H186.606C186.996 100.526 187.37 100.681 187.646 100.957C187.922 101.234 188.078 101.608 188.078 101.998V109.198C188.078 109.588 187.922 109.963 187.646 110.239C187.37 110.515 186.996 110.67 186.606 110.671Z" fill="#CCCCCC"/>
<path d="M233.721 69.7637H199.039C198.649 69.7628 198.275 69.6073 198 69.3312C197.724 69.0552 197.57 68.681 197.57 68.291C197.57 67.901 197.724 67.5269 198 67.2508C198.275 66.9747 198.649 66.8192 199.039 66.8184H233.721C233.915 66.818 234.107 66.8557 234.286 66.9296C234.465 67.0034 234.627 67.1118 234.764 67.2486C234.901 67.3854 235.01 67.5479 235.084 67.7267C235.159 67.9056 235.197 68.0974 235.197 68.291C235.197 68.4847 235.159 68.6764 235.084 68.8553C235.01 69.0342 234.901 69.1966 234.764 69.3334C234.627 69.4702 234.465 69.5786 234.286 69.6524C234.107 69.7263 233.915 69.7641 233.721 69.7637Z" fill="#CCCCCC"/>
<path d="M233.721 88.4172H199.039C198.649 88.4164 198.275 88.2609 198 87.9848C197.724 87.7087 197.57 87.3346 197.57 86.9446C197.57 86.5545 197.724 86.1804 198 85.9043C198.275 85.6283 198.649 85.4727 199.039 85.4719H233.721C234.112 85.4719 234.486 85.6271 234.762 85.9032C235.039 86.1794 235.194 86.554 235.194 86.9446C235.194 87.3351 235.039 87.7097 234.762 87.9859C234.486 88.2621 234.112 88.4172 233.721 88.4172Z" fill="#CCCCCC"/>
<path d="M233.721 107.071H199.039C198.649 107.07 198.275 106.914 198 106.638C197.724 106.362 197.57 105.988 197.57 105.598C197.57 105.208 197.724 104.834 198 104.558C198.275 104.282 198.649 104.126 199.039 104.125H233.721C233.915 104.125 234.107 104.163 234.286 104.237C234.465 104.311 234.627 104.419 234.764 104.556C234.901 104.693 235.01 104.855 235.084 105.034C235.159 105.213 235.197 105.404 235.197 105.598C235.197 105.792 235.159 105.984 235.084 106.162C235.01 106.341 234.901 106.504 234.764 106.641C234.627 106.777 234.465 106.886 234.286 106.96C234.107 107.033 233.915 107.071 233.721 107.071Z" fill="#CCCCCC"/>
<path d="M319.173 87.4123C319.21 86.7932 319.231 86.1699 319.231 85.5415C319.231 77.3546 315.98 69.5029 310.192 63.7139C304.404 57.9249 296.554 54.6726 288.368 54.6726V87.4123H319.173Z" fill="#F2F2F2"/>
<path d="M286.03 90.2185V57.4788C280.005 57.4785 274.112 59.2418 269.078 62.5512C264.043 65.8607 260.087 70.5715 257.698 76.1028C255.308 81.6341 254.589 87.744 255.629 93.6791C256.67 99.6142 259.424 105.115 263.553 109.503C267.682 113.891 273.004 116.975 278.864 118.373C284.724 119.772 290.865 119.425 296.53 117.374C302.195 115.324 307.137 111.66 310.745 106.835C314.353 102.009 316.47 96.2331 316.835 90.2185H286.03Z" fill="#3F3D56"/>
<path d="M329.184 269.382C329.402 269.678 329.596 269.99 329.765 270.316L362.451 273.992L367.205 267.568L377.836 273.477L368.478 289.081L328.433 278.57C327.414 279.549 326.121 280.196 324.725 280.423C323.33 280.649 321.899 280.446 320.622 279.84C319.345 279.233 318.283 278.252 317.577 277.027C316.871 275.802 316.555 274.391 316.67 272.982C316.785 271.573 317.327 270.233 318.223 269.139C319.118 268.045 320.326 267.25 321.684 266.859C323.043 266.468 324.488 266.5 325.828 266.951C327.167 267.402 328.338 268.25 329.184 269.382Z" fill="#FFB8B8"/>
<path d="M162.402 260.942C161.575 261.428 160.652 261.727 159.698 261.818C158.743 261.908 157.78 261.788 156.877 261.466C155.974 261.144 155.152 260.628 154.47 259.954C153.788 259.281 153.261 258.465 152.928 257.566L129.625 258.052L136.081 247.802L157.22 248.912C158.768 248.452 160.43 248.576 161.892 249.261C163.355 249.945 164.515 251.142 165.154 252.625C165.792 254.108 165.865 255.773 165.358 257.306C164.851 258.839 163.799 260.133 162.402 260.942V260.942Z" fill="#FFB8B8"/>
<path d="M152.16 258.008C151.975 258.626 151.592 259.165 151.07 259.544C150.548 259.923 149.916 260.12 149.272 260.104L106.623 259.021L68.0058 247.585C66.9431 247.27 65.9536 246.747 65.0948 246.047C64.2359 245.346 63.5249 244.482 63.003 243.504C62.4811 242.526 62.1588 241.454 62.0547 240.351C61.9507 239.247 62.0671 238.134 62.397 237.076C62.727 236.018 63.264 235.036 63.9768 234.187C64.6896 233.338 65.564 232.64 66.5492 232.132C67.5343 231.624 68.6105 231.317 69.7153 231.23C70.82 231.142 71.9312 231.274 72.9842 231.619L107.873 243.061L149.749 247.103C150.482 247.177 151.161 247.523 151.652 248.073C152.143 248.624 152.41 249.337 152.401 250.075L152.28 257.219C152.276 257.486 152.236 257.751 152.16 258.008Z" fill="#3F3D56"/>
<path d="M90.3114 441.398L98.3073 441.397L102.112 410.547L90.3101 410.548L90.3114 441.398Z" fill="#FFB8B8"/>
<path d="M88.2712 438.786L104.019 438.785H104.02C105.338 438.785 106.643 439.045 107.86 439.549C109.078 440.054 110.184 440.793 111.116 441.725C112.048 442.657 112.787 443.764 113.292 444.982C113.796 446.2 114.056 447.505 114.056 448.823V449.149L88.2717 449.15L88.2712 438.786Z" fill="#2F2E41"/>
<path d="M66.8302 441.398L74.8261 441.397L78.6307 410.547L66.8289 410.548L66.8302 441.398Z" fill="#FFB8B8"/>
<path d="M64.7903 438.786L80.5381 438.785H80.5387C81.8567 438.785 83.1617 439.045 84.3793 439.549C85.5969 440.054 86.7033 440.793 87.6352 441.725C88.5671 442.657 89.3063 443.764 89.8107 444.982C90.315 446.2 90.5746 447.505 90.5746 448.823V449.149L64.7908 449.15L64.7903 438.786Z" fill="#2F2E41"/>
<path d="M61.4636 316.723L63.373 430.037C63.3791 430.396 63.4591 430.75 63.608 431.076C63.7569 431.403 63.9716 431.695 64.2386 431.935C64.5056 432.174 64.8192 432.357 65.1597 432.47C65.5003 432.583 65.8605 432.624 66.2179 432.592L75.5752 431.741C76.189 431.685 76.7632 431.414 77.1961 430.975C77.6289 430.536 77.8926 429.958 77.9402 429.344L83.4184 358.662C83.4312 358.496 83.5071 358.341 83.6304 358.229C83.7537 358.118 83.9151 358.057 84.0815 358.06C84.248 358.064 84.4069 358.13 84.5257 358.247C84.6445 358.364 84.7141 358.521 84.7204 358.688L87.4586 430.988C87.4841 431.662 87.77 432.301 88.2561 432.769C88.7422 433.237 89.3908 433.499 90.0657 433.499H100.101C100.765 433.499 101.405 433.245 101.889 432.79C102.373 432.334 102.665 431.712 102.705 431.048L109.73 316.071L67.9861 305.633L61.4636 316.723Z" fill="#2F2E41"/>
<path d="M91.7419 210.323C100.589 210.323 107.762 203.15 107.762 194.3C107.762 185.451 100.589 178.277 91.7419 178.277C82.8943 178.277 75.7219 185.451 75.7219 194.3C75.7219 203.15 82.8943 210.323 91.7419 210.323Z" fill="#FFB8B8"/>
<path d="M109.116 320.924C109.101 320.924 109.085 320.924 109.069 320.924L71.6101 320.347C70.8901 320.336 70.1992 320.061 69.669 319.573C69.1388 319.086 68.8062 318.421 68.7347 317.704L68.3106 313.461C68.3026 313.381 68.2649 313.306 68.2049 313.252C68.1449 313.198 68.067 313.168 67.9861 313.168C67.9052 313.168 67.8272 313.198 67.7673 313.252C67.7073 313.306 67.6696 313.381 67.6616 313.461L67.2235 317.843C67.1556 318.529 66.8481 319.169 66.3552 319.651C65.8622 320.133 65.2153 320.426 64.528 320.478L61.8808 320.682C61.4143 320.718 60.9459 320.641 60.5147 320.46C60.0835 320.278 59.7021 319.995 59.4023 319.636C59.1024 319.277 58.8928 318.851 58.7909 318.394C58.689 317.937 58.6978 317.463 58.8165 317.01L61.0959 308.318C65.8126 290.252 66.1921 271.327 62.2033 253.087L61.0706 247.934C60.2167 244.084 60.6076 240.063 62.1866 236.449C63.7657 232.836 66.4515 229.818 69.8565 227.83L77.2141 223.517L80.5523 218.508C81.1983 217.542 82.0678 216.745 83.0871 216.186C84.1065 215.627 85.2456 215.322 86.4079 215.297C91.0646 215.195 99.0526 216.048 100.553 222.858C104.273 224.129 107.493 226.547 109.753 229.763C112.013 232.98 113.195 236.83 113.13 240.76L112.049 318.029C112.039 318.801 111.725 319.536 111.176 320.078C110.627 320.62 109.887 320.924 109.116 320.924Z" fill="#3F3D56"/>
<path d="M90.4886 203.536C90.4229 205.801 88.8507 207.112 86.9205 208.298C84.9902 209.485 82.7338 209.999 80.5232 210.495C80.2263 210.653 79.8938 210.731 79.5578 210.723C79.2217 210.715 78.8934 210.62 78.6047 210.448C78.3159 210.276 78.0763 210.032 77.9091 209.741C77.7418 209.449 77.6526 209.119 77.6499 208.783L75.6225 201.07C74.9053 198.606 74.3833 196.089 74.0616 193.543C73.5733 188.645 74.7341 183.375 78.1527 179.833C81.5713 176.291 87.5 175.033 91.5966 177.762C96.4582 171.551 118.68 185.272 113.199 189.591C112.223 190.359 110.733 189.387 109.495 189.293C108.257 189.199 106.87 189.417 106.084 190.377C105.056 191.633 105.504 193.503 105.08 195.069C104.905 195.62 104.623 196.13 104.249 196.572C103.876 197.013 103.419 197.376 102.904 197.64C102.39 197.903 101.828 198.063 101.252 198.108C100.676 198.154 100.096 198.085 99.5469 197.905C98.5235 197.401 97.5607 196.782 96.6771 196.06C95.7276 195.427 94.5279 194.96 93.4591 195.359C92.0503 195.885 91.5498 197.61 91.4225 199.109C91.2078 200.603 90.8958 202.082 90.4886 203.536Z" fill="#2F2E41"/>
<path opacity="0.2" d="M94.2299 246.48L96.8389 278.446L110.536 311.717L90.3164 279.099L94.2299 246.48Z" fill="black"/>
<path d="M262.739 421.53L119.785 336.704C117.332 335.245 115.559 332.872 114.853 330.107C114.147 327.342 114.567 324.41 116.02 321.954L182.631 209.654C183.7 207.857 185.437 206.558 187.463 206.04C189.488 205.523 191.636 205.831 193.435 206.895L341.222 294.589C343.049 295.676 344.371 297.444 344.897 299.505C345.423 301.566 345.11 303.752 344.027 305.582L277.486 417.764C276.027 420.217 273.655 421.991 270.891 422.697C268.126 423.403 265.194 422.983 262.739 421.53Z" fill="#F2F2F2"/>
<path d="M134.251 332.772L259.255 406.946C261.635 408.359 264.479 408.768 267.161 408.083C269.843 407.398 272.143 405.676 273.555 403.295L324.655 317.145C326.068 314.764 326.476 311.919 325.792 309.237C325.107 306.555 323.385 304.254 321.005 302.842L196.002 228.667C193.621 227.255 190.777 226.846 188.095 227.53C185.414 228.215 183.114 229.937 181.701 232.318L130.601 318.469C129.189 320.85 128.78 323.694 129.464 326.377C130.149 329.059 131.871 331.359 134.251 332.772Z" fill="#F2F2F2"/>
<path d="M344.282 304.859L182.815 209.048L185.611 204.334C187.075 201.874 189.456 200.095 192.23 199.387C195.004 198.68 197.945 199.102 200.408 200.561L343.296 285.348C345.757 286.811 347.537 289.19 348.246 291.965C348.955 294.739 348.535 297.681 347.078 300.146L344.282 304.859Z" fill="url(#paint1_linear_1_1568)"/>
<path d="M203.841 214.874C205.384 214.874 206.635 213.623 206.635 212.08C206.635 210.536 205.384 209.285 203.841 209.285C202.298 209.285 201.047 210.536 201.047 212.08C201.047 213.623 202.298 214.874 203.841 214.874Z" fill="#F2F2F2"/>
<path d="M212.962 220.286C214.505 220.286 215.756 219.035 215.756 217.492C215.756 215.948 214.505 214.697 212.962 214.697C211.419 214.697 210.168 215.948 210.168 217.492C210.168 219.035 211.419 220.286 212.962 220.286Z" fill="#F2F2F2"/>
<path d="M222.082 225.698C223.625 225.698 224.876 224.447 224.876 222.904C224.876 221.36 223.625 220.109 222.082 220.109C220.539 220.109 219.289 221.36 219.289 222.904C219.289 224.447 220.539 225.698 222.082 225.698Z" fill="#F2F2F2"/>
<path d="M308.356 321.214L308.174 321.521L310.012 322.611L310.194 322.305L308.356 321.214Z" fill="#E6E6E6"/>
<path d="M304.462 319.317L300.749 317.114L300.93 316.808L304.643 319.011L304.462 319.317ZM297.036 314.911L293.323 312.708L293.505 312.402L297.218 314.605L297.036 314.911ZM289.61 310.505L285.898 308.302L286.079 307.996L289.792 310.199L289.61 310.505ZM282.185 306.099L278.472 303.896L278.654 303.59L282.367 305.793L282.185 306.099ZM274.759 301.693L271.047 299.49L271.229 299.183L274.941 301.386L274.759 301.693ZM267.334 297.287L263.621 295.084L263.803 294.777L267.516 296.98L267.334 297.287ZM259.908 292.881L256.196 290.677L256.378 290.371L260.09 292.574L259.908 292.881ZM252.483 288.474L248.77 286.271L248.952 285.965L252.665 288.168L252.483 288.474ZM245.057 284.068L241.345 281.865L241.527 281.559L245.239 283.762L245.057 284.068ZM237.632 279.662L233.919 277.459L234.101 277.153L237.814 279.356L237.632 279.662ZM230.207 275.256L226.494 273.053L226.675 272.747L230.388 274.95L230.207 275.256ZM222.781 270.85L219.068 268.647L219.25 268.34L222.963 270.543L222.781 270.85ZM215.356 266.444L211.643 264.241L211.824 263.934L215.537 266.137L215.356 266.444ZM207.93 262.038L204.217 259.834L204.399 259.528L208.112 261.731L207.93 262.038ZM200.504 257.631L196.792 255.428L196.973 255.122L200.686 257.325L200.504 257.631ZM193.079 253.225L189.366 251.022L189.548 250.716L193.261 252.919L193.079 253.225Z" fill="#E6E6E6"/>
<path d="M183.997 247.422L183.816 247.729L185.653 248.819L185.835 248.513L183.997 247.422Z" fill="#E6E6E6"/>
<path d="M231.115 313.9L230.933 314.207L232.771 315.297L232.953 314.991L231.115 313.9Z" fill="#E6E6E6"/>
<path d="M227.275 312.036L223.618 309.866L223.799 309.559L227.457 311.73L227.275 312.036ZM219.96 307.695L216.302 305.525L216.484 305.219L220.142 307.389L219.96 307.695ZM212.645 303.355L208.987 301.184L209.169 300.878L212.827 303.048L212.645 303.355ZM205.33 299.014L201.672 296.844L201.854 296.537L205.511 298.707L205.33 299.014ZM198.014 294.673L194.357 292.503L194.538 292.196L198.196 294.367L198.014 294.673ZM190.699 290.332L187.042 288.162L187.223 287.856L190.881 290.026L190.699 290.332ZM183.384 285.992L179.726 283.821L179.908 283.515L183.566 285.685L183.384 285.992ZM176.069 281.651L172.411 279.481L172.593 279.174L176.25 281.345L176.069 281.651Z" fill="#E6E6E6"/>
<path d="M167.097 275.914L166.916 276.22L168.754 277.311L168.935 277.004L167.097 275.914Z" fill="#E6E6E6"/>
<path d="M187.282 306.115L187.1 306.421L188.938 307.512L189.119 307.205L187.282 306.115Z" fill="#E6E6E6"/>
<path d="M183.337 304.188L179.574 301.955L179.755 301.649L183.519 303.882L183.337 304.188ZM175.811 299.722L172.047 297.489L172.229 297.183L175.992 299.416L175.811 299.722ZM168.284 295.256L164.521 293.023L164.703 292.717L168.466 294.95L168.284 295.256Z" fill="#E6E6E6"/>
<path d="M159.102 289.394L158.92 289.7L160.758 290.79L160.94 290.484L159.102 289.394Z" fill="#E6E6E6"/>
<path d="M173.637 329.118L173.455 329.425L175.293 330.515L175.475 330.209L173.637 329.118Z" fill="#E6E6E6"/>
<path d="M169.692 327.192L165.929 324.959L166.111 324.653L169.874 326.886L169.692 327.192ZM162.166 322.726L158.403 320.493L158.584 320.187L162.348 322.42L162.166 322.726ZM154.64 318.26L150.876 316.027L151.058 315.721L154.821 317.954L154.64 318.26Z" fill="#E6E6E6"/>
<path d="M145.457 312.397L145.275 312.704L147.113 313.794L147.295 313.488L145.457 312.397Z" fill="#E6E6E6"/>
<path d="M155.498 319.087L261.429 381.945C263.996 383.464 267.06 383.903 269.95 383.165C272.84 382.427 275.319 380.573 276.843 378.009L307.795 325.828L307.582 325.71L237.357 343.638L231.794 321.853C231.693 321.45 231.499 321.077 231.229 320.761C230.959 320.446 230.619 320.197 230.237 320.035C229.652 319.799 229.006 319.763 228.399 319.932L191.598 329.326L187.53 313.398C187.443 313.054 187.288 312.731 187.076 312.447C186.863 312.163 186.597 311.924 186.292 311.743C185.987 311.561 185.649 311.442 185.298 311.392C184.947 311.341 184.589 311.361 184.245 311.449C183.997 311.515 160.05 317.861 155.498 319.087Z" fill="#F2F2F2"/>
<path d="M154.864 319.125L154.776 318.78L184.225 311.261C185.003 311.063 185.828 311.182 186.518 311.592C187.208 312.001 187.708 312.668 187.907 313.446L191.892 329.06L228.489 319.716C229.267 319.518 230.091 319.637 230.782 320.047C231.472 320.456 231.972 321.123 232.171 321.901L237.651 343.373L308.242 325.349L308.33 325.694L237.394 343.806L231.826 321.989C231.739 321.649 231.586 321.329 231.376 321.049C231.166 320.768 230.902 320.531 230.601 320.352C230.299 320.173 229.965 320.055 229.618 320.005C229.271 319.955 228.917 319.974 228.577 320.061L191.635 329.494L187.562 313.534C187.386 312.848 186.945 312.259 186.336 311.898C185.727 311.537 185 311.432 184.313 311.606L154.864 319.125Z" fill="#3F3D56"/>
<path d="M189.029 309.852C190.406 309.852 191.522 308.736 191.522 307.359C191.522 305.981 190.406 304.865 189.029 304.865C187.652 304.865 186.536 305.981 186.536 307.359C186.536 308.736 187.652 309.852 189.029 309.852Z" fill="#3F3D56"/>
<path d="M232.862 317.637C234.239 317.637 235.355 316.521 235.355 315.144C235.355 313.767 234.239 312.65 232.862 312.65C231.485 312.65 230.369 313.767 230.369 315.144C230.369 316.521 231.485 317.637 232.862 317.637Z" fill="#3F3D56"/>
<path d="M309.226 323.642C310.603 323.642 311.719 322.526 311.719 321.149C311.719 319.772 310.603 318.655 309.226 318.655C307.85 318.655 306.733 319.772 306.733 321.149C306.733 322.526 307.85 323.642 309.226 323.642Z" fill="#3F3D56"/>
<path d="M113.739 324.107C112.991 323.507 112.384 322.75 111.961 321.889C111.537 321.029 111.308 320.086 111.288 319.127C111.268 318.168 111.459 317.217 111.847 316.34C112.234 315.462 112.81 314.681 113.532 314.05L104.806 292.433L116.678 294.831L123.144 314.991C124.123 316.275 124.598 317.874 124.477 319.484C124.356 321.094 123.649 322.604 122.49 323.728C121.331 324.851 119.799 325.511 118.187 325.581C116.574 325.651 114.991 325.126 113.739 324.107Z" fill="#FFB8B8"/>
<path d="M113.594 314.741C112.951 314.787 112.311 314.621 111.771 314.267C111.232 313.914 110.824 313.393 110.61 312.784L96.4834 272.521L93.4645 232.352C93.3813 231.247 93.5186 230.136 93.8685 229.084C94.2184 228.032 94.7738 227.06 95.5025 226.225C96.2313 225.39 97.1187 224.708 98.1133 224.219C99.1079 223.73 100.19 223.444 101.296 223.377C102.402 223.31 103.511 223.463 104.557 223.828C105.604 224.194 106.567 224.763 107.391 225.504C108.215 226.245 108.884 227.143 109.359 228.145C109.833 229.147 110.103 230.233 110.154 231.34L111.845 268.025L122.931 308.615C123.122 309.327 123.039 310.085 122.7 310.74C122.36 311.394 121.787 311.897 121.095 312.151L114.374 314.573C114.123 314.664 113.861 314.721 113.594 314.741Z" fill="#3F3D56"/>
<path d="M375.513 279.065C375.25 278.95 375.004 278.797 374.785 278.611L361.648 267.542C361.332 267.276 361.075 266.948 360.893 266.577C360.71 266.207 360.607 265.802 360.589 265.39C360.571 264.977 360.639 264.565 360.788 264.18C360.937 263.795 361.165 263.445 361.456 263.153L373.377 251.18C373.877 250.673 374.544 250.363 375.254 250.307C375.964 250.25 376.671 250.451 377.245 250.872L386.26 257.42C386.823 257.829 387.225 258.421 387.397 259.095C387.57 259.769 387.502 260.482 387.205 261.111L379.406 277.604C379.074 278.306 378.482 278.851 377.755 279.123C377.028 279.396 376.224 279.375 375.513 279.065L375.513 279.065Z" fill="#F2F2F2"/>
<path d="M426.752 435.61L418.906 437.746L406.938 408.493L418.518 405.342L426.752 435.61Z" fill="#FFB8B8"/>
<path d="M412.534 437.071L427.823 432.911L430.416 442.44L405.757 449.15L405.714 448.992C405.038 446.507 405.376 443.855 406.655 441.619C407.934 439.383 410.049 437.748 412.534 437.071Z" fill="#2F2E41"/>
<path d="M359.678 441.599L351.547 441.598L347.678 410.229L359.68 410.229L359.678 441.599Z" fill="#FFB8B8"/>
<path d="M345.575 439.274H361.42V449.15H335.865V448.986C335.865 446.41 336.888 443.94 338.709 442.119C340.53 440.297 343 439.274 345.575 439.274Z" fill="#2F2E41"/>
<path d="M371.927 234.482C380.924 234.482 388.217 227.187 388.217 218.189C388.217 209.19 380.924 201.896 371.927 201.896C362.93 201.896 355.637 209.19 355.637 218.189C355.637 227.187 362.93 234.482 371.927 234.482Z" fill="#FFB8B8"/>
<path d="M359.18 419.232H348.068C347.309 419.231 346.578 418.941 346.025 418.421C345.471 417.9 345.136 417.189 345.087 416.431C341.776 363.785 343.712 326.021 351.182 297.586C351.214 297.462 351.255 297.339 351.303 297.22L351.898 295.732C352.118 295.177 352.5 294.701 352.994 294.366C353.488 294.031 354.072 293.853 354.669 293.855H377.519C377.95 293.855 378.375 293.948 378.766 294.128C379.158 294.308 379.505 294.57 379.785 294.898L382.889 298.52C382.949 298.59 383.006 298.662 383.061 298.738C397.056 318.258 409.598 356.421 424.124 407.715C424.338 408.461 424.253 409.26 423.886 409.944C423.52 410.628 422.901 411.141 422.161 411.375L410.22 415.197C409.534 415.413 408.794 415.375 408.134 415.092C407.473 414.808 406.937 414.296 406.622 413.65L375.633 349.365C375.417 348.915 375.061 348.548 374.619 348.316C374.177 348.085 373.673 348.002 373.18 348.08C372.687 348.158 372.233 348.392 371.884 348.749C371.535 349.105 371.31 349.564 371.242 350.058L362.137 416.651C362.037 417.365 361.683 418.019 361.14 418.493C360.597 418.968 359.901 419.23 359.18 419.232Z" fill="#2F2E41"/>
<path d="M381.636 298.784C381.605 298.784 381.574 298.784 381.542 298.783L353.787 297.907C353.073 297.887 352.39 297.611 351.863 297.129C351.336 296.648 351 295.993 350.916 295.284C347.397 266.798 357.047 259.166 361.359 257.208C361.719 257.045 362.031 256.792 362.265 256.473C362.499 256.155 362.646 255.781 362.693 255.388L363.066 252.402C363.13 251.875 363.334 251.374 363.656 250.952C370.417 242.193 379.649 239.388 384.55 238.495C384.948 238.424 385.356 238.434 385.749 238.525C386.143 238.616 386.513 238.786 386.839 239.025C387.165 239.264 387.439 239.567 387.644 239.915C387.849 240.263 387.982 240.649 388.033 241.049L388.592 245.336C388.649 245.745 388.812 246.132 389.065 246.459C403.165 264.895 387.457 292.116 384.165 297.386C383.896 297.814 383.523 298.166 383.081 298.411C382.638 298.656 382.141 298.784 381.636 298.784Z" fill="#F2F2F2"/>
<path d="M389.85 208.056C388.64 204.387 387.747 200.622 387.181 196.801C387.003 194.576 387.572 192.182 389.192 190.647C392.224 187.775 397.374 189.143 400.544 191.862C405.126 195.791 407.411 201.829 408.274 207.803C409.138 213.777 408.758 219.852 408.966 225.884C409.173 231.917 410.036 238.12 413.111 243.314C416.186 248.508 421.892 252.494 427.911 252.052C430.34 251.921 432.647 250.943 434.431 249.289C435.307 248.455 435.97 247.424 436.365 246.282C436.76 245.139 436.876 243.919 436.702 242.723C439.778 248.232 438.219 255.699 433.63 260.03C429.041 264.362 421.983 265.586 415.951 263.737C409.919 261.888 404.954 257.251 401.989 251.681C399.023 246.111 397.936 239.677 398.094 233.368C398.215 228.524 399.038 223.639 398.22 218.863C397.401 214.087 394.412 209.237 389.7 208.112L389.85 208.056Z" fill="#2F2E41"/>
<path d="M368.686 214.335C367.883 217.02 364.809 218.675 362.045 218.221C360.668 217.935 359.395 217.281 358.36 216.33C357.325 215.378 356.567 214.164 356.166 212.816C355.407 210.086 355.718 207.168 357.036 204.659C357.762 203.156 358.778 201.81 360.024 200.699C361.271 199.588 362.725 198.734 364.302 198.186C365.888 197.66 367.578 197.523 369.228 197.787C370.878 198.051 372.44 198.707 373.784 199.701C373.927 199.098 374.228 198.544 374.656 198.096C375.085 197.648 375.625 197.322 376.221 197.152C377.421 196.829 378.687 196.847 379.877 197.206C383.307 198.184 386.278 200.346 388.263 203.308C390.223 206.261 391.52 209.604 392.064 213.107C393 218.36 392.655 224.1 389.705 228.546C386.755 232.991 380.721 235.617 375.825 233.497C375.52 231.936 376.243 230.364 377.08 229.012C377.916 227.659 378.908 226.342 379.229 224.784C379.551 223.227 378.935 221.321 377.428 220.812C376.143 220.377 374.773 221.081 373.419 221.166C372.65 221.215 371.882 221.06 371.192 220.718C370.502 220.375 369.914 219.857 369.487 219.216C369.06 218.575 368.809 217.832 368.76 217.063C368.71 216.294 368.864 215.526 369.205 214.835L368.686 214.335Z" fill="#2F2E41"/>
<path d="M327.401 281.456C327.67 281.706 327.92 281.976 328.147 282.264L360.94 279.711L364.398 272.506L375.952 276.304L369.703 293.393L328.394 290.621C327.578 291.775 326.43 292.654 325.103 293.139C323.775 293.625 322.331 293.695 320.963 293.341C319.595 292.986 318.367 292.223 317.443 291.153C316.519 290.083 315.942 288.757 315.79 287.351C315.637 285.946 315.916 284.527 316.59 283.284C317.263 282.041 318.299 281.032 319.559 280.392C320.82 279.752 322.245 279.511 323.646 279.702C325.047 279.892 326.357 280.504 327.401 281.456V281.456Z" fill="#FFB8B8"/>
<path d="M375.774 287.687C375.498 287.608 375.234 287.49 374.991 287.336L360.469 278.161C360.119 277.941 359.82 277.65 359.589 277.308C359.358 276.966 359.2 276.579 359.126 276.173C359.052 275.767 359.063 275.35 359.158 274.948C359.254 274.546 359.432 274.169 359.68 273.839L369.859 260.353C370.286 259.783 370.903 259.385 371.599 259.232C372.295 259.079 373.022 259.182 373.649 259.521L383.472 264.778C384.085 265.107 384.564 265.639 384.827 266.283C385.09 266.927 385.119 267.643 384.911 268.307L379.432 285.709C379.198 286.449 378.686 287.069 378.004 287.439C377.321 287.808 376.521 287.897 375.774 287.687Z" fill="#F2F2F2"/>
</g>
<defs>
<linearGradient id="paint0_linear_1_1568" x1="258.137" y1="-2.67627" x2="258.013" y2="19.3201" gradientUnits="userSpaceOnUse">
<stop stop-color="#2161D5"/>
<stop offset="1" stop-color="#5C92F3"/>
</linearGradient>
<linearGradient id="paint1_linear_1_1568" x1="274.268" y1="181.655" x2="268.344" y2="324.4" gradientUnits="userSpaceOnUse">
<stop stop-color="#2161D5"/>
<stop offset="1" stop-color="#5C92F3"/>
</linearGradient>
<clipPath id="clip0_1_1568">
<rect width="497.015" height="450" fill="white"/>
</clipPath>
</defs>
</svg>
