<svg width="413" height="506" viewBox="0 0 413 506" fill="none" xmlns="http://www.w3.org/2000/svg">
<circle cx="255.679" cy="502.679" r="3.11194" transform="rotate(-180 255.679 502.679)" fill="white" fill-opacity="0.3"/>
<circle cx="210.037" cy="502.679" r="3.11194" transform="rotate(-180 210.037 502.679)" fill="white" fill-opacity="0.3"/>
<circle cx="164.395" cy="502.679" r="3.11194" transform="rotate(-180 164.395 502.679)" fill="white" fill-opacity="0.3"/>
<circle cx="118.754" cy="502.679" r="3.11194" transform="rotate(-180 118.754 502.679)" fill="white" fill-opacity="0.3"/>
<circle cx="73.1119" cy="502.679" r="3.11194" transform="rotate(-180 73.1119 502.679)" fill="white" fill-opacity="0.3"/>
<circle cx="255.679" cy="457.037" r="3.11194" transform="rotate(-180 255.679 457.037)" fill="white" fill-opacity="0.3"/>
<circle cx="210.037" cy="457.037" r="3.11194" transform="rotate(-180 210.037 457.037)" fill="white" fill-opacity="0.3"/>
<circle cx="164.395" cy="457.037" r="3.11194" transform="rotate(-180 164.395 457.037)" fill="white" fill-opacity="0.3"/>
<circle cx="118.754" cy="457.037" r="3.11194" transform="rotate(-180 118.754 457.037)" fill="white" fill-opacity="0.3"/>
<circle cx="73.1119" cy="457.037" r="3.11194" transform="rotate(-180 73.1119 457.037)" fill="white" fill-opacity="0.3"/>
<circle cx="255.679" cy="411.395" r="3.11194" transform="rotate(-180 255.679 411.395)" fill="white" fill-opacity="0.3"/>
<circle cx="210.037" cy="411.395" r="3.11194" transform="rotate(-180 210.037 411.395)" fill="white" fill-opacity="0.3"/>
<circle cx="164.396" cy="411.395" r="3.11194" transform="rotate(-180 164.396 411.395)" fill="white" fill-opacity="0.3"/>
<circle cx="118.754" cy="411.395" r="3.11194" transform="rotate(-180 118.754 411.395)" fill="white" fill-opacity="0.3"/>
<circle cx="73.1119" cy="411.395" r="3.11194" transform="rotate(-180 73.1119 411.395)" fill="white" fill-opacity="0.3"/>
<circle cx="255.679" cy="365.754" r="3.11194" transform="rotate(-180 255.679 365.754)" fill="white" fill-opacity="0.3"/>
<circle cx="210.037" cy="365.754" r="3.11194" transform="rotate(-180 210.037 365.754)" fill="white" fill-opacity="0.3"/>
<circle cx="164.396" cy="365.754" r="3.11194" transform="rotate(-180 164.396 365.754)" fill="white" fill-opacity="0.3"/>
<circle cx="118.754" cy="365.754" r="3.11194" transform="rotate(-180 118.754 365.754)" fill="white" fill-opacity="0.3"/>
<circle cx="73.1119" cy="365.754" r="3.11194" transform="rotate(-180 73.1119 365.754)" fill="white" fill-opacity="0.3"/>
<circle cx="255.679" cy="320.112" r="3.11194" transform="rotate(-180 255.679 320.112)" fill="white" fill-opacity="0.3"/>
<circle cx="210.037" cy="320.112" r="3.11194" transform="rotate(-180 210.037 320.112)" fill="white" fill-opacity="0.3"/>
<circle cx="164.396" cy="320.112" r="3.11194" transform="rotate(-180 164.396 320.112)" fill="white" fill-opacity="0.3"/>
<circle cx="118.754" cy="320.112" r="3.11194" transform="rotate(-180 118.754 320.112)" fill="white" fill-opacity="0.3"/>
<circle cx="73.1119" cy="320.112" r="3.11194" transform="rotate(-180 73.1119 320.112)" fill="white" fill-opacity="0.3"/>
<circle cx="255.679" cy="274.47" r="3.11194" transform="rotate(-180 255.679 274.47)" fill="white" fill-opacity="0.3"/>
<circle cx="210.037" cy="274.47" r="3.11194" transform="rotate(-180 210.037 274.47)" fill="white" fill-opacity="0.3"/>
<circle cx="164.396" cy="274.47" r="3.11194" transform="rotate(-180 164.396 274.47)" fill="white" fill-opacity="0.3"/>
<circle cx="118.754" cy="274.47" r="3.11194" transform="rotate(-180 118.754 274.47)" fill="white" fill-opacity="0.3"/>
<circle cx="73.1119" cy="274.47" r="3.11194" transform="rotate(-180 73.1119 274.47)" fill="white" fill-opacity="0.3"/>
<circle cx="255.679" cy="228.828" r="3.11194" transform="rotate(-180 255.679 228.828)" fill="white" fill-opacity="0.3"/>
<circle cx="210.037" cy="228.828" r="3.11194" transform="rotate(-180 210.037 228.828)" fill="white" fill-opacity="0.3"/>
<circle cx="164.396" cy="228.828" r="3.11194" transform="rotate(-180 164.396 228.828)" fill="white" fill-opacity="0.3"/>
<circle cx="118.754" cy="228.828" r="3.11194" transform="rotate(-180 118.754 228.828)" fill="white" fill-opacity="0.3"/>
<circle cx="73.1119" cy="228.828" r="3.11194" transform="rotate(-180 73.1119 228.828)" fill="white" fill-opacity="0.3"/>
<circle cx="255.679" cy="183.186" r="3.11194" transform="rotate(-180 255.679 183.186)" fill="white" fill-opacity="0.3"/>
<circle cx="210.037" cy="183.186" r="3.11194" transform="rotate(-180 210.037 183.186)" fill="white" fill-opacity="0.3"/>
<circle cx="164.396" cy="183.186" r="3.11194" transform="rotate(-180 164.396 183.186)" fill="white" fill-opacity="0.3"/>
<circle cx="118.754" cy="183.186" r="3.11194" transform="rotate(-180 118.754 183.186)" fill="white" fill-opacity="0.3"/>
<circle cx="73.1119" cy="183.186" r="3.11194" transform="rotate(-180 73.1119 183.186)" fill="white" fill-opacity="0.3"/>
<circle cx="255.679" cy="137.545" r="3.11194" transform="rotate(-180 255.679 137.545)" fill="white" fill-opacity="0.3"/>
<circle cx="210.037" cy="137.545" r="3.11194" transform="rotate(-180 210.037 137.545)" fill="white" fill-opacity="0.3"/>
<circle cx="164.396" cy="137.545" r="3.11194" transform="rotate(-180 164.396 137.545)" fill="white" fill-opacity="0.3"/>
<circle cx="118.754" cy="137.545" r="3.11194" transform="rotate(-180 118.754 137.545)" fill="white" fill-opacity="0.3"/>
<circle cx="73.1119" cy="137.545" r="3.11194" transform="rotate(-180 73.1119 137.545)" fill="white" fill-opacity="0.3"/>
<circle cx="255.679" cy="91.903" r="3.11194" transform="rotate(-180 255.679 91.903)" fill="white" fill-opacity="0.3"/>
<circle cx="210.037" cy="91.903" r="3.11194" transform="rotate(-180 210.037 91.903)" fill="white" fill-opacity="0.3"/>
<circle cx="164.396" cy="91.903" r="3.11194" transform="rotate(-180 164.396 91.903)" fill="white" fill-opacity="0.3"/>
<circle cx="118.754" cy="91.903" r="3.11194" transform="rotate(-180 118.754 91.903)" fill="white" fill-opacity="0.3"/>
<circle cx="73.1119" cy="91.903" r="3.11194" transform="rotate(-180 73.1119 91.903)" fill="white" fill-opacity="0.3"/>
<circle cx="239" cy="215.791" r="171.5" stroke="white" stroke-opacity="0.3" stroke-width="5"/>
<circle cx="32.5" cy="33.291" r="30" stroke="white" stroke-opacity="0.3" stroke-width="5"/>
</svg>
