<svg width="24" height="24" viewBox="0 0 24 24" fill="none" xmlns="http://www.w3.org/2000/svg">
<path d="M3 16.5H13C13.1326 16.5 13.2598 16.5527 13.3536 16.6464C13.4473 16.7402 13.5 16.8674 13.5 17C13.5 17.1326 13.4473 17.2598 13.3536 17.3536C13.2598 17.4473 13.1326 17.5 13 17.5H3C2.86739 17.5 2.74021 17.4473 2.64645 17.3536C2.55268 17.2598 2.5 17.1326 2.5 17C2.5 16.8674 2.55268 16.7402 2.64645 16.6464C2.74021 16.5527 2.86739 16.5 3 16.5ZM21 7.5H3C2.86739 7.5 2.74021 7.44732 2.64645 7.35355C2.55268 7.25978 2.5 7.13261 2.5 7C2.5 6.86739 2.55268 6.74022 2.64645 6.64645C2.74021 6.55268 2.86739 6.5 3 6.5H21C21.1326 6.5 21.2598 6.55268 21.3536 6.64645C21.4473 6.74021 21.5 6.86739 21.5 7C21.5 7.13261 21.4473 7.25979 21.3536 7.35355C21.2598 7.44732 21.1326 7.5 21 7.5ZM3 11.5H21C21.1326 11.5 21.2598 11.5527 21.3536 11.6464C21.4473 11.7402 21.5 11.8674 21.5 12C21.5 12.1326 21.4473 12.2598 21.3536 12.3536C21.2598 12.4473 21.1326 12.5 21 12.5H3C2.86739 12.5 2.74021 12.4473 2.64645 12.3536C2.55268 12.2598 2.5 12.1326 2.5 12C2.5 11.8674 2.55268 11.7402 2.64645 11.6464C2.74021 11.5527 2.86739 11.5 3 11.5Z" fill="#44566C" stroke="black"/>
</svg>
