<svg width="500" height="240" viewBox="0 0 500 240" fill="none" xmlns="http://www.w3.org/2000/svg">
<path d="M390.572 35.9243H267.966V33.3975H212.371V35.9243H89.2601C87.0604 35.9243 84.9508 36.7982 83.3953 38.3536C81.8399 39.909 80.9661 42.0187 80.9661 44.2184V212.102C80.9661 214.302 81.8399 216.412 83.3953 217.967C84.9508 219.523 87.0604 220.397 89.2601 220.397H390.572C392.771 220.397 394.881 219.523 396.436 217.967C397.992 216.412 398.866 214.302 398.866 212.102V44.2175C398.865 42.0179 397.991 39.9085 396.436 38.3533C394.881 36.798 392.771 35.9243 390.572 35.9243Z" fill="#3F3D56"/>
<path d="M387.746 50.5806H92.0857V217.363H387.746V50.5806Z" fill="#E6E6E6"/>
<path d="M375.308 59.4006H104.625V203.563H375.308V59.4006Z" fill="white"/>
<path d="M239.663 46.0326C241.338 46.0326 242.696 44.6749 242.696 43C242.696 41.3252 241.338 39.9675 239.663 39.9675C237.988 39.9675 236.631 41.3252 236.631 43C236.631 44.6749 237.988 46.0326 239.663 46.0326Z" fill="url(#paint0_linear_1_1759)"/>
<path d="M407.166 214.331H378.312V212.252C378.312 212.142 378.269 212.037 378.191 211.96C378.114 211.883 378.009 211.839 377.9 211.839H368.007C367.897 211.839 367.792 211.883 367.715 211.96C367.638 212.037 367.594 212.142 367.594 212.252V214.331H361.411V212.252C361.411 212.142 361.368 212.037 361.291 211.96C361.213 211.883 361.108 211.839 360.999 211.839H351.106C350.997 211.839 350.892 211.883 350.814 211.96C350.737 212.037 350.694 212.142 350.694 212.252V214.331H344.511V212.252C344.511 212.142 344.467 212.037 344.39 211.96C344.313 211.883 344.208 211.839 344.099 211.839H334.205C334.096 211.839 333.991 211.883 333.914 211.96C333.837 212.037 333.793 212.142 333.793 212.252V214.331H327.61V212.252C327.61 212.142 327.567 212.037 327.49 211.96C327.412 211.883 327.307 211.839 327.198 211.839H317.305C317.196 211.839 317.091 211.883 317.014 211.96C316.936 212.037 316.893 212.142 316.893 212.252V214.331H310.71V212.252C310.71 212.142 310.666 212.037 310.589 211.96C310.512 211.883 310.407 211.839 310.297 211.839H300.405C300.295 211.839 300.191 211.883 300.113 211.96C300.036 212.037 299.992 212.142 299.992 212.252V214.331H293.809V212.252C293.809 212.142 293.766 212.037 293.688 211.96C293.611 211.883 293.506 211.839 293.397 211.839H283.506C283.397 211.839 283.292 211.883 283.215 211.96C283.137 212.037 283.094 212.142 283.094 212.252V214.331H276.909V212.252C276.909 212.142 276.865 212.037 276.788 211.96C276.71 211.883 276.606 211.839 276.496 211.839H199.001C198.892 211.839 198.787 211.883 198.71 211.96C198.633 212.037 198.589 212.142 198.589 212.252V214.331H192.406V212.252C192.406 212.142 192.363 212.037 192.285 211.96C192.208 211.883 192.103 211.839 191.994 211.839H182.101C181.992 211.839 181.887 211.883 181.809 211.96C181.732 212.037 181.689 212.142 181.689 212.252V214.331H175.506V212.252C175.506 212.142 175.462 212.037 175.385 211.96C175.308 211.883 175.203 211.839 175.093 211.839H165.201C165.091 211.839 164.987 211.883 164.909 211.96C164.832 212.037 164.788 212.142 164.788 212.252V214.331H158.605V212.252C158.605 212.142 158.562 212.037 158.484 211.96C158.407 211.883 158.302 211.839 158.193 211.839H148.3C148.191 211.839 148.086 211.883 148.009 211.96C147.931 212.037 147.888 212.142 147.888 212.252V214.331H141.706V212.252C141.706 212.142 141.663 212.037 141.585 211.96C141.508 211.883 141.403 211.839 141.294 211.839H131.4C131.29 211.839 131.185 211.883 131.108 211.96C131.031 212.037 130.987 212.142 130.987 212.252V214.331H124.804V212.252C124.804 212.142 124.761 212.037 124.684 211.96C124.606 211.883 124.501 211.839 124.392 211.839H114.499C114.39 211.839 114.285 211.883 114.208 211.96C114.13 212.037 114.087 212.142 114.087 212.252V214.331H107.904V212.252C107.904 212.142 107.86 212.037 107.783 211.96C107.706 211.883 107.601 211.839 107.492 211.839H97.5966C97.4873 211.839 97.3824 211.883 97.3051 211.96C97.2277 212.037 97.1843 212.142 97.1843 212.252V214.331H78.2248C75.601 214.331 73.0847 215.373 71.2294 217.228C69.3741 219.084 68.3318 221.6 68.3318 224.224V228.697C68.3318 231.321 69.3741 233.837 71.2294 235.692C73.0847 237.548 75.601 238.59 78.2248 238.59H407.166C409.79 238.59 412.306 237.548 414.162 235.693C416.017 233.837 417.059 231.321 417.059 228.698V224.224C417.059 221.601 416.017 219.084 414.162 217.229C412.306 215.374 409.79 214.331 407.166 214.331V214.331Z" fill="#3F3D56"/>
<path d="M299.816 69.512H180.117V195.337H299.816V69.512Z" fill="#E6E6E6"/>
<path d="M451.441 205.246C458.215 212.516 458.565 223.201 458.565 223.201C458.565 223.201 447.932 222.099 441.157 214.83C434.382 207.56 434.032 196.875 434.032 196.875C434.032 196.875 444.666 197.977 451.441 205.246Z" fill="url(#paint1_linear_1_1759)"/>
<path d="M472.768 216.593C465.499 223.368 454.813 223.718 454.813 223.718C454.813 223.718 455.915 213.084 463.185 206.31C470.454 199.535 481.14 199.185 481.14 199.185C481.14 199.185 480.038 209.819 472.768 216.593Z" fill="url(#paint2_linear_1_1759)"/>
<path d="M470.961 238.17H444.223C443.71 238.17 443.207 238.026 442.772 237.754C442.337 237.482 441.988 237.093 441.763 236.631L435.942 224.665C435.739 224.248 435.645 223.786 435.669 223.323C435.694 222.86 435.836 222.41 436.082 222.017C436.328 221.624 436.67 221.3 437.076 221.075C437.481 220.851 437.938 220.733 438.402 220.733H476.783C477.247 220.733 477.703 220.851 478.109 221.075C478.515 221.3 478.857 221.624 479.103 222.017C479.349 222.41 479.491 222.86 479.515 223.323C479.54 223.786 479.446 224.248 479.243 224.665L473.421 236.632C473.197 237.093 472.847 237.482 472.413 237.754C471.978 238.026 471.475 238.17 470.962 238.17L470.961 238.17Z" fill="#E5E5E5"/>
<path d="M28.7262 205.246C35.5009 212.516 35.8511 223.201 35.8511 223.201C35.8511 223.201 25.2173 222.099 18.4425 214.83C11.6678 207.56 11.3176 196.875 11.3176 196.875C11.3176 196.875 21.9515 197.977 28.7262 205.246Z" fill="#E5E5E5"/>
<path d="M44.0055 238.17H17.2671C16.754 238.17 16.2513 238.026 15.8164 237.754C15.3814 237.482 15.0318 237.093 14.8076 236.631L8.98622 224.665C8.78293 224.248 8.68908 223.786 8.71351 223.323C8.73794 222.86 8.87983 222.41 9.12584 222.017C9.37184 221.624 9.71386 221.3 10.1197 221.075C10.5255 220.851 10.9819 220.733 11.4457 220.733H49.8274C50.2912 220.733 50.7475 220.851 51.1534 221.075C51.5592 221.3 51.9012 221.624 52.1473 222.017C52.3933 222.41 52.5352 222.86 52.5596 223.323C52.584 223.786 52.4902 224.248 52.2869 224.665L46.4655 236.632C46.2412 237.093 45.8917 237.482 45.4567 237.754C45.0218 238.026 44.519 238.17 44.006 238.17L44.0055 238.17Z" fill="#E5E5E5"/>
<path d="M254.409 105.131C263.195 105.131 270.317 98.0084 270.317 89.2226C270.317 80.4368 263.195 73.3145 254.409 73.3145C245.623 73.3145 238.501 80.4368 238.501 89.2226C238.501 98.0084 245.623 105.131 254.409 105.131Z" fill="#A0616A"/>
<path d="M217.807 195.596L228.08 130.922C228.626 127.484 229.899 124.201 231.812 121.292C233.726 118.384 236.237 115.916 239.178 114.053C242.12 112.191 245.424 110.976 248.872 110.489C252.319 110.003 255.831 110.257 259.173 111.233C265.016 112.923 270.019 116.731 273.205 121.912C276.391 127.094 277.531 133.277 276.403 139.254L265.658 197.01L217.807 195.596Z" fill="url(#paint3_linear_1_1759)"/>
<path d="M258.801 207.167C259.596 206.643 260.265 205.95 260.763 205.139C261.261 204.327 261.575 203.416 261.683 202.47C261.791 201.524 261.69 200.566 261.388 199.663C261.085 198.76 260.588 197.935 259.932 197.245L270.552 176.68L258.592 177.956L250.341 197.289C249.26 198.469 248.647 200.005 248.62 201.605C248.593 203.206 249.153 204.761 250.194 205.977C251.236 207.192 252.686 207.985 254.272 208.204C255.857 208.424 257.468 208.055 258.801 207.168L258.801 207.167Z" fill="#A0616A"/>
<path d="M261.075 193.617C260.488 193.534 259.94 193.274 259.504 192.872L255.441 189.117C255.002 188.71 254.699 188.177 254.572 187.592C254.446 187.007 254.502 186.396 254.734 185.844L262.854 166.596L261.702 128.563C262.039 126.096 263.342 123.863 265.324 122.357C267.307 120.85 269.807 120.192 272.275 120.529C274.742 120.866 276.975 122.169 278.481 124.151C279.988 126.134 280.645 128.634 280.309 131.101L282.279 155.01C282.877 162.266 280.82 169.492 276.49 175.345L263.826 192.465C263.582 192.794 263.272 193.068 262.915 193.27C262.559 193.471 262.164 193.595 261.756 193.633C261.53 193.655 261.301 193.65 261.075 193.617Z" fill="url(#paint4_linear_1_1759)"/>
<path d="M162.799 80.5552C162.972 81.4914 163.349 82.3782 163.902 83.1532C164.455 83.9282 165.171 84.5725 166 85.0407C166.829 85.5089 167.751 85.7897 168.7 85.8632C169.65 85.9366 170.603 85.8011 171.495 85.4661L186.292 103.263L189.779 91.7526L175.193 76.6164C174.528 75.1612 173.353 73.9999 171.89 73.3516C170.427 72.7034 168.777 72.6131 167.252 73.0977C165.727 73.5823 164.432 74.6084 163.612 75.9823C162.792 77.3561 162.502 78.9828 162.799 80.5552H162.799Z" fill="#A0616A"/>
<path d="M174.39 87.9322C174.696 87.4236 175.149 87.0202 175.69 86.7757L180.732 84.4982C181.278 84.2529 181.887 84.1813 182.475 84.2931C183.064 84.405 183.604 84.6948 184.022 85.1235L198.581 100.106L234.053 113.874C235.114 114.503 236.041 115.335 236.78 116.323C237.519 117.311 238.056 118.434 238.361 119.629C238.666 120.825 238.732 122.068 238.556 123.289C238.38 124.51 237.965 125.685 237.335 126.745C236.705 127.805 235.872 128.731 234.884 129.47C233.896 130.208 232.772 130.745 231.576 131.049C230.381 131.353 229.137 131.418 227.916 131.241C226.695 131.064 225.521 130.649 224.461 130.018L201.678 122.51C194.762 120.232 188.91 115.52 185.208 109.25L174.381 90.9138C174.173 90.5612 174.041 90.1687 173.995 89.762C173.949 89.3552 173.988 88.9432 174.112 88.5528C174.18 88.3358 174.274 88.1276 174.392 87.9327L174.39 87.9322Z" fill="url(#paint5_linear_1_1759)"/>
<path opacity="0.1" d="M267.313 144.384L266.665 165.11L254.733 185.846L264.696 162.74L267.313 144.384Z" fill="black"/>
<path d="M243.636 81.249C245.277 83.1911 248.053 83.7387 250.615 83.9634C255.817 84.4196 263.382 83.6807 268.466 82.5059C268.829 86.0228 267.839 89.8145 269.911 92.7076C270.882 89.2051 271.446 85.6026 271.593 81.971C271.656 80.4159 271.632 78.8023 270.999 77.3725C270.366 75.9427 268.985 74.7292 267.396 74.7165C268.577 73.8206 269.96 73.2292 271.424 72.9945L266.391 70.4653L267.683 69.1383L258.571 68.5808L261.21 66.9041C257.238 66.3588 253.22 66.2324 249.221 66.5271C247.364 66.6637 245.423 66.9253 243.919 68.0012C242.414 69.077 241.545 71.2151 242.479 72.7947C241.31 72.9867 240.209 73.4741 239.28 74.2106C238.352 74.9471 237.627 75.9085 237.174 77.0035C236.504 78.7038 236.565 80.5926 236.772 82.4045C237.115 85.3025 237.789 88.1516 238.78 90.8965" fill="#2F2E41"/>
<path d="M311.642 41.3969L166.686 74.8628C165.974 75.0262 165.226 74.9007 164.607 74.5136C163.987 74.1266 163.547 73.5097 163.382 72.7982L155.08 36.8406C154.917 36.1288 155.042 35.3811 155.429 34.7617C155.816 34.1423 156.433 33.7017 157.145 33.5366L302.101 0.0706962C302.813 -0.0927562 303.561 0.0328165 304.18 0.419865C304.8 0.806914 305.24 1.42383 305.406 2.13531L313.707 38.0929C313.87 38.8047 313.745 39.5524 313.358 40.1718C312.971 40.7912 312.354 41.2318 311.642 41.3969Z" fill="white"/>
<path d="M311.642 41.3969L166.686 74.8628C165.974 75.0262 165.226 74.9007 164.607 74.5136C163.987 74.1266 163.547 73.5097 163.382 72.7982L155.08 36.8406C154.917 36.1288 155.042 35.3811 155.429 34.7617C155.816 34.1423 156.433 33.7017 157.145 33.5366L302.101 0.0706962C302.813 -0.0927562 303.561 0.0328165 304.18 0.419865C304.8 0.806914 305.24 1.42383 305.406 2.13531L313.707 38.0929C313.87 38.8047 313.745 39.5524 313.358 40.1718C312.971 40.7912 312.354 41.2318 311.642 41.3969ZM157.393 34.6105C156.966 34.7096 156.596 34.974 156.363 35.3457C156.131 35.7174 156.056 36.166 156.154 36.5932L164.455 72.5508C164.554 72.9778 164.819 73.3481 165.19 73.5804C165.562 73.8127 166.011 73.8879 166.438 73.7897L311.395 40.3238C311.822 40.2248 312.192 39.9605 312.424 39.5888C312.656 39.217 312.732 38.7683 312.633 38.3412L304.332 2.38314C304.233 1.95612 303.969 1.58582 303.597 1.35354C303.225 1.12126 302.776 1.04597 302.349 1.14421L157.393 34.6105Z" fill="#E6E6E6"/>
<path d="M207.691 34.4994C207.452 34.5541 207.225 34.6556 207.025 34.7978C206.825 34.9401 206.654 35.1204 206.524 35.3285C206.393 35.5366 206.305 35.7684 206.264 36.0106C206.223 36.2529 206.23 36.5008 206.285 36.7403C206.34 36.9798 206.441 37.2061 206.584 37.4063C206.726 37.6066 206.906 37.7768 207.115 37.9073C207.323 38.0379 207.555 38.1261 207.797 38.167C208.039 38.2079 208.287 38.2007 208.526 38.1458L208.533 38.1443L294.448 18.3092C294.931 18.1969 295.349 17.8977 295.611 17.4773C295.874 17.0568 295.958 16.5495 295.847 16.0666C295.736 15.5837 295.437 15.1649 295.017 14.9019C294.597 14.639 294.09 14.5535 293.607 14.6642L207.691 34.4994Z" fill="#E6E6E6"/>
<path d="M210.216 45.4345C209.976 45.4892 209.75 45.5906 209.55 45.7329C209.349 45.8752 209.179 46.0555 209.049 46.2636C208.918 46.4717 208.83 46.7035 208.789 46.9457C208.748 47.188 208.755 47.4359 208.81 47.6754C208.865 47.9149 208.966 48.1412 209.108 48.3414C209.251 48.5417 209.431 48.7119 209.639 48.8424C209.847 48.973 210.079 49.0612 210.321 49.1021C210.564 49.143 210.812 49.1358 211.051 49.0808L211.057 49.0794L248.027 40.5443C248.51 40.4334 248.93 40.1351 249.193 39.7149C249.457 39.2947 249.543 38.7871 249.432 38.3037C249.321 37.8202 249.023 37.4006 248.603 37.1369C248.183 36.8733 247.675 36.7873 247.192 36.8979L247.186 36.8994L210.216 45.4345Z" fill="#E6E6E6"/>
<path d="M184.204 58.7356C190.402 58.7356 195.426 53.7112 195.426 47.5132C195.426 41.3152 190.402 36.2908 184.204 36.2908C178.006 36.2908 172.981 41.3152 172.981 47.5132C172.981 53.7112 178.006 58.7356 184.204 58.7356Z" fill="url(#paint6_linear_1_1759)"/>
<path d="M183.888 53.9872C183.521 54.0726 183.136 54.0362 182.791 53.8836L182.769 53.874L178.254 51.8241C178.044 51.7291 177.855 51.5937 177.698 51.4256C177.541 51.2575 177.418 51.0601 177.337 50.8446C177.256 50.6291 177.219 50.3998 177.226 50.1698C177.234 49.9397 177.287 49.7135 177.382 49.5039C177.478 49.2944 177.613 49.1057 177.782 48.9486C177.95 48.7916 178.148 48.6692 178.363 48.5886C178.579 48.508 178.808 48.4706 179.038 48.4787C179.268 48.4868 179.494 48.5402 179.704 48.6358L182.63 49.9679L186.735 40.9481C186.927 40.5258 187.279 40.1972 187.714 40.0345C188.148 39.8717 188.63 39.8883 189.052 40.0804L189.027 40.1393L189.053 40.0801C189.475 40.2728 189.804 40.6251 189.966 41.0596C190.129 41.4941 190.112 41.9753 189.921 42.3977L185.093 53.0083C184.981 53.2528 184.814 53.4681 184.605 53.6377C184.397 53.8074 184.152 53.9266 183.89 53.9864L183.888 53.9872Z" fill="white"/>
<defs>
<linearGradient id="paint0_linear_1_1759" x1="239.977" y1="38.9703" x2="239.446" y2="47.1323" gradientUnits="userSpaceOnUse">
<stop stop-color="#2161D5"/>
<stop offset="1" stop-color="#5C92F3"/>
</linearGradient>
<linearGradient id="paint1_linear_1_1759" x1="447.567" y1="192.546" x2="445.097" y2="227.952" gradientUnits="userSpaceOnUse">
<stop stop-color="#2161D5"/>
<stop offset="1" stop-color="#5C92F3"/>
</linearGradient>
<linearGradient id="paint2_linear_1_1759" x1="469.337" y1="195.151" x2="467.336" y2="228.185" gradientUnits="userSpaceOnUse">
<stop stop-color="#2161D5"/>
<stop offset="1" stop-color="#5C92F3"/>
</linearGradient>
<linearGradient id="paint3_linear_1_1759" x1="250.368" y1="95.9837" x2="239.263" y2="212.174" gradientUnits="userSpaceOnUse">
<stop stop-color="#2161D5"/>
<stop offset="1" stop-color="#5C92F3"/>
</linearGradient>
<linearGradient id="paint4_linear_1_1759" x1="269.884" y1="108.407" x2="253.471" y2="204.534" gradientUnits="userSpaceOnUse">
<stop stop-color="#2161D5"/>
<stop offset="1" stop-color="#5C92F3"/>
</linearGradient>
<linearGradient id="paint5_linear_1_1759" x1="209.657" y1="76.498" x2="206.651" y2="140.003" gradientUnits="userSpaceOnUse">
<stop stop-color="#2161D5"/>
<stop offset="1" stop-color="#5C92F3"/>
</linearGradient>
<linearGradient id="paint6_linear_1_1759" x1="185.364" y1="32.6004" x2="183.4" y2="62.8053" gradientUnits="userSpaceOnUse">
<stop stop-color="#2161D5"/>
<stop offset="1" stop-color="#5C92F3"/>
</linearGradient>
</defs>
</svg>
