<svg width="599" height="450" viewBox="0 0 599 450" fill="none" xmlns="http://www.w3.org/2000/svg">
<g clip-path="url(#clip0_1_1282)">
<path opacity="0.4" d="M505.318 173.007C513.241 173.007 519.664 166.584 519.664 158.661C519.664 150.738 513.241 144.315 505.318 144.315C497.395 144.315 490.972 150.738 490.972 158.661C490.972 166.584 497.395 173.007 505.318 173.007Z" fill="url(#paint0_linear_1_1282)"/>
<path opacity="0.4" d="M202.841 94.08C214.136 94.08 223.292 84.9238 223.292 73.6291C223.292 62.3343 214.136 53.1781 202.841 53.1781C191.547 53.1781 182.39 62.3343 182.39 73.6291C182.39 84.9238 191.547 94.08 202.841 94.08Z" fill="url(#paint1_linear_1_1282)"/>
<path opacity="0.4" d="M164.992 97.7429C172.915 97.7429 179.338 91.3199 179.338 83.3967C179.338 75.4735 172.915 69.0505 164.992 69.0505C157.069 69.0505 150.646 75.4735 150.646 83.3967C150.646 91.3199 157.069 97.7429 164.992 97.7429Z" fill="url(#paint2_linear_1_1282)"/>
<path d="M517.334 319.089C505.998 331.499 505.586 349.577 505.586 349.577C505.586 349.577 523.553 347.534 534.889 335.124C546.224 322.713 546.636 304.635 546.636 304.635C546.636 304.635 528.669 306.678 517.334 319.089Z" fill="#3F3D56"/>
<path d="M523.737 322.66C520.307 339.114 505.889 350.027 505.889 350.027C505.889 350.027 497.031 334.262 500.461 317.808C503.891 301.353 518.31 290.44 518.31 290.44C518.31 290.44 527.167 306.205 523.737 322.66Z" fill="url(#paint3_linear_1_1282)"/>
<path d="M509.015 152.873V349.024L443.631 403.037H109.131V197.41L206.733 152.873H509.015Z" fill="#3F3D56"/>
<path opacity="0.1" d="M509.015 152.873V153.659L485.543 169.37L443.631 197.41H109.131L206.733 152.873H509.015Z" fill="black"/>
<path opacity="0.1" d="M509.015 152.873V349.024L443.631 403.037L444.105 196.936L485.543 169.37L508.636 152.873H509.015Z" fill="black"/>
<path d="M420.888 179.879H217.156L232.318 171.351H427.522L420.888 179.879Z" fill="#2F2E41"/>
<path d="M596.724 413.706C596.724 413.706 600.673 430.222 597.083 430.941C593.492 431.659 575.898 431.427 571.59 432.145C567.281 432.863 558.305 431.659 558.305 428.427C558.305 425.196 567.64 423.041 567.64 423.041C567.64 423.041 580.925 415.86 581.284 415.501C581.643 415.142 596.724 413.706 596.724 413.706Z" fill="#2F2E41"/>
<path d="M593.492 316.402C593.492 316.402 592.415 328.61 592.415 329.687C592.415 330.764 593.492 347.64 592.415 348.358C591.338 349.076 593.133 354.103 593.133 355.898C593.133 357.693 598.878 387.495 597.442 398.985C596.006 410.474 599.596 409.397 598.519 410.474C597.442 411.552 597.442 411.552 597.442 413.706C597.442 415.86 585.952 417.656 585.952 417.656L573.385 338.304L579.848 314.607L593.492 316.402Z" fill="#575A89"/>
<path opacity="0.1" d="M593.492 316.402C593.492 316.402 592.415 328.61 592.415 329.687C592.415 330.764 593.492 347.64 592.415 348.358C591.338 349.076 593.133 354.103 593.133 355.898C593.133 357.693 598.878 387.495 597.442 398.985C596.006 410.474 599.596 409.397 598.519 410.474C597.442 411.552 597.442 411.552 597.442 413.706C597.442 415.86 585.952 417.656 585.952 417.656L573.385 338.304L579.848 314.607L593.492 316.402Z" fill="black"/>
<path d="M591.697 418.733C591.697 418.733 595.287 431.659 591.697 432.377C588.106 433.095 570.513 431.554 566.204 432.272C561.895 432.99 552.919 433.095 552.919 429.863C552.919 426.632 562.254 424.478 562.254 424.478C562.254 424.478 575.539 417.296 575.898 416.937C576.257 416.578 591.697 418.733 591.697 418.733Z" fill="#2F2E41"/>
<path d="M596.724 302.04C596.724 302.04 601.032 312.452 596.005 317.838C590.979 323.224 585.234 333.996 585.234 334.714C585.234 335.432 595.287 406.884 593.851 411.552C592.415 416.219 592.774 419.092 593.133 419.81C593.492 420.528 589.542 424.478 585.234 424.478C580.925 424.478 574.462 421.246 573.744 418.374C573.026 415.501 574.821 390.726 574.462 386.059C574.103 381.391 572.308 374.569 571.59 373.133C570.872 371.696 566.922 370.26 566.204 365.952C565.486 361.643 559.741 306.708 561.536 304.912C563.331 303.117 596.724 302.04 596.724 302.04Z" fill="#575A89"/>
<path d="M569.435 219.457C576.178 219.457 581.643 213.992 581.643 207.249C581.643 200.507 576.178 195.042 569.435 195.042C562.693 195.042 557.228 200.507 557.228 207.249C557.228 213.992 562.693 219.457 569.435 219.457Z" fill="#FFB9B9"/>
<path d="M576.976 213.353C576.976 213.353 574.462 226.638 576.258 228.075C578.053 229.511 562.614 231.665 562.614 231.665C562.614 231.665 560.818 214.071 560.459 212.276C560.1 210.481 576.976 213.353 576.976 213.353Z" fill="#FFB9B9"/>
<path d="M560.459 230.588C560.459 230.588 564.768 218.021 582.361 221.612C582.361 221.612 585.593 222.689 584.516 223.766C583.439 224.843 582.361 224.843 583.798 225.92C585.234 226.997 587.029 225.92 585.952 226.997C584.875 228.075 595.647 234.537 594.928 246.745C594.21 258.953 597.442 276.188 594.928 279.06C592.415 281.933 596.724 294.5 596.006 297.013C595.287 299.526 600.314 302.758 598.16 303.835C596.006 304.912 557.228 311.375 556.15 303.835C555.073 296.295 555.791 301.681 554.714 299.885C553.637 298.09 553.278 294.859 553.996 290.909C554.714 286.959 556.51 277.265 555.791 273.674C555.073 270.084 555.791 239.923 557.946 236.333C560.1 232.742 560.459 230.588 560.459 230.588Z" fill="url(#paint4_linear_1_1282)"/>
<path d="M568 318.197C568 318.197 573.385 338.663 566.563 338.663C559.741 338.663 560.1 317.479 560.1 317.479L568 318.197Z" fill="#FFB9B9"/>
<path d="M564.05 207.249C564.05 208.291 565.558 208.951 567.895 209.102H567.899C568.89 209.158 569.884 209.139 570.872 209.045C572.365 208.908 572.983 210.312 573.238 212.165C573.655 215.22 573.073 219.504 573.744 220.175C574.671 221.102 581.424 220.172 583.536 218.071C583.864 217.777 584.083 217.379 584.157 216.944C584.378 215.661 585.011 214.485 585.959 213.594C587.205 212.233 588.979 210.725 590.979 208.327C594.569 204.018 590.979 203.659 589.902 200.427C588.825 197.196 587.029 196.119 587.029 193.964C587.029 191.81 578.771 190.015 571.949 190.374C565.127 190.733 566.563 199.35 566.563 199.35C566.563 199.35 566.157 200.391 565.673 201.734C565.017 203.419 564.484 205.15 564.079 206.912C564.062 207.024 564.052 207.136 564.05 207.249V207.249Z" fill="#2F2E41"/>
<path opacity="0.1" d="M565.486 235.974C565.486 235.974 577.694 235.256 578.771 253.208C579.848 271.161 579.489 288.037 579.489 288.396C579.489 288.755 574.462 322.865 569.794 322.865C565.127 322.865 561.536 322.147 560.459 320.352C559.382 318.556 563.332 292.704 563.332 292.704C563.332 292.704 565.127 265.416 562.254 256.799C559.382 248.182 559.023 237.051 565.486 235.974Z" fill="black"/>
<path d="M563.691 234.178C563.691 234.178 575.899 233.46 576.976 251.413C578.053 269.366 577.694 286.241 577.694 286.601C577.694 286.96 572.667 321.07 568 321.07C563.332 321.07 559.741 320.352 558.664 318.556C557.587 316.761 561.537 290.909 561.537 290.909C561.537 290.909 563.332 263.621 560.459 255.004C557.587 246.386 557.228 235.256 563.691 234.178Z" fill="url(#paint5_linear_1_1282)"/>
<path d="M361.258 58.668C361.258 58.668 355.938 43.5939 352.095 48.323C348.253 53.0521 358.007 61.0325 358.007 61.0325L361.258 58.668Z" fill="#A0616A"/>
<path d="M386.381 43.8895L383.181 45.0756C383.181 45.0756 381.652 51.8698 382.243 53.0521C382.834 54.2344 383.13 53.3477 382.243 55.7123C381.356 58.0768 378.696 64.2838 378.401 65.1705C378.105 66.0572 361.258 59.5547 361.258 56.3034C361.258 56.3034 357.711 60.4414 355.938 61.3281C355.938 61.3281 375.445 75.5154 378.105 77.2888C380.765 79.0622 382.243 78.1755 384.608 76.1065C386.972 74.0376 397.022 56.8945 397.022 56.8945L386.381 43.8895Z" fill="#575A89"/>
<path d="M377.81 148.817C377.81 148.817 378.105 152.068 378.696 152.363C379.288 152.659 383.721 160.048 378.696 161.526C373.672 163.004 370.716 162.413 369.534 163.004C368.351 163.595 347.662 164.777 347.366 161.526C347.071 158.275 357.415 157.684 357.415 157.684C357.415 157.684 366.874 151.477 368.352 148.225C369.829 144.974 377.81 148.817 377.81 148.817Z" fill="#2F2E41"/>
<path d="M437.81 154.728C437.81 154.728 444.904 166.846 443.13 168.324C441.357 169.802 424.086 175.188 421.554 175.418C418.302 175.713 415.938 173.053 418.598 171.576C421.258 170.098 426.874 163.891 426.874 161.822V156.501L437.81 154.728Z" fill="#2F2E41"/>
<path d="M444.608 75.5154C444.608 75.5154 450.815 83.2002 441.062 95.6141L424.805 116.304C424.805 116.304 434.855 132.265 435.15 140.541C435.446 148.817 437.515 147.043 438.106 150.59C438.697 154.137 441.357 152.364 439.288 155.024C437.219 157.684 429.534 160.048 427.17 157.979C426.356 157.235 425.721 156.317 425.312 155.294C424.903 154.27 424.729 153.168 424.805 152.068C424.805 150.886 420.667 144.088 420.372 142.019C420.076 139.95 409.14 123.102 409.14 123.102C409.14 123.102 405.593 113.053 409.731 107.437C413.869 101.821 416.604 93.8563 416.604 93.8563C416.604 93.8563 404.411 108.619 395.84 112.166C395.84 112.166 392.588 112.757 393.179 114.235C393.77 115.713 393.179 116.6 392.293 118.077C391.406 119.555 385.199 136.698 383.13 141.132C381.061 145.565 381.948 148.226 379.583 149.703C377.219 151.181 366.578 149.999 366.578 148.521C366.578 147.043 368.056 143.201 368.943 141.132C369.829 139.063 376.923 115.122 376.332 110.984C375.741 106.846 376.627 101.23 381.061 98.8654C385.495 96.5009 407.958 77.2888 409.14 77.2888C410.322 77.2888 444.608 75.5154 444.608 75.5154Z" fill="#2F2E41"/>
<path d="M385.199 29.111C392.055 29.111 397.613 23.5531 397.613 16.6971C397.613 9.84105 392.055 4.28315 385.199 4.28315C378.343 4.28315 372.785 9.84105 372.785 16.6971C372.785 23.5531 378.343 29.111 385.199 29.111Z" fill="#A0616A"/>
<path d="M395.248 17.8793C395.248 17.8793 399.091 24.6774 403.82 25.5642C408.549 26.4509 391.406 40.0471 391.406 40.0471C391.406 40.0471 387.268 27.042 383.721 26.4509C380.174 25.8598 395.248 17.8793 395.248 17.8793Z" fill="#A0616A"/>
<path d="M383.13 45.6629C383.13 49.5053 394.657 60.4414 394.657 60.4414L405.593 69.604C405.593 69.604 405.889 72.8553 407.071 73.1508C408.253 73.4464 409.731 73.4464 408.549 75.2198C407.367 76.9932 404.411 80.8356 407.071 81.4268C407.873 81.5487 408.681 81.6257 409.492 81.6573C410.201 81.6987 411.035 81.7371 411.972 81.7726C414.159 81.8494 416.896 81.8997 419.86 81.879C420.703 81.876 421.56 81.8662 422.432 81.8494C433.607 81.6278 446.553 80.342 445.495 76.1065C443.722 69.0129 444.904 66.6483 441.061 62.8059C437.219 58.9635 431.012 45.6629 431.012 45.6629C431.012 45.6629 418.598 24.6774 408.253 24.6774L406.104 24.1129C405.106 23.8498 404.05 23.9076 403.086 24.2778C402.122 24.6481 401.3 25.3121 400.734 26.176C398.659 29.3356 395.387 34.0824 393.475 35.6135C390.519 37.978 390.058 36.2815 390.058 36.2815C390.058 36.2815 383.13 41.8205 383.13 45.6629Z" fill="#575A89"/>
<path d="M409.436 90.5895C409.436 90.5895 400.864 103.89 406.184 106.255C411.504 108.619 414.46 92.3629 414.46 92.3629L409.436 90.5895Z" fill="#A0616A"/>
<path d="M393.314 15.2949C392.838 15.2348 392.687 14.6336 392.607 14.1602C392.177 11.6247 390.288 9.22037 387.749 8.81107C386.779 8.68198 385.792 8.7615 384.855 9.04433C383.512 9.41273 382.252 10.0331 381.141 10.8723C380.597 11.3691 379.969 11.7639 379.285 12.0376C378.819 12.1744 376.842 13.0537 376.379 13.2025C375.363 13.5296 374.523 14.5931 373.476 14.3825C372.475 14.1811 372.095 12.9722 371.934 11.9638C371.567 9.66635 372.882 6.23842 374.19 4.31407C375.182 2.85376 376.861 2.01334 378.54 1.46658C380.506 0.869625 382.527 0.468112 384.572 0.26787C387.333 -0.0582352 390.193 -0.231251 392.839 0.622255C395.486 1.47576 397.895 3.56363 398.389 6.29982C398.492 6.86978 398.511 7.45359 398.637 8.01888C398.945 9.3979 399.858 10.5571 400.39 11.8659C400.774 12.8271 400.952 13.8581 400.913 14.8925C400.874 15.9269 400.619 16.9416 400.164 17.8712C399.427 19.3534 398.145 20.7777 398.422 22.4097L396.141 20.6112C395.811 20.4239 395.556 20.1293 395.417 19.7764C395.279 19.4236 395.265 19.0339 395.379 18.6724L395.711 15.8164C395.826 15.299 395.774 14.7585 395.563 14.2723C394.549 12.5014 394.108 15.3951 393.314 15.2949Z" fill="#2F2E41"/>
<path opacity="0.1" d="M414.756 70.1952L411.972 81.7726C414.78 81.8731 418.495 81.9263 422.432 81.8495C423.425 78.8701 424.374 75.7637 425.101 72.8553C427.761 62.2148 423.327 45.9584 420.963 38.2736C418.598 30.5888 412.687 28.5198 412.687 28.5198C410.263 29.3721 407.974 30.5665 405.889 32.0667C402.046 34.7268 414.756 70.1952 414.756 70.1952Z" fill="black"/>
<path opacity="0.1" d="M412.391 69.604L409.491 81.6573C410.201 81.6987 411.034 81.7371 411.971 81.7726C414.158 81.8495 416.895 81.8997 419.86 81.879C420.927 78.7135 421.959 75.3735 422.736 72.2641C425.396 61.6236 420.963 45.3673 418.598 37.6825C416.233 29.9977 411.061 38.4214 411.061 38.4214C411.061 38.4214 413.13 33.3967 409.287 36.0568C405.445 38.717 412.391 69.604 412.391 69.604Z" fill="black"/>
<path d="M411.504 27.9287C411.504 27.9287 417.416 29.9977 419.78 37.6825C422.145 45.3673 426.578 61.6236 423.918 72.2641C421.258 82.9046 415.642 96.2053 415.642 96.2053C415.642 96.2053 410.026 92.0673 407.957 92.954L413.573 69.604C413.573 69.604 400.864 34.1357 404.706 31.4755C406.792 29.9754 409.081 28.781 411.504 27.9287V27.9287Z" fill="#575A89"/>
<path d="M415.911 176.184L334.136 5.7777L197.403 71.3933L247.69 176.184H415.911Z" fill="#F2F2F2"/>
<path d="M306.464 72.666L233.84 107.517L236.003 112.024L308.627 77.1737L306.464 72.666Z" fill="#3F3D56"/>
<path d="M325.691 112.734L253.067 147.585L255.231 152.093L327.855 117.242L325.691 112.734Z" fill="#3F3D56"/>
<path d="M338.899 49.0901L320.869 57.7427L329.521 75.7734L347.552 67.1208L338.899 49.0901Z" fill="#3F3D56"/>
<path d="M358.127 89.1585L340.097 97.8111L348.749 115.842L366.78 107.189L358.127 89.1585Z" fill="#3F3D56"/>
<path d="M340.142 36.6008L332.716 57.7286L322.706 54.2101L321.336 58.1075L335.231 62.9905L344.039 37.9706L340.142 36.6008Z" fill="#57B894"/>
<path d="M359.37 76.669L351.944 97.7968L341.935 94.279L340.565 98.1757L354.459 103.059L363.267 78.0388L359.37 76.669Z" fill="#57B894"/>
<path d="M7.89183 372.311L44.8369 364.419L36.9451 327.474L5.94179e-05 335.366L7.89183 372.311Z" fill="#F2F2F2"/>
<path d="M43.8094 317.603C43.8094 317.603 30.2394 327.295 34.7627 331.173C39.2861 335.05 48.3327 319.541 48.3327 319.541L43.8094 317.603Z" fill="#FFB9B9"/>
<path d="M106.49 332.465C106.49 332.465 103.905 364.775 103.259 369.298C102.613 373.821 101.967 414.531 100.674 419.055C99.3818 423.578 98.0895 434.563 98.0895 434.563H90.3352C90.3352 434.563 90.9814 414.531 89.0428 406.777C87.1042 399.023 87.7504 377.698 87.7504 377.698C87.7504 377.698 83.8733 339.573 85.8119 334.404C87.7504 329.234 106.49 332.465 106.49 332.465Z" fill="#FFB9B9"/>
<path d="M96.151 432.625C96.151 432.625 99.3819 434.563 99.3819 435.856C99.3819 437.148 98.7357 440.379 99.3819 441.671C100.028 442.964 104.551 448.133 101.967 449.426C99.3819 450.718 87.7505 449.426 87.7505 449.426C87.7505 449.426 88.3967 440.379 89.0429 439.733C89.6891 439.087 88.3967 432.625 88.3967 432.625H96.151Z" fill="#2F2E41"/>
<path d="M57.0922 331.673C57.0922 331.673 56.2713 364.076 56.4391 368.642C56.6069 373.208 52.9764 413.761 53.7868 418.395C54.5973 423.029 54.7295 434.089 54.7295 434.089L62.4409 434.903C62.4409 434.903 63.901 414.914 66.6428 407.406C69.3846 399.898 70.9803 378.624 70.9803 378.624C70.9803 378.624 78.8379 341.116 77.4526 335.772C76.0674 330.427 57.0922 331.673 57.0922 331.673Z" fill="#FFB9B9"/>
<path d="M56.8609 432.365C56.8609 432.365 53.4443 433.953 53.3087 435.239C53.173 436.524 53.4765 439.805 52.6982 441.022C51.9199 442.24 46.879 446.906 49.3138 448.462C51.7486 450.019 63.4515 449.955 63.4515 449.955C63.4515 449.955 63.7584 440.89 63.1837 440.18C62.6089 439.469 64.5724 433.179 64.5724 433.179L56.8609 432.365Z" fill="#2F2E41"/>
<path d="M97.4432 284.001C97.4432 284.001 102.613 284.647 104.551 295.632C106.49 306.617 113.598 334.404 107.782 336.342C101.967 338.281 84.5194 342.158 83.8732 340.865C83.227 339.573 81.9347 336.342 81.9347 336.342C81.9347 336.342 83.8732 342.158 81.2885 342.158C78.7037 342.158 53.5023 338.281 54.1484 336.342C54.7946 334.404 56.087 320.187 56.087 320.187C56.087 320.187 59.9641 296.278 63.8413 292.401C64.9634 291.324 65.8345 290.013 66.3929 288.561C66.9513 287.109 67.1832 285.552 67.0722 284.001H97.4432Z" fill="#2F2E41"/>
<path d="M107.136 278.831C107.136 278.831 98.7356 276.893 97.4432 279.477C96.1508 282.062 100.674 285.939 102.613 285.939C104.551 285.939 107.782 284.001 107.782 284.001L107.136 278.831Z" fill="#FFB9B9"/>
<path d="M89.6891 223.905C96.1129 223.905 101.321 218.697 101.321 212.273C101.321 205.85 96.1129 200.642 89.6891 200.642C83.2652 200.642 78.0576 205.85 78.0576 212.273C78.0576 218.697 83.2652 223.905 89.6891 223.905Z" fill="#FFB9B9"/>
<path d="M87.7504 220.674C87.7504 220.674 85.8118 229.721 87.1041 229.721C88.3965 229.721 77.4113 235.536 77.4113 235.536L69.0108 234.244L66.426 230.367C66.426 230.367 79.996 221.32 79.996 216.151C79.996 210.981 87.7504 220.674 87.7504 220.674Z" fill="#FFB9B9"/>
<path d="M81.9345 229.721C81.9345 229.721 83.8731 228.428 84.5193 228.428H89.6888C90.335 228.428 98.7355 230.367 98.7355 230.367L103.905 259.445C103.905 259.445 94.8584 274.308 101.32 285.939C101.32 285.939 99.3817 284.647 90.335 285.293C81.2883 285.939 65.1336 287.878 64.4874 287.878C63.8412 287.878 63.8412 282.708 64.4874 281.416C65.1336 280.123 63.8412 280.77 63.8412 277.539C63.8412 274.308 61.9026 268.492 61.9026 268.492L52.856 235.536C52.856 235.536 64.4874 229.074 66.426 229.721C68.3645 230.367 74.1803 232.305 75.4726 231.659C76.765 231.013 81.9345 229.721 81.9345 229.721Z" fill="url(#paint6_linear_1_1282)"/>
<path d="M96.7971 231.013L98.7357 230.367C98.7357 230.367 102.613 229.721 107.136 233.598C111.659 237.475 128.461 249.106 128.461 249.106C128.461 249.106 134.922 254.276 132.984 260.092C131.045 265.907 127.814 280.124 118.121 279.477C118.121 279.477 112.306 287.232 109.075 285.939C105.844 284.647 103.259 279.477 105.198 278.831C107.136 278.185 112.306 271.723 112.306 271.723L105.844 259.445H103.905L96.7972 255.568L96.7971 231.013Z" fill="url(#paint7_linear_1_1282)"/>
<path d="M58.0256 234.89L52.8561 235.536C52.8561 235.536 48.3327 237.475 48.9789 245.875C49.6251 254.276 45.1018 292.401 47.0404 296.925C47.0404 296.925 40.5785 318.895 41.8708 319.541C43.1632 320.187 50.9175 324.065 50.2713 321.48C49.6251 318.895 57.3794 300.802 57.3794 300.802C57.3794 300.802 66.4261 291.109 62.549 277.539V266.553L58.0256 234.89Z" fill="url(#paint8_linear_1_1282)"/>
<path d="M99.3694 223.519L91.1546 225.309L90.099 221.264L90.5048 225.45L77.2527 228.337L76.6699 226.104L76.8939 228.415L68.406 230.264L66.5902 212.835C64.7235 205.682 71.5364 198.059 78.6887 196.192L81.8617 195.364C87.1148 193.993 96.6636 195.24 98.0347 200.493C95.635 209.652 91.5442 219.692 99.3694 223.519Z" fill="#2F2E41"/>
</g>
<defs>
<linearGradient id="paint0_linear_1_1282" x1="506.801" y1="139.597" x2="504.291" y2="178.21" gradientUnits="userSpaceOnUse">
<stop stop-color="#2161D5"/>
<stop offset="1" stop-color="#5C92F3"/>
</linearGradient>
<linearGradient id="paint1_linear_1_1282" x1="204.956" y1="46.453" x2="201.377" y2="101.496" gradientUnits="userSpaceOnUse">
<stop stop-color="#2161D5"/>
<stop offset="1" stop-color="#5C92F3"/>
</linearGradient>
<linearGradient id="paint2_linear_1_1282" x1="166.475" y1="64.3329" x2="163.964" y2="102.945" gradientUnits="userSpaceOnUse">
<stop stop-color="#2161D5"/>
<stop offset="1" stop-color="#5C92F3"/>
</linearGradient>
<linearGradient id="paint3_linear_1_1282" x1="513.384" y1="280.643" x2="501.131" y2="359.26" gradientUnits="userSpaceOnUse">
<stop stop-color="#2161D5"/>
<stop offset="1" stop-color="#5C92F3"/>
</linearGradient>
<linearGradient id="paint4_linear_1_1282" x1="578.492" y1="206.748" x2="564.14" y2="321.82" gradientUnits="userSpaceOnUse">
<stop stop-color="#2161D5"/>
<stop offset="1" stop-color="#5C92F3"/>
</linearGradient>
<linearGradient id="paint5_linear_1_1282" x1="569.111" y1="219.887" x2="537.412" y2="328.028" gradientUnits="userSpaceOnUse">
<stop stop-color="#2161D5"/>
<stop offset="1" stop-color="#5C92F3"/>
</linearGradient>
<linearGradient id="paint6_linear_1_1282" x1="81.0193" y1="218.653" x2="74.971" y2="298.537" gradientUnits="userSpaceOnUse">
<stop stop-color="#2161D5"/>
<stop offset="1" stop-color="#5C92F3"/>
</linearGradient>
<linearGradient id="paint7_linear_1_1282" x1="116.961" y1="221.159" x2="109.56" y2="295.778" gradientUnits="userSpaceOnUse">
<stop stop-color="#2161D5"/>
<stop offset="1" stop-color="#5C92F3"/>
</linearGradient>
<linearGradient id="paint8_linear_1_1282" x1="53.7351" y1="220.508" x2="24.8815" y2="331.194" gradientUnits="userSpaceOnUse">
<stop stop-color="#2161D5"/>
<stop offset="1" stop-color="#5C92F3"/>
</linearGradient>
<clipPath id="clip0_1_1282">
<rect width="598.724" height="450" fill="white"/>
</clipPath>
</defs>
</svg>
